<svg width="32" height="32" viewBox="0 0 32 32" fill="none" xmlns="http://www.w3.org/2000/svg">
    <path fill-rule="evenodd" clip-rule="evenodd" d="M8.83111 2.01638C7.93994 2.05949 7.04338 2.18643 6.36896 2.36493C3.70659 3.06955 2.40407 4.79707 2.08002 8.05325C1.99907 8.86662 1.9942 9.39699 2.00334 16.3939C2.01273 23.5955 2.0098 23.3885 2.1143 24.2516C2.4625 27.1279 3.63468 28.7423 5.92495 29.5C6.58531 29.7184 7.30072 29.8503 8.42079 29.9601C8.81083 29.9984 22.2938 30.0168 23.0634 29.9801C26.5857 29.8123 28.487 28.7191 29.3773 26.3495C29.6902 25.5168 29.9033 24.343 29.9462 23.2158C29.9542 23.0072 29.9695 22.8365 29.9803 22.8365C29.9911 22.8365 30 19.7581 30 15.9957C30 11.4411 29.9922 9.15978 29.9767 9.16937C29.9618 9.17857 29.9534 9.1085 29.9534 8.97572C29.9534 8.56235 29.8715 7.73093 29.776 7.17358C29.2704 4.22424 27.7403 2.69236 24.8005 2.19231C24.46 2.1344 24.0559 2.08459 23.5181 2.03421C23.1757 2.00216 9.4689 1.9855 8.83111 2.01638ZM11.3244 6.79426C11.3255 6.99022 11.3824 7.4321 11.4396 7.68712C11.5562 8.20808 11.8087 8.7976 12.1032 9.23704C13.4148 11.1938 15.9269 11.8784 18.0271 10.8514C19.4878 10.1371 20.4625 8.7328 20.6259 7.10691C20.6392 6.97396 20.6502 6.81903 20.6502 6.76261V6.66004H20.3262H20.0023L19.986 6.87596C19.9334 7.57223 19.7315 8.21513 19.3955 8.75649C18.4025 10.3561 16.4554 11.0574 14.695 10.4495C14.102 10.2447 13.6067 9.93149 13.154 9.47491C12.8148 9.13284 12.6089 8.84795 12.4102 8.44575C12.1644 7.94828 12.0491 7.53553 11.9976 6.96933L11.9695 6.66004H11.6466H11.3237L11.3244 6.79426ZM2.00865 16.0204C2.00865 19.7885 2.01136 21.33 2.01465 19.446C2.01793 17.5619 2.01793 14.4789 2.01465 12.5949C2.01136 10.7109 2.00865 12.2523 2.00865 16.0204ZM5.09822 17.8295V19.6619H5.47128H5.84434V18.9149V18.168H6.68373H7.52311V18.9149V19.6619H7.89618H8.26924V17.8295V15.9971H7.89618H7.52311V16.7324V17.4677H6.68373H5.84434V16.7324V15.9971H5.47128H5.09822V17.8295ZM9.30147 17.2167C9.31229 18.5855 9.31352 18.5972 9.48551 18.9579C9.65562 19.3147 9.97268 19.5603 10.3937 19.6613C10.6333 19.7188 11.0698 19.7245 11.312 19.6732C11.7279 19.5851 12.0935 19.3118 12.2638 18.9616C12.4429 18.5932 12.4643 18.3868 12.4654 17.0183L12.4662 15.9971H12.0945H11.7228L11.7146 17.1817C11.7065 18.3467 11.7055 18.3688 11.6533 18.5109C11.5858 18.6942 11.4509 18.8482 11.2874 18.9282C11.0066 19.0658 10.5455 19.0201 10.3273 18.8332C10.2085 18.7313 10.0957 18.5111 10.0644 18.3197C10.0518 18.2424 10.0415 17.6906 10.0414 17.0884L10.0413 15.9971H9.66656H9.29184L9.30147 17.2167ZM14.4037 16.0956C14.38 16.1506 14.0225 16.9623 13.6094 17.8995C13.1962 18.8367 12.8527 19.6169 12.846 19.6333C12.8363 19.6569 12.9131 19.6617 13.2143 19.6566L13.5948 19.6502L13.7599 19.2767L13.925 18.9032H14.7631H15.6013L15.765 19.282L15.9286 19.6607L16.3187 19.6613L16.7087 19.6619L16.6853 19.6094C16.6724 19.5805 16.3119 18.7585 15.8843 17.7828L15.1067 16.0088L14.7768 16.0023L14.447 15.9958L14.4037 16.0956ZM16.5481 16.3297C16.612 16.5127 16.8987 17.3346 17.1851 18.1563L17.7057 19.6502H18.0167H18.3277L18.737 18.4659C18.9621 17.8145 19.1515 17.2815 19.1579 17.2816C19.1643 17.2817 19.3532 17.8146 19.5776 18.4659L19.9857 19.6502H20.2995H20.6134L21.2468 17.8295L21.8802 16.0088L21.506 16.0023C21.3001 15.9988 21.1245 16.004 21.1158 16.014C21.1071 16.024 20.9227 16.5852 20.7062 17.2613C20.4896 17.9373 20.3068 18.487 20.3 18.4828C20.2932 18.4786 20.1043 17.9178 19.8802 17.2365L19.4727 15.9979L19.1682 15.9975L18.8637 15.9971L18.4597 17.2284C18.2375 17.9057 18.0487 18.4676 18.0402 18.4773C18.0317 18.4869 17.9326 18.2086 17.82 17.8587C17.7075 17.5088 17.5265 16.9469 17.4179 16.6098L17.2205 15.9971H16.8261H16.4318L16.5481 16.3297ZM22.4922 17.8295V19.6619H23.8678H25.2435V19.3234V18.9849H24.2292H23.215V18.5298V18.0746H23.8911H24.5673V17.7478V17.421H23.8911H23.215V17.0475V16.674H24.1943H25.1735V16.3356V15.9971H23.8328H22.4922V17.8295ZM26.1295 17.8295V19.6619H26.5026H26.8756V17.8295V15.9971H26.5026H26.1295V17.8295ZM14.487 17.5669C14.3373 17.9168 14.2149 18.2108 14.2149 18.2205C14.2149 18.2301 14.4615 18.238 14.7628 18.238C15.0642 18.238 15.3108 18.2298 15.3108 18.2198C15.3108 18.2027 14.7779 16.9497 14.7651 16.937C14.7618 16.9337 14.6366 17.2172 14.487 17.5669Z" fill="url(#paint-huawei)"/>
    <defs>
        <linearGradient id="paint-huawei" x1="16" y1="2" x2="16" y2="30" gradientUnits="userSpaceOnUse">
            <stop stop-color="#FB6361"/>
            <stop offset="1" stop-color="#ED3F45"/>
        </linearGradient>
    </defs>
</svg>
