<svg width="32" height="32" viewBox="0 0 32 32" fill="none" xmlns="http://www.w3.org/2000/svg">
    <path fill-rule="evenodd" clip-rule="evenodd" d="M18.6938 3.01215C17.1515 1.66262 14.8485 1.66262 13.3062 3.01214L12.3762 3.8259C11.7101 4.40875 10.8729 4.75983 9.99032 4.82644L8.69545 4.92417C6.67902 5.07635 5.07635 6.67902 4.92417 8.69544L4.82644 9.99032C4.75983 10.8729 4.40875 11.7101 3.8259 12.3762L3.01215 13.3062C1.66262 14.8485 1.66262 17.1515 3.01214 18.6938L3.8259 19.6238C4.40875 20.2899 4.75983 21.1271 4.82644 22.0097L4.92417 23.3046C5.07635 25.321 6.67902 26.9237 8.69544 27.0758L9.99032 27.1736C10.8729 27.2402 11.7101 27.5913 12.3762 28.1741L13.3062 28.9879C14.8485 30.3374 17.1515 30.3374 18.6938 28.9879L19.6238 28.1741C20.2899 27.5913 21.1271 27.2402 22.0097 27.1736L23.3046 27.0758C25.321 26.9237 26.9237 25.321 27.0758 23.3046L27.1736 22.0097C27.2402 21.1271 27.5913 20.2899 28.1741 19.6238L28.9879 18.6938C30.3374 17.1515 30.3374 14.8485 28.9879 13.3062L28.1741 12.3762C27.5913 11.7101 27.2402 10.8729 27.1736 9.99032L27.0758 8.69545C26.9237 6.67902 25.321 5.07635 23.3046 4.92417L22.0097 4.82644C21.1271 4.75983 20.2899 4.40875 19.6238 3.8259L18.6938 3.01215ZM10.4394 10.4859C10.2135 10.2714 9.85155 10.2714 9.62568 10.4859C9.39982 10.7005 9.39982 11.081 9.62568 11.2955L11.3693 12.9147C9.41459 14.2815 8.11457 16.4463 8.11457 18.9287C8.11457 18.9476 8.11443 18.971 8.11427 18.9962C8.11392 19.0527 8.11351 19.1179 8.11457 19.16H23.9231C23.9242 19.1179 23.9238 19.0527 23.9234 18.9962C23.9233 18.971 23.9231 18.9476 23.9231 18.9287C23.9231 16.4463 22.6231 14.2815 20.6684 12.9147L22.412 11.2955C22.6379 11.081 22.6379 10.7005 22.412 10.4859C22.1861 10.2714 21.8242 10.2714 21.5983 10.4859L19.7385 12.3364C18.6405 11.7876 17.3457 11.5268 16.0188 11.5268C14.6919 11.5268 13.3972 11.7876 12.2992 12.3364L10.4394 10.4859ZM13.6941 15.9217C13.6941 16.3262 13.3063 16.6156 12.8804 16.6156C12.4545 16.6156 12.1829 16.3262 12.1829 15.9217C12.1829 15.5171 12.4545 15.1121 12.8804 15.1121C13.3063 15.1121 13.6941 15.5171 13.6941 15.9217ZM19.1573 16.6156C19.5832 16.6156 19.8547 16.3262 19.8547 15.9217C19.8547 15.5171 19.5832 15.1121 19.1573 15.1121C18.7314 15.1121 18.3436 15.5171 18.3436 15.9217C18.3436 16.3262 18.7314 16.6156 19.1573 16.6156Z" fill="#7FBA00"/>
</svg>
