<svg width="32" height="32" viewBox="0 0 32 32" fill="none" xmlns="http://www.w3.org/2000/svg">
    <rect x="0.375" y="0.375" width="31.25" height="31.25" rx="4.125" fill="#F7F9FB"/>
    <rect x="0.375" y="0.375" width="31.25" height="31.25" rx="4.125" stroke="#ECF0F5" stroke-width="0.75"/>
    <g clip-path="url(#clip-google-play)">
        <path d="M15.4667 15.5986L7.96826 23.5095C8.05246 23.81 8.20377 24.0871 8.41064 24.3197C8.6175 24.5523 8.87444 24.7342 9.16181 24.8514C9.44918 24.9687 9.75937 25.0183 10.0687 24.9963C10.378 24.9744 10.6782 24.8815 10.9464 24.7248L19.3835 19.886L15.4667 15.5986Z" fill="#EA4335"/>
        <path d="M23.0479 14.2518L19.3993 12.1475L15.2925 15.7765L19.416 19.8726L23.0367 17.7908C23.3575 17.6217 23.6262 17.3674 23.8136 17.0555C24.0011 16.7435 24.1002 16.3859 24.1002 16.0213C24.1002 15.6567 24.0011 15.299 23.8136 14.9871C23.6262 14.6752 23.3575 14.4209 23.0367 14.2518H23.0479Z" fill="#FBBC04"/>
        <path d="M7.96795 8.49707C7.92262 8.6658 7.90007 8.83991 7.9009 9.01471V22.9909C7.90135 23.1656 7.92389 23.3395 7.96795 23.5085L15.7234 15.8002L7.96795 8.49707Z" fill="#4285F4"/>
        <path d="M15.5225 16.0024L19.4002 12.1482L10.9743 7.28695C10.6573 7.10001 10.2968 7.001 9.92947 7C9.48581 6.99912 9.05404 7.14434 8.69996 7.41353C8.34588 7.68272 8.08893 8.06111 7.96826 8.49102L15.5225 16.0024Z" fill="#34A853"/>
    </g>
    <defs>
        <clipPath id="clip-google-play">
            <rect width="18" height="18" fill="white" transform="translate(7 7)"/>
        </clipPath>
    </defs>
</svg>
