<svg width="32" height="32" viewBox="0 0 32 32" fill="none" xmlns="http://www.w3.org/2000/svg">
    <path d="M30 16.0514C30 8.2911 23.7319 2 16 2C8.26808 2 2 8.2911 2 16.0514C2 22.641 6.52032 28.1705 12.6182 29.6892V20.3455H9.73136V16.0514H12.6182V14.2011C12.6182 9.41859 14.7747 7.20184 19.453 7.20184C20.34 7.20184 21.8705 7.37664 22.4966 7.55088V11.4431C22.1662 11.4083 21.5922 11.3909 20.8793 11.3909C18.5838 11.3909 17.6968 12.2637 17.6968 14.5327V16.0514H22.2698L21.4841 20.3455H17.6968V30C24.6279 29.1597 30 23.2356 30 16.0514Z" fill="#0966FF"/>
</svg>
