<svg width="32" height="32" viewBox="0 0 32 32" fill="none" xmlns="http://www.w3.org/2000/svg">
    <path d="M29.7276 16.3226C29.7276 15.3709 29.6504 14.4141 29.4858 13.4779H16.281V18.8689H23.8428C23.529 20.6076 22.5207 22.1456 21.0444 23.123V26.6209H25.5557C28.2049 24.1827 29.7276 20.5818 29.7276 16.3226Z" fill="#4285F4"/>
    <path d="M16.2806 30.0006C20.0563 30.0006 23.2405 28.7608 25.5604 26.6209L21.0491 23.123C19.794 23.9769 18.1736 24.4604 16.2857 24.4604C12.6335 24.4604 9.53674 21.9964 8.42563 18.6837H3.77026V22.2896C6.14681 27.017 10.9874 30.0006 16.2806 30.0006Z" fill="#34A853"/>
    <path d="M8.42042 18.6837C7.834 16.945 7.834 15.0623 8.42042 13.3236V9.71759H3.77021C1.78461 13.6734 1.78461 18.3339 3.77021 22.2896L8.42042 18.6837Z" fill="#FBBC04"/>
    <path d="M16.2806 7.54163C18.2765 7.51077 20.2055 8.2618 21.651 9.6404L25.6479 5.64348C23.117 3.26693 19.758 1.96034 16.2806 2.00149C10.9874 2.00149 6.14681 4.98504 3.77026 9.71756L8.42048 13.3235C9.52645 10.0056 12.6283 7.54163 16.2806 7.54163Z" fill="#EA4335"/>
</svg>