<svg width="32" height="32" viewBox="0 0 32 32" fill="none" xmlns="http://www.w3.org/2000/svg">
    <path d="M4.85866 26.3859C4.1497 26.3859 3.54961 26.1403 3.05838 25.6491C2.56715 25.1579 2.32153 24.5578 2.32153 23.8488V7.87044C2.32153 7.16148 2.56715 6.56139 3.05838 6.07016C3.54961 5.57893 4.1497 5.33331 4.85866 5.33331H26.4511C27.16 5.33331 27.7601 5.57893 28.2514 6.07016C28.7426 6.56139 28.9882 7.16148 28.9882 7.87044V23.8488C28.9882 24.5578 28.7426 25.1579 28.2514 25.6491C27.7601 26.1403 27.16 26.3859 26.4511 26.3859H4.85866ZM15.6549 16.6423L4.42677 9.4628V23.8488C4.42677 23.9748 4.46726 24.0782 4.54824 24.1592C4.62922 24.2402 4.7327 24.2807 4.85866 24.2807H26.4511C26.577 24.2807 26.6805 24.2402 26.7615 24.1592C26.8425 24.0782 26.883 23.9748 26.883 23.8488V9.4628L15.6549 16.6423ZM15.6549 14.4561L26.667 7.43855H4.6427L15.6549 14.4561ZM4.42677 9.4628V7.43855V23.8488C4.42677 23.9748 4.46726 24.0782 4.54824 24.1592C4.62922 24.2402 4.7327 24.2807 4.85866 24.2807H4.42677V9.4628Z" fill="#1968E5"/>
</svg>
