<svg width="32" height="32" viewBox="0 0 32 32" fill="none" xmlns="http://www.w3.org/2000/svg">
    <rect width="32" height="32" rx="16" fill="#ED0A34"/>
    <path d="M15.2178 8.08676C12.6205 8.38383 10.0324 10.5368 9.92556 13.6123C9.85842 15.4901 10.3788 16.8989 12.123 17.2945C12.8799 15.9264 11.8789 15.6246 11.7232 14.6349C11.0838 10.579 16.289 7.81314 19.0129 10.6447C20.8976 12.6054 19.6569 18.6376 16.6171 18.0106C13.7055 17.4117 18.0424 12.6101 15.7183 11.6673C13.8291 10.9011 12.825 14.011 13.7207 15.5558C13.1958 18.2123 12.065 20.7155 12.5228 24.0474C14.0076 22.9436 14.5082 20.8297 14.9187 18.6251C15.6649 19.0894 16.0632 19.5726 17.0154 19.6476C20.5267 19.9259 22.4877 16.0561 22.0085 12.4866C21.5827 9.32196 18.5002 7.71151 15.2178 8.08676Z" fill="white"/>
</svg>
