<svg width="32" height="32" viewBox="0 0 32 32" fill="none" xmlns="http://www.w3.org/2000/svg">
    <rect width="32" height="32" rx="16" fill="#10BC4C"/>
    <path d="M24.0096 8.03516H8V24.059H24.0096V8.03516Z" fill="#10BC4C"/>
    <path fill-rule="evenodd" clip-rule="evenodd" d="M16.0048 8.03516C11.6022 8.03516 8 11.6405 8 16.0471C8 20.4536 11.6022 24.059 16.0048 24.059C20.4074 24.059 24.0096 20.4536 24.0096 16.0471C24.0096 11.6405 20.4475 8.03516 16.0048 8.03516ZM19.687 19.6124C19.5269 19.8527 19.2467 19.9328 19.0066 19.7726C17.1255 18.6109 14.7641 18.3705 11.9624 19.0115C11.6822 19.0916 11.4421 18.8913 11.362 18.6509C11.282 18.3705 11.4821 18.1302 11.7222 18.05C14.7641 17.369 17.4056 17.6495 19.4869 18.9314C19.7671 19.0515 19.8071 19.372 19.687 19.6124ZM20.6476 17.4091C20.4475 17.6895 20.0872 17.8097 19.8071 17.6094C17.6458 16.2874 14.3638 15.8868 11.8423 16.688C11.5221 16.7681 11.1619 16.6079 11.0818 16.2874C11.0018 15.967 11.1619 15.6064 11.4821 15.5263C14.4038 14.645 18.006 15.0856 20.4875 16.6079C20.7276 16.7281 20.8477 17.1287 20.6476 17.4091ZM20.7276 15.1658C18.1661 13.6435 13.8835 13.4833 11.4421 14.2444C11.0418 14.3646 10.6416 14.1242 10.5215 13.7637C10.4014 13.3631 10.6416 12.9625 11.0018 12.8423C13.8435 12.0011 18.5263 12.1613 21.4881 13.9239C21.8483 14.1242 21.9684 14.6049 21.7683 14.9655C21.5681 15.2459 21.0878 15.3661 20.7276 15.1658Z" fill="white"/>
</svg>
