<svg width="32" height="32" viewBox="0 0 32 32" fill="none" xmlns="http://www.w3.org/2000/svg">
    <g clip-path="url(#clip_telegram2)">
        <path d="M16 32C24.8366 32 32 24.8366 32 16C32 7.16344 24.8366 0 16 0C7.16344 0 0 7.16344 0 16C0 24.8366 7.16344 32 16 32Z" fill="url(#paint_telegram2)"/>
        <path fill-rule="evenodd" clip-rule="evenodd" d="M7.24285 15.8311C11.9072 13.7989 15.0175 12.4592 16.5737 11.8119C21.0171 9.96372 21.9404 9.64267 22.5421 9.63207C22.6745 9.62974 22.9704 9.66254 23.1621 9.81809C23.324 9.94944 23.3685 10.1269 23.3899 10.2514C23.4112 10.3759 23.4377 10.6596 23.4166 10.8813C23.1758 13.4112 22.1339 19.5508 21.6039 22.3844C21.3796 23.5834 20.938 23.9855 20.5104 24.0248C19.5813 24.1103 18.8757 23.4108 17.9758 22.8208C16.5676 21.8977 15.7721 21.3231 14.4051 20.4223C12.8254 19.3813 13.8495 18.8092 14.7498 17.8741C14.9854 17.6294 19.0792 13.9058 19.1585 13.568C19.1684 13.5257 19.1776 13.3682 19.084 13.2851C18.9905 13.2019 18.8524 13.2304 18.7527 13.253C18.6115 13.285 16.3619 14.772 12.0038 17.7137C11.3653 18.1522 10.7869 18.3659 10.2687 18.3547C9.69743 18.3423 8.59851 18.0317 7.78158 17.7661C6.77957 17.4404 5.9832 17.2682 6.05255 16.715C6.08867 16.4269 6.48544 16.1323 7.24285 15.8311Z" fill="white"/>
    </g>
    <defs>
        <linearGradient id="paint_telegram2" x1="16" y1="0" x2="16" y2="31.7627" gradientUnits="userSpaceOnUse">
            <stop stop-color="#2AABEE"/>
            <stop offset="1" stop-color="#229ED9"/>
        </linearGradient>
        <clipPath id="clip_telegram2">
            <rect width="32" height="32" fill="white"/>
        </clipPath>
    </defs>
</svg>
