<svg width="32" height="32" viewBox="0 0 32 32" fill="none" xmlns="http://www.w3.org/2000/svg">
    <path fill-rule="evenodd" clip-rule="evenodd" d="M3.87641 14.2217C11.2053 11.0286 16.0924 8.92355 18.5377 7.90648C25.5194 5.00254 26.9702 4.4981 27.9157 4.48144C28.1237 4.47778 28.5887 4.52932 28.8899 4.77373C29.1443 4.98011 29.2143 5.25889 29.2477 5.45456C29.2812 5.65023 29.3229 6.09597 29.2898 6.44425C28.9114 10.4195 27.2744 20.0665 26.4415 24.5188C26.0891 26.4028 25.3952 27.0345 24.7234 27.0963C23.2634 27.2307 22.1548 26.1315 20.7408 25.2046C18.5281 23.7541 17.2781 22.8512 15.1303 21.4359C12.6482 19.8002 14.2572 18.9012 15.6718 17.432C16.042 17.0475 22.4746 11.1966 22.5991 10.6658C22.6146 10.5994 22.6291 10.352 22.4821 10.2213C22.3351 10.0907 22.1181 10.1353 21.9616 10.1709C21.7396 10.2212 18.2049 12.5576 11.3572 17.1799C10.3539 17.8689 9.4451 18.2046 8.63086 18.187C7.73322 18.1676 6.00652 17.6795 4.72289 17.2622C3.14848 16.7504 1.89716 16.4798 2.00613 15.6107C2.06288 15.158 2.68631 14.695 3.87641 14.2217Z" fill="#2AABEE"/>
</svg>
