<svg width="32" height="32" viewBox="0 0 32 32" fill="none" xmlns="http://www.w3.org/2000/svg">
    <path d="M16 0C12.8355 0 9.74207 0.938383 7.11088 2.69649C4.4797 4.45459 2.42894 6.95344 1.21793 9.87706C0.00693254 12.8007 -0.309921 16.0177 0.307443 19.1214C0.924806 22.2251 2.44866 25.0761 4.6863 27.3137C6.92394 29.5513 9.77487 31.0752 12.8786 31.6926C15.9823 32.3099 19.1993 31.9931 22.1229 30.7821C25.0466 29.5711 27.5454 27.5203 29.3035 24.8891C31.0616 22.2579 32 19.1645 32 16C31.9958 11.7578 30.3087 7.69063 27.309 4.69097C24.3094 1.69131 20.2422 0.00423581 16 0ZM25.5024 12.3408V13.3744C25.5024 13.4535 25.4866 13.5318 25.4559 13.6047C25.4251 13.6776 25.3801 13.7436 25.3234 13.7988C25.2667 13.8539 25.1996 13.8972 25.1259 13.926C25.0522 13.9548 24.9735 13.9685 24.8944 13.9664C23.2051 13.8467 21.5891 13.2298 20.2496 12.1936V19.7584C20.2494 20.5957 20.0823 21.4245 19.7582 22.1964C19.434 22.9684 18.9592 23.668 18.3616 24.2544C17.7586 24.8554 17.0421 25.3305 16.2537 25.6518C15.4654 25.9732 14.6209 26.1345 13.7696 26.1264C12.0575 26.1234 10.4143 25.4517 9.1904 24.2544C8.41183 23.4694 7.85104 22.4953 7.5632 21.4278C7.27536 20.3604 7.2704 19.2364 7.54881 18.1664C7.80321 17.1392 8.3168 16.1952 9.0416 15.4256C9.58213 14.7649 10.2635 14.2334 11.0358 13.87C11.8082 13.5065 12.652 13.3202 13.5056 13.3248H14.8176V16.0496C14.8182 16.1287 14.8019 16.2071 14.7698 16.2794C14.7377 16.3518 14.6906 16.4164 14.6315 16.4691C14.5725 16.5218 14.5029 16.5613 14.4274 16.585C14.3519 16.6086 14.2722 16.6159 14.1936 16.6064C13.4318 16.3776 12.611 16.4535 11.9041 16.8181C11.1972 17.1827 10.6594 17.8075 10.4042 18.5609C10.149 19.3142 10.1963 20.1372 10.5361 20.8564C10.8759 21.5756 11.4816 22.1347 12.2256 22.416C12.6576 22.664 13.1408 22.8096 13.6368 22.8432C14.0208 22.8592 14.4048 22.8112 14.7696 22.696C15.3789 22.4909 15.9088 22.1007 16.2855 21.5798C16.6621 21.0588 16.8666 20.4332 16.8704 19.7904V6.0064C16.8702 5.93083 16.8849 5.85597 16.9137 5.78609C16.9424 5.71622 16.9847 5.65271 17.0381 5.5992C17.0914 5.54569 17.1548 5.50324 17.2246 5.47427C17.2944 5.44531 17.3692 5.4304 17.4448 5.4304H19.7088C19.856 5.43019 19.9977 5.48652 20.1046 5.58775C20.2115 5.68898 20.2754 5.82739 20.2832 5.9744C20.366 6.68029 20.5903 7.36223 20.9428 7.97942C21.2952 8.59661 21.7685 9.13636 22.3344 9.5664C23.0994 10.1406 24.0079 10.4927 24.96 10.584C25.1026 10.5962 25.236 10.6596 25.3354 10.7626C25.4348 10.8656 25.4936 11.001 25.5008 11.144L25.5024 12.3408Z" fill="black"/>
</svg>
