<svg width="32" height="32" viewBox="0 0 32 32" fill="none" xmlns="http://www.w3.org/2000/svg">
    <rect width="32" height="32" rx="16" fill="#9146FF"/>
    <path d="M20.3562 17.165L18.0494 19.3052H15.7426L13.7241 21.1779V19.3052H11.1289V11.2793H20.3562V17.165Z" fill="#9146FF"/>
    <path d="M12.3481 9.04254L11.6524 9.73819L10.4351 17.5643L14.0872 19.4773L14.609 20.173L18.0872 18.9556L21.9133 15.9991L22.0872 13.2165L21.9133 9.21645L21.3916 9.04254H12.3481Z" fill="white"/>
    <path d="M11.9285 8.49414L9.04492 11.1694V20.8005H12.5052V23.4758L15.3887 20.8005H17.6955L22.8859 15.985V8.49414H11.9285ZM21.7325 15.4499L19.4256 17.5902H17.1188L15.1003 19.4629V17.5902H12.5052V9.56426H21.7325V15.4499Z" fill="#202229"/>
    <path d="M20.0011 11.4375H18.8477V14.6479H20.0011V11.4375Z" fill="#202229"/>
    <path d="M16.8311 11.4375H15.6777V14.6479H16.8311V11.4375Z" fill="#202229"/>
</svg>
