<svg width="32" height="32" viewBox="0 0 32 32" fill="none" xmlns="http://www.w3.org/2000/svg">
    <rect width="32" height="32" rx="16" fill="#2787F5"/>
    <path fill-rule="evenodd" clip-rule="evenodd" d="M25.3372 11.3925C25.4724 10.9695 25.3372 10.6586 24.6936 10.6586H22.5653C22.0242 10.6586 21.7747 10.9272 21.6394 11.2233C21.6394 11.2233 20.5571 13.6979 19.0239 15.3054C18.5279 15.7707 18.3024 15.9187 18.0318 15.9187C17.8966 15.9187 17.7007 15.7707 17.7007 15.3477V11.3925C17.7007 10.8849 17.5437 10.6586 17.0927 10.6586H13.7483C13.4101 10.6586 13.2068 10.8942 13.2068 11.1175C13.2068 11.5987 13.9733 11.7097 14.0523 13.0634V16.0034C14.0523 16.6479 13.9283 16.7648 13.6577 16.7648C12.9362 16.7648 11.1812 14.2791 10.1403 11.4348C9.9363 10.8819 9.7317 10.6586 9.18778 10.6586H7.05953C6.45145 10.6586 6.32983 10.9272 6.32983 11.2233C6.32983 11.752 7.05136 14.3748 9.68937 17.8435C11.448 20.2123 13.9259 21.4964 16.1806 21.4964C17.5334 21.4964 17.7008 21.2112 17.7008 20.72V18.9296C17.7008 18.3592 17.8289 18.2453 18.2573 18.2453C18.573 18.2453 19.1141 18.3934 20.3768 19.5355C21.8198 20.8892 22.0577 21.4964 22.8694 21.4964H24.9976C25.6057 21.4964 25.9097 21.2112 25.7343 20.6484C25.5424 20.0874 24.8534 19.2736 23.9393 18.3088C23.4432 17.7589 22.6992 17.1667 22.4737 16.8705C22.158 16.4898 22.2482 16.3206 22.4737 15.9822C22.4737 15.9822 25.0666 12.5558 25.3372 11.3925Z" fill="white"/>
</svg>
