<svg width="24" height="24" viewBox="0 0 24 24" fill="none" xmlns="http://www.w3.org/2000/svg">
<path fill-rule="evenodd" clip-rule="evenodd" d="M4.92168 0C2.21461 0 0 2.21493 0 4.92248V19.0782C0 21.7854 2.21461 24 4.92168 24H19.0781C21.7712 24 23.9774 21.808 24 19.1199V4.88099C23.9774 2.19234 21.7712 0 19.0781 0H4.92168Z" fill="url(#paint0_linear_7302_37335)"/>
<path fill-rule="evenodd" clip-rule="evenodd" d="M20.4451 13.9378C20.4451 11.5917 18.1609 9.69336 15.3436 9.69336C12.5262 9.69336 10.2422 11.5917 10.2422 13.9378C10.2422 16.2754 12.5262 18.1737 15.3436 18.1822C15.9257 18.1737 16.4878 18.0908 17.0169 17.9373C17.0561 17.9268 17.0529 17.9273 17.1556 17.9071C17.2582 17.887 17.3475 17.9373 17.425 17.9781L18.5269 18.6311C18.5777 18.6583 18.6077 18.6719 18.6494 18.6719C18.7387 18.6719 18.8146 18.5959 18.8126 18.5087C18.8146 18.4604 18.7992 18.4221 18.7872 18.3817C18.7753 18.3413 18.6385 17.8434 18.5677 17.5292C18.5577 17.4847 18.5522 17.4591 18.5522 17.3748C18.5522 17.2906 18.5959 17.2001 18.6902 17.1211C19.7578 16.3612 20.4451 15.211 20.4451 13.9378ZM13.6098 13.2032C13.269 13.2032 12.9766 12.9109 12.9766 12.5304C12.9766 12.1896 13.269 11.8972 13.6098 11.8972C13.9904 11.8972 14.2825 12.1896 14.2825 12.5304C14.2825 12.9109 13.9904 13.2032 13.6098 13.2032ZM16.9971 13.2032C16.6564 13.2032 16.3639 12.9109 16.3639 12.5304C16.3639 12.1896 16.6564 11.8972 16.9971 11.8972C17.3777 11.8972 17.6699 12.1896 17.6699 12.5304C17.6699 12.9109 17.3777 13.2032 16.9971 13.2032Z" fill="white"/>
<path fill-rule="evenodd" clip-rule="evenodd" d="M3.50806 10.1014C3.50806 11.6216 4.33228 13.0016 5.63026 13.9377C5.72586 14.0081 5.77702 14.0886 5.77698 14.2237C5.77702 14.2704 5.76882 14.3207 5.75269 14.3867C5.64419 14.8307 5.52499 15.3389 5.50782 15.4069C5.49066 15.475 5.46359 15.5204 5.46701 15.5702C5.46359 15.6832 5.5547 15.7743 5.67107 15.7743C5.71175 15.7743 5.74799 15.7577 5.7935 15.7334L7.14029 14.958C7.22556 14.9064 7.32127 14.8798 7.38587 14.8798C7.45048 14.8798 7.55831 14.8999 7.63002 14.9172C8.25441 15.0768 8.92857 15.1766 9.62979 15.1621C9.73955 15.1766 9.85147 15.1737 9.95628 15.1621C9.82993 14.7716 9.7573 14.3536 9.75223 13.9377C9.7573 11.3587 12.2556 9.28089 15.3434 9.28521C15.4493 9.28089 15.5597 9.28437 15.6699 9.28521C15.2091 6.85896 12.6793 5 9.62979 5C6.2475 5 3.50806 7.27828 3.50806 10.1014ZM7.5484 9.28521C7.09755 9.28521 6.73217 8.91987 6.73217 8.46898C6.73217 8.01824 7.09755 7.65275 7.5484 7.65275C7.99926 7.65275 8.36463 8.01824 8.36463 8.46898C8.36463 8.91987 7.99926 9.28521 7.5484 9.28521ZM11.6296 9.28521C11.1787 9.28521 10.8133 8.91987 10.8133 8.46898C10.8133 8.01824 11.1787 7.65275 11.6296 7.65275C12.0803 7.65275 12.4458 8.01824 12.4458 8.46898C12.4458 8.91987 12.0803 9.28521 11.6296 9.28521Z" fill="white"/>
<defs>
<linearGradient id="paint0_linear_7302_37335" x1="0" y1="0" x2="0" y2="24" gradientUnits="userSpaceOnUse">
<stop stop-color="#20D329"/>
<stop offset="1" stop-color="#1BB623"/>
</linearGradient>
</defs>
</svg>
