<svg width="32" height="32" viewBox="0 0 32 32" fill="none" xmlns="http://www.w3.org/2000/svg">
    <path d="M29.9762 15.5856C29.9762 15.5856 30.6239 2 15.6925 2C2.48768 2 2.07515 15.0321 2.07515 15.0321C2.07515 15.0321 0.132882 30 15.9967 30C31.2119 30 29.9762 15.5856 29.9762 15.5856ZM11.5149 10.8384C14.3165 9.12441 17.8957 10.172 19.2368 12.7495C19.4911 13.238 19.5233 13.99 19.3623 14.5025C18.8065 16.2717 17.4944 17.2639 15.6932 17.6854C16.2243 17.2309 16.6469 16.7153 16.7814 16.0031C16.8515 15.6655 16.8499 15.3171 16.7769 14.9801C16.7039 14.6432 16.5609 14.3254 16.3574 14.0472C16.0382 13.6087 15.585 13.286 15.0662 13.1279C14.5474 12.9698 13.9913 12.9848 13.4818 13.1708C12.3728 13.5919 11.7654 14.6039 11.8749 15.848C11.9766 17.0034 12.8534 17.7524 14.4939 18.0369C14.2487 18.1666 14.0599 18.2622 13.8751 18.3652C13.1236 18.7769 12.4697 19.3457 11.9577 20.0328C11.7912 20.2576 11.6768 20.2757 11.4232 20.1207C8.12501 18.1037 7.91296 13.0419 11.5149 10.8384ZM9.04631 23.3012C8.51646 23.4357 8.00303 23.6348 7.46151 23.8125C7.72639 22.0249 9.81948 20.3788 11.5896 20.5666C11.0768 21.273 10.7774 22.1118 10.727 22.9833C10.1388 23.0917 9.58456 23.1645 9.04631 23.3011V23.3012ZM20.32 5.84972C20.8436 5.86895 21.3682 5.86092 21.8921 5.87343C22.023 5.88201 22.1529 5.90012 22.2812 5.92756C22.164 6.10751 22.0317 6.27718 21.8858 6.43473C21.6985 6.60927 21.4868 6.77988 21.217 6.51463C21.152 6.45079 20.9987 6.46544 20.8857 6.46395C20.3647 6.45713 19.843 6.44043 19.3228 6.46012C18.8713 6.47458 18.4215 6.52052 17.9764 6.5976C17.893 6.61253 17.7683 6.88983 17.8067 6.99212C17.8972 7.23339 18.0291 7.49948 18.2246 7.65385C18.947 8.22412 19.7153 8.73605 20.4411 9.3024C21.1463 9.85279 21.8027 10.4558 22.2028 11.286C22.7239 12.3677 22.7391 13.502 22.5144 14.6413C22.1392 16.5433 21.1767 18.119 19.6181 19.2636C18.99 19.7247 18.2125 19.9865 17.4932 20.3178C16.8605 20.6093 16.2094 20.8602 15.5752 21.1485C14.432 21.6684 13.7895 22.9093 13.9785 24.1994C14.1519 25.3834 15.1906 26.3714 16.3804 26.5753C17.8077 26.82 19.2803 25.8925 19.6296 24.4417C20.0221 22.8104 19.1358 21.354 17.4768 20.9125C17.4037 20.8931 17.3304 20.8747 17.1781 20.8353C17.6218 20.6371 18.0051 20.4958 18.359 20.3011C18.9766 19.9612 19.583 19.6013 20.1771 19.222C20.3521 19.11 20.4466 19.11 20.5958 19.2389C21.7368 20.2255 22.4175 21.4526 22.6084 22.9573C22.9242 25.4478 21.7453 27.7357 19.5217 28.9084C16.0814 30.7228 11.8716 28.6577 11.1118 24.8435C10.4609 21.5766 12.7666 18.6131 15.5416 18.041C16.735 17.795 17.8264 17.2981 18.6748 16.379C19.2222 15.786 19.4875 15.2771 19.5779 15.0475C19.7463 14.6172 19.8325 14.1592 19.8319 13.6971C19.8137 13.2973 19.7198 12.9047 19.5552 12.5399C19.2655 11.8796 18.1556 10.8291 17.8808 10.6076L15.2674 8.56171C15.1753 8.48583 15.0715 8.49133 14.8468 8.50655C14.5798 8.52465 13.8971 8.56245 13.6026 8.48527C13.8408 8.30485 14.4904 8.04231 14.7694 7.83128C13.9225 7.25915 12.9559 7.46579 12.0683 7.29489C12.2735 6.91269 13.2891 6.32516 13.8668 6.25983C13.8325 5.93721 13.7799 5.61681 13.7092 5.30017C13.674 5.17035 13.529 5.04444 13.4025 4.97024C13.0959 4.79039 12.7707 4.64199 12.4179 4.46316C12.7337 4.25904 13.0997 4.14586 13.4756 4.13603C13.8317 4.12244 14.1879 4.15711 14.5347 4.23907C15.1639 4.3828 15.6663 4.289 16.1669 3.86125C15.7728 3.70259 15.3788 3.55764 14.9967 3.38619C14.6201 3.21453 14.2531 3.02263 13.8972 2.81135C14.8887 2.94911 15.8476 3.32085 16.8613 3.18505L16.8871 3.04683L14.5324 2.49868C15.9362 2.37025 17.243 2.34897 18.4805 2.95181C18.8288 3.1214 19.1931 3.26177 19.5269 3.45553C19.6897 3.54999 19.7993 3.73628 19.9329 3.88113C20.0389 3.99612 20.1242 4.15021 20.2545 4.21956C20.7492 4.48257 21.2937 4.49293 21.8485 4.47968L21.8606 4.29367C22.419 4.4682 23.0473 5.11201 23.0463 5.58223C22.1419 5.58223 21.2381 5.57877 20.3344 5.58727C20.2379 5.5882 20.142 5.65876 20.0457 5.69693C20.1372 5.75023 20.2271 5.84627 20.3203 5.84972H20.32Z" fill="#88171A"/>
    <path d="M19.1537 4.51122C19.1355 4.52265 19.1201 4.5382 19.1089 4.55663C19.0977 4.57506 19.091 4.59585 19.0893 4.61733C19.0876 4.63882 19.0909 4.66041 19.0991 4.68038C19.1072 4.70035 19.1199 4.71814 19.1361 4.73232C19.1497 4.75632 19.168 4.77737 19.1899 4.79424C19.2118 4.81111 19.2368 4.82347 19.2634 4.8306C19.2901 4.83773 19.3179 4.83949 19.3453 4.83577C19.3727 4.83206 19.399 4.82294 19.4228 4.80895C19.5099 4.76508 19.5953 4.71842 19.7005 4.66279C19.6157 4.59046 19.5478 4.53072 19.4779 4.47314C19.3549 4.37178 19.2529 4.43543 19.1537 4.51122Z" fill="#88171A"/>
</svg>
