<svg width="32" height="32" viewBox="0 0 32 32" fill="none" xmlns="http://www.w3.org/2000/svg">
<g id="Icon_Social_Media / 32 / Yandex">
<path id="Vector" d="M2.71997 16C2.71997 8.63602 8.68797 2.66669 16.0533 2.66669C23.416 2.66669 29.3866 8.63602 29.3866 16C29.3866 23.364 23.416 29.3334 16.0533 29.3334C8.68797 29.3334 2.71997 23.364 2.71997 16Z" fill="#FC3F1D"/>
<path id="Vector_2" d="M17.7599 10.2214H16.5279C14.2692 10.2214 13.0812 11.3653 13.0812 13.052C13.0812 14.9587 13.9026 15.852 15.5892 16.9973L16.9826 17.936L12.9786 23.9187H9.98657L13.5799 18.5667C11.5132 17.0854 10.3532 15.6467 10.3532 13.2133C10.3532 10.1627 12.4799 8.08002 16.5132 8.08002H20.5172V23.904H17.7599V10.2214Z" fill="white"/>
</g>
</svg>
