<svg width="32" height="32" viewBox="0 0 32 32" fill="none" xmlns="http://www.w3.org/2000/svg">
    <path d="M31.2933 8.32741C31.1097 7.68427 30.7517 7.09795 30.2548 6.62682C29.7579 6.15569 29.1396 5.81619 28.4613 5.64213C25.978 5 15.9838 5 15.9838 5C15.9838 5 5.98902 5.01944 3.50577 5.66157C2.82746 5.83564 2.20908 6.17515 1.7122 6.64631C1.21533 7.11746 0.857302 7.70381 0.673774 8.34696C-0.077351 12.5304 -0.368726 18.9051 0.694399 22.9212C0.877946 23.5643 1.23598 24.1506 1.73286 24.6218C2.22973 25.0929 2.8481 25.4324 3.5264 25.6065C6.00965 26.2486 16.0042 26.2486 16.0042 26.2486C16.0042 26.2486 25.9985 26.2486 28.4817 25.6065C29.16 25.4324 29.7784 25.0929 30.2753 24.6218C30.7722 24.1507 31.1302 23.5643 31.3138 22.9212C32.106 18.7318 32.3502 12.3611 31.2933 8.32741Z" fill="#FF0000"/>
    <path d="M12.8018 20.1775L21.0928 15.6243L12.8018 11.071V20.1775Z" fill="white"/>
</svg>
