<svg width="40" height="40" viewBox="0 0 40 40" fill="none" xmlns="http://www.w3.org/2000/svg">
<path d="M20 33.3333C21.4167 33.3333 22.7778 33.118 24.0833 32.6875C25.3889 32.2569 26.6111 31.6388 27.75 30.8333C26.6111 30.0277 25.3889 29.4097 24.0833 28.9791C22.7778 28.5486 21.4167 28.3333 20 28.3333C18.5833 28.3333 17.2222 28.5486 15.9167 28.9791C14.6111 29.4097 13.3889 30.0277 12.25 30.8333C13.3889 31.6388 14.6111 32.2569 15.9167 32.6875C17.2222 33.118 18.5833 33.3333 20 33.3333ZM24.4167 19.6666L22.0417 17.2916C22.1806 17.0694 22.2917 16.8333 22.375 16.5833C22.4583 16.3333 22.5 16.0833 22.5 15.8333C22.5 15.1388 22.2569 14.5486 21.7708 14.0624C21.2847 13.5763 20.6944 13.3333 20 13.3333C19.75 13.3333 19.5 13.3749 19.25 13.4583C19 13.5416 18.7639 13.6527 18.5417 13.7916L16.1667 11.4166C16.6944 10.9444 17.2847 10.5902 17.9375 10.3541C18.5903 10.118 19.2778 9.99995 20 9.99995C21.6111 9.99995 22.9861 10.5694 24.125 11.7083C25.2639 12.8472 25.8333 14.2222 25.8333 15.8333C25.8333 16.5555 25.7153 17.243 25.4792 17.8958C25.2431 18.5486 24.8889 19.1388 24.4167 19.6666ZM33.9167 29.1666L31.5 26.75C32.1111 25.7222 32.5694 24.6388 32.875 23.5C33.1806 22.3611 33.3333 21.1944 33.3333 20C33.3333 16.2777 32.0417 13.1249 29.4583 10.5416C26.875 7.95828 23.7222 6.66662 20 6.66662C18.8056 6.66662 17.6389 6.81939 16.5 7.12495C15.3611 7.4305 14.2778 7.88884 13.25 8.49995L10.8333 6.08328C12.1944 5.19439 13.6528 4.51384 15.2083 4.04162C16.7639 3.56939 18.3611 3.33328 20 3.33328C22.3056 3.33328 24.4722 3.77078 26.5 4.64578C28.5278 5.52078 30.2917 6.70828 31.7917 8.20828C33.2917 9.70828 34.4792 11.4722 35.3542 13.4999C36.2292 15.5277 36.6667 17.6944 36.6667 20C36.6667 21.6388 36.4306 23.2361 35.9583 24.7916C35.4861 26.3472 34.8056 27.8055 33.9167 29.1666ZM20 36.6666C17.6944 36.6666 15.5278 36.2291 13.5 35.3541C11.4722 34.4791 9.70833 33.2916 8.20833 31.7916C6.70833 30.2916 5.52083 28.5277 4.64583 26.5C3.77083 24.4722 3.33333 22.3055 3.33333 20C3.33333 18.3611 3.5625 16.7638 4.02083 15.2083C4.47917 13.6527 5.15278 12.1805 6.04167 10.7916L1.125 5.83328L3.5 3.45828L36.5 36.4583L34.125 38.8333L8.5 13.2499C7.88889 14.2777 7.43056 15.3611 7.125 16.4999C6.81944 17.6388 6.66667 18.8055 6.66667 20C6.66667 21.5833 6.93056 23.0972 7.45833 24.5416C7.98611 25.9861 8.75 27.3055 9.75 28.5C11.25 27.3611 12.8681 26.493 14.6042 25.8958C16.3403 25.2986 18.1389 25 20 25C21.0556 25 22.1111 25.1111 23.1667 25.3333C24.2222 25.5555 25.25 25.8611 26.25 26.25L31.7917 31.7916C30.2083 33.375 28.4028 34.5833 26.375 35.4166C24.3472 36.25 22.2222 36.6666 20 36.6666Z" fill="#303345"/>
</svg>
