<svg width="40" height="40" viewBox="0 0 40 40" fill="none" xmlns="http://www.w3.org/2000/svg">
<path d="M28.333 33.3334V28.3334H23.333V25.0001H28.333V20.0001H31.6663V25.0001H36.6663V28.3334H31.6663V33.3334H28.333ZM18.333 28.3334H11.6663C9.36079 28.3334 7.39551 27.5209 5.77051 25.8959C4.14551 24.2709 3.33301 22.3056 3.33301 20.0001C3.33301 17.6945 4.14551 15.7292 5.77051 14.1042C7.39551 12.4792 9.36079 11.6667 11.6663 11.6667H18.333V15.0001H11.6663C10.2775 15.0001 9.0969 15.4862 8.12468 16.4584C7.15245 17.4306 6.66634 18.6112 6.66634 20.0001C6.66634 21.3889 7.15245 22.5695 8.12468 23.5417C9.0969 24.5139 10.2775 25.0001 11.6663 25.0001H18.333V28.3334ZM13.333 21.6667V18.3334H26.6663V21.6667H13.333ZM36.6663 20.0001H33.333C33.333 18.6112 32.8469 17.4306 31.8747 16.4584C30.9025 15.4862 29.7219 15.0001 28.333 15.0001H21.6663V11.6667H28.333C30.6386 11.6667 32.6038 12.4792 34.2288 14.1042C35.8538 15.7292 36.6663 17.6945 36.6663 20.0001Z" fill="#303345"/>
</svg>
