<svg width="40" height="40" viewBox="0 0 40 40" fill="none" xmlns="http://www.w3.org/2000/svg">
<path d="M30.0002 33.3333V28.3333H25.0002V25H30.0002V20H33.3335V25H38.3335V28.3333H33.3335V33.3333H30.0002ZM5.0002 35C4.08354 35 3.29881 34.6736 2.64604 34.0208C1.99326 33.3681 1.66687 32.5833 1.66687 31.6667V8.33333C1.66687 7.41667 1.99326 6.63194 2.64604 5.97917C3.29881 5.32639 4.08354 5 5.0002 5H28.3335C29.2502 5 30.0349 5.32639 30.6877 5.97917C31.3405 6.63194 31.6669 7.41667 31.6669 8.33333V16.6667H28.3335V13.3333H5.0002V31.6667H26.6669V35H5.0002ZM5.0002 10H28.3335V8.33333H5.0002V10Z" fill="#303345"/>
</svg>
