<svg width="40" height="40" viewBox="0 0 40 40" fill="none" xmlns="http://www.w3.org/2000/svg">
<path d="M28.3335 28.3333C29.028 28.3333 29.6183 28.0902 30.1044 27.6041C30.5905 27.118 30.8335 26.5277 30.8335 25.8333C30.8335 25.1388 30.5905 24.5486 30.1044 24.0625C29.6183 23.5763 29.028 23.3333 28.3335 23.3333C27.6391 23.3333 27.0488 23.5763 26.5627 24.0625C26.0766 24.5486 25.8335 25.1388 25.8335 25.8333C25.8335 26.5277 26.0766 27.118 26.5627 27.6041C27.0488 28.0902 27.6391 28.3333 28.3335 28.3333ZM28.3335 33.3333C29.1946 33.3333 29.9863 33.1319 30.7085 32.7291C31.4308 32.3263 32.0141 31.7916 32.4585 31.125C31.8474 30.7638 31.1946 30.4861 30.5002 30.2916C29.8058 30.0972 29.0835 30 28.3335 30C27.5835 30 26.8613 30.0972 26.1669 30.2916C25.4724 30.4861 24.8196 30.7638 24.2085 31.125C24.653 31.7916 25.2363 32.3263 25.9585 32.7291C26.6808 33.1319 27.4724 33.3333 28.3335 33.3333ZM20.0002 36.6666C16.1391 35.6944 12.9516 33.4791 10.4377 30.0208C7.92381 26.5625 6.66687 22.7222 6.66687 18.5V8.33328L20.0002 3.33328L33.3335 8.33328V17.7916C32.8058 17.5694 32.2641 17.368 31.7085 17.1875C31.153 17.0069 30.5835 16.875 30.0002 16.7916V10.6666L20.0002 6.91662L10.0002 10.6666V18.5C10.0002 19.8055 10.1738 21.1111 10.521 22.4166C10.8683 23.7222 11.3544 24.9652 11.9794 26.1458C12.6044 27.3263 13.3613 28.4166 14.2502 29.4166C15.1391 30.4166 16.1252 31.25 17.2085 31.9166C17.5141 32.8055 17.9169 33.6527 18.4169 34.4583C18.9169 35.2638 19.4863 35.9861 20.1252 36.625C20.0974 36.625 20.0766 36.6319 20.0627 36.6458C20.0488 36.6597 20.028 36.6666 20.0002 36.6666ZM28.3335 36.6666C26.028 36.6666 24.0627 35.8541 22.4377 34.2291C20.8127 32.6041 20.0002 30.6388 20.0002 28.3333C20.0002 26.0277 20.8127 24.0625 22.4377 22.4375C24.0627 20.8125 26.028 20 28.3335 20C30.6391 20 32.6044 20.8125 34.2294 22.4375C35.8544 24.0625 36.6669 26.0277 36.6669 28.3333C36.6669 30.6388 35.8544 32.6041 34.2294 34.2291C32.6044 35.8541 30.6391 36.6666 28.3335 36.6666Z" fill="#303345"/>
</svg>
