<svg width="40" height="40" viewBox="0 0 40 40" fill="none" xmlns="http://www.w3.org/2000/svg">
<path d="M19.9998 36.6666C17.6942 36.6666 15.5276 36.2291 13.4998 35.3541C11.472 34.4791 9.70813 33.2916 8.20813 31.7916C6.70813 30.2916 5.52063 28.5277 4.64563 26.5C3.77063 24.4722 3.33313 22.3055 3.33313 20C3.33313 17.6944 3.77063 15.5277 4.64563 13.5C5.52063 11.4722 6.70813 9.70828 8.20813 8.20828C9.70813 6.70828 11.472 5.52078 13.4998 4.64578C15.5276 3.77078 17.6942 3.33328 19.9998 3.33328C22.3054 3.33328 24.472 3.77078 26.4998 4.64578C28.5276 5.52078 30.2915 6.70828 31.7915 8.20828C33.2915 9.70828 34.479 11.4722 35.354 13.5C36.229 15.5277 36.6665 17.6944 36.6665 20V22.4166C36.6665 24.0555 36.104 25.4513 34.979 26.6041C33.854 27.7569 32.472 28.3333 30.8331 28.3333C29.8609 28.3333 28.9442 28.125 28.0831 27.7083C27.222 27.2916 26.4998 26.6944 25.9165 25.9166C25.1109 26.7222 24.2012 27.3263 23.1873 27.7291C22.1734 28.1319 21.1109 28.3333 19.9998 28.3333C17.6942 28.3333 15.729 27.5208 14.104 25.8958C12.479 24.2708 11.6665 22.3055 11.6665 20C11.6665 17.6944 12.479 15.7291 14.104 14.1041C15.729 12.4791 17.6942 11.6666 19.9998 11.6666C22.3054 11.6666 24.2706 12.4791 25.8956 14.1041C27.5206 15.7291 28.3331 17.6944 28.3331 20V22.4166C28.3331 23.1388 28.5692 23.75 29.0415 24.25C29.5137 24.75 30.1109 25 30.8331 25C31.5554 25 32.1526 24.75 32.6248 24.25C33.097 23.75 33.3331 23.1388 33.3331 22.4166V20C33.3331 16.2777 32.0415 13.125 29.4581 10.5416C26.8748 7.95828 23.722 6.66662 19.9998 6.66662C16.2776 6.66662 13.1248 7.95828 10.5415 10.5416C7.95813 13.125 6.66646 16.2777 6.66646 20C6.66646 23.7222 7.95813 26.875 10.5415 29.4583C13.1248 32.0416 16.2776 33.3333 19.9998 33.3333H28.3331V36.6666H19.9998ZM19.9998 25C21.3887 25 22.5692 24.5138 23.5415 23.5416C24.5137 22.5694 24.9998 21.3888 24.9998 20C24.9998 18.6111 24.5137 17.4305 23.5415 16.4583C22.5692 15.4861 21.3887 15 19.9998 15C18.6109 15 17.4304 15.4861 16.4581 16.4583C15.4859 17.4305 14.9998 18.6111 14.9998 20C14.9998 21.3888 15.4859 22.5694 16.4581 23.5416C17.4304 24.5138 18.6109 25 19.9998 25Z" fill="#303345"/>
</svg>
