<svg width="40" height="40" viewBox="0 0 40 40" fill="none" xmlns="http://www.w3.org/2000/svg">
<path d="M9.99984 33.3334C9.08317 33.3334 8.29845 33.007 7.64567 32.3542C6.99289 31.7014 6.6665 30.9167 6.6665 30.0001C6.6665 29.0834 6.99289 28.2987 7.64567 27.6459C8.29845 26.9931 9.08317 26.6667 9.99984 26.6667C10.9165 26.6667 11.7012 26.9931 12.354 27.6459C13.0068 28.2987 13.3332 29.0834 13.3332 30.0001C13.3332 30.9167 13.0068 31.7014 12.354 32.3542C11.7012 33.007 10.9165 33.3334 9.99984 33.3334ZM19.9998 33.3334C19.0832 33.3334 18.2984 33.007 17.6457 32.3542C16.9929 31.7014 16.6665 30.9167 16.6665 30.0001C16.6665 29.0834 16.9929 28.2987 17.6457 27.6459C18.2984 26.9931 19.0832 26.6667 19.9998 26.6667C20.9165 26.6667 21.7012 26.9931 22.354 27.6459C23.0068 28.2987 23.3332 29.0834 23.3332 30.0001C23.3332 30.9167 23.0068 31.7014 22.354 32.3542C21.7012 33.007 20.9165 33.3334 19.9998 33.3334ZM29.9998 33.3334C29.0832 33.3334 28.2984 33.007 27.6457 32.3542C26.9929 31.7014 26.6665 30.9167 26.6665 30.0001C26.6665 29.0834 26.9929 28.2987 27.6457 27.6459C28.2984 26.9931 29.0832 26.6667 29.9998 26.6667C30.9165 26.6667 31.7012 26.9931 32.354 27.6459C33.0068 28.2987 33.3332 29.0834 33.3332 30.0001C33.3332 30.9167 33.0068 31.7014 32.354 32.3542C31.7012 33.007 30.9165 33.3334 29.9998 33.3334ZM9.99984 23.3334C9.08317 23.3334 8.29845 23.007 7.64567 22.3542C6.99289 21.7014 6.6665 20.9167 6.6665 20.0001C6.6665 19.0834 6.99289 18.2987 7.64567 17.6459C8.29845 16.9931 9.08317 16.6667 9.99984 16.6667C10.9165 16.6667 11.7012 16.9931 12.354 17.6459C13.0068 18.2987 13.3332 19.0834 13.3332 20.0001C13.3332 20.9167 13.0068 21.7014 12.354 22.3542C11.7012 23.007 10.9165 23.3334 9.99984 23.3334ZM19.9998 23.3334C19.0832 23.3334 18.2984 23.007 17.6457 22.3542C16.9929 21.7014 16.6665 20.9167 16.6665 20.0001C16.6665 19.0834 16.9929 18.2987 17.6457 17.6459C18.2984 16.9931 19.0832 16.6667 19.9998 16.6667C20.9165 16.6667 21.7012 16.9931 22.354 17.6459C23.0068 18.2987 23.3332 19.0834 23.3332 20.0001C23.3332 20.9167 23.0068 21.7014 22.354 22.3542C21.7012 23.007 20.9165 23.3334 19.9998 23.3334ZM29.9998 23.3334C29.0832 23.3334 28.2984 23.007 27.6457 22.3542C26.9929 21.7014 26.6665 20.9167 26.6665 20.0001C26.6665 19.0834 26.9929 18.2987 27.6457 17.6459C28.2984 16.9931 29.0832 16.6667 29.9998 16.6667C30.9165 16.6667 31.7012 16.9931 32.354 17.6459C33.0068 18.2987 33.3332 19.0834 33.3332 20.0001C33.3332 20.9167 33.0068 21.7014 32.354 22.3542C31.7012 23.007 30.9165 23.3334 29.9998 23.3334ZM9.99984 13.3334C9.08317 13.3334 8.29845 13.007 7.64567 12.3542C6.99289 11.7014 6.6665 10.9167 6.6665 10.0001C6.6665 9.08338 6.99289 8.29866 7.64567 7.64588C8.29845 6.99311 9.08317 6.66672 9.99984 6.66672C10.9165 6.66672 11.7012 6.99311 12.354 7.64588C13.0068 8.29866 13.3332 9.08338 13.3332 10.0001C13.3332 10.9167 13.0068 11.7014 12.354 12.3542C11.7012 13.007 10.9165 13.3334 9.99984 13.3334ZM19.9998 13.3334C19.0832 13.3334 18.2984 13.007 17.6457 12.3542C16.9929 11.7014 16.6665 10.9167 16.6665 10.0001C16.6665 9.08338 16.9929 8.29866 17.6457 7.64588C18.2984 6.99311 19.0832 6.66672 19.9998 6.66672C20.9165 6.66672 21.7012 6.99311 22.354 7.64588C23.0068 8.29866 23.3332 9.08338 23.3332 10.0001C23.3332 10.9167 23.0068 11.7014 22.354 12.3542C21.7012 13.007 20.9165 13.3334 19.9998 13.3334ZM29.9998 13.3334C29.0832 13.3334 28.2984 13.007 27.6457 12.3542C26.9929 11.7014 26.6665 10.9167 26.6665 10.0001C26.6665 9.08338 26.9929 8.29866 27.6457 7.64588C28.2984 6.99311 29.0832 6.66672 29.9998 6.66672C30.9165 6.66672 31.7012 6.99311 32.354 7.64588C33.0068 8.29866 33.3332 9.08338 33.3332 10.0001C33.3332 10.9167 33.0068 11.7014 32.354 12.3542C31.7012 13.007 30.9165 13.3334 29.9998 13.3334Z" fill="#303345"/>
</svg>
