<svg width="40" height="40" viewBox="0 0 40 40" fill="none" xmlns="http://www.w3.org/2000/svg">
<path d="M8.33333 35.0001C7.41667 35.0001 6.63194 34.6737 5.97917 34.0209C5.32639 33.3681 5 32.5834 5 31.6667V8.33338C5 7.41672 5.32639 6.632 5.97917 5.97922C6.63194 5.32644 7.41667 5.00005 8.33333 5.00005H15.3333C15.7222 4.00005 16.3333 3.1945 17.1667 2.58338C18 1.97227 18.9444 1.66672 20 1.66672C21.0556 1.66672 22 1.97227 22.8333 2.58338C23.6667 3.1945 24.2778 4.00005 24.6667 5.00005H31.6667C32.5833 5.00005 33.3681 5.32644 34.0208 5.97922C34.6736 6.632 35 7.41672 35 8.33338V31.6667C35 32.5834 34.6736 33.3681 34.0208 34.0209C33.3681 34.6737 32.5833 35.0001 31.6667 35.0001H8.33333ZM20 7.08338C20.3611 7.08338 20.6597 6.96533 20.8958 6.72922C21.1319 6.49311 21.25 6.1945 21.25 5.83338C21.25 5.47227 21.1319 5.17366 20.8958 4.93755C20.6597 4.70144 20.3611 4.58338 20 4.58338C19.6389 4.58338 19.3403 4.70144 19.1042 4.93755C18.8681 5.17366 18.75 5.47227 18.75 5.83338C18.75 6.1945 18.8681 6.49311 19.1042 6.72922C19.3403 6.96533 19.6389 7.08338 20 7.08338ZM8.33333 29.7501C9.83333 28.2778 11.5764 27.1181 13.5625 26.2709C15.5486 25.4237 17.6944 25.0001 20 25.0001C22.3056 25.0001 24.4514 25.4237 26.4375 26.2709C28.4236 27.1181 30.1667 28.2778 31.6667 29.7501V8.33338H8.33333V29.7501ZM20 21.6667C21.6111 21.6667 22.9861 21.0973 24.125 19.9584C25.2639 18.8195 25.8333 17.4445 25.8333 15.8334C25.8333 14.2223 25.2639 12.8473 24.125 11.7084C22.9861 10.5695 21.6111 10.0001 20 10.0001C18.3889 10.0001 17.0139 10.5695 15.875 11.7084C14.7361 12.8473 14.1667 14.2223 14.1667 15.8334C14.1667 17.4445 14.7361 18.8195 15.875 19.9584C17.0139 21.0973 18.3889 21.6667 20 21.6667ZM11.6667 31.6667H28.3333V31.2501C27.1667 30.2778 25.875 29.5487 24.4583 29.0626C23.0417 28.5764 21.5556 28.3334 20 28.3334C18.4444 28.3334 16.9583 28.5764 15.5417 29.0626C14.125 29.5487 12.8333 30.2778 11.6667 31.2501V31.6667ZM20 18.3334C19.3056 18.3334 18.7153 18.0903 18.2292 17.6042C17.7431 17.1181 17.5 16.5278 17.5 15.8334C17.5 15.1389 17.7431 14.5487 18.2292 14.0626C18.7153 13.5764 19.3056 13.3334 20 13.3334C20.6944 13.3334 21.2847 13.5764 21.7708 14.0626C22.2569 14.5487 22.5 15.1389 22.5 15.8334C22.5 16.5278 22.2569 17.1181 21.7708 17.6042C21.2847 18.0903 20.6944 18.3334 20 18.3334Z" fill="#303345"/>
</svg>
