<svg width="40" height="40" viewBox="0 0 40 40" fill="none" xmlns="http://www.w3.org/2000/svg">
<path d="M18.375 35V31.4167C16.9028 31.0833 15.632 30.4444 14.5625 29.5C13.4931 28.5556 12.7084 27.2222 12.2084 25.5L15.2917 24.25C15.7084 25.5833 16.3264 26.5972 17.1459 27.2917C17.9653 27.9861 19.0417 28.3333 20.375 28.3333C21.5139 28.3333 22.4792 28.0764 23.2709 27.5625C24.0625 27.0486 24.4584 26.25 24.4584 25.1667C24.4584 24.1944 24.1528 23.4236 23.5417 22.8542C22.9306 22.2847 21.5139 21.6389 19.2917 20.9167C16.9028 20.1667 15.2639 19.2708 14.375 18.2292C13.4862 17.1875 13.0417 15.9167 13.0417 14.4167C13.0417 12.6111 13.625 11.2083 14.7917 10.2083C15.9584 9.20833 17.1528 8.63889 18.375 8.5V5H21.7084V8.5C23.0973 8.72222 24.2431 9.22917 25.1459 10.0208C26.0487 10.8125 26.7084 11.7778 27.125 12.9167L24.0417 14.25C23.7084 13.3611 23.2362 12.6944 22.625 12.25C22.0139 11.8056 21.1806 11.5833 20.125 11.5833C18.9028 11.5833 17.9723 11.8542 17.3334 12.3958C16.6945 12.9375 16.375 13.6111 16.375 14.4167C16.375 15.3333 16.7917 16.0556 17.625 16.5833C18.4584 17.1111 19.9028 17.6667 21.9584 18.25C23.875 18.8056 25.3264 19.6875 26.3125 20.8958C27.2987 22.1042 27.7917 23.5 27.7917 25.0833C27.7917 27.0556 27.2084 28.5556 26.0417 29.5833C24.875 30.6111 23.4306 31.25 21.7084 31.5V35H18.375Z" fill="#303345"/>
</svg>
