<svg width="40" height="40" viewBox="0 0 40 40" fill="none" xmlns="http://www.w3.org/2000/svg">
<path d="M8.5002 26.7501C7.88909 25.6945 7.43076 24.6112 7.1252 23.5001C6.81965 22.3889 6.66687 21.2501 6.66687 20.0834C6.66687 16.3612 7.95854 13.1945 10.5419 10.5834C13.1252 7.97227 16.278 6.66672 20.0002 6.66672H20.2919L17.6252 4.00005L19.9585 1.66672L26.6252 8.33338L19.9585 15.0001L17.6252 12.6667L20.2919 10.0001H20.0002C17.2224 10.0001 14.8613 10.9792 12.9169 12.9376C10.9724 14.8959 10.0002 17.2778 10.0002 20.0834C10.0002 20.8056 10.0835 21.5139 10.2502 22.2084C10.4169 22.9028 10.6669 23.5834 11.0002 24.2501L8.5002 26.7501ZM20.0419 38.3334L13.3752 31.6667L20.0419 25.0001L22.3752 27.3334L19.7085 30.0001H20.0002C22.778 30.0001 25.1391 29.0209 27.0835 27.0626C29.028 25.1042 30.0002 22.7223 30.0002 19.9167C30.0002 19.1945 29.9169 18.4862 29.7502 17.7917C29.5835 17.0973 29.3335 16.4167 29.0002 15.7501L31.5002 13.2501C32.1113 14.3056 32.5696 15.3889 32.8752 16.5001C33.1808 17.6112 33.3335 18.7501 33.3335 19.9167C33.3335 23.6389 32.0419 26.8056 29.4585 29.4167C26.8752 32.0278 23.7224 33.3334 20.0002 33.3334H19.7085L22.3752 36.0001L20.0419 38.3334Z" fill="#303345"/>
</svg>
