<svg width="40" height="40" viewBox="0 0 40 40" fill="none" xmlns="http://www.w3.org/2000/svg">
<path d="M3.3335 40V33.3333H36.6668V40H3.3335ZM10.0002 26.6666H12.3335L25.3335 13.7083L24.1252 12.4999L22.9585 11.3333L10.0002 24.3333V26.6666ZM6.66683 30V22.9166L25.3335 4.29162C25.6391 3.98606 25.9932 3.74995 26.396 3.58328C26.7988 3.41662 27.2224 3.33328 27.6668 3.33328C28.1113 3.33328 28.5418 3.41662 28.9585 3.58328C29.3752 3.74995 29.7502 3.99995 30.0835 4.33328L32.3752 6.66662C32.7085 6.97217 32.9516 7.33328 33.1043 7.74995C33.2571 8.16662 33.3335 8.59717 33.3335 9.04162C33.3335 9.45828 33.2571 9.868 33.1043 10.2708C32.9516 10.6736 32.7085 11.0416 32.3752 11.3749L13.7502 30H6.66683ZM25.3335 13.7083L24.1252 12.4999L22.9585 11.3333L25.3335 13.7083Z" fill="#303345"/>
</svg>
