<svg width="40" height="40" viewBox="0 0 40 40" fill="none" xmlns="http://www.w3.org/2000/svg">
<path d="M8.33333 36.6666C7.41667 36.6666 6.63194 36.3402 5.97917 35.6875C5.32639 35.0347 5 34.25 5 33.3333V9.99995C5 9.08328 5.32639 8.29856 5.97917 7.64578C6.63194 6.99301 7.41667 6.66662 8.33333 6.66662H10V3.33328H13.3333V6.66662H26.6667V3.33328H30V6.66662H31.6667C32.5833 6.66662 33.3681 6.99301 34.0208 7.64578C34.6736 8.29856 35 9.08328 35 9.99995V33.3333C35 34.25 34.6736 35.0347 34.0208 35.6875C33.3681 36.3402 32.5833 36.6666 31.6667 36.6666H8.33333ZM8.33333 33.3333H31.6667V16.6666H8.33333V33.3333ZM8.33333 13.3333H31.6667V9.99995H8.33333V13.3333ZM20 23.3333C19.5278 23.3333 19.1319 23.1736 18.8125 22.8541C18.4931 22.5347 18.3333 22.1388 18.3333 21.6666C18.3333 21.1944 18.4931 20.7986 18.8125 20.4791C19.1319 20.1597 19.5278 20 20 20C20.4722 20 20.8681 20.1597 21.1875 20.4791C21.5069 20.7986 21.6667 21.1944 21.6667 21.6666C21.6667 22.1388 21.5069 22.5347 21.1875 22.8541C20.8681 23.1736 20.4722 23.3333 20 23.3333ZM13.3333 23.3333C12.8611 23.3333 12.4653 23.1736 12.1458 22.8541C11.8264 22.5347 11.6667 22.1388 11.6667 21.6666C11.6667 21.1944 11.8264 20.7986 12.1458 20.4791C12.4653 20.1597 12.8611 20 13.3333 20C13.8056 20 14.2014 20.1597 14.5208 20.4791C14.8403 20.7986 15 21.1944 15 21.6666C15 22.1388 14.8403 22.5347 14.5208 22.8541C14.2014 23.1736 13.8056 23.3333 13.3333 23.3333ZM26.6667 23.3333C26.1944 23.3333 25.7986 23.1736 25.4792 22.8541C25.1597 22.5347 25 22.1388 25 21.6666C25 21.1944 25.1597 20.7986 25.4792 20.4791C25.7986 20.1597 26.1944 20 26.6667 20C27.1389 20 27.5347 20.1597 27.8542 20.4791C28.1736 20.7986 28.3333 21.1944 28.3333 21.6666C28.3333 22.1388 28.1736 22.5347 27.8542 22.8541C27.5347 23.1736 27.1389 23.3333 26.6667 23.3333ZM20 30C19.5278 30 19.1319 29.8402 18.8125 29.5208C18.4931 29.2013 18.3333 28.8055 18.3333 28.3333C18.3333 27.8611 18.4931 27.4652 18.8125 27.1458C19.1319 26.8263 19.5278 26.6666 20 26.6666C20.4722 26.6666 20.8681 26.8263 21.1875 27.1458C21.5069 27.4652 21.6667 27.8611 21.6667 28.3333C21.6667 28.8055 21.5069 29.2013 21.1875 29.5208C20.8681 29.8402 20.4722 30 20 30ZM13.3333 30C12.8611 30 12.4653 29.8402 12.1458 29.5208C11.8264 29.2013 11.6667 28.8055 11.6667 28.3333C11.6667 27.8611 11.8264 27.4652 12.1458 27.1458C12.4653 26.8263 12.8611 26.6666 13.3333 26.6666C13.8056 26.6666 14.2014 26.8263 14.5208 27.1458C14.8403 27.4652 15 27.8611 15 28.3333C15 28.8055 14.8403 29.2013 14.5208 29.5208C14.2014 29.8402 13.8056 30 13.3333 30ZM26.6667 30C26.1944 30 25.7986 29.8402 25.4792 29.5208C25.1597 29.2013 25 28.8055 25 28.3333C25 27.8611 25.1597 27.4652 25.4792 27.1458C25.7986 26.8263 26.1944 26.6666 26.6667 26.6666C27.1389 26.6666 27.5347 26.8263 27.8542 27.1458C28.1736 27.4652 28.3333 27.8611 28.3333 28.3333C28.3333 28.8055 28.1736 29.2013 27.8542 29.5208C27.5347 29.8402 27.1389 30 26.6667 30Z" fill="#303345"/>
</svg>
