<svg width="40" height="40" viewBox="0 0 40 40" fill="none" xmlns="http://www.w3.org/2000/svg">
<path d="M14.0002 28.3333L20.0002 22.3333L26.0002 28.3333L28.3335 26L22.3335 20L28.3335 14L26.0002 11.6666L20.0002 17.6666L14.0002 11.6666L11.6668 14L17.6668 20L11.6668 26L14.0002 28.3333ZM20.0002 36.6666C17.6946 36.6666 15.5279 36.2291 13.5002 35.3541C11.4724 34.4791 9.7085 33.2916 8.2085 31.7916C6.7085 30.2916 5.521 28.5277 4.646 26.5C3.771 24.4722 3.3335 22.3055 3.3335 20C3.3335 17.6944 3.771 15.5277 4.646 13.5C5.521 11.4722 6.7085 9.70828 8.2085 8.20828C9.7085 6.70828 11.4724 5.52078 13.5002 4.64578C15.5279 3.77078 17.6946 3.33328 20.0002 3.33328C22.3057 3.33328 24.4724 3.77078 26.5002 4.64578C28.5279 5.52078 30.2918 6.70828 31.7918 8.20828C33.2918 9.70828 34.4793 11.4722 35.3543 13.5C36.2293 15.5277 36.6668 17.6944 36.6668 20C36.6668 22.3055 36.2293 24.4722 35.3543 26.5C34.4793 28.5277 33.2918 30.2916 31.7918 31.7916C30.2918 33.2916 28.5279 34.4791 26.5002 35.3541C24.4724 36.2291 22.3057 36.6666 20.0002 36.6666ZM20.0002 33.3333C23.7224 33.3333 26.8752 32.0416 29.4585 29.4583C32.0418 26.875 33.3335 23.7222 33.3335 20C33.3335 16.2777 32.0418 13.125 29.4585 10.5416C26.8752 7.95828 23.7224 6.66662 20.0002 6.66662C16.2779 6.66662 13.1252 7.95828 10.5418 10.5416C7.9585 13.125 6.66683 16.2777 6.66683 20C6.66683 23.7222 7.9585 26.875 10.5418 29.4583C13.1252 32.0416 16.2779 33.3333 20.0002 33.3333Z" fill="#303345"/>
</svg>
