<svg width="40" height="40" viewBox="0 0 40 40" fill="none" xmlns="http://www.w3.org/2000/svg">
<path d="M15 30C14.0833 30 13.2986 29.6736 12.6458 29.0208C11.9931 28.368 11.6667 27.5833 11.6667 26.6666V6.66662C11.6667 5.74995 11.9931 4.96523 12.6458 4.31245C13.2986 3.65967 14.0833 3.33328 15 3.33328H30C30.9167 3.33328 31.7014 3.65967 32.3542 4.31245C33.0069 4.96523 33.3333 5.74995 33.3333 6.66662V26.6666C33.3333 27.5833 33.0069 28.368 32.3542 29.0208C31.7014 29.6736 30.9167 30 30 30H15ZM15 26.6666H30V6.66662H15V26.6666ZM8.33333 36.6666C7.41667 36.6666 6.63194 36.3402 5.97917 35.6875C5.32639 35.0347 5 34.25 5 33.3333V9.99995H8.33333V33.3333H26.6667V36.6666H8.33333Z" fill="#303345"/>
</svg>
