<svg width="40" height="40" viewBox="0 0 40 40" fill="none" xmlns="http://www.w3.org/2000/svg">
<path fill-rule="evenodd" clip-rule="evenodd" d="M20.9333 29.0667V24.0667H15.9333V15.9333H20.9333V10.9333H29.0667V15.9333H34.0667V24.0667H29.0667V29.0667H20.9333ZM26.6667 26.6667H23.3333V21.6667H18.3333V18.3333H23.3333V13.3333H26.6667V18.3333H31.6667V21.6667H26.6667V26.6667ZM10 34.1667V30.5C7.94444 29.5278 6.31944 28.0972 5.125 26.2083C3.93056 24.3194 3.33333 22.25 3.33333 20C3.33333 17.75 3.93056 15.6806 5.125 13.7917C6.31944 11.9028 7.94444 10.4722 10 9.5V5.83333C9.15269 6.12873 8.35268 6.48449 7.6 6.90062C5.66306 7.97148 4.03944 9.4421 2.72917 11.3125C0.909722 13.9097 0 16.8056 0 20C0 23.1944 0.909722 26.0903 2.72917 28.6875C4.03944 30.5579 5.66306 32.0285 7.6 33.0994C8.35268 33.5155 9.15269 33.8713 10 34.1667ZM20.1034 31.6118C21.6057 32.2655 23.2294 32.6 25 32.6C26.7706 32.6 28.3943 32.2655 29.8966 31.6118C31.4518 30.9351 32.7814 30.0328 33.9071 28.9071C35.0328 27.7814 35.9351 26.4518 36.6118 24.8966C37.2655 23.3943 37.6 21.7706 37.6 20C37.6 18.2294 37.2655 16.6057 36.6118 15.1034C35.9351 13.5482 35.0328 12.2186 33.9071 11.0929C32.7814 9.9672 31.4518 9.06488 29.8966 8.3882C28.3943 7.73453 26.7706 7.4 25 7.4C23.2294 7.4 21.6057 7.73453 20.1034 8.3882C18.5482 9.06488 17.2186 9.9672 16.0929 11.0929C14.9672 12.2186 14.0649 13.5482 13.3882 15.1034C12.7345 16.6057 12.4 18.2294 12.4 20C12.4 21.7706 12.7345 23.3943 13.3882 24.8966C14.0649 26.4518 14.9672 27.7814 16.0929 28.9071C17.2186 30.0328 18.5482 30.9351 20.1034 31.6118ZM19.1458 33.8125C20.9653 34.6042 22.9167 35 25 35C27.0833 35 29.0347 34.6042 30.8542 33.8125C32.6736 33.0208 34.2569 31.9514 35.6042 30.6042C36.9514 29.2569 38.0208 27.6736 38.8125 25.8542C39.6042 24.0347 40 22.0833 40 20C40 17.9167 39.6042 15.9653 38.8125 14.1458C38.0208 12.3264 36.9514 10.7431 35.6042 9.39583C34.2569 8.04861 32.6736 6.97917 30.8542 6.1875C29.0347 5.39583 27.0833 5 25 5C22.9167 5 20.9653 5.39583 19.1458 6.1875C17.3264 6.97917 15.7431 8.04861 14.3958 9.39583C13.0486 10.7431 11.9792 12.3264 11.1875 14.1458C10.3958 15.9653 10 17.9167 10 20C10 22.0833 10.3958 24.0347 11.1875 25.8542C11.9792 27.6736 13.0486 29.2569 14.3958 30.6042C15.7431 31.9514 17.3264 33.0208 19.1458 33.8125Z" fill="#303345"/>
</svg>
