<svg width="40" height="40" viewBox="0 0 40 40" fill="none" xmlns="http://www.w3.org/2000/svg">
<path d="M31.6667 32.375L28.125 35.875L25.7917 33.5416L29.2917 30L25.7917 26.4583L28.125 24.125L31.6667 27.625L35.2083 24.125L37.5417 26.4583L34.0417 30L37.5417 33.5416L35.2083 35.875L31.6667 32.375ZM10 36.6666C8.61111 36.6666 7.43056 36.1805 6.45833 35.2083C5.48611 34.2361 5 33.0555 5 31.6666V26.6666H10V3.33328H35V20.625C34.4722 20.4305 33.9306 20.2847 33.375 20.1875C32.8194 20.0902 32.25 20.0416 31.6667 20.0416V6.66662H13.3333V26.6666H22.25C22.0556 27.1944 21.9097 27.7361 21.8125 28.2916C21.7153 28.8472 21.6667 29.4166 21.6667 30H8.33333V31.6666C8.33333 32.1388 8.49306 32.5347 8.8125 32.8541C9.13194 33.1736 9.52778 33.3333 10 33.3333H22.25C22.4722 33.9722 22.75 34.5694 23.0833 35.125C23.4167 35.6805 23.8056 36.1944 24.25 36.6666H10ZM15 15V11.6666H30V15H15ZM15 20V16.6666H30V20H15Z" fill="#303345"/>
</svg>
