<svg width="40" height="40" viewBox="0 0 40 40" fill="none" xmlns="http://www.w3.org/2000/svg">
<path fill-rule="evenodd" clip-rule="evenodd" d="M11.625 3.75C8.8985 3.75 6.25 6.61411 6.25 10.75C6.25 14.8859 8.8985 17.75 11.625 17.75C14.3515 17.75 17 14.8859 17 10.75C17 6.6141 14.3515 3.75 11.625 3.75ZM14.6712 19.5278C17.6006 18.0578 19.5 14.5351 19.5 10.75C19.5 5.77321 16.2163 1.25 11.625 1.25C7.03373 1.25 3.75 5.77321 3.75 10.75C3.75 14.5866 5.70148 18.1537 8.69907 19.5867L7.50398 34.5253C7.50133 34.5585 7.5 34.5917 7.5 34.625C7.5 35.719 7.93458 36.7682 8.70817 37.5418C9.47537 38.309 10.5136 38.7428 11.5978 38.7499C12.1453 38.7701 12.6915 38.6811 13.2043 38.4878C13.7257 38.2914 14.2019 37.9914 14.6041 37.6059C15.0063 37.2205 15.3263 36.7575 15.5448 36.245C15.7632 35.7324 15.8755 35.181 15.875 34.6238C15.875 34.591 15.8736 34.5581 15.871 34.5253L14.6712 19.5278ZM12.221 20.25H11.154L10.0006 34.6679C10.0115 35.0833 10.1813 35.4794 10.4759 35.7741C10.7807 36.0788 11.194 36.25 11.625 36.25C11.6431 36.25 11.6612 36.2504 11.6794 36.2512C11.8986 36.2607 12.1176 36.2258 12.3229 36.1484C12.5283 36.071 12.7159 35.9528 12.8743 35.801C13.0328 35.6491 13.1589 35.4667 13.2449 35.2648C13.3254 35.0759 13.3693 34.8736 13.3745 34.6686L12.221 20.25ZM23.2499 1.74995C23.9402 1.74995 24.4999 2.3096 24.4999 2.99995V12.125H27.6249V2.99995C27.6249 2.3096 28.1845 1.74995 28.8749 1.74995C29.5652 1.74995 30.1249 2.3096 30.1249 2.99995V12.125H33.3749V2.99995C33.3749 2.3096 33.9345 1.74995 34.6249 1.74995C35.3152 1.74995 35.8749 2.3096 35.8749 2.99995V13.375L35.8746 13.4022C35.8348 15.2322 35.0797 16.9738 33.7713 18.2538C33.257 18.7569 32.6734 19.1729 32.0433 19.4926L33.2459 34.5253C33.2485 34.5581 33.2498 34.5909 33.2499 34.6238C33.2504 35.1809 33.1381 35.7323 32.9196 36.2449C32.7012 36.7575 32.3812 37.2205 31.979 37.6059C31.5767 37.9914 31.1006 38.2914 30.5792 38.4878C30.0663 38.681 29.5202 38.7701 28.9727 38.7499C27.8885 38.7427 26.8502 38.309 26.083 37.5418C25.3095 36.7682 24.8749 35.719 24.8749 34.625C24.8749 34.5917 24.8762 34.5585 24.8789 34.5253L26.0688 19.6512C25.3103 19.3121 24.6123 18.8352 24.0135 18.2363C22.7242 16.947 21.9999 15.1983 21.9999 13.375V2.99995C21.9999 2.3096 22.5595 1.74995 23.2499 1.74995ZM28.8752 17.75C28.8759 17.75 28.8766 17.75 28.8773 17.75C30.0532 17.7497 31.1824 17.2891 32.023 16.4667C32.5512 15.95 32.9391 15.3163 33.161 14.625H24.6822C24.888 15.315 25.2629 15.9502 25.7813 16.4686C26.6017 17.289 27.7148 17.75 28.8752 17.75ZM28.5289 20.25L27.3754 34.6678C27.3864 35.0833 27.5562 35.4794 27.8508 35.774C28.1556 36.0788 28.5689 36.25 28.9999 36.25C29.018 36.25 29.0361 36.2504 29.0542 36.2511C29.2735 36.2607 29.4924 36.2257 29.6978 36.1483C29.9032 36.071 30.0907 35.9528 30.2492 35.8009C30.4077 35.649 30.5338 35.4666 30.6198 35.2648C30.7003 35.0759 30.7442 34.8736 30.7493 34.6685L29.5959 20.25H28.8779C28.8769 20.25 28.8759 20.25 28.8749 20.25C28.8748 20.25 28.875 20.25 28.8749 20.25H28.5289Z" fill="#303345"/>
</svg>
