<svg width="40" height="40" viewBox="0 0 40 40" fill="none" xmlns="http://www.w3.org/2000/svg">
<path d="M12.5 10C11.8056 10 11.2153 10.2431 10.7292 10.7292C10.2431 11.2153 10 11.8056 10 12.5C10 13.1944 10.2431 13.7847 10.7292 14.2708C11.2153 14.7569 11.8056 15 12.5 15C13.1944 15 13.7847 14.7569 14.2708 14.2708C14.7569 13.7847 15 13.1944 15 12.5C15 11.8056 14.7569 11.2153 14.2708 10.7292C13.7847 10.2431 13.1944 10 12.5 10ZM12.5 26.6667C11.8056 26.6667 11.2153 26.9097 10.7292 27.3958C10.2431 27.8819 10 28.4722 10 29.1667C10 29.8611 10.2431 30.4514 10.7292 30.9375C11.2153 31.4236 11.8056 31.6667 12.5 31.6667C13.1944 31.6667 13.7847 31.4236 14.2708 30.9375C14.7569 30.4514 15 29.8611 15 29.1667C15 28.4722 14.7569 27.8819 14.2708 27.3958C13.7847 26.9097 13.1944 26.6667 12.5 26.6667ZM6.66667 5H33.3333C33.8056 5 34.2014 5.15972 34.5208 5.47917C34.8403 5.79861 35 6.19444 35 6.66667V18.3333C35 18.8056 34.8403 19.2014 34.5208 19.5208C34.2014 19.8403 33.8056 20 33.3333 20H6.66667C6.19444 20 5.79861 19.8403 5.47917 19.5208C5.15972 19.2014 5 18.8056 5 18.3333V6.66667C5 6.19444 5.15972 5.79861 5.47917 5.47917C5.79861 5.15972 6.19444 5 6.66667 5ZM8.33333 8.33333V16.6667H31.6667V8.33333H8.33333ZM6.66667 21.6667H33.3333C33.8056 21.6667 34.2014 21.8264 34.5208 22.1458C34.8403 22.4653 35 22.8611 35 23.3333V35C35 35.4722 34.8403 35.8681 34.5208 36.1875C34.2014 36.5069 33.8056 36.6667 33.3333 36.6667H6.66667C6.19444 36.6667 5.79861 36.5069 5.47917 36.1875C5.15972 35.8681 5 35.4722 5 35V23.3333C5 22.8611 5.15972 22.4653 5.47917 22.1458C5.79861 21.8264 6.19444 21.6667 6.66667 21.6667ZM8.33333 25V33.3333H31.6667V25H8.33333Z" fill="#303345"/>
</svg>
