<svg width="40" height="40" viewBox="0 0 40 40" fill="none" xmlns="http://www.w3.org/2000/svg">
<path d="M8.33333 34.9999C7.41667 34.9999 6.63194 34.6735 5.97917 34.0207C5.32639 33.368 5 32.5832 5 31.6666V8.33324C5 7.41658 5.32639 6.63185 5.97917 5.97908C6.63194 5.3263 7.41667 4.99991 8.33333 4.99991H23.2083L19.875 8.33324H8.33333V31.6666H31.6667V20.0832L35 16.7499V31.6666C35 32.5832 34.6736 33.368 34.0208 34.0207C33.3681 34.6735 32.5833 34.9999 31.6667 34.9999H8.33333ZM15 24.9999V17.9166L30.2917 2.62491C30.625 2.29158 31 2.04158 31.4167 1.87491C31.8333 1.70824 32.25 1.62491 32.6667 1.62491C33.1111 1.62491 33.5347 1.70824 33.9375 1.87491C34.3403 2.04158 34.7083 2.29158 35.0417 2.62491L37.375 4.99991C37.6806 5.33324 37.9167 5.7013 38.0833 6.10408C38.25 6.50685 38.3333 6.91658 38.3333 7.33324C38.3333 7.74991 38.2569 8.15963 38.1042 8.56241C37.9514 8.96519 37.7083 9.33324 37.375 9.66658L22.0833 24.9999H15ZM18.3333 21.6666H20.6667L30.3333 11.9999L29.1667 10.8332L27.9583 9.66658L18.3333 19.2916V21.6666Z" fill="#303345"/>
</svg>
