<svg width="40" height="40" viewBox="0 0 40 40" fill="none" xmlns="http://www.w3.org/2000/svg">
<path d="M19.9999 28.3333C20.4721 28.3333 20.868 28.1736 21.1874 27.8541C21.5069 27.5347 21.6666 27.1388 21.6666 26.6666C21.6666 26.1944 21.5069 25.7986 21.1874 25.4791C20.868 25.1597 20.4721 25 19.9999 25C19.5277 25 19.1319 25.1597 18.8124 25.4791C18.493 25.7986 18.3333 26.1944 18.3333 26.6666C18.3333 27.1388 18.493 27.5347 18.8124 27.8541C19.1319 28.1736 19.5277 28.3333 19.9999 28.3333ZM18.3333 21.6666H21.6666V11.6666H18.3333V21.6666ZM19.9999 36.6666C17.6944 36.6666 15.5277 36.2291 13.4999 35.3541C11.4721 34.4791 9.70825 33.2916 8.20825 31.7916C6.70825 30.2916 5.52075 28.5277 4.64575 26.5C3.77075 24.4722 3.33325 22.3055 3.33325 20C3.33325 17.6944 3.77075 15.5277 4.64575 13.5C5.52075 11.4722 6.70825 9.70828 8.20825 8.20828C9.70825 6.70828 11.4721 5.52078 13.4999 4.64578C15.5277 3.77078 17.6944 3.33328 19.9999 3.33328C22.3055 3.33328 24.4721 3.77078 26.4999 4.64578C28.5277 5.52078 30.2916 6.70828 31.7916 8.20828C33.2916 9.70828 34.4791 11.4722 35.3541 13.5C36.2291 15.5277 36.6666 17.6944 36.6666 20C36.6666 22.3055 36.2291 24.4722 35.3541 26.5C34.4791 28.5277 33.2916 30.2916 31.7916 31.7916C30.2916 33.2916 28.5277 34.4791 26.4999 35.3541C24.4721 36.2291 22.3055 36.6666 19.9999 36.6666ZM19.9999 33.3333C23.7221 33.3333 26.8749 32.0416 29.4583 29.4583C32.0416 26.875 33.3333 23.7222 33.3333 20C33.3333 16.2777 32.0416 13.125 29.4583 10.5416C26.8749 7.95828 23.7221 6.66662 19.9999 6.66662C16.2777 6.66662 13.1249 7.95828 10.5416 10.5416C7.95825 13.125 6.66659 16.2777 6.66659 20C6.66659 23.7222 7.95825 26.875 10.5416 29.4583C13.1249 32.0416 16.2777 33.3333 19.9999 33.3333Z" fill="#303345"/>
</svg>
