<svg width="40" height="40" viewBox="0 0 40 40" fill="none" xmlns="http://www.w3.org/2000/svg">
<path d="M24.9998 36.6666V33.3333H31.6665V16.6666H8.33317V23.3333H4.99984V9.99995C4.99984 9.08328 5.32623 8.29856 5.979 7.64578C6.63178 6.993 7.4165 6.66662 8.33317 6.66662H9.99984V3.33328H13.3332V6.66662H26.6665V3.33328H29.9998V6.66662H31.6665C32.5832 6.66662 33.3679 6.993 34.0207 7.64578C34.6735 8.29856 34.9998 9.08328 34.9998 9.99995V33.3333C34.9998 34.25 34.6735 35.0347 34.0207 35.6875C33.3679 36.3402 32.5832 36.6666 31.6665 36.6666H24.9998ZM13.3332 40L10.9998 37.6666L15.2915 33.3333H1.6665V30H15.2915L10.9998 25.6666L13.3332 23.3333L21.6665 31.6666L13.3332 40ZM8.33317 13.3333H31.6665V9.99995H8.33317V13.3333Z" fill="#303345"/>
</svg>
