<svg width="40" height="40" viewBox="0 0 40 40" fill="none" xmlns="http://www.w3.org/2000/svg">
<path d="M19.9998 33.3334C16.2776 33.3334 13.1248 32.0417 10.5415 29.4584C7.95817 26.8751 6.6665 23.7223 6.6665 20.0001C6.6665 16.2778 7.95817 13.1251 10.5415 10.5417C13.1248 7.95838 16.2776 6.66672 19.9998 6.66672C23.7221 6.66672 26.8748 7.95838 29.4582 10.5417C32.0415 13.1251 33.3332 16.2778 33.3332 20.0001C33.3332 23.7223 32.0415 26.8751 29.4582 29.4584C26.8748 32.0417 23.7221 33.3334 19.9998 33.3334ZM19.9998 30.0001C22.7776 30.0001 25.1387 29.0278 27.0832 27.0834C29.0276 25.1389 29.9998 22.7778 29.9998 20.0001C29.9998 19.5278 29.9651 19.0626 29.8957 18.6042C29.8262 18.1459 29.7221 17.6945 29.5832 17.2501C29.1665 17.3334 28.7498 17.3959 28.3332 17.4376C27.9165 17.4792 27.4998 17.5001 27.0832 17.5001C25.3332 17.5001 23.6665 17.1667 22.0832 16.5001C20.4998 15.8334 19.0832 14.8612 17.8332 13.5834C17.0554 15.1667 15.9859 16.5417 14.6248 17.7084C13.2637 18.8751 11.7221 19.7223 9.99984 20.2501C10.0832 22.9723 11.0901 25.2778 13.0207 27.1667C14.9512 29.0556 17.2776 30.0001 19.9998 30.0001ZM10.6665 16.4167C11.8887 15.7778 12.8193 15.0348 13.4582 14.1876C14.0971 13.3403 14.7221 12.3334 15.3332 11.1667C14.2776 11.7223 13.3471 12.4514 12.5415 13.3542C11.7359 14.257 11.1109 15.2778 10.6665 16.4167ZM15.8332 23.3334C15.3609 23.3334 14.9651 23.1737 14.6457 22.8542C14.3262 22.5348 14.1665 22.1389 14.1665 21.6667C14.1665 21.1945 14.3262 20.7987 14.6457 20.4792C14.9651 20.1598 15.3609 20.0001 15.8332 20.0001C16.3054 20.0001 16.7012 20.1598 17.0207 20.4792C17.3401 20.7987 17.4998 21.1945 17.4998 21.6667C17.4998 22.1389 17.3401 22.5348 17.0207 22.8542C16.7012 23.1737 16.3054 23.3334 15.8332 23.3334ZM27.0832 14.1667H27.5832C27.7498 14.1667 27.9165 14.1528 28.0832 14.1251C27.1665 12.8751 26.0068 11.8751 24.604 11.1251C23.2012 10.3751 21.6665 10.0001 19.9998 10.0001H19.4998C19.3332 10.0001 19.1804 10.0139 19.0415 10.0417C20.1248 11.2917 21.2707 12.2917 22.479 13.0417C23.6873 13.7917 25.2221 14.1667 27.0832 14.1667ZM24.1665 23.3334C23.6943 23.3334 23.2984 23.1737 22.979 22.8542C22.6596 22.5348 22.4998 22.1389 22.4998 21.6667C22.4998 21.1945 22.6596 20.7987 22.979 20.4792C23.2984 20.1598 23.6943 20.0001 24.1665 20.0001C24.6387 20.0001 25.0346 20.1598 25.354 20.4792C25.6734 20.7987 25.8332 21.1945 25.8332 21.6667C25.8332 22.1389 25.6734 22.5348 25.354 22.8542C25.0346 23.1737 24.6387 23.3334 24.1665 23.3334ZM1.6665 10.0001V5.00005C1.6665 4.08338 1.99289 3.29866 2.64567 2.64588C3.29845 1.99311 4.08317 1.66672 4.99984 1.66672H9.99984V5.00005H4.99984V10.0001H1.6665ZM9.99984 38.3334H4.99984C4.08317 38.3334 3.29845 38.007 2.64567 37.3542C1.99289 36.7014 1.6665 35.9167 1.6665 35.0001V30.0001H4.99984V35.0001H9.99984V38.3334ZM29.9998 38.3334V35.0001H34.9998V30.0001H38.3332V35.0001C38.3332 35.9167 38.0068 36.7014 37.354 37.3542C36.7012 38.007 35.9165 38.3334 34.9998 38.3334H29.9998ZM34.9998 10.0001V5.00005H29.9998V1.66672H34.9998C35.9165 1.66672 36.7012 1.99311 37.354 2.64588C38.0068 3.29866 38.3332 4.08338 38.3332 5.00005V10.0001H34.9998Z" fill="#303345"/>
</svg>
