<svg width="40" height="40" viewBox="0 0 40 40" fill="none" xmlns="http://www.w3.org/2000/svg">
<path d="M20.0002 20.0001V3.33338C20.0002 2.86116 20.1599 2.46533 20.4794 2.14588C20.7988 1.82644 21.1946 1.66672 21.6669 1.66672C22.1391 1.66672 22.5349 1.82644 22.8544 2.14588C23.1738 2.46533 23.3335 2.86116 23.3335 3.33338V20.0001H20.0002ZM13.3335 20.0001V5.00005C13.3335 4.52783 13.4933 4.132 13.8127 3.81255C14.1321 3.49311 14.528 3.33338 15.0002 3.33338C15.4724 3.33338 15.8683 3.49311 16.1877 3.81255C16.5071 4.132 16.6669 4.52783 16.6669 5.00005V20.0001H13.3335ZM20.8335 38.3334C16.8891 38.3334 13.5419 36.9584 10.7919 34.2084C8.04187 31.4584 6.66687 28.1112 6.66687 24.1667V8.33338C6.66687 7.86116 6.82659 7.46533 7.14604 7.14588C7.46548 6.82644 7.86131 6.66672 8.33354 6.66672C8.80576 6.66672 9.20159 6.82644 9.52104 7.14588C9.84048 7.46533 10.0002 7.86116 10.0002 8.33338V24.1667C10.0002 27.1945 11.0488 29.757 13.146 31.8542C15.2433 33.9514 17.8058 35.0001 20.8335 35.0001C23.8613 35.0001 26.4238 33.9514 28.521 31.8542C30.6183 29.757 31.6669 27.1945 31.6669 24.1667V18.3334C31.1947 18.3334 30.7988 18.4931 30.4794 18.8126C30.1599 19.132 30.0002 19.5278 30.0002 20.0001V26.6667H25.0002C24.0835 26.6667 23.2988 26.9931 22.646 27.6459C21.9933 28.2987 21.6669 29.0834 21.6669 30.0001V31.6667H18.3335V30.0001C18.3335 28.1667 18.9863 26.5973 20.2919 25.2917C21.5974 23.9862 23.1669 23.3334 25.0002 23.3334H26.6669V6.66672C26.6669 6.1945 26.8266 5.79866 27.146 5.47922C27.4655 5.15977 27.8613 5.00005 28.3335 5.00005C28.8058 5.00005 29.2016 5.15977 29.521 5.47922C29.8405 5.79866 30.0002 6.1945 30.0002 6.66672V15.2917C30.278 15.2084 30.5488 15.1389 30.8127 15.0834C31.0766 15.0278 31.3613 15.0001 31.6669 15.0001H35.0002V24.1667C35.0002 28.1112 33.6252 31.4584 30.8752 34.2084C28.1252 36.9584 24.778 38.3334 20.8335 38.3334Z" fill="#303345"/>
</svg>
