<svg width="40" height="40" viewBox="0 0 40 40" fill="none" xmlns="http://www.w3.org/2000/svg">
<path d="M7.66653 16.6667H32.3332L31.8749 10.0001H8.12486L7.66653 16.6667ZM6.91653 28.3334H33.0832L32.5415 20.0001H7.4582L6.91653 28.3334ZM8.3332 33.3334L7.79153 31.6667H6.91653C5.94431 31.6667 5.13181 31.3195 4.47903 30.6251C3.82625 29.9306 3.52764 29.0973 3.5832 28.1251L4.79153 9.79172C4.84709 8.90283 5.19431 8.15977 5.8332 7.56255C6.47209 6.96533 7.23597 6.66672 8.12486 6.66672H31.8749C32.7638 6.66672 33.5276 6.96533 34.1665 7.56255C34.8054 8.15977 35.1526 8.90283 35.2082 9.79172L36.4165 28.1251C36.4721 29.0973 36.1735 29.9306 35.5207 30.6251C34.8679 31.3195 34.0554 31.6667 33.0832 31.6667H32.2082L31.6665 33.3334H8.3332Z" fill="#303345"/>
</svg>
