<svg width="40" height="40" viewBox="0 0 40 40" fill="none" xmlns="http://www.w3.org/2000/svg">
<path d="M1.66663 33.3334V28.6667C1.66663 27.7223 1.90968 26.8542 2.39579 26.0626C2.8819 25.2709 3.52774 24.6667 4.33329 24.2501C6.05551 23.3889 7.80551 22.7431 9.58329 22.3126C11.3611 21.882 13.1666 21.6667 15 21.6667C16.8333 21.6667 18.6388 21.882 20.4166 22.3126C22.1944 22.7431 23.9444 23.3889 25.6666 24.2501C26.4722 24.6667 27.118 25.2709 27.6041 26.0626C28.0902 26.8542 28.3333 27.7223 28.3333 28.6667V33.3334H1.66663ZM31.6666 33.3334V28.3334C31.6666 27.1112 31.3263 25.9376 30.6458 24.8126C29.9652 23.6876 29 22.7223 27.75 21.9167C29.1666 22.0834 30.5 22.3681 31.75 22.7709C33 23.1737 34.1666 23.6667 35.25 24.2501C36.25 24.8056 37.0138 25.4237 37.5416 26.1042C38.0694 26.7848 38.3333 27.5278 38.3333 28.3334V33.3334H31.6666ZM15 20.0001C13.1666 20.0001 11.5972 19.3473 10.2916 18.0417C8.98607 16.7362 8.33329 15.1667 8.33329 13.3334C8.33329 11.5001 8.98607 9.93061 10.2916 8.62505C11.5972 7.3195 13.1666 6.66672 15 6.66672C16.8333 6.66672 18.4027 7.3195 19.7083 8.62505C21.0138 9.93061 21.6666 11.5001 21.6666 13.3334C21.6666 15.1667 21.0138 16.7362 19.7083 18.0417C18.4027 19.3473 16.8333 20.0001 15 20.0001ZM31.6666 13.3334C31.6666 15.1667 31.0138 16.7362 29.7083 18.0417C28.4027 19.3473 26.8333 20.0001 25 20.0001C24.6944 20.0001 24.3055 19.9653 23.8333 19.8959C23.3611 19.8264 22.9722 19.7501 22.6666 19.6667C23.4166 18.7778 23.993 17.7917 24.3958 16.7084C24.7986 15.6251 25 14.5001 25 13.3334C25 12.1667 24.7986 11.0417 24.3958 9.95838C23.993 8.87505 23.4166 7.88894 22.6666 7.00005C23.0555 6.86116 23.4444 6.77088 23.8333 6.72922C24.2222 6.68755 24.6111 6.66672 25 6.66672C26.8333 6.66672 28.4027 7.3195 29.7083 8.62505C31.0138 9.93061 31.6666 11.5001 31.6666 13.3334ZM4.99996 30.0001H25V28.6667C25 28.3612 24.9236 28.0834 24.7708 27.8334C24.618 27.5834 24.4166 27.3889 24.1666 27.2501C22.6666 26.5001 21.1527 25.9376 19.625 25.5626C18.0972 25.1876 16.5555 25.0001 15 25.0001C13.4444 25.0001 11.9027 25.1876 10.375 25.5626C8.84718 25.9376 7.33329 26.5001 5.83329 27.2501C5.58329 27.3889 5.3819 27.5834 5.22913 27.8334C5.07635 28.0834 4.99996 28.3612 4.99996 28.6667V30.0001ZM15 16.6667C15.9166 16.6667 16.7013 16.3403 17.3541 15.6876C18.0069 15.0348 18.3333 14.2501 18.3333 13.3334C18.3333 12.4167 18.0069 11.632 17.3541 10.9792C16.7013 10.3264 15.9166 10.0001 15 10.0001C14.0833 10.0001 13.2986 10.3264 12.6458 10.9792C11.993 11.632 11.6666 12.4167 11.6666 13.3334C11.6666 14.2501 11.993 15.0348 12.6458 15.6876C13.2986 16.3403 14.0833 16.6667 15 16.6667Z" fill="#303345"/>
</svg>
