<svg width="40" height="40" viewBox="0 0 40 40" fill="none" xmlns="http://www.w3.org/2000/svg">
<path d="M20.8333 19.9167C21.6389 19.0278 22.2569 18.0139 22.6875 16.8751C23.1181 15.7362 23.3333 14.5556 23.3333 13.3334C23.3333 12.1112 23.1181 10.9306 22.6875 9.79172C22.2569 8.65283 21.6389 7.63894 20.8333 6.75005C22.5 6.97227 23.8889 7.70838 25 8.95838C26.1111 10.2084 26.6667 11.6667 26.6667 13.3334C26.6667 15.0001 26.1111 16.4584 25 17.7084C23.8889 18.9584 22.5 19.6945 20.8333 19.9167ZM30 33.3334V28.3334C30 27.3334 29.7778 26.382 29.3333 25.4792C28.8889 24.5764 28.3056 23.7778 27.5833 23.0834C29 23.5834 30.3125 24.2292 31.5208 25.0209C32.7292 25.8126 33.3333 26.9167 33.3333 28.3334V33.3334H30ZM33.3333 21.6667V18.3334H30V15.0001H33.3333V11.6667H36.6667V15.0001H40V18.3334H36.6667V21.6667H33.3333ZM13.3333 20.0001C11.5 20.0001 9.93056 19.3473 8.625 18.0417C7.31944 16.7362 6.66667 15.1667 6.66667 13.3334C6.66667 11.5001 7.31944 9.93061 8.625 8.62505C9.93056 7.3195 11.5 6.66672 13.3333 6.66672C15.1667 6.66672 16.7361 7.3195 18.0417 8.62505C19.3472 9.93061 20 11.5001 20 13.3334C20 15.1667 19.3472 16.7362 18.0417 18.0417C16.7361 19.3473 15.1667 20.0001 13.3333 20.0001ZM0 33.3334V28.6667C0 27.7223 0.243056 26.8542 0.729167 26.0626C1.21528 25.2709 1.86111 24.6667 2.66667 24.2501C4.38889 23.3889 6.13889 22.7431 7.91667 22.3126C9.69444 21.882 11.5 21.6667 13.3333 21.6667C15.1667 21.6667 16.9722 21.882 18.75 22.3126C20.5278 22.7431 22.2778 23.3889 24 24.2501C24.8056 24.6667 25.4514 25.2709 25.9375 26.0626C26.4236 26.8542 26.6667 27.7223 26.6667 28.6667V33.3334H0ZM13.3333 16.6667C14.25 16.6667 15.0347 16.3403 15.6875 15.6876C16.3403 15.0348 16.6667 14.2501 16.6667 13.3334C16.6667 12.4167 16.3403 11.632 15.6875 10.9792C15.0347 10.3264 14.25 10.0001 13.3333 10.0001C12.4167 10.0001 11.6319 10.3264 10.9792 10.9792C10.3264 11.632 10 12.4167 10 13.3334C10 14.2501 10.3264 15.0348 10.9792 15.6876C11.6319 16.3403 12.4167 16.6667 13.3333 16.6667ZM3.33333 30.0001H23.3333V28.6667C23.3333 28.3612 23.2569 28.0834 23.1042 27.8334C22.9514 27.5834 22.75 27.3889 22.5 27.2501C21 26.5001 19.4861 25.9376 17.9583 25.5626C16.4306 25.1876 14.8889 25.0001 13.3333 25.0001C11.7778 25.0001 10.2361 25.1876 8.70833 25.5626C7.18056 25.9376 5.66667 26.5001 4.16667 27.2501C3.91667 27.3889 3.71528 27.5834 3.5625 27.8334C3.40972 28.0834 3.33333 28.3612 3.33333 28.6667V30.0001Z" fill="#303345"/>
</svg>
