<svg width="40" height="40" viewBox="0 0 40 40" fill="none" xmlns="http://www.w3.org/2000/svg">
<path d="M19.7921 33.3333C19.9032 33.3333 20.0143 33.3055 20.1254 33.25C20.2365 33.1944 20.3198 33.1388 20.3754 33.0833L34.0421 19.4166C34.3754 19.0833 34.6184 18.7083 34.7712 18.2916C34.924 17.875 35.0004 17.4583 35.0004 17.0416C35.0004 16.5972 34.924 16.1736 34.7712 15.7708C34.6184 15.368 34.3754 15.0138 34.0421 14.7083L26.9587 7.62495C26.6532 7.29162 26.299 7.04856 25.8962 6.89578C25.4934 6.74301 25.0698 6.66662 24.6254 6.66662C24.2087 6.66662 23.7921 6.74301 23.3754 6.89578C22.9587 7.04856 22.5837 7.29162 22.2504 7.62495L21.7921 8.08328L24.8754 11.2083C25.2921 11.5972 25.5976 12.0416 25.7921 12.5416C25.9865 13.0416 26.0837 13.5694 26.0837 14.125C26.0837 15.2916 25.6879 16.2708 24.8962 17.0625C24.1046 17.8541 23.1254 18.25 21.9587 18.25C21.4032 18.25 20.8684 18.1527 20.3546 17.9583C19.8407 17.7638 19.3893 17.4722 19.0004 17.0833L15.8754 14L8.58372 21.2916C8.50039 21.375 8.43789 21.4652 8.39622 21.5625C8.35456 21.6597 8.33372 21.7638 8.33372 21.875C8.33372 22.0972 8.41706 22.2986 8.58372 22.4791C8.75039 22.6597 8.94484 22.75 9.16706 22.75C9.27817 22.75 9.38928 22.7222 9.50039 22.6666C9.6115 22.6111 9.69483 22.5555 9.75039 22.5L15.4171 16.8333L17.7504 19.1666L12.1254 24.8333C12.0421 24.9166 11.9796 25.0069 11.9379 25.1041C11.8962 25.2013 11.8754 25.3055 11.8754 25.4166C11.8754 25.6388 11.9587 25.8333 12.1254 26C12.2921 26.1666 12.4865 26.25 12.7087 26.25C12.8198 26.25 12.9309 26.2222 13.0421 26.1666C13.1532 26.1111 13.2365 26.0555 13.2921 26L18.9587 20.375L21.2921 22.7083L15.6671 28.375C15.5837 28.4305 15.5212 28.5138 15.4796 28.625C15.4379 28.7361 15.4171 28.8472 15.4171 28.9583C15.4171 29.1805 15.5004 29.375 15.6671 29.5416C15.8337 29.7083 16.0282 29.7916 16.2504 29.7916C16.3615 29.7916 16.4657 29.7708 16.5629 29.7291C16.6601 29.6875 16.7504 29.625 16.8337 29.5416L22.5004 23.9166L24.8337 26.25L19.1671 31.9166C19.0837 32 19.0212 32.0902 18.9796 32.1875C18.9379 32.2847 18.9171 32.3888 18.9171 32.5C18.9171 32.7222 19.0073 32.9166 19.1879 33.0833C19.3684 33.25 19.5698 33.3333 19.7921 33.3333ZM19.7504 36.6666C18.7226 36.6666 17.8129 36.3263 17.0212 35.6458C16.2296 34.9652 15.7643 34.1111 15.6254 33.0833C14.6809 32.9444 13.8893 32.5555 13.2504 31.9166C12.6115 31.2777 12.2226 30.4861 12.0837 29.5416C11.1393 29.4027 10.3546 29.0069 9.72956 28.3541C9.10456 27.7013 8.72261 26.9166 8.58372 26C7.52817 25.8611 6.66706 25.4027 6.00039 24.625C5.33372 23.8472 5.00039 22.9305 5.00039 21.875C5.00039 21.3194 5.10456 20.7847 5.31289 20.2708C5.52122 19.7569 5.81984 19.3055 6.20872 18.9166L15.8754 9.29162L21.3337 14.75C21.3893 14.8333 21.4726 14.8958 21.5837 14.9375C21.6948 14.9791 21.8059 15 21.9171 15C22.1671 15 22.3754 14.9236 22.5421 14.7708C22.7087 14.618 22.7921 14.4166 22.7921 14.1666C22.7921 14.0555 22.7712 13.9444 22.7296 13.8333C22.6879 13.7222 22.6254 13.6388 22.5421 13.5833L16.5837 7.62495C16.2782 7.29162 15.924 7.04856 15.5212 6.89578C15.1184 6.74301 14.6948 6.66662 14.2504 6.66662C13.8337 6.66662 13.4171 6.74301 13.0004 6.89578C12.5837 7.04856 12.2087 7.29162 11.8754 7.62495L6.00039 13.5416C5.75039 13.7916 5.54206 14.0833 5.37539 14.4166C5.20872 14.75 5.09761 15.0833 5.04206 15.4166C4.9865 15.75 4.9865 16.0902 5.04206 16.4375C5.09761 16.7847 5.20872 17.1111 5.37539 17.4166L2.95872 19.8333C2.4865 19.1944 2.13928 18.493 1.91706 17.7291C1.69484 16.9652 1.6115 16.1944 1.66706 15.4166C1.72261 14.6388 1.91706 13.8819 2.25039 13.1458C2.58372 12.4097 3.04206 11.75 3.62539 11.1666L9.50039 5.29162C10.1671 4.65273 10.9101 4.16662 11.7296 3.83328C12.549 3.49995 13.3893 3.33328 14.2504 3.33328C15.1115 3.33328 15.9518 3.49995 16.7712 3.83328C17.5907 4.16662 18.3198 4.65273 18.9587 5.29162L19.4171 5.74995L19.8754 5.29162C20.5421 4.65273 21.2851 4.16662 22.1046 3.83328C22.924 3.49995 23.7643 3.33328 24.6254 3.33328C25.4865 3.33328 26.3268 3.49995 27.1462 3.83328C27.9657 4.16662 28.6948 4.65273 29.3337 5.29162L36.3754 12.3333C37.0143 12.9722 37.5004 13.7083 37.8337 14.5416C38.1671 15.375 38.3337 16.2222 38.3337 17.0833C38.3337 17.9444 38.1671 18.7847 37.8337 19.6041C37.5004 20.4236 37.0143 21.1527 36.3754 21.7916L22.7087 35.4166C22.3198 35.8055 21.8684 36.1111 21.3546 36.3333C20.8407 36.5555 20.3059 36.6666 19.7504 36.6666Z" fill="#303345"/>
</svg>
