<svg width="40" height="40" viewBox="0 0 40 40" fill="none" xmlns="http://www.w3.org/2000/svg">
<path d="M13.3335 33.3333H26.6669V28.3333C26.6669 26.5 26.0141 24.9305 24.7085 23.625C23.403 22.3194 21.8335 21.6666 20.0002 21.6666C18.1669 21.6666 16.5974 22.3194 15.2919 23.625C13.9863 24.9305 13.3335 26.5 13.3335 28.3333V33.3333ZM20.0002 18.3333C21.8335 18.3333 23.403 17.6805 24.7085 16.375C26.0141 15.0694 26.6669 13.5 26.6669 11.6666V6.66662H13.3335V11.6666C13.3335 13.5 13.9863 15.0694 15.2919 16.375C16.5974 17.6805 18.1669 18.3333 20.0002 18.3333ZM6.66687 36.6666V33.3333H10.0002V28.3333C10.0002 26.6388 10.396 25.0486 11.1877 23.5625C11.9794 22.0763 13.0835 20.8888 14.5002 20C13.0835 19.1111 11.9794 17.9236 11.1877 16.4375C10.396 14.9513 10.0002 13.3611 10.0002 11.6666V6.66662H6.66687V3.33328H33.3335V6.66662H30.0002V11.6666C30.0002 13.3611 29.6044 14.9513 28.8127 16.4375C28.021 17.9236 26.9169 19.1111 25.5002 20C26.9169 20.8888 28.021 22.0763 28.8127 23.5625C29.6044 25.0486 30.0002 26.6388 30.0002 28.3333V33.3333H33.3335V36.6666H6.66687Z" fill="#303345"/>
</svg>
