<svg width="40" height="40" viewBox="0 0 40 40" fill="none" xmlns="http://www.w3.org/2000/svg">
<path d="M19.1665 22.5001H27.4998V19.1667H19.1665V22.5001ZM16.6665 25.0001V16.6667H29.9998V25.0001H16.6665ZM6.66646 33.3334C5.7498 33.3334 4.96507 33.007 4.3123 32.3542C3.65952 31.7014 3.33313 30.9167 3.33313 30.0001V10.0001C3.33313 9.08338 3.65952 8.29866 4.3123 7.64588C4.96507 6.99311 5.7498 6.66672 6.66646 6.66672H33.3331C34.2498 6.66672 35.0345 6.99311 35.6873 7.64588C36.3401 8.29866 36.6665 9.08338 36.6665 10.0001V30.0001C36.6665 30.9167 36.3401 31.7014 35.6873 32.3542C35.0345 33.007 34.2498 33.3334 33.3331 33.3334H6.66646ZM6.66646 30.0001H33.3331V13.3334H6.66646V30.0001Z" fill="#303345"/>
</svg>
