<svg width="40" height="40" viewBox="0 0 40 40" fill="none" xmlns="http://www.w3.org/2000/svg">
<g clip-path="url(#clip0_30_43149)">
<path d="M11.6669 23.3333C10.7502 23.3333 9.96548 23.0069 9.3127 22.3542C8.65993 21.7014 8.33354 20.9167 8.33354 20C8.33354 19.0833 8.65993 18.2986 9.3127 17.6458C9.96548 16.9931 10.7502 16.6667 11.6669 16.6667C12.5835 16.6667 13.3683 16.9931 14.021 17.6458C14.6738 18.2986 15.0002 19.0833 15.0002 20C15.0002 20.9167 14.6738 21.7014 14.021 22.3542C13.3683 23.0069 12.5835 23.3333 11.6669 23.3333ZM11.6669 30C8.88909 30 6.52798 29.0278 4.58354 27.0833C2.63909 25.1389 1.66687 22.7778 1.66687 20C1.66687 17.2222 2.63909 14.8611 4.58354 12.9167C6.52798 10.9722 8.88909 10 11.6669 10C13.528 10 15.2155 10.4583 16.7294 11.375C18.2433 12.2917 19.4446 13.5 20.3335 15H35.0002L40.0002 20L32.5002 27.5L29.1669 25L25.8335 27.5L22.2919 25H20.3335C19.4446 26.5 18.2433 27.7083 16.7294 28.625C15.2155 29.5417 13.528 30 11.6669 30ZM11.6669 26.6667C13.2224 26.6667 14.5905 26.1944 15.771 25.25C16.9516 24.3056 17.7363 23.1111 18.1252 21.6667H23.3335L25.7502 23.375L29.1669 20.8333L32.1252 23.125L35.2502 20L33.5835 18.3333H18.1252C17.7363 16.8889 16.9516 15.6944 15.771 14.75C14.5905 13.8056 13.2224 13.3333 11.6669 13.3333C9.83354 13.3333 8.26409 13.9861 6.95854 15.2917C5.65298 16.5972 5.0002 18.1667 5.0002 20C5.0002 21.8333 5.65298 23.4028 6.95854 24.7083C8.26409 26.0139 9.83354 26.6667 11.6669 26.6667Z" fill="#303345"/>
</g>
<defs>
<clipPath id="clip0_30_43149">
<rect width="40" height="40" fill="white"/>
</clipPath>
</defs>
</svg>
