<svg width="40" height="40" viewBox="0 0 40 40" fill="none" xmlns="http://www.w3.org/2000/svg">
<path d="M19.9998 36.6666C17.722 36.6666 15.5692 36.2291 13.5415 35.3541C11.5137 34.4791 9.74285 33.2847 8.22896 31.7708C6.71507 30.2569 5.52063 28.4861 4.64563 26.4583C3.77063 24.4305 3.33313 22.2777 3.33313 20C3.33313 17.6944 3.77063 15.5347 4.64563 13.5208C5.52063 11.5069 6.71507 9.74301 8.22896 8.22912C9.74285 6.71523 11.5137 5.52078 13.5415 4.64578C15.5692 3.77078 17.722 3.33328 19.9998 3.33328C22.3054 3.33328 24.4651 3.77078 26.479 4.64578C28.4929 5.52078 30.2567 6.71523 31.7706 8.22912C33.2845 9.74301 34.479 11.5069 35.354 13.5208C36.229 15.5347 36.6665 17.6944 36.6665 20C36.6665 22.2777 36.229 24.4305 35.354 26.4583C34.479 28.4861 33.2845 30.2569 31.7706 31.7708C30.2567 33.2847 28.4929 34.4791 26.479 35.3541C24.4651 36.2291 22.3054 36.6666 19.9998 36.6666ZM19.9998 33.25C20.722 32.25 21.347 31.2083 21.8748 30.125C22.4026 29.0416 22.8331 27.8888 23.1665 26.6666H16.8331C17.1665 27.8888 17.597 29.0416 18.1248 30.125C18.6526 31.2083 19.2776 32.25 19.9998 33.25ZM15.6665 32.5833C15.1665 31.6666 14.729 30.7152 14.354 29.7291C13.979 28.743 13.6665 27.7222 13.4165 26.6666H8.4998C9.30535 28.0555 10.3123 29.2638 11.5206 30.2916C12.729 31.3194 14.1109 32.0833 15.6665 32.5833ZM24.3331 32.5833C25.8887 32.0833 27.2706 31.3194 28.479 30.2916C29.6873 29.2638 30.6942 28.0555 31.4998 26.6666H26.5831C26.3331 27.7222 26.0206 28.743 25.6456 29.7291C25.2706 30.7152 24.8331 31.6666 24.3331 32.5833ZM7.08313 23.3333H12.7498C12.6665 22.7777 12.604 22.2291 12.5623 21.6875C12.5206 21.1458 12.4998 20.5833 12.4998 20C12.4998 19.4166 12.5206 18.8541 12.5623 18.3125C12.604 17.7708 12.6665 17.2222 12.7498 16.6666H7.08313C6.94424 17.2222 6.84007 17.7708 6.77063 18.3125C6.70119 18.8541 6.66646 19.4166 6.66646 20C6.66646 20.5833 6.70119 21.1458 6.77063 21.6875C6.84007 22.2291 6.94424 22.7777 7.08313 23.3333ZM16.0831 23.3333H23.9165C23.9998 22.7777 24.0623 22.2291 24.104 21.6875C24.1456 21.1458 24.1665 20.5833 24.1665 20C24.1665 19.4166 24.1456 18.8541 24.104 18.3125C24.0623 17.7708 23.9998 17.2222 23.9165 16.6666H16.0831C15.9998 17.2222 15.9373 17.7708 15.8956 18.3125C15.854 18.8541 15.8331 19.4166 15.8331 20C15.8331 20.5833 15.854 21.1458 15.8956 21.6875C15.9373 22.2291 15.9998 22.7777 16.0831 23.3333ZM27.2498 23.3333H32.9165C33.0554 22.7777 33.1595 22.2291 33.229 21.6875C33.2984 21.1458 33.3331 20.5833 33.3331 20C33.3331 19.4166 33.2984 18.8541 33.229 18.3125C33.1595 17.7708 33.0554 17.2222 32.9165 16.6666H27.2498C27.3331 17.2222 27.3956 17.7708 27.4373 18.3125C27.479 18.8541 27.4998 19.4166 27.4998 20C27.4998 20.5833 27.479 21.1458 27.4373 21.6875C27.3956 22.2291 27.3331 22.7777 27.2498 23.3333ZM26.5831 13.3333H31.4998C30.6942 11.9444 29.6873 10.7361 28.479 9.70828C27.2706 8.68051 25.8887 7.91662 24.3331 7.41662C24.8331 8.33328 25.2706 9.28467 25.6456 10.2708C26.0206 11.2569 26.3331 12.2777 26.5831 13.3333ZM16.8331 13.3333H23.1665C22.8331 12.1111 22.4026 10.9583 21.8748 9.87495C21.347 8.79162 20.722 7.74995 19.9998 6.74995C19.2776 7.74995 18.6526 8.79162 18.1248 9.87495C17.597 10.9583 17.1665 12.1111 16.8331 13.3333ZM8.4998 13.3333H13.4165C13.6665 12.2777 13.979 11.2569 14.354 10.2708C14.729 9.28467 15.1665 8.33328 15.6665 7.41662C14.1109 7.91662 12.729 8.68051 11.5206 9.70828C10.3123 10.7361 9.30535 11.9444 8.4998 13.3333Z" fill="#303345"/>
</svg>
