<svg width="24" height="24" viewBox="0 0 24 24" fill="none" xmlns="http://www.w3.org/2000/svg">
    <path d="M11.9 22L16.45 10H18.55L23.1 22H21L19.925 18.95H15.075L14 22H11.9ZM4 19L2.6 17.6L7.65 12.55C7.06667 11.9667 6.5375 11.3 6.0625 10.55C5.5875 9.80002 5.15 8.95002 4.75 8.00002H6.85C7.18333 8.65002 7.51667 9.21668 7.85 9.70002C8.18333 10.1833 8.58333 10.6667 9.05 11.15C9.6 10.6 10.1708 9.82918 10.7625 8.83752C11.3542 7.84585 11.8 6.90002 12.1 6.00002H1V4.00002H8V2.00002H10V4.00002H17V6.00002H14.1C13.75 7.20002 13.225 8.43335 12.525 9.70002C11.825 10.9667 11.1333 11.9333 10.45 12.6L12.85 15.05L12.1 17.1L9.05 13.975L4 19ZM15.7 17.2H19.3L17.5 12.1L15.7 17.2Z" fill="#303345"/>
</svg>