<svg width="40" height="40" viewBox="0 0 40 40" fill="none" xmlns="http://www.w3.org/2000/svg">
<path d="M31.6669 15.0001C30.0835 15.0001 28.7085 14.5278 27.5419 13.5834C26.3752 12.6389 25.5974 11.4445 25.2085 10.0001H14.7502C14.4446 11.1667 13.8683 12.1737 13.021 13.0209C12.1738 13.8681 11.1669 14.4445 10.0002 14.7501V25.2084C11.4446 25.5973 12.6391 26.3751 13.5835 27.5417C14.528 28.7084 15.0002 30.0834 15.0002 31.6667C15.0002 33.5001 14.3474 35.0695 13.0419 36.3751C11.7363 37.6806 10.1669 38.3334 8.33354 38.3334C6.5002 38.3334 4.93076 37.6806 3.6252 36.3751C2.31965 35.0695 1.66687 33.5001 1.66687 31.6667C1.66687 30.0834 2.13909 28.7084 3.08354 27.5417C4.02798 26.3751 5.22243 25.5973 6.66687 25.2084V14.7501C5.22243 14.3612 4.02798 13.5834 3.08354 12.4167C2.13909 11.2501 1.66687 9.88894 1.66687 8.33338C1.66687 6.50005 2.31965 4.93061 3.6252 3.62505C4.93076 2.3195 6.5002 1.66672 8.33354 1.66672C9.88909 1.66672 11.2502 2.13894 12.4169 3.08338C13.5835 4.02783 14.3613 5.22227 14.7502 6.66672H25.2085C25.5974 5.22227 26.3752 4.02783 27.5419 3.08338C28.7085 2.13894 30.0835 1.66672 31.6669 1.66672C33.5002 1.66672 35.0696 2.3195 36.3752 3.62505C37.6808 4.93061 38.3335 6.50005 38.3335 8.33338C38.3335 10.1667 37.6808 11.7362 36.3752 13.0417C35.0696 14.3473 33.5002 15.0001 31.6669 15.0001ZM8.33354 35.0001C9.2502 35.0001 10.0349 34.6667 10.6877 34.0001C11.3405 33.3334 11.6669 32.5556 11.6669 31.6667C11.6669 30.7501 11.3405 29.9653 10.6877 29.3126C10.0349 28.6598 9.2502 28.3334 8.33354 28.3334C7.44465 28.3334 6.66687 28.6598 6.0002 29.3126C5.33354 29.9653 5.0002 30.7501 5.0002 31.6667C5.0002 32.5556 5.33354 33.3334 6.0002 34.0001C6.66687 34.6667 7.44465 35.0001 8.33354 35.0001ZM8.33354 11.6667C9.2502 11.6667 10.0349 11.3403 10.6877 10.6876C11.3405 10.0348 11.6669 9.25005 11.6669 8.33338C11.6669 7.41672 11.3405 6.632 10.6877 5.97922C10.0349 5.32644 9.2502 5.00005 8.33354 5.00005C7.44465 5.00005 6.66687 5.32644 6.0002 5.97922C5.33354 6.632 5.0002 7.41672 5.0002 8.33338C5.0002 9.25005 5.33354 10.0348 6.0002 10.6876C6.66687 11.3403 7.44465 11.6667 8.33354 11.6667ZM31.6669 38.3334C29.8335 38.3334 28.2641 37.6806 26.9585 36.3751C25.653 35.0695 25.0002 33.5001 25.0002 31.6667C25.0002 29.8334 25.653 28.2639 26.9585 26.9584C28.2641 25.6528 29.8335 25.0001 31.6669 25.0001C33.5002 25.0001 35.0696 25.6528 36.3752 26.9584C37.6808 28.2639 38.3335 29.8334 38.3335 31.6667C38.3335 33.5001 37.6808 35.0695 36.3752 36.3751C35.0696 37.6806 33.5002 38.3334 31.6669 38.3334ZM31.6669 35.0001C32.5835 35.0001 33.3683 34.6667 34.021 34.0001C34.6738 33.3334 35.0002 32.5556 35.0002 31.6667C35.0002 30.7501 34.6738 29.9653 34.021 29.3126C33.3683 28.6598 32.5835 28.3334 31.6669 28.3334C30.7502 28.3334 29.9655 28.6598 29.3127 29.3126C28.6599 29.9653 28.3335 30.7501 28.3335 31.6667C28.3335 32.5556 28.6599 33.3334 29.3127 34.0001C29.9655 34.6667 30.7502 35.0001 31.6669 35.0001ZM31.6669 11.6667C32.5835 11.6667 33.3683 11.3403 34.021 10.6876C34.6738 10.0348 35.0002 9.25005 35.0002 8.33338C35.0002 7.41672 34.6738 6.632 34.021 5.97922C33.3683 5.32644 32.5835 5.00005 31.6669 5.00005C30.7502 5.00005 29.9655 5.32644 29.3127 5.97922C28.6599 6.632 28.3335 7.41672 28.3335 8.33338C28.3335 9.25005 28.6599 10.0348 29.3127 10.6876C29.9655 11.3403 30.7502 11.6667 31.6669 11.6667Z" fill="#303345"/>
</svg>
