<svg width="40" height="40" viewBox="0 0 40 40" fill="none" xmlns="http://www.w3.org/2000/svg">
<path d="M3.33337 35V15L16.6667 5L25.625 11.75C24.9306 11.8333 24.2778 11.9931 23.6667 12.2292C23.0556 12.4653 22.4723 12.7778 21.9167 13.1667L16.6667 9.16667L6.66671 16.6667V31.6667H13.3334V35H3.33337ZM16.6667 35V31.8333C16.6667 31.25 16.8125 30.7014 17.1042 30.1875C17.3959 29.6736 17.7917 29.2639 18.2917 28.9583C19.5695 28.2083 20.9098 27.6389 22.3125 27.25C23.7153 26.8611 25.1667 26.6667 26.6667 26.6667C28.1667 26.6667 29.6181 26.8611 31.0209 27.25C32.4237 27.6389 33.7639 28.2083 35.0417 28.9583C35.5417 29.2639 35.9375 29.6736 36.2292 30.1875C36.5209 30.7014 36.6667 31.25 36.6667 31.8333V35H16.6667ZM20.25 31.6667H33.0834C32.1112 31.1111 31.0834 30.6944 30 30.4167C28.9167 30.1389 27.8056 30 26.6667 30C25.5278 30 24.4167 30.1389 23.3334 30.4167C22.25 30.6944 21.2223 31.1111 20.25 31.6667ZM26.6667 25C25.2778 25 24.0973 24.5139 23.125 23.5417C22.1528 22.5694 21.6667 21.3889 21.6667 20C21.6667 18.6111 22.1528 17.4306 23.125 16.4583C24.0973 15.4861 25.2778 15 26.6667 15C28.0556 15 29.2362 15.4861 30.2084 16.4583C31.1806 17.4306 31.6667 18.6111 31.6667 20C31.6667 21.3889 31.1806 22.5694 30.2084 23.5417C29.2362 24.5139 28.0556 25 26.6667 25ZM26.6667 21.6667C27.1389 21.6667 27.5348 21.5069 27.8542 21.1875C28.1737 20.8681 28.3334 20.4722 28.3334 20C28.3334 19.5278 28.1737 19.1319 27.8542 18.8125C27.5348 18.4931 27.1389 18.3333 26.6667 18.3333C26.1945 18.3333 25.7987 18.4931 25.4792 18.8125C25.1598 19.1319 25 19.5278 25 20C25 20.4722 25.1598 20.8681 25.4792 21.1875C25.7987 21.5069 26.1945 21.6667 26.6667 21.6667Z" fill="#303345"/>
</svg>
