<svg width="40" height="40" viewBox="0 0 40 40" fill="none" xmlns="http://www.w3.org/2000/svg">
<path d="M6.66634 33.3334C5.74967 33.3334 4.96495 33.007 4.31217 32.3542C3.6594 31.7014 3.33301 30.9167 3.33301 30.0001V10.0001C3.33301 9.08338 3.6594 8.29866 4.31217 7.64588C4.96495 6.99311 5.74967 6.66672 6.66634 6.66672H33.333C34.2497 6.66672 35.0344 6.99311 35.6872 7.64588C36.34 8.29866 36.6663 9.08338 36.6663 10.0001V30.0001C36.6663 30.9167 36.34 31.7014 35.6872 32.3542C35.0344 33.007 34.2497 33.3334 33.333 33.3334H6.66634ZM19.9997 21.6667L6.66634 13.3334V30.0001H33.333V13.3334L19.9997 21.6667ZM19.9997 18.3334L33.333 10.0001H6.66634L19.9997 18.3334ZM6.66634 13.3334V10.0001V30.0001V13.3334Z" fill="#303345"/>
</svg>
