<svg width="40" height="40" viewBox="0 0 40 40" fill="none" xmlns="http://www.w3.org/2000/svg">
<path d="M20 33.3333C19.0833 33.3333 18.2986 33.0069 17.6458 32.3542C16.993 31.7014 16.6666 30.9167 16.6666 30C16.6666 29.0833 16.993 28.2986 17.6458 27.6458C18.2986 26.9931 19.0833 26.6667 20 26.6667C20.9166 26.6667 21.7013 26.9931 22.3541 27.6458C23.0069 28.2986 23.3333 29.0833 23.3333 30C23.3333 30.9167 23.0069 31.7014 22.3541 32.3542C21.7013 33.0069 20.9166 33.3333 20 33.3333ZM20 23.3333C19.0833 23.3333 18.2986 23.0069 17.6458 22.3542C16.993 21.7014 16.6666 20.9167 16.6666 20C16.6666 19.0833 16.993 18.2986 17.6458 17.6458C18.2986 16.9931 19.0833 16.6667 20 16.6667C20.9166 16.6667 21.7013 16.9931 22.3541 17.6458C23.0069 18.2986 23.3333 19.0833 23.3333 20C23.3333 20.9167 23.0069 21.7014 22.3541 22.3542C21.7013 23.0069 20.9166 23.3333 20 23.3333ZM20 13.3333C19.0833 13.3333 18.2986 13.0069 17.6458 12.3542C16.993 11.7014 16.6666 10.9167 16.6666 10C16.6666 9.08333 16.993 8.29861 17.6458 7.64583C18.2986 6.99305 19.0833 6.66666 20 6.66666C20.9166 6.66666 21.7013 6.99305 22.3541 7.64583C23.0069 8.29861 23.3333 9.08333 23.3333 10C23.3333 10.9167 23.0069 11.7014 22.3541 12.3542C21.7013 13.0069 20.9166 13.3333 20 13.3333Z" fill="#303345"/>
</svg>
