<svg width="40" height="40" viewBox="0 0 40 40" fill="none" xmlns="http://www.w3.org/2000/svg">
<path d="M13.833 25.8333H16.083L17.333 22.4166H22.6663L23.9163 25.8333H26.2497L21.1663 12.5H18.833L13.833 25.8333ZM17.9997 20.5L19.9163 15H20.083L21.9997 20.5H17.9997ZM19.9997 36.6666C17.6941 36.6666 15.5275 36.2291 13.4997 35.3541C11.4719 34.4791 9.70801 33.2916 8.20801 31.7916C6.70801 30.2916 5.52051 28.5277 4.64551 26.5C3.77051 24.4722 3.33301 22.3055 3.33301 20C3.33301 18.8055 3.45801 17.6319 3.70801 16.4791C3.95801 15.3263 4.31912 14.2083 4.79134 13.125L7.37467 15.7083C7.15245 16.4305 6.97884 17.1458 6.85384 17.8541C6.72884 18.5625 6.66634 19.2777 6.66634 20C6.66634 23.7222 7.95801 26.875 10.5413 29.4583C13.1247 32.0416 16.2775 33.3333 19.9997 33.3333C23.7219 33.3333 26.8747 32.0416 29.458 29.4583C32.0413 26.875 33.333 23.7222 33.333 20C33.333 16.2777 32.0413 13.125 29.458 10.5416C26.8747 7.95828 23.7219 6.66662 19.9997 6.66662C19.2497 6.66662 18.5205 6.72912 17.8122 6.85412C17.1038 6.97912 16.4025 7.15273 15.708 7.37495L13.1663 4.83328C14.2775 4.33328 15.3886 3.95828 16.4997 3.70828C17.6108 3.45828 18.7775 3.33328 19.9997 3.33328C22.3052 3.33328 24.4719 3.77078 26.4997 4.64578C28.5275 5.52078 30.2913 6.70828 31.7913 8.20828C33.2913 9.70828 34.4788 11.4722 35.3538 13.5C36.2288 15.5277 36.6663 17.6944 36.6663 20C36.6663 22.3055 36.2288 24.4722 35.3538 26.5C34.4788 28.5277 33.2913 30.2916 31.7913 31.7916C30.2913 33.2916 28.5275 34.4791 26.4997 35.3541C24.4719 36.2291 22.3052 36.6666 19.9997 36.6666ZM9.16634 11.6666C8.4719 11.6666 7.88162 11.4236 7.39551 10.9374C6.9094 10.4513 6.66634 9.86106 6.66634 9.16662C6.66634 8.47217 6.9094 7.88189 7.39551 7.39578C7.88162 6.90967 8.4719 6.66662 9.16634 6.66662C9.86079 6.66662 10.4511 6.90967 10.9372 7.39578C11.4233 7.88189 11.6663 8.47217 11.6663 9.16662C11.6663 9.86106 11.4233 10.4513 10.9372 10.9374C10.4511 11.4236 9.86079 11.6666 9.16634 11.6666Z" fill="#303345"/>
</svg>
