<svg width="40" height="40" viewBox="0 0 40 40" fill="none" xmlns="http://www.w3.org/2000/svg">
<path d="M20.0002 31.6666V28.3333H25.0002L30.9168 19.9999L25.0002 11.6666H8.3335V16.6666H5.00016V11.6666C5.00016 10.7499 5.32655 9.96523 5.97933 9.31245C6.63211 8.65967 7.41683 8.33328 8.3335 8.33328H25.0002C25.5557 8.33328 26.0766 8.45828 26.5627 8.70828C27.0488 8.95828 27.4446 9.3055 27.7502 9.74995L35.0002 19.9999L27.7502 30.25C27.4446 30.6944 27.0488 31.0416 26.5627 31.2916C26.0766 31.5416 25.5557 31.6666 25.0002 31.6666H20.0002ZM8.3335 33.3333V28.3333H3.3335V25H8.3335V19.9999H11.6668V25H16.6668V28.3333H11.6668V33.3333H8.3335Z" fill="#303345"/>
</svg>
