<svg width="40" height="40" viewBox="0 0 40 40" fill="none" xmlns="http://www.w3.org/2000/svg">
<path d="M13.333 26.6666H16.6663V13.3333H13.333V26.6666ZM19.9997 26.6666L29.9997 20L19.9997 13.3333V26.6666ZM19.9997 36.6666C17.6941 36.6666 15.5275 36.2291 13.4997 35.3541C11.4719 34.4791 9.70801 33.2916 8.20801 31.7916C6.70801 30.2916 5.52051 28.5277 4.64551 26.5C3.77051 24.4722 3.33301 22.3055 3.33301 20C3.33301 17.6944 3.77051 15.5277 4.64551 13.5C5.52051 11.4722 6.70801 9.70828 8.20801 8.20828C9.70801 6.70828 11.4719 5.52078 13.4997 4.64578C15.5275 3.77078 17.6941 3.33328 19.9997 3.33328C22.3052 3.33328 24.4719 3.77078 26.4997 4.64578C28.5275 5.52078 30.2913 6.70828 31.7913 8.20828C33.2913 9.70828 34.4788 11.4722 35.3538 13.5C36.2288 15.5277 36.6663 17.6944 36.6663 20C36.6663 22.3055 36.2288 24.4722 35.3538 26.5C34.4788 28.5277 33.2913 30.2916 31.7913 31.7916C30.2913 33.2916 28.5275 34.4791 26.4997 35.3541C24.4719 36.2291 22.3052 36.6666 19.9997 36.6666ZM19.9997 33.3333C23.7219 33.3333 26.8747 32.0416 29.458 29.4583C32.0413 26.875 33.333 23.7222 33.333 20C33.333 16.2777 32.0413 13.125 29.458 10.5416C26.8747 7.95828 23.7219 6.66662 19.9997 6.66662C16.2775 6.66662 13.1247 7.95828 10.5413 10.5416C7.95801 13.125 6.66634 16.2777 6.66634 20C6.66634 23.7222 7.95801 26.875 10.5413 29.4583C13.1247 32.0416 16.2775 33.3333 19.9997 33.3333Z" fill="#303345"/>
</svg>
