<svg width="40" height="40" viewBox="0 0 40 40" fill="none" xmlns="http://www.w3.org/2000/svg">
<path d="M6.66671 31.6666V28.3333H10V16.6666C10 15.7499 10.1181 14.8472 10.3542 13.9583C10.5903 13.0694 10.9445 12.2222 11.4167 11.4166L13.9167 13.9166C13.7223 14.3611 13.5764 14.8124 13.4792 15.2708C13.382 15.7291 13.3334 16.1944 13.3334 16.6666V28.3333H23.6667L2.33337 6.99995L4.66671 4.66662L35.3334 35.3333L33 37.6666L26.9167 31.6666H6.66671ZM30 25.25L26.6667 21.9166V16.6666C26.6667 14.8333 26.0139 13.2638 24.7084 11.9583C23.4028 10.6527 21.8334 9.99995 20 9.99995C19.2778 9.99995 18.5834 10.1111 17.9167 10.3333C17.25 10.5555 16.6389 10.8888 16.0834 11.3333L13.6667 8.91662C14.2223 8.47217 14.8195 8.08328 15.4584 7.74995C16.0973 7.41662 16.7778 7.16662 17.5 6.99995V5.83328C17.5 5.13884 17.7431 4.54856 18.2292 4.06245C18.7153 3.57634 19.3056 3.33328 20 3.33328C20.6945 3.33328 21.2848 3.57634 21.7709 4.06245C22.257 4.54856 22.5 5.13884 22.5 5.83328V6.99995C24.7223 7.5555 26.5278 8.72912 27.9167 10.5208C29.3056 12.3124 30 14.3611 30 16.6666V25.25ZM20 36.6666C19.0834 36.6666 18.2987 36.3402 17.6459 35.6875C16.9931 35.0347 16.6667 34.25 16.6667 33.3333H23.3334C23.3334 34.25 23.007 35.0347 22.3542 35.6875C21.7014 36.3402 20.9167 36.6666 20 36.6666Z" fill="#303345"/>
</svg>
