<svg width="40" height="40" viewBox="0 0 40 40" fill="none" xmlns="http://www.w3.org/2000/svg">
<path d="M18.5 31.6666H21.4167V29.5833C22.8056 29.3333 24 28.7916 25 27.9583C26 27.125 26.5 25.8888 26.5 24.25C26.5 23.0833 26.1667 22.0138 25.5 21.0416C24.8334 20.0694 23.5 19.2222 21.5 18.5C19.8334 17.9444 18.6806 17.4583 18.0417 17.0416C17.4028 16.625 17.0834 16.0555 17.0834 15.3333C17.0834 14.6111 17.3403 14.0416 17.8542 13.625C18.3681 13.2083 19.1112 13 20.0834 13C20.9723 13 21.6667 13.2152 22.1667 13.6458C22.6667 14.0763 23.0278 14.6111 23.25 15.25L25.9167 14.1666C25.6112 13.1944 25.0487 12.3472 24.2292 11.625C23.4098 10.9027 22.5 10.4999 21.5 10.4166V8.33328H18.5834V10.4166C17.1945 10.7222 16.1112 11.3333 15.3334 12.25C14.5556 13.1666 14.1667 14.1944 14.1667 15.3333C14.1667 16.6388 14.5487 17.6944 15.3125 18.5C16.0764 19.3055 17.2778 20 18.9167 20.5833C20.6667 21.2222 21.882 21.7916 22.5625 22.2916C23.2431 22.7916 23.5834 23.4444 23.5834 24.25C23.5834 25.1666 23.257 25.8402 22.6042 26.2708C21.9514 26.7013 21.1667 26.9166 20.25 26.9166C19.3334 26.9166 18.5209 26.6319 17.8125 26.0625C17.1042 25.493 16.5834 24.6388 16.25 23.5L13.5 24.5833C13.8889 25.9166 14.4931 26.993 15.3125 27.8125C16.132 28.6319 17.1945 29.1944 18.5 29.5V31.6666ZM20 36.6666C17.6945 36.6666 15.5278 36.2291 13.5 35.3541C11.4723 34.4791 9.70837 33.2916 8.20837 31.7916C6.70837 30.2916 5.52087 28.5277 4.64587 26.5C3.77087 24.4722 3.33337 22.3055 3.33337 20C3.33337 17.6944 3.77087 15.5277 4.64587 13.5C5.52087 11.4722 6.70837 9.70828 8.20837 8.20828C9.70837 6.70828 11.4723 5.52078 13.5 4.64578C15.5278 3.77078 17.6945 3.33328 20 3.33328C22.3056 3.33328 24.4723 3.77078 26.5 4.64578C28.5278 5.52078 30.2917 6.70828 31.7917 8.20828C33.2917 9.70828 34.4792 11.4722 35.3542 13.5C36.2292 15.5277 36.6667 17.6944 36.6667 20C36.6667 22.3055 36.2292 24.4722 35.3542 26.5C34.4792 28.5277 33.2917 30.2916 31.7917 31.7916C30.2917 33.2916 28.5278 34.4791 26.5 35.3541C24.4723 36.2291 22.3056 36.6666 20 36.6666ZM20 33.3333C23.7223 33.3333 26.875 32.0416 29.4584 29.4583C32.0417 26.875 33.3334 23.7222 33.3334 20C33.3334 16.2777 32.0417 13.125 29.4584 10.5416C26.875 7.95828 23.7223 6.66662 20 6.66662C16.2778 6.66662 13.125 7.95828 10.5417 10.5416C7.95837 13.125 6.66671 16.2777 6.66671 20C6.66671 23.7222 7.95837 26.875 10.5417 29.4583C13.125 32.0416 16.2778 33.3333 20 33.3333Z" fill="#303345"/>
</svg>
