<svg width="40" height="40" viewBox="0 0 40 40" fill="none" xmlns="http://www.w3.org/2000/svg">
<path d="M20.0001 20.0001C18.1667 20.0001 16.5973 19.3473 15.2917 18.0417C13.9862 16.7362 13.3334 15.1667 13.3334 13.3334C13.3334 11.5001 13.9862 9.93061 15.2917 8.62505C16.5973 7.3195 18.1667 6.66672 20.0001 6.66672C21.8334 6.66672 23.4029 7.3195 24.7084 8.62505C26.014 9.93061 26.6667 11.5001 26.6667 13.3334C26.6667 15.1667 26.014 16.7362 24.7084 18.0417C23.4029 19.3473 21.8334 20.0001 20.0001 20.0001ZM6.66675 33.3334V28.6667C6.66675 27.7223 6.9098 26.8542 7.39591 26.0626C7.88203 25.2709 8.52786 24.6667 9.33341 24.2501C11.0556 23.3889 12.8056 22.7431 14.5834 22.3126C16.3612 21.882 18.1667 21.6667 20.0001 21.6667C21.8334 21.6667 23.639 21.882 25.4167 22.3126C27.1945 22.7431 28.9445 23.3889 30.6667 24.2501C31.4723 24.6667 32.1181 25.2709 32.6042 26.0626C33.0904 26.8542 33.3334 27.7223 33.3334 28.6667V33.3334H6.66675ZM10.0001 30.0001H30.0001V28.6667C30.0001 28.3612 29.9237 28.0834 29.7709 27.8334C29.6181 27.5834 29.4167 27.3889 29.1667 27.2501C27.6667 26.5001 26.1529 25.9376 24.6251 25.5626C23.0973 25.1876 21.5556 25.0001 20.0001 25.0001C18.4445 25.0001 16.9029 25.1876 15.3751 25.5626C13.8473 25.9376 12.3334 26.5001 10.8334 27.2501C10.5834 27.3889 10.382 27.5834 10.2292 27.8334C10.0765 28.0834 10.0001 28.3612 10.0001 28.6667V30.0001ZM20.0001 16.6667C20.9167 16.6667 21.7015 16.3403 22.3542 15.6876C23.007 15.0348 23.3334 14.2501 23.3334 13.3334C23.3334 12.4167 23.007 11.632 22.3542 10.9792C21.7015 10.3264 20.9167 10.0001 20.0001 10.0001C19.0834 10.0001 18.2987 10.3264 17.6459 10.9792C16.9931 11.632 16.6667 12.4167 16.6667 13.3334C16.6667 14.2501 16.9931 15.0348 17.6459 15.6876C18.2987 16.3403 19.0834 16.6667 20.0001 16.6667Z" fill="#303345"/>
</svg>
