<svg width="40" height="40" viewBox="0 0 40 40" fill="none" xmlns="http://www.w3.org/2000/svg">
<path d="M3.33337 33.3334V6.66672H36.6667V33.3334H3.33337ZM6.66671 30.0001H33.3334V10.0001H6.66671V30.0001ZM13.3334 28.3334H16.6667V26.6667H18.3334C18.8056 26.6667 19.2014 26.507 19.5209 26.1876C19.8403 25.8681 20 25.4723 20 25.0001V20.0001C20 19.5278 19.8403 19.132 19.5209 18.8126C19.2014 18.4931 18.8056 18.3334 18.3334 18.3334H13.3334V16.6667H20V13.3334H16.6667V11.6667H13.3334V13.3334H11.6667C11.1945 13.3334 10.7987 13.4931 10.4792 13.8126C10.1598 14.132 10 14.5278 10 15.0001V20.0001C10 20.4723 10.1598 20.8681 10.4792 21.1876C10.7987 21.507 11.1945 21.6667 11.6667 21.6667H16.6667V23.3334H10V26.6667H13.3334V28.3334ZM26.6667 27.0834L30 23.7501H23.3334L26.6667 27.0834ZM23.3334 16.6667H30L26.6667 13.3334L23.3334 16.6667Z" fill="#303345"/>
</svg>
