<svg width="40" height="40" viewBox="0 0 40 40" fill="none" xmlns="http://www.w3.org/2000/svg">
<path d="M10.8332 24.9583V23.2917H6.6665V19.9583H14.9998V16.625H8.33317C7.86095 16.625 7.46512 16.4653 7.14567 16.1458C6.82623 15.8264 6.6665 15.4306 6.6665 14.9583V8.29168C6.6665 7.81945 6.82623 7.42362 7.14567 7.10418C7.46512 6.78473 7.86095 6.62501 8.33317 6.62501H10.8332V4.95834H14.1665V6.62501H18.3332V9.95834H9.99984V13.2917H16.6665C17.1387 13.2917 17.5346 13.4514 17.854 13.7708C18.1734 14.0903 18.3332 14.4861 18.3332 14.9583V21.625C18.3332 22.0972 18.1734 22.4931 17.854 22.8125C17.5346 23.132 17.1387 23.2917 16.6665 23.2917H14.1665V24.9583H10.8332ZM23.2498 34.9583L16.1665 27.875L18.4998 25.5417L23.2498 30.2917L32.6665 20.875L34.9998 23.2083L23.2498 34.9583Z" fill="#303345"/>
</svg>
