<svg width="40" height="40" viewBox="0 0 40 40" fill="none" xmlns="http://www.w3.org/2000/svg">
<path d="M3.3335 11.6666V3.33328H11.6668V6.66662H6.66683V11.6666H3.3335ZM3.3335 36.6666V28.3333H6.66683V33.3333H11.6668V36.6666H3.3335ZM28.3335 36.6666V33.3333H33.3335V28.3333H36.6668V36.6666H28.3335ZM33.3335 11.6666V6.66662H28.3335V3.33328H36.6668V11.6666H33.3335ZM29.1668 29.1666H31.6668V31.6666H29.1668V29.1666ZM29.1668 24.1666H31.6668V26.6666H29.1668V24.1666ZM26.6668 26.6666H29.1668V29.1666H26.6668V26.6666ZM24.1668 29.1666H26.6668V31.6666H24.1668V29.1666ZM21.6668 26.6666H24.1668V29.1666H21.6668V26.6666ZM26.6668 21.6666H29.1668V24.1666H26.6668V21.6666ZM24.1668 24.1666H26.6668V26.6666H24.1668V24.1666ZM21.6668 21.6666H24.1668V24.1666H21.6668V21.6666ZM31.6668 8.33328V18.3333H21.6668V8.33328H31.6668ZM18.3335 21.6666V31.6666H8.3335V21.6666H18.3335ZM18.3335 8.33328V18.3333H8.3335V8.33328H18.3335ZM15.8335 29.1666V24.1666H10.8335V29.1666H15.8335ZM15.8335 15.8333V10.8333H10.8335V15.8333H15.8335ZM29.1668 15.8333V10.8333H24.1668V15.8333H29.1668Z" fill="#303345"/>
</svg>
