<svg width="40" height="40" viewBox="0 0 40 40" fill="none" xmlns="http://www.w3.org/2000/svg">
<path d="M15.1248 23.75L19.9998 20.7916L24.8748 23.75L23.5831 18.2083L27.9165 14.4583L22.2081 14L19.9998 8.74995L17.7915 14L12.0831 14.4583L16.4165 18.2083L15.1248 23.75ZM3.33313 36.6666V6.66662C3.33313 5.74995 3.65952 4.96523 4.3123 4.31245C4.96507 3.65967 5.7498 3.33328 6.66646 3.33328H33.3331C34.2498 3.33328 35.0345 3.65967 35.6873 4.31245C36.3401 4.96523 36.6665 5.74995 36.6665 6.66662V26.6666C36.6665 27.5833 36.3401 28.368 35.6873 29.0208C35.0345 29.6736 34.2498 30 33.3331 30H9.9998L3.33313 36.6666ZM8.58313 26.6666H33.3331V6.66662H6.66646V28.5416L8.58313 26.6666Z" fill="#303345"/>
</svg>
