<svg width="40" height="40" viewBox="0 0 40 40" fill="none" xmlns="http://www.w3.org/2000/svg">
<path d="M25.4998 27.8333L27.8331 25.5L21.6665 19.3333V11.6666H18.3331V20.6666L25.4998 27.8333ZM19.9998 36.6666C17.6942 36.6666 15.5276 36.2291 13.4998 35.3541C11.472 34.4791 9.70813 33.2916 8.20813 31.7916C6.70813 30.2916 5.52063 28.5277 4.64563 26.5C3.77063 24.4722 3.33313 22.3055 3.33313 20C3.33313 17.6944 3.77063 15.5277 4.64563 13.5C5.52063 11.4722 6.70813 9.70828 8.20813 8.20828C9.70813 6.70828 11.472 5.52078 13.4998 4.64578C15.5276 3.77078 17.6942 3.33328 19.9998 3.33328C22.3054 3.33328 24.472 3.77078 26.4998 4.64578C28.5276 5.52078 30.2915 6.70828 31.7915 8.20828C33.2915 9.70828 34.479 11.4722 35.354 13.5C36.229 15.5277 36.6665 17.6944 36.6665 20C36.6665 22.3055 36.229 24.4722 35.354 26.5C34.479 28.5277 33.2915 30.2916 31.7915 31.7916C30.2915 33.2916 28.5276 34.4791 26.4998 35.3541C24.472 36.2291 22.3054 36.6666 19.9998 36.6666ZM19.9998 33.3333C23.6942 33.3333 26.8401 32.0347 29.4373 29.4375C32.0345 26.8402 33.3331 23.6944 33.3331 20C33.3331 16.3055 32.0345 13.1597 29.4373 10.5624C26.8401 7.96523 23.6942 6.66662 19.9998 6.66662C16.3054 6.66662 13.1595 7.96523 10.5623 10.5624C7.96508 13.1597 6.66646 16.3055 6.66646 20C6.66646 23.6944 7.96508 26.8402 10.5623 29.4375C13.1595 32.0347 16.3054 33.3333 19.9998 33.3333Z" fill="#303345"/>
</svg>
