<svg width="40" height="40" viewBox="0 0 40 40" fill="none" xmlns="http://www.w3.org/2000/svg">
<path d="M25.8335 18.3333C26.5279 18.3333 27.1182 18.0902 27.6043 17.6041C28.0904 17.118 28.3335 16.5277 28.3335 15.8333C28.3335 15.1388 28.0904 14.5486 27.6043 14.0625C27.1182 13.5763 26.5279 13.3333 25.8335 13.3333C25.1391 13.3333 24.5488 13.5763 24.0627 14.0625C23.5766 14.5486 23.3335 15.1388 23.3335 15.8333C23.3335 16.5277 23.5766 17.118 24.0627 17.6041C24.5488 18.0902 25.1391 18.3333 25.8335 18.3333ZM14.1668 18.3333C14.8613 18.3333 15.4516 18.0902 15.9377 17.6041C16.4238 17.118 16.6668 16.5277 16.6668 15.8333C16.6668 15.1388 16.4238 14.5486 15.9377 14.0625C15.4516 13.5763 14.8613 13.3333 14.1668 13.3333C13.4724 13.3333 12.8821 13.5763 12.396 14.0625C11.9099 14.5486 11.6668 15.1388 11.6668 15.8333C11.6668 16.5277 11.9099 17.118 12.396 17.6041C12.8821 18.0902 13.4724 18.3333 14.1668 18.3333ZM20.0002 29.1666C21.8891 29.1666 23.6043 28.6319 25.146 27.5625C26.6877 26.493 27.8057 25.0833 28.5002 23.3333H25.7502C25.1391 24.3611 24.3266 25.1736 23.3127 25.7708C22.2988 26.368 21.1946 26.6666 20.0002 26.6666C18.8057 26.6666 17.7016 26.368 16.6877 25.7708C15.6738 25.1736 14.8613 24.3611 14.2502 23.3333H11.5002C12.1946 25.0833 13.3127 26.493 14.8543 27.5625C16.396 28.6319 18.1113 29.1666 20.0002 29.1666ZM20.0002 36.6666C17.6946 36.6666 15.5279 36.2291 13.5002 35.3541C11.4724 34.4791 9.7085 33.2916 8.2085 31.7916C6.7085 30.2916 5.521 28.5277 4.646 26.5C3.771 24.4722 3.3335 22.3055 3.3335 20C3.3335 17.6944 3.771 15.5277 4.646 13.5C5.521 11.4722 6.7085 9.70828 8.2085 8.20828C9.7085 6.70828 11.4724 5.52078 13.5002 4.64578C15.5279 3.77078 17.6946 3.33328 20.0002 3.33328C22.3057 3.33328 24.4724 3.77078 26.5002 4.64578C28.5279 5.52078 30.2918 6.70828 31.7918 8.20828C33.2918 9.70828 34.4793 11.4722 35.3543 13.5C36.2293 15.5277 36.6668 17.6944 36.6668 20C36.6668 22.3055 36.2293 24.4722 35.3543 26.5C34.4793 28.5277 33.2918 30.2916 31.7918 31.7916C30.2918 33.2916 28.5279 34.4791 26.5002 35.3541C24.4724 36.2291 22.3057 36.6666 20.0002 36.6666ZM20.0002 33.3333C23.7224 33.3333 26.8752 32.0416 29.4585 29.4583C32.0418 26.875 33.3335 23.7222 33.3335 20C33.3335 16.2777 32.0418 13.125 29.4585 10.5416C26.8752 7.95828 23.7224 6.66662 20.0002 6.66662C16.2779 6.66662 13.1252 7.95828 10.5418 10.5416C7.9585 13.125 6.66683 16.2777 6.66683 20C6.66683 23.7222 7.9585 26.875 10.5418 29.4583C13.1252 32.0416 16.2779 33.3333 20.0002 33.3333Z" fill="#303345"/>
</svg>
