<svg width="40" height="40" viewBox="0 0 40 40" fill="none" xmlns="http://www.w3.org/2000/svg">
<path d="M15.4168 36.6666L14.7501 31.3333C14.389 31.1944 14.0487 31.0277 13.7293 30.8333C13.4098 30.6388 13.0973 30.4305 12.7918 30.2083L7.83346 32.2916L3.25012 24.375L7.54179 21.125C7.51401 20.9305 7.50012 20.743 7.50012 20.5625V19.4375C7.50012 19.2569 7.51401 19.0694 7.54179 18.875L3.25012 15.625L7.83346 7.70828L12.7918 9.79162C13.0973 9.56939 13.4168 9.36106 13.7501 9.16662C14.0835 8.97217 14.4168 8.80551 14.7501 8.66662L15.4168 3.33328H24.5835L25.2501 8.66662C25.6112 8.80551 25.9515 8.97217 26.271 9.16662C26.5904 9.36106 26.9029 9.56939 27.2085 9.79162L32.1668 7.70828L36.7501 15.625L32.4585 18.875C32.4862 19.0694 32.5001 19.2569 32.5001 19.4375V20.5625C32.5001 20.743 32.4723 20.9305 32.4168 21.125L36.7085 24.375L32.1251 32.2916L27.2085 30.2083C26.9029 30.4305 26.5835 30.6388 26.2501 30.8333C25.9168 31.0277 25.5835 31.1944 25.2501 31.3333L24.5835 36.6666H15.4168ZM18.3335 33.3333H21.6251L22.2085 28.9166C23.0696 28.6944 23.8682 28.368 24.6043 27.9375C25.3404 27.5069 26.014 26.9861 26.6251 26.375L30.7501 28.0833L32.3751 25.25L28.7918 22.5416C28.9307 22.1527 29.0279 21.743 29.0835 21.3125C29.139 20.8819 29.1668 20.4444 29.1668 20C29.1668 19.5555 29.139 19.118 29.0835 18.6875C29.0279 18.2569 28.9307 17.8472 28.7918 17.4583L32.3751 14.75L30.7501 11.9166L26.6251 13.6666C26.014 13.0277 25.3404 12.493 24.6043 12.0625C23.8682 11.6319 23.0696 11.3055 22.2085 11.0833L21.6668 6.66662H18.3751L17.7918 11.0833C16.9307 11.3055 16.1321 11.6319 15.396 12.0625C14.6598 12.493 13.9862 13.0138 13.3751 13.625L9.25012 11.9166L7.62512 14.75L11.2085 17.4166C11.0696 17.8333 10.9723 18.25 10.9168 18.6666C10.8612 19.0833 10.8335 19.5277 10.8335 20C10.8335 20.4444 10.8612 20.875 10.9168 21.2916C10.9723 21.7083 11.0696 22.125 11.2085 22.5416L7.62512 25.25L9.25012 28.0833L13.3751 26.3333C13.9862 26.9722 14.6598 27.5069 15.396 27.9375C16.1321 28.368 16.9307 28.6944 17.7918 28.9166L18.3335 33.3333ZM20.0835 25.8333C21.6946 25.8333 23.0696 25.2638 24.2085 24.125C25.3473 22.9861 25.9168 21.6111 25.9168 20C25.9168 18.3888 25.3473 17.0138 24.2085 15.875C23.0696 14.7361 21.6946 14.1666 20.0835 14.1666C18.4446 14.1666 17.0626 14.7361 15.9376 15.875C14.8126 17.0138 14.2501 18.3888 14.2501 20C14.2501 21.6111 14.8126 22.9861 15.9376 24.125C17.0626 25.2638 18.4446 25.8333 20.0835 25.8333Z" fill="#303345"/>
</svg>
