<svg width="40" height="40" viewBox="0 0 40 40" fill="none" xmlns="http://www.w3.org/2000/svg">
<path d="M21.6665 23.3333V18.3333H16.6665V15H21.6665V9.99995H24.9998V15H29.9998V18.3333H24.9998V23.3333H21.6665ZM6.66646 36.6666C5.7498 36.6666 4.96507 36.3402 4.3123 35.6875C3.65952 35.0347 3.33313 34.25 3.33313 33.3333V13.3333C3.33313 12.4166 3.65952 11.6319 4.3123 10.9791C4.96507 10.3263 5.7498 9.99995 6.66646 9.99995H9.9998V6.66662C9.9998 5.74995 10.3262 4.96523 10.979 4.31245C11.6317 3.65967 12.4165 3.33328 13.3331 3.33328H33.3331C34.2498 3.33328 35.0345 3.65967 35.6873 4.31245C36.3401 4.96523 36.6665 5.74995 36.6665 6.66662V26.6666C36.6665 27.5833 36.3401 28.368 35.6873 29.0208C35.0345 29.6736 34.2498 30 33.3331 30H29.9998V33.3333C29.9998 34.25 29.6734 35.0347 29.0206 35.6875C28.3679 36.3402 27.5831 36.6666 26.6665 36.6666H6.66646ZM13.3331 26.6666H33.3331V6.66662H13.3331V26.6666Z" fill="#303345"/>
</svg>
