<svg width="40" height="40" viewBox="0 0 40 40" fill="none" xmlns="http://www.w3.org/2000/svg">
<path d="M11.6669 36.6666C10.7502 36.6666 9.96548 36.3402 9.3127 35.6875C8.65993 35.0347 8.33354 34.25 8.33354 33.3333C8.33354 32.4166 8.65993 31.6319 9.3127 30.9791C9.96548 30.3263 10.7502 30 11.6669 30C12.5835 30 13.3683 30.3263 14.021 30.9791C14.6738 31.6319 15.0002 32.4166 15.0002 33.3333C15.0002 34.25 14.6738 35.0347 14.021 35.6875C13.3683 36.3402 12.5835 36.6666 11.6669 36.6666ZM28.3335 36.6666C27.4169 36.6666 26.6321 36.3402 25.9794 35.6875C25.3266 35.0347 25.0002 34.25 25.0002 33.3333C25.0002 32.4166 25.3266 31.6319 25.9794 30.9791C26.6321 30.3263 27.4169 30 28.3335 30C29.2502 30 30.0349 30.3263 30.6877 30.9791C31.3405 31.6319 31.6669 32.4166 31.6669 33.3333C31.6669 34.25 31.3405 35.0347 30.6877 35.6875C30.0349 36.3402 29.2502 36.6666 28.3335 36.6666ZM10.2502 9.99995L14.2502 18.3333H25.9169L30.5002 9.99995H10.2502ZM8.66687 6.66662H33.2502C33.8891 6.66662 34.3752 6.95134 34.7085 7.52078C35.0419 8.09023 35.0558 8.66662 34.7502 9.24995L28.8335 19.9166C28.528 20.4722 28.1183 20.9027 27.6044 21.2083C27.0905 21.5138 26.528 21.6666 25.9169 21.6666H13.5002L11.6669 25H31.6669V28.3333H11.6669C10.4169 28.3333 9.47243 27.7847 8.83354 26.6875C8.19465 25.5902 8.16687 24.5 8.7502 23.4166L11.0002 19.3333L5.0002 6.66662H1.66687V3.33328H7.08354L8.66687 6.66662Z" fill="#303345"/>
</svg>
