<svg width="40" height="40" viewBox="0 0 40 40" fill="none" xmlns="http://www.w3.org/2000/svg">
<path d="M20 35.0001L0 15.0001C2.63889 12.3056 5.6875 10.2431 9.14583 8.81255C12.6042 7.382 16.2222 6.66672 20 6.66672C23.7778 6.66672 27.3958 7.382 30.8542 8.81255C34.3125 10.2431 37.3611 12.3056 40 15.0001L38.3333 16.6667C37.5556 15.6667 36.5903 14.8612 35.4375 14.2501C34.2847 13.6389 33.0278 13.3334 31.6667 13.3334C29.3611 13.3334 27.3958 14.1459 25.7708 15.7709C24.1458 17.3959 23.3333 19.3612 23.3333 21.6667C23.3333 23.0278 23.6389 24.2848 24.25 25.4376C24.8611 26.5903 25.6667 27.5556 26.6667 28.3334L20 35.0001ZM31.6667 33.3334C31.1944 33.3334 30.7847 33.1598 30.4375 32.8126C30.0903 32.4653 29.9167 32.0556 29.9167 31.5834C29.9167 31.1112 30.0903 30.7014 30.4375 30.3542C30.7847 30.007 31.1944 29.8334 31.6667 29.8334C32.1389 29.8334 32.5486 30.007 32.8958 30.3542C33.2431 30.7014 33.4167 31.1112 33.4167 31.5834C33.4167 32.0556 33.2431 32.4653 32.8958 32.8126C32.5486 33.1598 32.1389 33.3334 31.6667 33.3334ZM30.4167 28.0001C30.4167 26.9445 30.5556 26.1251 30.8333 25.5417C31.1111 24.9584 31.7083 24.2084 32.625 23.2917C33.2083 22.7084 33.5833 22.2709 33.75 21.9792C33.9167 21.6876 34 21.3195 34 20.8751C34 20.3751 33.8056 19.9376 33.4167 19.5626C33.0278 19.1876 32.5139 19.0001 31.875 19.0001C31.2917 19.0001 30.75 19.1876 30.25 19.5626C29.75 19.9376 29.3889 20.4445 29.1667 21.0834L26.9167 20.1667C27.25 19.1112 27.8611 18.2639 28.75 17.6251C29.6389 16.9862 30.6806 16.6667 31.875 16.6667C33.2361 16.6667 34.3472 17.0695 35.2083 17.8751C36.0694 18.6806 36.5 19.7084 36.5 20.9584C36.5 21.5973 36.3611 22.1667 36.0833 22.6667C35.8056 23.1667 35.2778 23.8056 34.5 24.5834C33.8333 25.2501 33.4167 25.7848 33.25 26.1876C33.0833 26.5903 33 27.1945 33 28.0001H30.4167Z" fill="#303345"/>
</svg>
