<svg width="40" height="40" viewBox="0 0 40 40" fill="none" xmlns="http://www.w3.org/2000/svg">
<path d="M11.6667 38.3334C10.75 38.3334 9.96532 38.007 9.31254 37.3542C8.65976 36.7014 8.33337 35.9167 8.33337 35.0001V5.00005C8.33337 4.08338 8.65976 3.29866 9.31254 2.64588C9.96532 1.99311 10.75 1.66672 11.6667 1.66672H28.3334C29.25 1.66672 30.0348 1.99311 30.6875 2.64588C31.3403 3.29866 31.6667 4.08338 31.6667 5.00005V35.0001C31.6667 35.9167 31.3403 36.7014 30.6875 37.3542C30.0348 38.007 29.25 38.3334 28.3334 38.3334H11.6667ZM11.6667 33.3334V35.0001H28.3334V33.3334H11.6667ZM11.6667 30.0001H28.3334V10.0001H11.6667V30.0001ZM11.6667 6.66672H28.3334V5.00005H11.6667V6.66672Z" fill="#303345"/>
</svg>
