<svg width="40" height="40" viewBox="0 0 40 40" fill="none" xmlns="http://www.w3.org/2000/svg">
<path d="M7.33358 34C6.41691 34 5.63219 33.6736 4.97941 33.0208C4.32663 32.3681 4.00024 31.5833 4.00024 30.6667V24C4.00024 23.0833 4.32663 22.2986 4.97941 21.6458C5.63219 20.9931 6.41691 20.6667 7.33358 20.6667H30.6669C31.5836 20.6667 32.3683 20.9931 33.0211 21.6458C33.6739 22.2986 34.0002 23.0833 34.0002 24H7.33358V30.6667H24.0002V34H7.33358ZM7.33358 17.3333C6.41691 17.3333 5.63219 17.007 4.97941 16.3542C4.32663 15.7014 4.00024 14.9167 4.00024 14V7.33335C4.00024 6.41668 4.32663 5.63196 4.97941 4.97918C5.63219 4.3264 6.41691 4.00002 7.33358 4.00002H30.6669C31.5836 4.00002 32.3683 4.3264 33.0211 4.97918C33.6739 5.63196 34.0002 6.41668 34.0002 7.33335V14C34.0002 14.9167 33.6739 15.7014 33.0211 16.3542C32.3683 17.007 31.5836 17.3333 30.6669 17.3333H7.33358ZM7.33358 14H30.6669V7.33335H7.33358V14Z" fill="#303345"/>
<path d="M30.7143 37.1413L37.4992 30.3563L35.1415 28L30.7143 32.4273L28.3573 30.0702L26.0002 32.4273L30.7143 37.1413Z" fill="#303345"/>
</svg>
