<svg width="40" height="40" viewBox="0 0 40 40" fill="none" xmlns="http://www.w3.org/2000/svg">
<path d="M8.33333 35C7.41667 35 6.63194 34.6736 5.97917 34.0208C5.32639 33.3681 5 32.5833 5 31.6667V25C5 24.0833 5.32639 23.2986 5.97917 22.6458C6.63194 21.9931 7.41667 21.6667 8.33333 21.6667H31.6667C32.5833 21.6667 33.3681 21.9931 34.0208 22.6458C34.6736 23.2986 35 24.0833 35 25H8.33333V31.6667H25V35H8.33333ZM8.33333 18.3333C7.41667 18.3333 6.63194 18.0069 5.97917 17.3542C5.32639 16.7014 5 15.9167 5 15V8.33333C5 7.41667 5.32639 6.63194 5.97917 5.97917C6.63194 5.32639 7.41667 5 8.33333 5H31.6667C32.5833 5 33.3681 5.32639 34.0208 5.97917C34.6736 6.63194 35 7.41667 35 8.33333V15C35 15.9167 34.6736 16.7014 34.0208 17.3542C33.3681 18.0069 32.5833 18.3333 31.6667 18.3333H8.33333ZM8.33333 15H31.6667V8.33333H8.33333V15ZM31.6667 38.3333V35H28.3333V31.6667H31.6667V28.3333H35V31.6667H38.3333V35H35V38.3333H31.6667Z" fill="#303345"/>
</svg>
