<svg width="40" height="40" viewBox="0 0 40 40" fill="none" xmlns="http://www.w3.org/2000/svg">
<path d="M7.33236 34C6.41569 34 5.63097 33.6736 4.97819 33.0208C4.32541 32.3681 3.99902 31.5833 3.99902 30.6667V24C3.99902 23.0833 4.32541 22.2986 4.97819 21.6458C5.63097 20.9931 6.41569 20.6667 7.33236 20.6667H30.6657C31.5824 20.6667 32.3671 20.9931 33.0199 21.6458C33.6726 22.2986 33.999 23.0833 33.999 24H7.33236V30.6667H23.999V34H7.33236ZM7.33236 17.3333C6.41569 17.3333 5.63097 17.007 4.97819 16.3542C4.32541 15.7014 3.99902 14.9167 3.99902 14V7.33335C3.99902 6.41668 4.32541 5.63196 4.97819 4.97918C5.63097 4.3264 6.41569 4.00002 7.33236 4.00002H30.6657C31.5824 4.00002 32.3671 4.3264 33.0199 4.97918C33.6726 5.63196 33.999 6.41668 33.999 7.33335V14C33.999 14.9167 33.6726 15.7014 33.0199 16.3542C32.3671 17.007 31.5824 17.3333 30.6657 17.3333H7.33236ZM7.33236 14H30.6657V7.33335H7.33236V14Z" fill="#303345"/>
<path d="M29.7131 32.0711L27.356 34.4281L29.7131 36.7851L32.0701 34.4281L34.4271 36.7851L36.7841 34.4281L34.4271 32.0711L36.7841 29.7141L34.4271 27.357L32.0701 29.7141L29.7131 27.357L27.356 29.7141L29.7131 32.0711Z" fill="#303345"/>
</svg>
