<svg width="40" height="40" viewBox="0 0 40 40" fill="none" xmlns="http://www.w3.org/2000/svg">
<path d="M14.3332 37.5L11.1665 32.1667L5.1665 30.8333L5.74984 24.6667L1.6665 20L5.74984 15.3333L5.1665 9.16667L11.1665 7.83333L14.3332 2.5L19.9998 4.91667L25.6665 2.5L28.8332 7.83333L34.8332 9.16667L34.2498 15.3333L38.3332 20L34.2498 24.6667L34.8332 30.8333L28.8332 32.1667L25.6665 37.5L19.9998 35.0833L14.3332 37.5ZM15.7498 33.25L19.9998 31.4167L24.3332 33.25L26.6665 29.25L31.2498 28.1667L30.8332 23.5L33.9165 20L30.8332 16.4167L31.2498 11.75L26.6665 10.75L24.2498 6.75L19.9998 8.58333L15.6665 6.75L13.3332 10.75L8.74984 11.75L9.1665 16.4167L6.08317 20L9.1665 23.5L8.74984 28.25L13.3332 29.25L15.7498 33.25ZM18.2498 25.9167L27.6665 16.5L25.3332 14.0833L18.2498 21.1667L14.6665 17.6667L12.3332 20L18.2498 25.9167Z" fill="#303345"/>
</svg>
