<svg width="40" height="40" viewBox="0 0 40 40" fill="none" xmlns="http://www.w3.org/2000/svg">
<path d="M18.2498 25.9166L27.6665 16.5L25.2915 14.125L18.2498 21.1666L14.7498 17.6666L12.3748 20.0416L18.2498 25.9166ZM19.9998 36.6666C16.1387 35.6944 12.9512 33.4791 10.4373 30.0208C7.92345 26.5625 6.6665 22.7222 6.6665 18.5V8.33328L19.9998 3.33328L33.3332 8.33328V18.5C33.3332 22.7222 32.0762 26.5625 29.5623 30.0208C27.0484 33.4791 23.8609 35.6944 19.9998 36.6666ZM19.9998 33.1666C22.8887 32.25 25.2776 30.4166 27.1665 27.6666C29.0554 24.9166 29.9998 21.8611 29.9998 18.5V10.6249L19.9998 6.87495L9.99984 10.6249V18.5C9.99984 21.8611 10.9443 24.9166 12.8332 27.6666C14.7221 30.4166 17.1109 32.25 19.9998 33.1666Z" fill="#303345"/>
</svg>
