<svg width="40" height="40" viewBox="0 0 40 40" fill="none" xmlns="http://www.w3.org/2000/svg">
<path d="M26.8332 22.1667L24.4165 19.7501C24.6665 18.4445 24.2915 17.2223 23.2915 16.0834C22.2915 14.9445 20.9998 14.5001 19.4165 14.7501L16.9998 12.3334C17.4721 12.1112 17.9512 11.9445 18.4373 11.8334C18.9234 11.7223 19.4443 11.6667 19.9998 11.6667C22.0832 11.6667 23.854 12.3959 25.3123 13.8542C26.7707 15.3126 27.4998 17.0834 27.4998 19.1667C27.4998 19.7223 27.4443 20.2431 27.3332 20.7292C27.2221 21.2154 27.0554 21.6945 26.8332 22.1667ZM32.1665 27.4167L29.7498 25.0834C30.8054 24.2779 31.7429 23.3959 32.5623 22.4376C33.3818 21.4792 34.0832 20.389 34.6665 19.1667C33.2776 16.3612 31.2846 14.132 28.6873 12.4792C26.0901 10.8265 23.1943 10.0001 19.9998 10.0001C19.1943 10.0001 18.4026 10.0556 17.6248 10.1667C16.8471 10.2779 16.0832 10.4445 15.3332 10.6667L12.7498 8.08341C13.8887 7.61119 15.0554 7.25703 16.2498 7.02091C17.4443 6.7848 18.6943 6.66675 19.9998 6.66675C24.1943 6.66675 27.9304 7.82647 31.2082 10.1459C34.486 12.4654 36.861 15.4723 38.3332 19.1667C37.6943 20.8056 36.854 22.3265 35.8123 23.7292C34.7707 25.132 33.5554 26.3612 32.1665 27.4167ZM32.9998 37.6667L25.9998 30.7501C25.0276 31.0556 24.0484 31.2848 23.0623 31.4376C22.0762 31.5904 21.0554 31.6667 19.9998 31.6667C15.8054 31.6667 12.0693 30.507 8.7915 28.1876C5.51373 25.8681 3.13873 22.8612 1.6665 19.1667C2.24984 17.6945 2.98595 16.3265 3.87484 15.0626C4.76373 13.7987 5.77762 12.6667 6.9165 11.6667L2.33317 7.00008L4.6665 4.66675L35.3332 35.3334L32.9998 37.6667ZM9.24984 14.0001C8.44428 14.7223 7.70817 15.514 7.0415 16.3751C6.37484 17.2362 5.80539 18.1667 5.33317 19.1667C6.72206 21.9723 8.71512 24.2015 11.3123 25.8542C13.9096 27.507 16.8054 28.3334 19.9998 28.3334C20.5554 28.3334 21.0971 28.2987 21.6248 28.2292C22.1526 28.1598 22.6943 28.0834 23.2498 28.0001L21.7498 26.4167C21.4443 26.5001 21.1526 26.5626 20.8748 26.6042C20.5971 26.6459 20.3054 26.6667 19.9998 26.6667C17.9165 26.6667 16.1457 25.9376 14.6873 24.4792C13.229 23.0209 12.4998 21.2501 12.4998 19.1667C12.4998 18.8612 12.5207 18.5695 12.5623 18.2917C12.604 18.014 12.6665 17.7223 12.7498 17.4167L9.24984 14.0001Z" fill="#303345"/>
</svg>
