<svg width="40" height="40" viewBox="0 0 40 40" fill="none" xmlns="http://www.w3.org/2000/svg">
<path d="M1.66675 35L20.0001 3.33328L38.3334 35H1.66675ZM7.41675 31.6666H32.5834L20.0001 9.99995L7.41675 31.6666ZM20.0001 30C20.4723 30 20.8681 29.8402 21.1876 29.5208C21.507 29.2013 21.6667 28.8055 21.6667 28.3333C21.6667 27.8611 21.507 27.4652 21.1876 27.1458C20.8681 26.8263 20.4723 26.6666 20.0001 26.6666C19.5279 26.6666 19.132 26.8263 18.8126 27.1458C18.4931 27.4652 18.3334 27.8611 18.3334 28.3333C18.3334 28.8055 18.4931 29.2013 18.8126 29.5208C19.132 29.8402 19.5279 30 20.0001 30ZM18.3334 25H21.6667V16.6666H18.3334V25Z" fill="#303345"/>
</svg>
