<svg width="40" height="40" viewBox="0 0 40 40" fill="none" xmlns="http://www.w3.org/2000/svg">
<path d="M29.1667 32.5001H31.25V30.4167H29.1667V32.5001ZM29.1667 27.9167H31.25V25.8334H29.1667V27.9167ZM33.75 32.5001H35.8333V30.4167H33.75V32.5001ZM26.6667 35.0001V23.3334H33.75V27.9167H38.3333V35.0001H26.6667ZM20 35.0001L0 15.0001C2.63889 12.3056 5.6875 10.2431 9.14583 8.81255C12.6042 7.382 16.2222 6.66672 20 6.66672C23.7778 6.66672 27.3958 7.382 30.8542 8.81255C34.3125 10.2431 37.3611 12.3056 40 15.0001L34.25 20.7084C33.8611 20.3195 33.4722 19.9237 33.0833 19.5209C32.6944 19.1181 32.3056 18.7223 31.9167 18.3334L35.1667 15.0834C32.9722 13.4167 30.5833 12.1528 28 11.2917C25.4167 10.4306 22.75 10.0001 20 10.0001C17.25 10.0001 14.5833 10.4306 12 11.2917C9.41667 12.1528 7.02778 13.4167 4.83333 15.0834L20 30.2501L21.6667 28.5834L22.8542 29.7709L24.0417 30.9584L20 35.0001Z" fill="#303345"/>
</svg>
