<svg width="20" height="14" viewBox="2 2 20 14" fill="none" xmlns="http://www.w3.org/2000/svg">
<g clip-path="url(#clip0_30_44740)">
<rect x="1.5" y="1" width="21" height="15" fill="#F93939"/>
<path d="M20.5 1H3.5C2.39543 1 1.5 1.89543 1.5 3V14C1.5 15.1046 2.39543 16 3.5 16H20.5C21.6046 16 22.5 15.1046 22.5 14V3C22.5 1.89543 21.6046 1 20.5 1Z" fill="#F93939"/>
<path fill-rule="evenodd" clip-rule="evenodd" d="M4.5 1L6.5 2.5L4.5 4V1ZM4.5 4L6.5 5.5L4.5 7V4ZM4.5 7L6.5 8.5L4.5 10V7ZM4.5 10L6.5 11.5L4.5 13V10ZM4.5 13L6.5 14.5L4.5 16V13ZM3.5 1L1.5 2.5L3.5 4V1ZM3.5 4L1.5 5.5L3.5 7V4ZM3.5 7L1.5 8.5L3.5 10V7ZM3.5 10L1.5 11.5L3.5 13V10ZM3.5 13L1.5 14.5L3.5 16V13ZM3.5 1H4.5V3H3.5V1ZM3.5 14H4.5V16H3.5V14ZM3.5 6H4.5V8H3.5V6ZM3.5 4H4.5V5H3.5V4ZM3.5 12H4.5V13H3.5V12ZM3.5 9H4.5V11H3.5V9Z" fill="white"/>
<path fill-rule="evenodd" clip-rule="evenodd" d="M6.5 12H22.5V16H6.5V12Z" fill="#249F58"/>
</g>

<defs>
<clipPath id="clip0_30_44740">
<rect x="1.5" y="1" width="21" height="15" fill="white"/>
</clipPath>
</defs>
</svg>
