<svg width="20" height="14" viewBox="2 2 20 14" fill="none" xmlns="http://www.w3.org/2000/svg">
<g clip-path="url(#clip0_30_44816)">
<rect x="1.5" y="1" width="21" height="15" fill="#249F58"/>
<path d="M20.5 1H3.5C2.39543 1 1.5 1.89543 1.5 3V14C1.5 15.1046 2.39543 16 3.5 16H20.5C21.6046 16 22.5 15.1046 22.5 14V3C22.5 1.89543 21.6046 1 20.5 1Z" fill="#249F58"/>
<path d="M11 13C13.4853 13 15.5 10.9853 15.5 8.5C15.5 6.01472 13.4853 4 11 4C8.51472 4 6.5 6.01472 6.5 8.5C6.5 10.9853 8.51472 13 11 13Z" fill="#F93939"/>
</g>

<defs>
<clipPath id="clip0_30_44816">
<rect x="1.5" y="1" width="21" height="15" fill="white"/>
</clipPath>
</defs>
</svg>
