<svg width="22" height="15" viewBox="0 0 22 15" fill="none" xmlns="http://www.w3.org/2000/svg">
    <g clip-path="url(#clip0_30_44799)">
        <rect width="21" height="15" transform="translate(0.5)" fill="white"/>
        <path
                fill-rule="evenodd"
                clip-rule="evenodd"
                d="M11 10C12.38 10 13.5 8.88 13.5 7.5C13.5 6.12 12.38 5 11 5C9.62 5 8.5 6.12 8.5 7.5C8.5 8.88 9.62 10 11 10ZM11 9C11.828 9 12.5 8.328 12.5 7.5C12.5 6.672 11.828 6 11 6C10.172 6 9.5 6.672 9.5 7.5C9.5 8.328 10.172 9 11 9Z"
                fill="#1A47B8"
        />
        <path
                d="M11 8C11.2761 8 11.5 7.77614 11.5 7.5C11.5 7.22386 11.2761 7 11 7C10.7239 7 10.5 7.22386 10.5 7.5C10.5 7.77614 10.7239 8 11 8Z"
                fill="#1A47B8"
        />
        <path fill-rule="evenodd" clip-rule="evenodd" d="M0.5 10H21.5V15H0.5V10Z" fill="#249F58"/>
        <path fill-rule="evenodd" clip-rule="evenodd" d="M0.5 0H21.5V5H0.5V0Z" fill="#FF6C2D"/>
    </g>
    <defs>
        <clipPath id="clip0_30_44799">
            <rect width="21" height="15" fill="white" transform="translate(0.5)"/>
        </clipPath>
    </defs>
</svg>