<svg width="20" height="14" viewBox="2 2 20 14" fill="none" xmlns="http://www.w3.org/2000/svg">
<g clip-path="url(#clip0_30_44670)">
<rect x="1.5" y="1" width="21" height="15" fill="#1A47B8"/>
<path fill-rule="evenodd" clip-rule="evenodd" d="M1.5 11H22.5V16H1.5V11Z" fill="#F93939"/>
<path fill-rule="evenodd" clip-rule="evenodd" d="M1.5 1H22.5V6H1.5V1Z" fill="white"/>
<path d="M8 4H6C5.44772 4 5 4.44772 5 5V7.5C5 8.05228 5.44772 8.5 6 8.5H8C8.55228 8.5 9 8.05228 9 7.5V5C9 4.44772 8.55228 4 8 4Z" fill="#F93939"/>
<path d="M7.5 4H6.5C5.94772 4 5.5 4.44772 5.5 5V7C5.5 7.55228 5.94772 8 6.5 8H7.5C8.05228 8 8.5 7.55228 8.5 7V5C8.5 4.44772 8.05228 4 7.5 4Z" fill="#1A47B8"/>
<path fill-rule="evenodd" clip-rule="evenodd" d="M6.5 5H7.5V6H6.5V5Z" fill="#FFDA2C"/>
<path fill-rule="evenodd" clip-rule="evenodd" d="M5.5 7L7 6.5L8.5 7L7.5 8H6.5L5.5 7Z" fill="white"/>
</g>

<defs>
<clipPath id="clip0_30_44670">
<rect x="1.5" y="1" width="21" height="15" fill="white"/>
</clipPath>
</defs>
</svg>
