<svg width="20" height="14" viewBox="2 2 20 14" fill="none" xmlns="http://www.w3.org/2000/svg">
<g clip-path="url(#clip0_30_44718)">
<rect x="1.5" y="1" width="21" height="15" fill="#151515"/>
<path fill-rule="evenodd" clip-rule="evenodd" d="M1.5 11H22.5V12H1.5V11Z" fill="white"/>
<path fill-rule="evenodd" clip-rule="evenodd" d="M1.5 12H22.5V16H1.5V12Z" fill="#0A6A30"/>
<path fill-rule="evenodd" clip-rule="evenodd" d="M1.5 6H22.5V11H1.5V6Z" fill="#F93939"/>
<path fill-rule="evenodd" clip-rule="evenodd" d="M1.5 5H22.5V6H1.5V5Z" fill="white"/>
<path fill-rule="evenodd" clip-rule="evenodd" d="M13.9139 6.914C13.9859 6.914 14.4139 6.244 14.4139 5.414C14.4139 4.586 13.9859 3.914 13.9139 3.914C13.8439 3.914 13.4139 4.586 13.4139 5.414C13.4139 6.244 13.8439 6.914 13.9139 6.914ZM10.9749 6.475C10.9249 6.525 10.1449 6.355 9.56092 5.768C8.97592 5.182 8.80392 4.404 8.85492 4.354C8.90492 4.304 9.68292 4.474 10.2689 5.061C10.8549 5.647 11.0259 6.425 10.9759 6.476L10.9749 6.475ZM12.8539 11.008C12.9039 10.961 13.6839 11.121 14.2689 11.668C14.8539 12.218 15.0259 12.945 14.9759 12.992C14.9259 13.039 14.1459 12.879 13.5599 12.332C12.9749 11.782 12.8029 11.055 12.8539 11.008ZM10.9749 11.008C10.9249 10.961 10.1449 11.121 9.56092 11.668C8.97592 12.218 8.80392 12.945 8.85492 12.992C8.90492 13.039 9.68292 12.879 10.2689 12.332C10.8549 11.782 11.0259 11.055 10.9759 11.008H10.9749Z" fill="white"/>
<path fill-rule="evenodd" clip-rule="evenodd" d="M12 13C12.357 13 14.5 10.985 14.5 8.5C14.5 6.015 12.357 4 12 4C11.643 4 9.5 6.015 9.5 8.5C9.5 10.985 11.643 13 12 13Z" fill="#F93939"/>
<path fill-rule="evenodd" clip-rule="evenodd" d="M10 10C10.07 10 10.5 9.328 10.5 8.5C10.5 7.672 10.07 7 10 7C9.93 7 9.5 7.672 9.5 8.5C9.5 9.328 9.93 10 10 10ZM14 10C14.07 10 14.5 9.328 14.5 8.5C14.5 7.672 14.07 7 14 7C13.93 7 13.5 7.672 13.5 8.5C13.5 9.328 13.93 10 14 10Z" fill="#151515"/>
<path d="M12.5 8.5C12.5 7.67157 12.2761 7 12 7C11.7239 7 11.5 7.67157 11.5 8.5C11.5 9.32843 11.7239 10 12 10C12.2761 10 12.5 9.32843 12.5 8.5Z" fill="white"/>
</g>

<defs>
<clipPath id="clip0_30_44718">
<rect x="1.5" y="1" width="21" height="15" fill="white"/>
</clipPath>
</defs>
</svg>
