<svg width="20" height="14" viewBox="2 2 20 14" fill="none" xmlns="http://www.w3.org/2000/svg">
<rect x="1.1" y="0.6" width="21.8" height="15.8" fill="#F93939"/>

<path fill-rule="evenodd" clip-rule="evenodd" d="M15.5021 9.65201L14.3401 10.262L14.5621 8.969L13.6221 8.052L14.9221 7.862L15.5021 6.686L16.0821 7.863L17.3821 8.053L16.4421 8.968L16.6641 10.261" fill="white"/>
<path fill-rule="evenodd" clip-rule="evenodd" d="M11 12C12.933 12 14.5 10.433 14.5 8.5C14.5 6.567 12.933 5 11 5C9.067 5 7.5 6.567 7.5 8.5C7.5 10.433 9.067 12 11 12ZM12 11C13.38 11 14.5 9.88 14.5 8.5C14.5 7.12 13.38 6 12 6C10.62 6 9.5 7.12 9.5 8.5C9.5 9.88 10.62 11 12 11Z" fill="white"/>
</svg>
