<svg width="20" height="14" viewBox="2 2 20 14" fill="none" xmlns="http://www.w3.org/2000/svg">
<g clip-path="url(#clip0_30_44825)">
<rect x="1.5" y="1" width="21" height="15" fill="#F93939"/>
<path d="M20.5 1H3.5C2.39543 1 1.5 1.89543 1.5 3V14C1.5 15.1046 2.39543 16 3.5 16H20.5C21.6046 16 22.5 15.1046 22.5 14V3C22.5 1.89543 21.6046 1 20.5 1Z" fill="#F93939"/>
<path fill-rule="evenodd" clip-rule="evenodd" d="M6.99812 8.23L5.52812 9.003L5.80812 7.366L4.62012 6.206L6.26312 5.969L6.99812 4.479L7.73212 5.969L9.37512 6.206L8.18512 7.366L8.46712 9.002L6.99812 8.23ZM10.5001 4H11.5001V5H10.5001V4ZM11.5001 6H12.5001V7H11.5001V6ZM11.5001 8H12.5001V9H11.5001V8ZM10.5001 10H11.5001V11H10.5001V10Z" fill="#FFDA2C"/>
</g>

<defs>
<clipPath id="clip0_30_44825">
<rect x="1.5" y="1" width="21" height="15" fill="white"/>
</clipPath>
</defs>
</svg>
