<svg width="40" height="40" viewBox="0 0 40 40" fill="none" xmlns="http://www.w3.org/2000/svg">
<path d="M20 33.3333C21.1944 33.3333 22.3611 33.1736 23.5 32.8541C24.6389 32.5347 25.7222 32.0694 26.75 31.4583L20.2917 25H20C18.1389 25 16.3333 25.2986 14.5833 25.8958C12.8333 26.493 11.2222 27.3611 9.75 28.5C11.1389 30.0277 12.6667 31.2152 14.3333 32.0625C16 32.9097 17.8889 33.3333 20 33.3333ZM34.125 38.8333L29.2083 33.9166C27.8472 34.8055 26.3889 35.4861 24.8333 35.9583C23.2778 36.4305 21.6667 36.6666 20 36.6666C17.6944 36.6666 15.5278 36.2291 13.5 35.3541C11.4722 34.4791 9.70833 33.2916 8.20833 31.7916C6.70833 30.2916 5.52083 28.5277 4.64583 26.5C3.77083 24.4722 3.33333 22.3055 3.33333 20C3.33333 18.3611 3.5625 16.7638 4.02083 15.2083C4.47917 13.6527 5.15278 12.1805 6.04167 10.7916L1.125 5.83328L3.5 3.45828L36.5 36.4583L34.125 38.8333ZM33.9167 29.1666L24.4167 19.6666C24.8889 19.1388 25.2431 18.5486 25.4792 17.8958C25.7153 17.243 25.8333 16.5555 25.8333 15.8333C25.8333 14.2222 25.2639 12.8472 24.125 11.7083C22.9861 10.5694 21.6111 9.99995 20 9.99995C19.2778 9.99995 18.5903 10.118 17.9375 10.3541C17.2847 10.5902 16.6944 10.9444 16.1667 11.4166L10.8333 6.08328C12.1944 5.19439 13.6528 4.51384 15.2083 4.04162C16.7639 3.56939 18.3611 3.33328 20 3.33328C22.3056 3.33328 24.4722 3.77078 26.5 4.64578C28.5278 5.52078 30.2917 6.70828 31.7917 8.20828C33.2917 9.70828 34.4792 11.4722 35.3542 13.4999C36.2292 15.5277 36.6667 17.6944 36.6667 20C36.6667 21.6388 36.4306 23.2361 35.9583 24.7916C35.4861 26.3472 34.8056 27.8055 33.9167 29.1666Z" fill="#303345"/>
</svg>
