<svg width="40" height="40" viewBox="0 0 40 40" fill="none" xmlns="http://www.w3.org/2000/svg">
<path d="M18.3331 28.3333H21.6665V21.6666H28.3331V18.3333H21.6665V11.6666H18.3331V18.3333H11.6665V21.6666H18.3331V28.3333ZM19.9998 36.6666C17.6942 36.6666 15.5276 36.2291 13.4998 35.3541C11.472 34.4791 9.70813 33.2916 8.20813 31.7916C6.70813 30.2916 5.52063 28.5277 4.64563 26.4999C3.77063 24.4721 3.33313 22.3055 3.33313 19.9999C3.33313 17.6944 3.77063 15.5277 4.64563 13.4999C5.52063 11.4721 6.70813 9.70825 8.20813 8.20825C9.70813 6.70825 11.472 5.52075 13.4998 4.64575C15.5276 3.77075 17.6942 3.33325 19.9998 3.33325C22.3054 3.33325 24.472 3.77075 26.4998 4.64575C28.5276 5.52075 30.2915 6.70825 31.7915 8.20825C33.2915 9.70825 34.479 11.4721 35.354 13.4999C36.229 15.5277 36.6665 17.6944 36.6665 19.9999C36.6665 22.3055 36.229 24.4721 35.354 26.4999C34.479 28.5277 33.2915 30.2916 31.7915 31.7916C30.2915 33.2916 28.5276 34.4791 26.4998 35.3541C24.472 36.2291 22.3054 36.6666 19.9998 36.6666Z" fill="#303345"/>
</svg>
