<svg width="40" height="40" viewBox="0 0 40 40" fill="none" xmlns="http://www.w3.org/2000/svg">
<path d="M28.3335 28.3333C29.028 28.3333 29.6183 28.0902 30.1044 27.6041C30.5905 27.118 30.8335 26.5277 30.8335 25.8333C30.8335 25.1388 30.5905 24.5485 30.1044 24.0624C29.6183 23.5763 29.028 23.3333 28.3335 23.3333C27.6391 23.3333 27.0488 23.5763 26.5627 24.0624C26.0766 24.5485 25.8335 25.1388 25.8335 25.8333C25.8335 26.5277 26.0766 27.118 26.5627 27.6041C27.0488 28.0902 27.6391 28.3333 28.3335 28.3333ZM28.3335 33.3333C29.1946 33.3333 29.9863 33.1319 30.7085 32.7291C31.4308 32.3263 32.0141 31.7916 32.4585 31.1249C31.8474 30.7638 31.1946 30.486 30.5002 30.2916C29.8058 30.0971 29.0835 29.9999 28.3335 29.9999C27.5835 29.9999 26.8613 30.0971 26.1669 30.2916C25.4724 30.486 24.8196 30.7638 24.2085 31.1249C24.653 31.7916 25.2363 32.3263 25.9585 32.7291C26.6808 33.1319 27.4724 33.3333 28.3335 33.3333ZM28.3335 36.6666C26.028 36.6666 24.0627 35.8541 22.4377 34.2291C20.8127 32.6041 20.0002 30.6388 20.0002 28.3333C20.0002 26.0277 20.8127 24.0624 22.4377 22.4374C24.0627 20.8124 26.028 19.9999 28.3335 19.9999C30.6391 19.9999 32.6044 20.8124 34.2294 22.4374C35.8544 24.0624 36.6669 26.0277 36.6669 28.3333C36.6669 30.6388 35.8544 32.6041 34.2294 34.2291C32.6044 35.8541 30.6391 36.6666 28.3335 36.6666ZM20.0002 36.6666C16.1391 35.6944 12.9516 33.4791 10.4377 30.0208C7.92381 26.5624 6.66687 22.7221 6.66687 18.4999V8.33325L20.0002 3.33325L33.3335 8.33325V17.7916C32.6113 17.4305 31.7988 17.1527 30.896 16.9583C29.9933 16.7638 29.1391 16.6666 28.3335 16.6666C25.1113 16.6666 22.3613 17.8055 20.0835 20.0833C17.8058 22.361 16.6669 25.111 16.6669 28.3333C16.6669 30.0555 16.9933 31.611 17.646 32.9999C18.2988 34.3888 19.1252 35.5971 20.1252 36.6249C20.0974 36.6249 20.0766 36.6319 20.0627 36.6458C20.0488 36.6596 20.028 36.6666 20.0002 36.6666Z" fill="#303345"/>
</svg>
