<svg width="40" height="40" viewBox="0 0 40 40" fill="none" xmlns="http://www.w3.org/2000/svg">
<path d="M19.9997 36.6666C17.6941 36.6666 15.5275 36.2291 13.4997 35.3541C11.4719 34.4791 9.70801 33.2916 8.20801 31.7916C6.70801 30.2916 5.52051 28.5277 4.64551 26.4999C3.77051 24.4721 3.33301 22.3055 3.33301 19.9999C3.33301 17.6944 3.77051 15.5277 4.64551 13.4999C5.52051 11.4721 6.70801 9.70825 8.20801 8.20825C9.70801 6.70825 11.4719 5.52075 13.4997 4.64575C15.5275 3.77075 17.6941 3.33325 19.9997 3.33325C22.3052 3.33325 24.4719 3.77075 26.4997 4.64575C28.5275 5.52075 30.2913 6.70825 31.7913 8.20825C33.2913 9.70825 34.4788 11.4721 35.3538 13.4999C36.2288 15.5277 36.6663 17.6944 36.6663 19.9999V22.4166C36.6663 24.0555 36.1038 25.4513 34.9788 26.6041C33.8538 27.7569 32.4719 28.3333 30.833 28.3333C29.8608 28.3333 28.9441 28.1249 28.083 27.7083C27.2219 27.2916 26.4997 26.6944 25.9163 25.9166C25.1108 26.7221 24.2011 27.3263 23.1872 27.7291C22.1733 28.1319 21.1108 28.3333 19.9997 28.3333C17.6941 28.3333 15.7288 27.5208 14.1038 25.8958C12.4788 24.2708 11.6663 22.3055 11.6663 19.9999C11.6663 17.6944 12.4788 15.7291 14.1038 14.1041C15.7288 12.4791 17.6941 11.6666 19.9997 11.6666C22.3052 11.6666 24.2705 12.4791 25.8955 14.1041C27.5205 15.7291 28.333 17.6944 28.333 19.9999V22.4166C28.333 23.1388 28.5691 23.7499 29.0413 24.2499C29.5136 24.7499 30.1108 24.9999 30.833 24.9999C31.5552 24.9999 32.1525 24.7499 32.6247 24.2499C33.0969 23.7499 33.333 23.1388 33.333 22.4166V19.9999C33.333 16.2777 32.0413 13.1249 29.458 10.5416C26.8747 7.95825 23.7219 6.66659 19.9997 6.66659C16.2775 6.66659 13.1247 7.95825 10.5413 10.5416C7.95801 13.1249 6.66634 16.2777 6.66634 19.9999C6.66634 23.7221 7.95801 26.8749 10.5413 29.4583C13.1247 32.0416 16.2775 33.3333 19.9997 33.3333H28.333V36.6666H19.9997ZM19.9997 24.9999C21.3886 24.9999 22.5691 24.5138 23.5413 23.5416C24.5136 22.5694 24.9997 21.3888 24.9997 19.9999C24.9997 18.611 24.5136 17.4305 23.5413 16.4583C22.5691 15.486 21.3886 14.9999 19.9997 14.9999C18.6108 14.9999 17.4302 15.486 16.458 16.4583C15.4858 17.4305 14.9997 18.611 14.9997 19.9999C14.9997 21.3888 15.4858 22.5694 16.458 23.5416C17.4302 24.5138 18.6108 24.9999 19.9997 24.9999Z" fill="#303345"/>
</svg>
