<svg width="40" height="40" viewBox="0 0 40 40" fill="none" xmlns="http://www.w3.org/2000/svg">
<path d="M8.33333 35.0001C7.41667 35.0001 6.63194 34.6737 5.97917 34.0209C5.32639 33.3681 5 32.5834 5 31.6668V8.33342C5 7.41675 5.32639 6.63203 5.97917 5.97925C6.63194 5.32647 7.41667 5.00008 8.33333 5.00008H15.3333C15.7222 4.00008 16.3333 3.19453 17.1667 2.58341C18 1.9723 18.9444 1.66675 20 1.66675C21.0556 1.66675 22 1.9723 22.8333 2.58341C23.6667 3.19453 24.2778 4.00008 24.6667 5.00008H31.6667C32.5833 5.00008 33.3681 5.32647 34.0208 5.97925C34.6736 6.63203 35 7.41675 35 8.33342V31.6668C35 32.5834 34.6736 33.3681 34.0208 34.0209C33.3681 34.6737 32.5833 35.0001 31.6667 35.0001H8.33333ZM20 7.08342C20.3611 7.08342 20.6597 6.96536 20.8958 6.72925C21.1319 6.49314 21.25 6.19453 21.25 5.83342C21.25 5.4723 21.1319 5.17369 20.8958 4.93758C20.6597 4.70147 20.3611 4.58342 20 4.58342C19.6389 4.58342 19.3403 4.70147 19.1042 4.93758C18.8681 5.17369 18.75 5.4723 18.75 5.83342C18.75 6.19453 18.8681 6.49314 19.1042 6.72925C19.3403 6.96536 19.6389 7.08342 20 7.08342ZM20 21.6667C21.6111 21.6667 22.9861 21.0973 24.125 19.9584C25.2639 18.8195 25.8333 17.4445 25.8333 15.8334C25.8333 14.2223 25.2639 12.8473 24.125 11.7084C22.9861 10.5695 21.6111 10.0001 20 10.0001C18.3889 10.0001 17.0139 10.5695 15.875 11.7084C14.7361 12.8473 14.1667 14.2223 14.1667 15.8334C14.1667 17.4445 14.7361 18.8195 15.875 19.9584C17.0139 21.0973 18.3889 21.6667 20 21.6667ZM8.33333 31.6668H31.6667V29.7501C30.1667 28.2779 28.4236 27.1181 26.4375 26.2709C24.4514 25.4237 22.3056 25.0001 20 25.0001C17.6944 25.0001 15.5486 25.4237 13.5625 26.2709C11.5764 27.1181 9.83333 28.2779 8.33333 29.7501V31.6668Z" fill="#303345"/>
</svg>
