<svg width="40" height="40" viewBox="0 0 40 40" fill="none" xmlns="http://www.w3.org/2000/svg">
<path d="M13.75 30C10.8612 30 8.40282 28.9861 6.37504 26.9583C4.34726 24.9305 3.33337 22.4722 3.33337 19.5833C3.33337 16.6944 4.34726 14.2361 6.37504 12.2083C8.40282 10.1805 10.8612 9.16663 13.75 9.16663H29.1667C31.25 9.16663 33.0209 9.89579 34.4792 11.3541C35.9375 12.8125 36.6667 14.5833 36.6667 16.6666C36.6667 18.75 35.9375 20.5208 34.4792 21.9791C33.0209 23.4375 31.25 24.1666 29.1667 24.1666H14.5834C13.3056 24.1666 12.2223 23.7222 11.3334 22.8333C10.4445 21.9444 10 20.8611 10 19.5833C10 18.3055 10.4445 17.2222 11.3334 16.3333C12.2223 15.4444 13.3056 15 14.5834 15H30V18.3333H14.5834C14.2223 18.3333 13.9237 18.4513 13.6875 18.6875C13.4514 18.9236 13.3334 19.2222 13.3334 19.5833C13.3334 19.9444 13.4514 20.243 13.6875 20.4791C13.9237 20.7152 14.2223 20.8333 14.5834 20.8333H29.1667C30.3334 20.8055 31.3195 20.3958 32.125 19.6041C32.9306 18.8125 33.3334 17.8333 33.3334 16.6666C33.3334 15.5 32.9306 14.5138 32.125 13.7083C31.3195 12.9027 30.3334 12.5 29.1667 12.5H13.75C11.7778 12.4722 10.1042 13.1527 8.72921 14.5416C7.35421 15.9305 6.66671 17.6111 6.66671 19.5833C6.66671 21.5277 7.35421 23.1805 8.72921 24.5416C10.1042 25.9027 11.7778 26.6111 13.75 26.6666H30V30H13.75Z" fill="#303345"/>
</svg>
