<svg width="40" height="40" viewBox="0 0 40 40" fill="none" xmlns="http://www.w3.org/2000/svg">
<path d="M26.667 18.3333V9.99992H30.0003V18.3333H26.667ZM18.3337 29.8333C17.3614 29.5555 16.5628 29.0138 15.9378 28.2083C15.3128 27.4027 15.0003 26.4721 15.0003 25.4166V9.99992H18.3337V29.8333ZM19.5837 36.6666C16.6948 36.6666 14.2364 35.6527 12.2087 33.6249C10.1809 31.5971 9.16699 29.1388 9.16699 26.2499V10.8333C9.16699 8.74992 9.89616 6.97909 11.3545 5.52075C12.8128 4.06242 14.5837 3.33325 16.667 3.33325C18.7503 3.33325 20.5212 4.06242 21.9795 5.52075C23.4378 6.97909 24.167 8.74992 24.167 10.8333V23.3333H20.8337V10.8333C20.8059 9.66659 20.3962 8.68047 19.6045 7.87492C18.8128 7.06936 17.8337 6.66659 16.667 6.66659C15.5003 6.66659 14.5142 7.06936 13.7087 7.87492C12.9031 8.68047 12.5003 9.66659 12.5003 10.8333V26.2499C12.4725 28.2221 13.1531 29.8958 14.542 31.2708C15.9309 32.6458 17.6114 33.3333 19.5837 33.3333C20.2781 33.3333 20.9378 33.243 21.5628 33.0624C22.1878 32.8819 22.7781 32.611 23.3337 32.2499V35.9583C22.7503 36.1805 22.1462 36.3541 21.5212 36.4791C20.8962 36.6041 20.2503 36.6666 19.5837 36.6666ZM26.667 34.9999V29.9999H21.667V26.6666H26.667V21.6666H30.0003V26.6666H35.0003V29.9999H30.0003V34.9999H26.667Z" fill="#303345"/>
</svg>
