<svg width="40" height="40" viewBox="0 0 40 40" fill="none" xmlns="http://www.w3.org/2000/svg">
<path d="M20.0002 36.6666C17.6946 36.6666 15.5279 36.2291 13.5002 35.3541C11.4724 34.4791 9.7085 33.2916 8.2085 31.7916C6.7085 30.2916 5.521 28.5277 4.646 26.4999C3.771 24.4721 3.3335 22.3055 3.3335 19.9999C3.3335 17.6944 3.771 15.5277 4.646 13.4999C5.521 11.4721 6.7085 9.70825 8.2085 8.20825C9.7085 6.70825 11.4724 5.52075 13.5002 4.64575C15.5279 3.77075 17.6946 3.33325 20.0002 3.33325C22.3057 3.33325 24.4724 3.77075 26.5002 4.64575C28.5279 5.52075 30.2918 6.70825 31.7918 8.20825C33.2918 9.70825 34.4793 11.4721 35.3543 13.4999C36.2293 15.5277 36.6668 17.6944 36.6668 19.9999C36.6668 22.3055 36.2293 24.4721 35.3543 26.4999C34.4793 28.5277 33.2918 30.2916 31.7918 31.7916C30.2918 33.2916 28.5279 34.4791 26.5002 35.3541C24.4724 36.2291 22.3057 36.6666 20.0002 36.6666ZM20.0002 33.3333C21.5002 33.3333 22.9446 33.0902 24.3335 32.6041C25.7224 32.118 27.0002 31.4166 28.1668 30.4999L9.50016 11.8333C8.5835 12.9999 7.88211 14.2777 7.396 15.6666C6.90989 17.0555 6.66683 18.4999 6.66683 19.9999C6.66683 23.7221 7.9585 26.8749 10.5418 29.4583C13.1252 32.0416 16.2779 33.3333 20.0002 33.3333ZM30.5002 28.1666C31.4168 26.9999 32.1182 25.7221 32.6043 24.3333C33.0904 22.9444 33.3335 21.4999 33.3335 19.9999C33.3335 16.2777 32.0418 13.1249 29.4585 10.5416C26.8752 7.95825 23.7224 6.66659 20.0002 6.66659C18.5002 6.66659 17.0557 6.90964 15.6668 7.39575C14.2779 7.88186 13.0002 8.58325 11.8335 9.49992L30.5002 28.1666Z" fill="#303345"/>
</svg>
