<svg width="40" height="40" viewBox="0 0 40 40" fill="none" xmlns="http://www.w3.org/2000/svg">
<path d="M29.9998 21.6667V18.3334H36.6665V21.6667H29.9998ZM31.9998 33.3334L26.6665 29.3334L28.6665 26.6667L33.9998 30.6667L31.9998 33.3334ZM28.6665 13.3334L26.6665 10.6667L31.9998 6.66675L33.9998 9.33341L28.6665 13.3334ZM8.33313 31.6667V25.0001H6.66646C5.7498 25.0001 4.96507 24.6737 4.3123 24.0209C3.65952 23.3681 3.33313 22.5834 3.33313 21.6667V18.3334C3.33313 17.4167 3.65952 16.632 4.3123 15.9792C4.96507 15.3265 5.7498 15.0001 6.66646 15.0001H13.3331L21.6665 10.0001V30.0001L13.3331 25.0001H11.6665V31.6667H8.33313ZM23.3331 25.5834V14.4167C24.0831 15.0834 24.6873 15.8959 25.1456 16.8542C25.604 17.8126 25.8331 18.8612 25.8331 20.0001C25.8331 21.139 25.604 22.1876 25.1456 23.1459C24.6873 24.1042 24.0831 24.9167 23.3331 25.5834Z" fill="#303345"/>
</svg>
