<svg width="40" height="40" viewBox="0 0 40 40" fill="none" xmlns="http://www.w3.org/2000/svg">
<path d="M3.33313 36.6666V6.66659C3.33313 5.74992 3.65952 4.9652 4.3123 4.31242C4.96507 3.65964 5.7498 3.33325 6.66646 3.33325H33.3331C34.2498 3.33325 35.0345 3.65964 35.6873 4.31242C36.3401 4.9652 36.6665 5.74992 36.6665 6.66659V26.6666C36.6665 27.5833 36.3401 28.368 35.6873 29.0208C35.0345 29.6735 34.2498 29.9999 33.3331 29.9999H9.9998L3.33313 36.6666ZM9.9998 23.3333H23.3331V19.9999H9.9998V23.3333ZM9.9998 18.3333H29.9998V14.9999H9.9998V18.3333ZM9.9998 13.3333H29.9998V9.99992H9.9998V13.3333Z" fill="#303345"/>
</svg>
