<svg width="40" height="40" viewBox="0 0 40 40" fill="none" xmlns="http://www.w3.org/2000/svg">
<path d="M28.125 35.875L25.7917 33.5416L29.2917 30L25.7917 26.4583L28.125 24.125L31.6667 27.625L35.2083 24.125L37.5417 26.4583L34.0417 30L37.5417 33.5416L35.2083 35.875L31.6667 32.375L28.125 35.875ZM15 15V11.6666H30V15H15ZM15 20V16.6666H30V20H15ZM10 36.6666C8.61111 36.6666 7.43056 36.1805 6.45833 35.2083C5.48611 34.2361 5 33.0555 5 31.6666V26.6666H10V3.33328H35V20.625C34.4722 20.4305 33.9306 20.2847 33.375 20.1875C32.8194 20.0902 32.25 20.0416 31.6667 20.0416V6.66662H13.3333V26.6666H22.25C22.0556 27.2222 21.9097 27.7777 21.8125 28.3333C21.7153 28.8888 21.6667 29.4444 21.6667 30C21.6667 31.2222 21.8819 32.4027 22.3125 33.5416C22.7431 34.6805 23.3889 35.7222 24.25 36.6666H10Z" fill="#303345"/>
</svg>
