<svg width="40" height="40" viewBox="0 0 40 40" fill="none" xmlns="http://www.w3.org/2000/svg">
<path d="M6.66671 33.3334C5.75004 33.3334 4.96532 33.007 4.31254 32.3542C3.65976 31.7014 3.33337 30.9167 3.33337 30.0001V10.0001C3.33337 9.08338 3.65976 8.29866 4.31254 7.64588C4.96532 6.99311 5.75004 6.66672 6.66671 6.66672H33.3334C34.25 6.66672 35.0348 6.99311 35.6875 7.64588C36.3403 8.29866 36.6667 9.08338 36.6667 10.0001V30.0001C36.6667 30.9167 36.3403 31.7014 35.6875 32.3542C35.0348 33.007 34.25 33.3334 33.3334 33.3334H6.66671ZM6.66671 20.0001H33.3334V13.3334H6.66671V20.0001Z" fill="#303345"/>
</svg>
