<svg width="40" height="40" viewBox="0 0 40 40" fill="none" xmlns="http://www.w3.org/2000/svg">
<path d="M20 38.3334C16.8888 38.3334 14.0277 37.6251 11.4166 36.2084C8.80551 34.7917 6.66663 32.9028 4.99996 30.5417V35.0001H1.66663V25.0001H11.6666V28.3334H7.54163C8.87496 30.3334 10.6319 31.9445 12.8125 33.1667C14.993 34.3889 17.3888 35.0001 20 35.0001C22.0833 35.0001 24.0347 34.6042 25.8541 33.8126C27.6736 33.0209 29.2569 31.9514 30.6041 30.6042C31.9513 29.257 33.0208 27.6737 33.8125 25.8542C34.6041 24.0348 35 22.0834 35 20.0001H38.3333C38.3333 22.5278 37.8541 24.9028 36.8958 27.1251C35.9375 29.3473 34.625 31.2917 32.9583 32.9584C31.2916 34.6251 29.3472 35.9376 27.125 36.8959C24.9027 37.8542 22.5277 38.3334 20 38.3334ZM18.5 31.6667V29.5001C17.1944 29.1945 16.1319 28.632 15.3125 27.8126C14.493 26.9931 13.8888 25.9167 13.5 24.5834L16.25 23.5001C16.5833 24.6389 17.1041 25.4931 17.8125 26.0626C18.5208 26.632 19.3333 26.9167 20.25 26.9167C21.1666 26.9167 21.9513 26.7014 22.6041 26.2709C23.2569 25.8403 23.5833 25.1667 23.5833 24.2501C23.5833 23.4445 23.243 22.7917 22.5625 22.2917C21.8819 21.7917 20.6666 21.2223 18.9166 20.5834C17.2777 20.0001 16.0763 19.3056 15.3125 18.5001C14.5486 17.6945 14.1666 16.6389 14.1666 15.3334C14.1666 14.1945 14.5625 13.1598 15.3541 12.2292C16.1458 11.2987 17.2222 10.6945 18.5833 10.4167V8.33338H21.5V10.4167C22.5 10.5001 23.4097 10.9028 24.2291 11.6251C25.0486 12.3473 25.6111 13.1945 25.9166 14.1667L23.25 15.2501C23.0277 14.6112 22.6666 14.0764 22.1666 13.6459C21.6666 13.2153 20.9722 13.0001 20.0833 13.0001C19.1111 13.0001 18.368 13.2084 17.8541 13.6251C17.3402 14.0417 17.0833 14.6112 17.0833 15.3334C17.0833 16.0556 17.4027 16.6251 18.0416 17.0417C18.6805 17.4584 19.8333 17.9445 21.5 18.5001C23.5 19.2223 24.8333 20.0695 25.5 21.0417C26.1666 22.0139 26.5 23.0834 26.5 24.2501C26.5 25.0556 26.3611 25.7639 26.0833 26.3751C25.8055 26.9862 25.4375 27.507 24.9791 27.9376C24.5208 28.3681 23.9861 28.7153 23.375 28.9792C22.7638 29.2431 22.1111 29.4445 21.4166 29.5834V31.6667H18.5ZM1.66663 20.0001C1.66663 17.4723 2.14579 15.0973 3.10413 12.8751C4.06246 10.6528 5.37496 8.70838 7.04163 7.04172C8.70829 5.37505 10.6527 4.06255 12.875 3.10422C15.0972 2.14588 17.4722 1.66672 20 1.66672C23.1111 1.66672 25.9722 2.37505 28.5833 3.79172C31.1944 5.20838 33.3333 7.09727 35 9.45838V5.00005H38.3333V15.0001H28.3333V11.6667H32.4583C31.125 9.66672 29.368 8.05561 27.1875 6.83338C25.0069 5.61116 22.6111 5.00005 20 5.00005C17.9166 5.00005 15.9652 5.39588 14.1458 6.18755C12.3263 6.97922 10.743 8.04866 9.39579 9.39588C8.04857 10.7431 6.97913 12.3264 6.18746 14.1459C5.39579 15.9653 4.99996 17.9167 4.99996 20.0001H1.66663Z" fill="#303345"/>
</svg>
