<svg width="40" height="40" viewBox="0 0 40 40" fill="none" xmlns="http://www.w3.org/2000/svg">
<path d="M11.625 37.5C10.8625 37.5 10.1312 37.1971 9.59206 36.6579C9.05289 36.1188 8.75 35.3875 8.75 34.625L10 19H13.375L14.625 34.625C14.6254 35.0133 14.5471 35.3977 14.3948 35.7549C14.2426 36.1121 14.0196 36.4348 13.7392 36.7035C13.4589 36.9721 13.127 37.1812 12.7636 37.3181C12.4003 37.455 12.0129 37.5169 11.625 37.5Z" fill="#303345"/>
<path d="M11.625 19C15.2839 19 18.25 15.3064 18.25 10.75C18.25 6.19366 15.2839 2.5 11.625 2.5C7.96612 2.5 5 6.19366 5 10.75C5 15.3064 7.96612 19 11.625 19Z" fill="#303345"/>
<path d="M28.9999 37.5C28.2374 37.5 27.5061 37.1971 26.9669 36.6579C26.4278 36.1187 26.1249 35.3875 26.1249 34.625L27.3749 19H30.7499L31.9999 34.625C32.0002 35.0133 31.9219 35.3976 31.7697 35.7549C31.6175 36.1121 31.3944 36.4347 31.1141 36.7034C30.8337 36.9721 30.5019 37.1812 30.1385 37.3181C29.7751 37.455 29.3878 37.5168 28.9999 37.5Z" fill="#303345"/>
<path d="M34.6249 13.375C34.5922 14.8782 33.972 16.3088 32.8971 17.3603C31.8223 18.4117 30.3784 19.0003 28.8749 19C27.383 19 25.9523 18.4073 24.8974 17.3524C23.8425 16.2976 23.2499 14.8668 23.2499 13.375H34.6249Z" fill="#303345"/>
<path fill-rule="evenodd" clip-rule="evenodd" d="M11.625 3.5C8.71202 3.5 6 6.53002 6 10.75C6 14.97 8.71202 18 11.625 18C14.538 18 17.25 14.97 17.25 10.75C17.25 6.53001 14.538 3.5 11.625 3.5ZM14.4082 19.3756C17.3216 18.0017 19.25 14.5362 19.25 10.75C19.25 5.8573 16.0298 1.5 11.625 1.5C7.22021 1.5 4 5.8573 4 10.75C4 14.5882 5.98167 18.0968 8.96232 19.431L7.75318 34.5453C7.75106 34.5718 7.75 34.5984 7.75 34.625C7.75 35.6527 8.15824 36.6383 8.88495 37.3651C9.60654 38.0866 10.5834 38.4942 11.6033 38.4999C12.1188 38.5195 12.6332 38.4359 13.1162 38.2539C13.606 38.0694 14.0533 37.7876 14.4311 37.4254C14.809 37.0633 15.1096 36.6284 15.3148 36.1469C15.52 35.6655 15.6255 35.1474 15.625 34.6241C15.625 34.5978 15.6239 34.5715 15.6218 34.5453L14.4082 19.3756ZM12.4518 20H10.9232L9.75034 34.6607C9.75955 35.1451 9.95596 35.6076 10.2992 35.9508C10.6508 36.3025 11.1277 36.5 11.625 36.5C11.6339 36.5 11.6428 36.5001 11.6516 36.5004C11.6572 36.5005 11.6629 36.5007 11.6685 36.5009C11.9215 36.512 12.1741 36.4716 12.4111 36.3823C12.6481 36.293 12.8645 36.1567 13.0473 35.9815C13.2302 35.8062 13.3756 35.5958 13.4749 35.3628C13.5696 35.1407 13.6204 34.9025 13.6247 34.6612L12.4518 20ZM23.2499 1.99995C23.8021 1.99995 24.2499 2.44767 24.2499 2.99995V12.375H27.8749V2.99995C27.8749 2.44767 28.3226 1.99995 28.8749 1.99995C29.4271 1.99995 29.8749 2.44767 29.8749 2.99995V12.375H33.6249V2.99995C33.6249 2.44767 34.0726 1.99995 34.6249 1.99995C35.1771 1.99995 35.6249 2.44767 35.6249 2.99995V13.375L35.6246 13.3967C35.5863 15.1614 34.8582 16.8408 33.5964 18.0751C33.0601 18.5998 32.4455 19.0263 31.7805 19.3432L32.9967 34.5452C32.9988 34.5714 32.9998 34.5977 32.9999 34.624C33.0003 35.1474 32.8949 35.6654 32.6897 36.1469C32.4845 36.6284 32.1838 37.0633 31.806 37.4254C31.4281 37.7875 30.9808 38.0693 30.4911 38.2539C30.0081 38.4358 29.4937 38.5194 28.9781 38.4999C27.9583 38.4942 26.9814 38.0866 26.2598 37.365C25.5331 36.6383 25.1249 35.6527 25.1249 34.625C25.1249 34.5984 25.1259 34.5718 25.1281 34.5452L26.3323 19.4926C25.5389 19.1629 24.8096 18.6789 24.1903 18.0596C22.9479 16.8171 22.2499 15.132 22.2499 13.375V2.99995C22.2499 2.44767 22.6976 1.99995 23.2499 1.99995ZM28.8751 18C28.8758 18 28.8766 18 28.8773 18C30.1186 17.9997 31.3105 17.5135 32.1979 16.6454C32.8376 16.0196 33.2823 15.2312 33.4911 14.375H24.3592C24.5482 15.2282 24.9768 16.0177 25.6045 16.6453C26.4718 17.5127 27.6485 18 28.8751 18ZM28.2981 20L27.1252 34.6607C27.1344 35.145 27.3308 35.6076 27.674 35.9508C28.0257 36.3024 28.5026 36.5 28.9999 36.5C29.0144 36.5 29.0289 36.5003 29.0433 36.5009C29.2964 36.5119 29.549 36.4716 29.7859 36.3823C30.0229 36.293 30.2393 36.1567 30.4222 35.9814C30.605 35.8062 30.7505 35.5957 30.8498 35.3628C30.9444 35.1407 30.9953 34.9024 30.9996 34.6612L29.8267 20H28.8778C28.8768 20 28.8758 20 28.8749 20C28.8748 20 28.8749 20 28.8749 20H28.2981Z" fill="#303345"/>
</svg>
