<svg width="40" height="40" viewBox="0 0 40 40" fill="none" xmlns="http://www.w3.org/2000/svg">
<path d="M13.3333 23.3333C12.8611 23.3333 12.4653 23.1736 12.1458 22.8541C11.8264 22.5347 11.6667 22.1388 11.6667 21.6666C11.6667 21.1944 11.8264 20.7986 12.1458 20.4791C12.4653 20.1597 12.8611 20 13.3333 20C13.8056 20 14.2014 20.1597 14.5208 20.4791C14.8403 20.7986 15 21.1944 15 21.6666C15 22.1388 14.8403 22.5347 14.5208 22.8541C14.2014 23.1736 13.8056 23.3333 13.3333 23.3333ZM20 23.3333C19.5278 23.3333 19.1319 23.1736 18.8125 22.8541C18.4931 22.5347 18.3333 22.1388 18.3333 21.6666C18.3333 21.1944 18.4931 20.7986 18.8125 20.4791C19.1319 20.1597 19.5278 20 20 20C20.4722 20 20.8681 20.1597 21.1875 20.4791C21.5069 20.7986 21.6667 21.1944 21.6667 21.6666C21.6667 22.1388 21.5069 22.5347 21.1875 22.8541C20.8681 23.1736 20.4722 23.3333 20 23.3333ZM26.6667 23.3333C26.1944 23.3333 25.7986 23.1736 25.4792 22.8541C25.1597 22.5347 25 22.1388 25 21.6666C25 21.1944 25.1597 20.7986 25.4792 20.4791C25.7986 20.1597 26.1944 20 26.6667 20C27.1389 20 27.5347 20.1597 27.8542 20.4791C28.1736 20.7986 28.3333 21.1944 28.3333 21.6666C28.3333 22.1388 28.1736 22.5347 27.8542 22.8541C27.5347 23.1736 27.1389 23.3333 26.6667 23.3333ZM8.33333 36.6666C7.41667 36.6666 6.63194 36.3402 5.97917 35.6875C5.32639 35.0347 5 34.25 5 33.3333V9.99995C5 9.08328 5.32639 8.29856 5.97917 7.64578C6.63194 6.99301 7.41667 6.66662 8.33333 6.66662H10V3.33328H13.3333V6.66662H26.6667V3.33328H30V6.66662H31.6667C32.5833 6.66662 33.3681 6.99301 34.0208 7.64578C34.6736 8.29856 35 9.08328 35 9.99995V33.3333C35 34.25 34.6736 35.0347 34.0208 35.6875C33.3681 36.3402 32.5833 36.6666 31.6667 36.6666H8.33333ZM8.33333 33.3333H31.6667V16.6666H8.33333V33.3333Z" fill="#303345"/>
</svg>
