<svg width="40" height="40" viewBox="0 0 40 40" fill="none" xmlns="http://www.w3.org/2000/svg">
<path d="M6.66646 33.3334C5.7498 33.3334 4.96507 33.007 4.3123 32.3542C3.65952 31.7015 3.33313 30.9167 3.33313 30.0001V10.0001C3.33313 9.08341 3.65952 8.29869 4.3123 7.64591C4.96507 6.99314 5.7498 6.66675 6.66646 6.66675H16.6665L19.9998 10.0001H33.3331C34.2498 10.0001 35.0345 10.3265 35.6873 10.9792C36.3401 11.632 36.6665 12.4167 36.6665 13.3334V30.0001C36.6665 30.9167 36.3401 31.7015 35.6873 32.3542C35.0345 33.007 34.2498 33.3334 33.3331 33.3334H6.66646ZM20.3331 23.3334L17.6248 26.0417L19.9581 28.3751L26.6665 21.6667L19.9581 14.9584L17.6248 17.2917L20.3331 20.0001H13.3331V23.3334H20.3331Z" fill="#303345"/>
</svg>
