<svg width="40" height="40" viewBox="0 0 40 40" fill="none" xmlns="http://www.w3.org/2000/svg">
<path d="M5 35V27.9167L27 5.95833C27.3333 5.65278 27.7014 5.41667 28.1042 5.25C28.5069 5.08333 28.9306 5 29.375 5C29.8194 5 30.25 5.08333 30.6667 5.25C31.0833 5.41667 31.4444 5.66667 31.75 6L34.0417 8.33333C34.375 8.63889 34.6181 9 34.7708 9.41667C34.9236 9.83333 35 10.25 35 10.6667C35 11.1111 34.9236 11.5347 34.7708 11.9375C34.6181 12.3403 34.375 12.7083 34.0417 13.0417L12.0833 35H5ZM29.3333 13L31.6667 10.6667L29.3333 8.33333L27 10.6667L29.3333 13Z" fill="#303345"/>
</svg>
