<svg width="40" height="40" viewBox="0 0 40 40" fill="none" xmlns="http://www.w3.org/2000/svg">
<path d="M15 24.9999V17.9165L30.2917 2.62488C30.625 2.29154 31 2.04154 31.4167 1.87488C31.8333 1.70821 32.25 1.62488 32.6667 1.62488C33.1111 1.62488 33.5347 1.70821 33.9375 1.87488C34.3403 2.04154 34.7083 2.29154 35.0417 2.62488L37.375 4.99988C37.6806 5.33321 37.9167 5.70127 38.0833 6.10404C38.25 6.50682 38.3333 6.91654 38.3333 7.33321C38.3333 7.74988 38.2569 8.1596 38.1042 8.56238C37.9514 8.96516 37.7083 9.33321 37.375 9.66654L22.0833 24.9999H15ZM32.6667 9.66654L35.0417 7.33321L32.7083 4.99988L30.3333 7.33321L32.6667 9.66654ZM8.33333 34.9999C7.41667 34.9999 6.63194 34.6735 5.97917 34.0207C5.32639 33.3679 5 32.5832 5 31.6665V8.33321C5 7.41654 5.32639 6.63182 5.97917 5.97904C6.63194 5.32627 7.41667 4.99988 8.33333 4.99988H23.2083L11.6667 16.5415V28.3332H23.4167L35 16.7499V31.6665C35 32.5832 34.6736 33.3679 34.0208 34.0207C33.3681 34.6735 32.5833 34.9999 31.6667 34.9999H8.33333Z" fill="#303345"/>
</svg>
