<svg width="40" height="40" viewBox="0 0 40 40" fill="none" xmlns="http://www.w3.org/2000/svg">
<path d="M6.66646 38.3334C5.7498 38.3334 4.96507 38.007 4.3123 37.3542C3.65952 36.7015 3.33313 35.9167 3.33313 35.0001V11.6667H6.66646V35.0001H24.9998V38.3334H6.66646ZM13.3331 31.6667C12.4165 31.6667 11.6317 31.3404 10.979 30.6876C10.3262 30.0348 9.9998 29.2501 9.9998 28.3334V5.00008C9.9998 4.08341 10.3262 3.29869 10.979 2.64591C11.6317 1.99314 12.4165 1.66675 13.3331 1.66675H24.9998L34.9998 11.6667V28.3334C34.9998 29.2501 34.6734 30.0348 34.0206 30.6876C33.3679 31.3404 32.5831 31.6667 31.6665 31.6667H13.3331ZM23.3331 13.3334H31.6665L23.3331 5.00008V13.3334Z" fill="#303345"/>
</svg>
