<svg width="40" height="40" viewBox="0 0 40 40" fill="none" xmlns="http://www.w3.org/2000/svg">
<path d="M20.8335 38.3334C16.8891 38.3334 13.5419 36.9584 10.7919 34.2084C8.04187 31.4584 6.66687 28.1112 6.66687 24.1667V8.33342C6.66687 7.86119 6.82659 7.46536 7.14604 7.14592C7.46548 6.82647 7.86131 6.66675 8.33354 6.66675C8.80576 6.66675 9.20159 6.82647 9.52104 7.14592C9.84048 7.46536 10.0002 7.86119 10.0002 8.33342V18.3334H13.3335V5.00008C13.3335 4.52786 13.4933 4.13203 13.8127 3.81258C14.1321 3.49314 14.528 3.33341 15.0002 3.33341C15.4724 3.33341 15.8683 3.49314 16.1877 3.81258C16.5071 4.13203 16.6669 4.52786 16.6669 5.00008V18.3334H20.0002V3.33341C20.0002 2.86119 20.1599 2.46536 20.4794 2.14591C20.7988 1.82647 21.1946 1.66675 21.6669 1.66675C22.1391 1.66675 22.5349 1.82647 22.8544 2.14591C23.1738 2.46536 23.3335 2.86119 23.3335 3.33341V18.3334H26.6669V6.66675C26.6669 6.19453 26.8266 5.79869 27.146 5.47925C27.4655 5.1598 27.8613 5.00008 28.3335 5.00008C28.8058 5.00008 29.2016 5.1598 29.521 5.47925C29.8405 5.79869 30.0002 6.19453 30.0002 6.66675V16.2501C29.1947 16.8334 28.5766 17.5695 28.146 18.4584C27.7155 19.3473 27.5002 20.2779 27.5002 21.2501V23.3334H25.4169C23.6669 23.3334 22.1877 23.9376 20.9794 25.1459C19.771 26.3542 19.1669 27.8334 19.1669 29.5834V31.6667H21.6669V29.5834C21.6669 28.5279 22.028 27.639 22.7502 26.9167C23.4724 26.1945 24.3613 25.8334 25.4169 25.8334H30.0002V21.2501C30.0002 20.1945 30.3613 19.3056 31.0835 18.5834C31.8058 17.8612 32.6947 17.5001 33.7502 17.5001H35.0002V24.1667C35.0002 28.1112 33.6252 31.4584 30.8752 34.2084C28.1252 36.9584 24.778 38.3334 20.8335 38.3334Z" fill="#303345"/>
</svg>
