<svg width="40" height="40" viewBox="0 0 40 40" fill="none" xmlns="http://www.w3.org/2000/svg">
<path d="M31.4165 36.6251C31.1942 36.6251 30.9859 36.5904 30.7915 36.5209C30.597 36.4515 30.4165 36.3334 30.2498 36.1667L21.7498 27.6667C21.5831 27.5001 21.4651 27.3195 21.3956 27.1251C21.3262 26.9306 21.2915 26.7223 21.2915 26.5001C21.2915 26.2779 21.3262 26.0695 21.3956 25.8751C21.4651 25.6806 21.5831 25.5001 21.7498 25.3334L25.2915 21.7917C25.4581 21.6251 25.6387 21.507 25.8331 21.4376C26.0276 21.3681 26.2359 21.3334 26.4581 21.3334C26.6804 21.3334 26.8887 21.3681 27.0831 21.4376C27.2776 21.507 27.4581 21.6251 27.6248 21.7917L36.1248 30.2917C36.2915 30.4584 36.4095 30.639 36.479 30.8334C36.5484 31.0279 36.5831 31.2362 36.5831 31.4584C36.5831 31.6806 36.5484 31.889 36.479 32.0834C36.4095 32.2779 36.2915 32.4584 36.1248 32.6251L32.5831 36.1667C32.4165 36.3334 32.2359 36.4515 32.0415 36.5209C31.847 36.5904 31.6387 36.6251 31.4165 36.6251ZM8.54146 36.6667C8.31924 36.6667 8.10396 36.6251 7.89563 36.5417C7.6873 36.4584 7.4998 36.3334 7.33313 36.1667L3.83313 32.6667C3.66646 32.5001 3.54146 32.3126 3.45813 32.1042C3.3748 31.8959 3.33313 31.6806 3.33313 31.4584C3.33313 31.2362 3.3748 31.0279 3.45813 30.8334C3.54146 30.639 3.66646 30.4584 3.83313 30.2917L12.6665 21.4584H16.2081L17.6248 20.0417L10.7498 13.1667H8.3748L3.33313 8.12508L8.04146 3.41675L13.0831 8.45842V10.8334L19.9581 17.7084L24.7915 12.8751L22.9998 11.0834L25.3331 8.75008H20.6248L19.4581 7.58342L25.3748 1.66675L26.5415 2.83341V7.54175L28.8748 5.20841L34.7915 11.1251C35.2637 11.5973 35.6248 12.132 35.8748 12.7292C36.1248 13.3265 36.2498 13.9584 36.2498 14.6251C36.2498 15.2917 36.1248 15.9306 35.8748 16.5417C35.6248 17.1529 35.2637 17.6945 34.7915 18.1667L31.2498 14.6251L28.9165 16.9584L27.1665 15.2084L18.5415 23.8334V27.3334L9.70813 36.1667C9.54146 36.3334 9.36091 36.4584 9.16646 36.5417C8.97202 36.6251 8.76369 36.6667 8.54146 36.6667Z" fill="#303345"/>
</svg>
