<svg width="40" height="40" viewBox="0 0 40 40" fill="none" xmlns="http://www.w3.org/2000/svg">
<path d="M20.1665 35C19.6942 35 19.2984 34.8403 18.979 34.5208C18.6595 34.2014 18.4998 33.8056 18.4998 33.3333C18.4998 33.1389 18.5415 32.9375 18.6248 32.7292C18.7081 32.5208 18.8331 32.3333 18.9998 32.1667L26.7081 24.4583L25.4998 23.25L17.8331 30.9583C17.6665 31.125 17.4859 31.25 17.2915 31.3333C17.097 31.4167 16.8887 31.4583 16.6665 31.4583C16.1942 31.4583 15.7984 31.2986 15.479 30.9792C15.1595 30.6597 14.9998 30.2639 14.9998 29.7917C14.9998 29.5139 15.0415 29.2847 15.1248 29.1042C15.2081 28.9236 15.3192 28.7639 15.4581 28.625L23.1665 20.9167L21.9998 19.75L14.2915 27.4167C14.1248 27.5833 13.9442 27.7083 13.7498 27.7917C13.5554 27.875 13.3331 27.9167 13.0831 27.9167C12.6387 27.9167 12.2498 27.75 11.9165 27.4167C11.5831 27.0833 11.4165 26.6944 11.4165 26.25C11.4165 26.0278 11.4581 25.8194 11.5415 25.625C11.6248 25.4306 11.7498 25.25 11.9165 25.0833L19.6248 17.375L18.4165 16.2083L10.7498 23.9167C10.6109 24.0556 10.4442 24.1667 10.2498 24.25C10.0554 24.3333 9.81924 24.375 9.54146 24.375C9.06924 24.375 8.67341 24.2153 8.35396 23.8958C8.03452 23.5764 7.8748 23.1806 7.8748 22.7083C7.8748 22.4861 7.91646 22.2778 7.9998 22.0833C8.08313 21.8889 8.20813 21.7083 8.3748 21.5417L17.6665 12.25L23.9165 18.5417C24.222 18.8472 24.5831 19.0903 24.9998 19.2708C25.4165 19.4514 25.8331 19.5417 26.2498 19.5417C27.1387 19.5417 27.9165 19.2292 28.5831 18.6042C29.2498 17.9792 29.5831 17.1806 29.5831 16.2083C29.5831 15.8194 29.5137 15.4167 29.3748 15C29.2359 14.5833 28.9859 14.1944 28.6248 13.8333L21.1665 6.375C21.6387 5.93056 22.1665 5.59028 22.7498 5.35417C23.3331 5.11806 23.9165 5 24.4998 5C25.222 5 25.8887 5.11806 26.4998 5.35417C27.1109 5.59028 27.6665 5.95833 28.1665 6.45833L35.2081 13.5417C35.7081 14.0417 36.0762 14.5972 36.3123 15.2083C36.5484 15.8194 36.6665 16.5278 36.6665 17.3333C36.6665 17.8889 36.5415 18.4514 36.2915 19.0208C36.0415 19.5903 35.6804 20.1111 35.2081 20.5833L21.3331 34.5C21.1109 34.7222 20.9165 34.8611 20.7498 34.9167C20.5831 34.9722 20.3887 35 20.1665 35ZM5.8748 21.6667L4.79146 20.5833C4.31924 20.1389 3.95813 19.6111 3.70813 19C3.45813 18.3889 3.33313 17.75 3.33313 17.0833C3.33313 16.3611 3.47202 15.6944 3.7498 15.0833C4.02757 14.4722 4.3748 13.9583 4.79146 13.5417L11.8331 6.45833C12.2776 6.01389 12.8054 5.65972 13.4165 5.39583C14.0276 5.13194 14.6248 5 15.2081 5C15.9581 5 16.6248 5.10417 17.2081 5.3125C17.7915 5.52083 18.3609 5.90278 18.9165 6.45833L27.4581 15C27.6248 15.1667 27.7498 15.3472 27.8331 15.5417C27.9165 15.7361 27.9581 15.9444 27.9581 16.1667C27.9581 16.6111 27.7915 17 27.4581 17.3333C27.1248 17.6667 26.7359 17.8333 26.2915 17.8333C26.0415 17.8333 25.8331 17.7986 25.6665 17.7292C25.4998 17.6597 25.3192 17.5278 25.1248 17.3333L17.6248 9.91667L5.8748 21.6667Z" fill="#303345"/>
</svg>
