<svg width="40" height="40" viewBox="0 0 40 40" fill="none" xmlns="http://www.w3.org/2000/svg">
<path d="M19.9166 30C20.4999 30 20.993 29.7986 21.3958 29.3958C21.7985 28.993 21.9999 28.5 21.9999 27.9166C21.9999 27.3333 21.7985 26.8402 21.3958 26.4375C20.993 26.0347 20.4999 25.8333 19.9166 25.8333C19.3333 25.8333 18.8402 26.0347 18.4374 26.4375C18.0346 26.8402 17.8333 27.3333 17.8333 27.9166C17.8333 28.5 18.0346 28.993 18.4374 29.3958C18.8402 29.7986 19.3333 30 19.9166 30ZM18.4166 23.5833H21.4999C21.4999 22.6666 21.6041 21.9444 21.8124 21.4166C22.0208 20.8888 22.611 20.1666 23.5833 19.25C24.3055 18.5277 24.8749 17.8402 25.2916 17.1875C25.7083 16.5347 25.9166 15.75 25.9166 14.8333C25.9166 13.2777 25.3471 12.0833 24.2083 11.2499C23.0694 10.4166 21.7221 9.99995 20.1666 9.99995C18.5833 9.99995 17.2985 10.4166 16.3124 11.2499C15.3263 12.0833 14.6388 13.0833 14.2499 14.25L16.9999 15.3333C17.1388 14.8333 17.4513 14.2916 17.9374 13.7083C18.4235 13.125 19.1666 12.8333 20.1666 12.8333C21.0555 12.8333 21.7221 13.0763 22.1666 13.5625C22.611 14.0486 22.8333 14.5833 22.8333 15.1666C22.8333 15.7222 22.6666 16.243 22.3333 16.7291C21.9999 17.2152 21.5833 17.6666 21.0833 18.0833C19.861 19.1666 19.111 19.9861 18.8333 20.5416C18.5555 21.0972 18.4166 22.1111 18.4166 23.5833ZM19.9999 36.6666C17.6944 36.6666 15.5277 36.2291 13.4999 35.3541C11.4721 34.4791 9.70825 33.2916 8.20825 31.7916C6.70825 30.2916 5.52075 28.5277 4.64575 26.5C3.77075 24.4722 3.33325 22.3055 3.33325 20C3.33325 17.6944 3.77075 15.5277 4.64575 13.5C5.52075 11.4722 6.70825 9.70828 8.20825 8.20828C9.70825 6.70828 11.4721 5.52078 13.4999 4.64578C15.5277 3.77078 17.6944 3.33328 19.9999 3.33328C22.3055 3.33328 24.4721 3.77078 26.4999 4.64578C28.5277 5.52078 30.2916 6.70828 31.7916 8.20828C33.2916 9.70828 34.4791 11.4722 35.3541 13.5C36.2291 15.5277 36.6666 17.6944 36.6666 20C36.6666 22.3055 36.2291 24.4722 35.3541 26.5C34.4791 28.5277 33.2916 30.2916 31.7916 31.7916C30.2916 33.2916 28.5277 34.4791 26.4999 35.3541C24.4721 36.2291 22.3055 36.6666 19.9999 36.6666Z" fill="#303345"/>
</svg>
