<svg width="40" height="40" viewBox="0 0 40 40" fill="none" xmlns="http://www.w3.org/2000/svg">
<path d="M13.3332 33.3333H26.6665V28.3333C26.6665 26.4999 26.0137 24.9305 24.7082 23.6249C23.4026 22.3194 21.8332 21.6666 19.9998 21.6666C18.1665 21.6666 16.5971 22.3194 15.2915 23.6249C13.9859 24.9305 13.3332 26.4999 13.3332 28.3333V33.3333ZM19.9998 18.3333C21.8332 18.3333 23.4026 17.6805 24.7082 16.3749C26.0137 15.0694 26.6665 13.4999 26.6665 11.6666V6.66659H13.3332V11.6666C13.3332 13.4999 13.9859 15.0694 15.2915 16.3749C16.5971 17.6805 18.1665 18.3333 19.9998 18.3333ZM6.6665 36.6666V33.3333H9.99984V28.3333C9.99984 26.6388 10.3957 25.0485 11.1873 23.5624C11.979 22.0763 13.0832 20.8888 14.4998 19.9999C13.0832 19.111 11.979 17.9235 11.1873 16.4374C10.3957 14.9513 9.99984 13.361 9.99984 11.6666V6.66659H6.6665V3.33325H33.3332V6.66659H29.9998V11.6666C29.9998 13.361 29.604 14.9513 28.8123 16.4374C28.0207 17.9235 26.9165 19.111 25.4998 19.9999C26.9165 20.8888 28.0207 22.0763 28.8123 23.5624C29.604 25.0485 29.9998 26.6388 29.9998 28.3333V33.3333H33.3332V36.6666H6.6665Z" fill="#303345"/>
</svg>
