<svg width="40" height="40" viewBox="0 0 40 40" fill="none" xmlns="http://www.w3.org/2000/svg">
<path d="M16.6665 25.0001V16.6667H29.9998V25.0001H16.6665ZM6.66646 33.3334C5.7498 33.3334 4.96507 33.007 4.3123 32.3542C3.65952 31.7015 3.33313 30.9167 3.33313 30.0001V10.0001C3.33313 9.08341 3.65952 8.29869 4.3123 7.64591C4.96507 6.99314 5.7498 6.66675 6.66646 6.66675H33.3331C34.2498 6.66675 35.0345 6.99314 35.6873 7.64591C36.3401 8.29869 36.6665 9.08341 36.6665 10.0001V30.0001C36.6665 30.9167 36.3401 31.7015 35.6873 32.3542C35.0345 33.007 34.2498 33.3334 33.3331 33.3334H6.66646ZM6.66646 30.0001H33.3331V13.3334H6.66646V30.0001Z" fill="#303345"/>
</svg>
