<svg width="40" height="40" viewBox="0 0 40 40" fill="none" xmlns="http://www.w3.org/2000/svg">
<path d="M18.3333 28.3333H21.6666V18.3333H18.3333V28.3333ZM19.9999 15C20.4721 15 20.868 14.8402 21.1874 14.5208C21.5069 14.2013 21.6666 13.8055 21.6666 13.3333C21.6666 12.8611 21.5069 12.4652 21.1874 12.1458C20.868 11.8263 20.4721 11.6666 19.9999 11.6666C19.5277 11.6666 19.1319 11.8263 18.8124 12.1458C18.493 12.4652 18.3333 12.8611 18.3333 13.3333C18.3333 13.8055 18.493 14.2013 18.8124 14.5208C19.1319 14.8402 19.5277 15 19.9999 15ZM19.9999 36.6666C17.6944 36.6666 15.5277 36.2291 13.4999 35.3541C11.4721 34.4791 9.70825 33.2916 8.20825 31.7916C6.70825 30.2916 5.52075 28.5277 4.64575 26.5C3.77075 24.4722 3.33325 22.3055 3.33325 20C3.33325 17.6944 3.77075 15.5277 4.64575 13.5C5.52075 11.4722 6.70825 9.70828 8.20825 8.20828C9.70825 6.70828 11.4721 5.52078 13.4999 4.64578C15.5277 3.77078 17.6944 3.33328 19.9999 3.33328C22.3055 3.33328 24.4721 3.77078 26.4999 4.64578C28.5277 5.52078 30.2916 6.70828 31.7916 8.20828C33.2916 9.70828 34.4791 11.4722 35.3541 13.5C36.2291 15.5277 36.6666 17.6944 36.6666 20C36.6666 22.3055 36.2291 24.4722 35.3541 26.5C34.4791 28.5277 33.2916 30.2916 31.7916 31.7916C30.2916 33.2916 28.5277 34.4791 26.4999 35.3541C24.4721 36.2291 22.3055 36.6666 19.9999 36.6666Z" fill="#303345"/>
</svg>
