<svg width="40" height="40" viewBox="0 0 40 40" fill="none" xmlns="http://www.w3.org/2000/svg">
<path d="M8.33301 36.6666C7.41634 36.6666 6.63162 36.3402 5.97884 35.6874C5.32606 35.0346 4.99967 34.2499 4.99967 33.3333V14.5416C4.49967 14.236 4.0969 13.8402 3.79134 13.3541C3.48579 12.868 3.33301 12.3055 3.33301 11.6666V6.66659C3.33301 5.74992 3.6594 4.9652 4.31217 4.31242C4.96495 3.65964 5.74967 3.33325 6.66634 3.33325H33.333C34.2497 3.33325 35.0344 3.65964 35.6872 4.31242C36.34 4.9652 36.6663 5.74992 36.6663 6.66659V11.6666C36.6663 12.3055 36.5136 12.868 36.208 13.3541C35.9025 13.8402 35.4997 14.236 34.9997 14.5416V33.3333C34.9997 34.2499 34.6733 35.0346 34.0205 35.6874C33.3677 36.3402 32.583 36.6666 31.6663 36.6666H8.33301ZM6.66634 11.6666H33.333V6.66659H6.66634V11.6666ZM14.9997 23.3333H24.9997V19.9999H14.9997V23.3333Z" fill="#303345"/>
</svg>
