<svg width="40" height="40" viewBox="0 0 40 40" fill="none" xmlns="http://www.w3.org/2000/svg">
<path d="M9.9998 35V31.6667H18.3331V26.6667H6.66646C5.7498 26.6667 4.96507 26.3403 4.3123 25.6875C3.65952 25.0347 3.33313 24.25 3.33313 23.3333V8.33333C3.33313 7.41667 3.65952 6.63194 4.3123 5.97917C4.96507 5.32639 5.7498 5 6.66646 5H33.3331C34.2498 5 35.0345 5.32639 35.6873 5.97917C36.3401 6.63194 36.6665 7.41667 36.6665 8.33333V23.3333C36.6665 24.25 36.3401 25.0347 35.6873 25.6875C35.0345 26.3403 34.2498 26.6667 33.3331 26.6667H21.6665V31.6667H29.9998V35H9.9998Z" fill="#303345"/>
</svg>
