<svg width="40" height="40" viewBox="0 0 40 40" fill="none" xmlns="http://www.w3.org/2000/svg">
<path d="M11.6669 25C13.0558 25 14.2363 24.5139 15.2085 23.5417C16.1808 22.5694 16.6669 21.3889 16.6669 20C16.6669 18.6111 16.1808 17.4306 15.2085 16.4583C14.2363 15.4861 13.0558 15 11.6669 15C10.278 15 9.09743 15.4861 8.1252 16.4583C7.15298 17.4306 6.66687 18.6111 6.66687 20C6.66687 21.3889 7.15298 22.5694 8.1252 23.5417C9.09743 24.5139 10.278 25 11.6669 25ZM11.6669 30C8.88909 30 6.52798 29.0278 4.58354 27.0833C2.63909 25.1389 1.66687 22.7778 1.66687 20C1.66687 17.2222 2.63909 14.8611 4.58354 12.9167C6.52798 10.9722 8.88909 10 11.6669 10C13.9169 10 15.8821 10.6389 17.5627 11.9167C19.2433 13.1944 20.4169 14.7778 21.0835 16.6667H35.0419L38.3335 19.9583L32.5002 26.625L28.3335 23.3333L25.0002 26.6667L21.6669 23.3333H21.0835C20.3891 25.3333 19.1808 26.9444 17.4585 28.1667C15.7363 29.3889 13.8058 30 11.6669 30Z" fill="#303345"/>
</svg>
