<svg width="24" height="24" viewBox="0 0 24 24" fill="none" xmlns="http://www.w3.org/2000/svg">
    <path fill-rule="evenodd" clip-rule="evenodd" d="M16.2843 9.76001L11.5523 22.24H14.1698L15.2448 19.19H19.7551L20.8301 22.24H23.4476L18.7156 9.76001H16.2843ZM18.9607 16.96H16.0392L17.4999 12.8211L18.9607 16.96Z" fill="#303345"/>
    <path fill-rule="evenodd" clip-rule="evenodd" d="M2.26054 17.6L3.99953 19.339L9.04745 14.3161L12.1944 17.5404L13.1274 14.9902L10.7868 12.6009C11.4366 11.9228 12.0853 10.9918 12.735 9.81609C13.4089 8.59668 13.9241 7.40461 14.2788 6.24001H17.2399V3.76001H10.2399V1.76001H7.75995V3.76001H0.759949V6.24001H11.7616C11.4727 7.02628 11.0715 7.85106 10.5563 8.71454C10.033 9.5917 9.53096 10.2859 9.0513 10.8026C8.66559 10.3881 8.33122 9.97512 8.04752 9.56375C7.72131 9.09074 7.39319 8.53337 7.0635 7.89049L6.99659 7.76001H4.38849L4.52876 8.09314C4.93311 9.05349 5.37655 9.91557 5.85969 10.6784C6.29768 11.37 6.78183 11.9934 7.31243 12.5481L2.26054 17.6ZM16.9999 5.99995H14.0999C13.7499 7.19995 13.2249 8.43328 12.5249 9.69995C11.8249 10.9666 11.1332 11.9333 10.4499 12.6L10.4691 12.5813C11.1462 11.9153 11.8314 10.9548 12.5249 9.69995C13.2249 8.43328 13.7499 7.19995 14.0999 5.99995H16.9999Z" fill="#303345"/>
</svg>
