<svg width="40" height="40" viewBox="0 0 40 40" fill="none" xmlns="http://www.w3.org/2000/svg">
<path d="M16.6667 35V31.8333C16.6667 31.25 16.8125 30.7014 17.1042 30.1875C17.3959 29.6736 17.7917 29.2639 18.2917 28.9583C19.5695 28.2083 20.9098 27.6389 22.3125 27.25C23.7153 26.8611 25.1667 26.6667 26.6667 26.6667C28.1667 26.6667 29.6181 26.8611 31.0209 27.25C32.4237 27.6389 33.7639 28.2083 35.0417 28.9583C35.5417 29.2639 35.9375 29.6736 36.2292 30.1875C36.5209 30.7014 36.6667 31.25 36.6667 31.8333V35H16.6667ZM3.33337 35V15L16.6667 5L25.625 11.75C23.5417 12 21.8056 12.9097 20.4167 14.4792C19.0278 16.0486 18.3334 17.8889 18.3334 20C18.3334 20.8611 18.4514 21.6736 18.6875 22.4375C18.9237 23.2014 19.2639 23.9167 19.7084 24.5833C19.1528 24.8056 18.6181 25.0347 18.1042 25.2708C17.5903 25.5069 17.0834 25.7778 16.5834 26.0833C15.5834 26.6667 14.7917 27.4792 14.2084 28.5208C13.625 29.5625 13.3334 30.6667 13.3334 31.8333V35H3.33337ZM26.6667 25C25.2778 25 24.0973 24.5139 23.125 23.5417C22.1528 22.5694 21.6667 21.3889 21.6667 20C21.6667 18.6111 22.1528 17.4306 23.125 16.4583C24.0973 15.4861 25.2778 15 26.6667 15C28.0556 15 29.2362 15.4861 30.2084 16.4583C31.1806 17.4306 31.6667 18.6111 31.6667 20C31.6667 21.3889 31.1806 22.5694 30.2084 23.5417C29.2362 24.5139 28.0556 25 26.6667 25Z" fill="#303345"/>
</svg>
