<svg width="40" height="40" viewBox="0 0 40 40" fill="none" xmlns="http://www.w3.org/2000/svg">
<path d="M10.0002 36.6667C9.08354 36.6667 8.29881 36.3404 7.64604 35.6876C6.99326 35.0348 6.66687 34.2501 6.66687 33.3334V16.6667C6.66687 15.7501 6.99326 14.9654 7.64604 14.3126C8.29881 13.6598 9.08354 13.3334 10.0002 13.3334H11.6669V10.0001C11.6669 7.69453 12.4794 5.72925 14.1044 4.10425C15.7294 2.47925 17.6946 1.66675 20.0002 1.66675C22.3058 1.66675 24.271 2.47925 25.896 4.10425C27.521 5.72925 28.3335 7.69453 28.3335 10.0001V13.3334H30.0002C30.9169 13.3334 31.7016 13.6598 32.3544 14.3126C33.0071 14.9654 33.3335 15.7501 33.3335 16.6667V33.3334C33.3335 34.2501 33.0071 35.0348 32.3544 35.6876C31.7016 36.3404 30.9169 36.6667 30.0002 36.6667H10.0002ZM20.0002 28.3334C20.9169 28.3334 21.7016 28.007 22.3544 27.3542C23.0071 26.7015 23.3335 25.9167 23.3335 25.0001C23.3335 24.0834 23.0071 23.2987 22.3544 22.6459C21.7016 21.9931 20.9169 21.6667 20.0002 21.6667C19.0835 21.6667 18.2988 21.9931 17.646 22.6459C16.9933 23.2987 16.6669 24.0834 16.6669 25.0001C16.6669 25.9167 16.9933 26.7015 17.646 27.3542C18.2988 28.007 19.0835 28.3334 20.0002 28.3334ZM15.0002 13.3334H25.0002V10.0001C25.0002 8.61119 24.5141 7.43064 23.5419 6.45842C22.5696 5.48619 21.3891 5.00008 20.0002 5.00008C18.6113 5.00008 17.4308 5.48619 16.4585 6.45842C15.4863 7.43064 15.0002 8.61119 15.0002 10.0001V13.3334Z" fill="#303345"/>
</svg>
