<svg width="40" height="40" viewBox="0 0 40 40" fill="none" xmlns="http://www.w3.org/2000/svg">
<path d="M21.6667 35V31.6667H29.3333L21.6667 24V19.3333L31.6667 29.3333V21.6667H35V35H21.6667ZM10 28.3333V26.6667H5V23.3333H15V18.3333H8.33333C7.41667 18.3333 6.63194 18.0069 5.97917 17.3542C5.32639 16.7014 5 15.9167 5 15V10C5 9.08333 5.32639 8.29861 5.97917 7.64583C6.63194 6.99306 7.41667 6.66667 8.33333 6.66667H10V5H13.3333V6.66667H18.3333V10H8.33333V15H15C15.9167 15 16.7014 15.3264 17.3542 15.9792C18.0069 16.6319 18.3333 17.4167 18.3333 18.3333V23.3333C18.3333 24.25 18.0069 25.0347 17.3542 25.6875C16.7014 26.3403 15.9167 26.6667 15 26.6667H13.3333V28.3333H10Z" fill="#303345"/>
</svg>
