<svg width="40" height="40" viewBox="0 0 40 40" fill="none" xmlns="http://www.w3.org/2000/svg">
<path d="M10.0001 23.3334C9.08341 23.3334 8.29869 23.007 7.64591 22.3542C6.99314 21.7014 6.66675 20.9167 6.66675 20.0001C6.66675 19.0834 6.99314 18.2987 7.64591 17.6459C8.29869 16.9931 9.08341 16.6667 10.0001 16.6667C10.9167 16.6667 11.7015 16.9931 12.3542 17.6459C13.007 18.2987 13.3334 19.0834 13.3334 20.0001C13.3334 20.9167 13.007 21.7014 12.3542 22.3542C11.7015 23.007 10.9167 23.3334 10.0001 23.3334ZM20.0001 23.3334C19.0834 23.3334 18.2987 23.007 17.6459 22.3542C16.9931 21.7014 16.6667 20.9167 16.6667 20.0001C16.6667 19.0834 16.9931 18.2987 17.6459 17.6459C18.2987 16.9931 19.0834 16.6667 20.0001 16.6667C20.9167 16.6667 21.7015 16.9931 22.3542 17.6459C23.007 18.2987 23.3334 19.0834 23.3334 20.0001C23.3334 20.9167 23.007 21.7014 22.3542 22.3542C21.7015 23.007 20.9167 23.3334 20.0001 23.3334ZM30.0001 23.3334C29.0834 23.3334 28.2987 23.007 27.6459 22.3542C26.9931 21.7014 26.6667 20.9167 26.6667 20.0001C26.6667 19.0834 26.9931 18.2987 27.6459 17.6459C28.2987 16.9931 29.0834 16.6667 30.0001 16.6667C30.9167 16.6667 31.7015 16.9931 32.3542 17.6459C33.007 18.2987 33.3334 19.0834 33.3334 20.0001C33.3334 20.9167 33.007 21.7014 32.3542 22.3542C31.7015 23.007 30.9167 23.3334 30.0001 23.3334Z" fill="#303345"/>
</svg>
