<svg width="40" height="40" viewBox="0 0 40 40" fill="none" xmlns="http://www.w3.org/2000/svg">
<path d="M13.833 25.8333H16.083L17.333 22.4166H22.6663L23.9163 25.8333H26.2497L21.1663 12.4999H18.833L13.833 25.8333ZM17.9997 20.4999L19.9163 14.9999H20.083L21.9997 20.4999H17.9997ZM19.9997 36.6666C17.6941 36.6666 15.5275 36.2291 13.4997 35.3541C11.4719 34.4791 9.70801 33.2916 8.20801 31.7916C6.70801 30.2916 5.52051 28.5277 4.64551 26.4999C3.77051 24.4721 3.33301 22.3055 3.33301 19.9999C3.33301 18.8055 3.45801 17.6319 3.70801 16.4791C3.95801 15.3263 4.31912 14.2083 4.79134 13.1249L7.37467 15.7083C7.15245 16.4305 6.97884 17.1458 6.85384 17.8541C6.72884 18.5624 6.66634 19.2777 6.66634 19.9999C6.66634 23.7221 7.95801 26.8749 10.5413 29.4583C13.1247 32.0416 16.2775 33.3333 19.9997 33.3333C23.7219 33.3333 26.8747 32.0416 29.458 29.4583C32.0413 26.8749 33.333 23.7221 33.333 19.9999C33.333 16.2777 32.0413 13.1249 29.458 10.5416C26.8747 7.95825 23.7219 6.66659 19.9997 6.66659C19.2497 6.66659 18.5205 6.72909 17.8122 6.85409C17.1038 6.97909 16.4025 7.1527 15.708 7.37492L13.1663 4.83325C14.2775 4.33325 15.3886 3.95825 16.4997 3.70825C17.6108 3.45825 18.7775 3.33325 19.9997 3.33325C22.3052 3.33325 24.4719 3.77075 26.4997 4.64575C28.5275 5.52075 30.2913 6.70825 31.7913 8.20825C33.2913 9.70825 34.4788 11.4721 35.3538 13.4999C36.2288 15.5277 36.6663 17.6944 36.6663 19.9999C36.6663 22.3055 36.2288 24.4721 35.3538 26.4999C34.4788 28.5277 33.2913 30.2916 31.7913 31.7916C30.2913 33.2916 28.5275 34.4791 26.4997 35.3541C24.4719 36.2291 22.3052 36.6666 19.9997 36.6666ZM9.16634 11.6666C8.4719 11.6666 7.88162 11.4235 7.39551 10.9374C6.9094 10.4513 6.66634 9.86103 6.66634 9.16659C6.66634 8.47214 6.9094 7.88186 7.39551 7.39575C7.88162 6.90964 8.4719 6.66659 9.16634 6.66659C9.86079 6.66659 10.4511 6.90964 10.9372 7.39575C11.4233 7.88186 11.6663 8.47214 11.6663 9.16659C11.6663 9.86103 11.4233 10.4513 10.9372 10.9374C10.4511 11.4235 9.86079 11.6666 9.16634 11.6666ZM9.99968 19.9999C9.99968 17.2221 10.9719 14.861 12.9163 12.9166C14.8608 10.9721 17.2219 9.99992 19.9997 9.99992C22.7775 9.99992 25.1386 10.9721 27.083 12.9166C29.0275 14.861 29.9997 17.2221 29.9997 19.9999C29.9997 22.7777 29.0275 25.1388 27.083 27.0833C25.1386 29.0277 22.7775 29.9999 19.9997 29.9999C17.2219 29.9999 14.8608 29.0277 12.9163 27.0833C10.9719 25.1388 9.99968 22.7777 9.99968 19.9999Z" fill="#303345"/>
</svg>
