<svg width="40" height="40" viewBox="0 0 40 40" fill="none" xmlns="http://www.w3.org/2000/svg">
<path d="M8.3335 33.3333V28.3333H3.3335V24.9999H8.3335V19.9999H11.6668V24.9999H16.6668V28.3333H11.6668V33.3333H8.3335ZM20.0002 31.6666V21.6666H15.0002V16.6666H5.00016V11.6666C5.00016 10.7499 5.32655 9.9652 5.97933 9.31242C6.63211 8.65964 7.41683 8.33325 8.3335 8.33325H25.0002C25.5557 8.33325 26.0766 8.45825 26.5627 8.70825C27.0488 8.95825 27.4446 9.30547 27.7502 9.74992L35.0002 19.9999L27.7502 30.2499C27.4446 30.6944 27.0488 31.0416 26.5627 31.2916C26.0766 31.5416 25.5557 31.6666 25.0002 31.6666H20.0002Z" fill="#303345"/>
</svg>
