<svg width="40" height="40" viewBox="0 0 40 40" fill="none" xmlns="http://www.w3.org/2000/svg">
<path d="M13.333 26.6666H16.6663V13.3333H13.333V26.6666ZM19.9997 26.6666L29.9997 19.9999L19.9997 13.3333V26.6666ZM19.9997 36.6666C17.6941 36.6666 15.5275 36.2291 13.4997 35.3541C11.4719 34.4791 9.70801 33.2916 8.20801 31.7916C6.70801 30.2916 5.52051 28.5277 4.64551 26.4999C3.77051 24.4721 3.33301 22.3055 3.33301 19.9999C3.33301 17.6944 3.77051 15.5277 4.64551 13.4999C5.52051 11.4721 6.70801 9.70825 8.20801 8.20825C9.70801 6.70825 11.4719 5.52075 13.4997 4.64575C15.5275 3.77075 17.6941 3.33325 19.9997 3.33325C22.3052 3.33325 24.4719 3.77075 26.4997 4.64575C28.5275 5.52075 30.2913 6.70825 31.7913 8.20825C33.2913 9.70825 34.4788 11.4721 35.3538 13.4999C36.2288 15.5277 36.6663 17.6944 36.6663 19.9999C36.6663 22.3055 36.2288 24.4721 35.3538 26.4999C34.4788 28.5277 33.2913 30.2916 31.7913 31.7916C30.2913 33.2916 28.5275 34.4791 26.4997 35.3541C24.4719 36.2291 22.3052 36.6666 19.9997 36.6666Z" fill="#303345"/>
</svg>
