<svg width="40" height="40" viewBox="0 0 40 40" fill="none" xmlns="http://www.w3.org/2000/svg">
<path d="M6.66675 31.6666V28.3333H10.0001V16.6666C10.0001 14.3611 10.6945 12.3125 12.0834 10.5208C13.4723 8.72912 15.2779 7.55551 17.5001 6.99995V5.83328C17.5001 5.13884 17.7431 4.54856 18.2292 4.06245C18.7154 3.57634 19.3056 3.33328 20.0001 3.33328C20.6945 3.33328 21.2848 3.57634 21.7709 4.06245C22.257 4.54856 22.5001 5.13884 22.5001 5.83328V6.99995C24.7223 7.55551 26.5279 8.72912 27.9167 10.5208C29.3056 12.3125 30.0001 14.3611 30.0001 16.6666V28.3333H33.3334V31.6666H6.66675ZM20.0001 36.6666C19.0834 36.6666 18.2987 36.3402 17.6459 35.6875C16.9931 35.0347 16.6667 34.25 16.6667 33.3333H23.3334C23.3334 34.25 23.007 35.0347 22.3542 35.6875C21.7015 36.3402 20.9167 36.6666 20.0001 36.6666Z" fill="#303345"/>
</svg>
