<svg width="40" height="40" viewBox="0 0 40 40" fill="none" xmlns="http://www.w3.org/2000/svg">
<path d="M6.66659 31.6666V28.3333H9.99992V16.6666C9.99992 14.3611 10.6944 12.3125 12.0833 10.5208C13.4721 8.72914 15.2777 7.55553 17.4999 6.99997V5.8333C17.4999 5.13886 17.743 4.54858 18.2291 4.06247C18.7152 3.57636 19.3055 3.3333 19.9999 3.3333C20.6944 3.3333 21.2846 3.57636 21.7708 4.06247C22.2569 4.54858 22.4999 5.13886 22.4999 5.8333V6.99997C24.7221 7.55553 26.5277 8.72914 27.9166 10.5208C29.3055 12.3125 29.9999 14.3611 29.9999 16.6666V28.3333H33.3333V31.6666H6.66659ZM19.9999 36.6666C19.0833 36.6666 18.2985 36.3402 17.6458 35.6875C16.993 35.0347 16.6666 34.25 16.6666 33.3333H23.3333C23.3333 34.25 23.0069 35.0347 22.3541 35.6875C21.7013 36.3402 20.9166 36.6666 19.9999 36.6666ZM3.33325 16.6666C3.33325 13.8889 3.95131 11.3402 5.18742 9.0208C6.42353 6.70136 8.08325 4.77775 10.1666 3.24997L12.1249 5.91664C10.4583 7.13886 9.13186 8.68053 8.14575 10.5416C7.15964 12.4027 6.66659 14.4444 6.66659 16.6666H3.33325ZM33.3333 16.6666C33.3333 14.4444 32.8402 12.4027 31.8541 10.5416C30.868 8.68053 29.5416 7.13886 27.8749 5.91664L29.8333 3.24997C31.9166 4.77775 33.5763 6.70136 34.8124 9.0208C36.0485 11.3402 36.6666 13.8889 36.6666 16.6666H33.3333Z" fill="#303345"/>
</svg>
