<svg width="40" height="40" viewBox="0 0 40 40" fill="none" xmlns="http://www.w3.org/2000/svg">
<path d="M4.99984 33.3334C4.08317 33.3334 3.29845 33.007 2.64567 32.3542C1.99289 31.7014 1.6665 30.9167 1.6665 30.0001V11.6667H4.99984V30.0001H33.3332V33.3334H4.99984ZM11.6665 26.6667C10.7498 26.6667 9.96512 26.3403 9.31234 25.6876C8.65956 25.0348 8.33317 24.2501 8.33317 23.3334V10.0001C8.33317 9.08338 8.65956 8.29866 9.31234 7.64588C9.96512 6.99311 10.7498 6.66672 11.6665 6.66672H34.9998C35.9165 6.66672 36.7012 6.99311 37.354 7.64588C38.0068 8.29866 38.3332 9.08338 38.3332 10.0001V23.3334C38.3332 24.2501 38.0068 25.0348 37.354 25.6876C36.7012 26.3403 35.9165 26.6667 34.9998 26.6667H11.6665ZM14.9998 23.3334C14.9998 22.4167 14.6734 21.632 14.0207 20.9792C13.3679 20.3264 12.5832 20.0001 11.6665 20.0001V23.3334H14.9998ZM31.6665 23.3334H34.9998V20.0001C34.0832 20.0001 33.2984 20.3264 32.6457 20.9792C31.9929 21.632 31.6665 22.4167 31.6665 23.3334ZM23.3332 21.6667C24.7221 21.6667 25.9026 21.1806 26.8748 20.2084C27.8471 19.2362 28.3332 18.0556 28.3332 16.6667C28.3332 15.2778 27.8471 14.0973 26.8748 13.1251C25.9026 12.1528 24.7221 11.6667 23.3332 11.6667C21.9443 11.6667 20.7637 12.1528 19.7915 13.1251C18.8193 14.0973 18.3332 15.2778 18.3332 16.6667C18.3332 18.0556 18.8193 19.2362 19.7915 20.2084C20.7637 21.1806 21.9443 21.6667 23.3332 21.6667ZM11.6665 13.3334C12.5832 13.3334 13.3679 13.007 14.0207 12.3542C14.6734 11.7014 14.9998 10.9167 14.9998 10.0001H11.6665V13.3334ZM34.9998 13.3334V10.0001H31.6665C31.6665 10.9167 31.9929 11.7014 32.6457 12.3542C33.2984 13.007 34.0832 13.3334 34.9998 13.3334Z" fill="#303345"/>
</svg>
