<svg width="40" height="40" viewBox="0 0 40 40" fill="none" xmlns="http://www.w3.org/2000/svg">
<path d="M20.0001 20.0001C18.1667 20.0001 16.5973 19.3473 15.2917 18.0417C13.9862 16.7362 13.3334 15.1667 13.3334 13.3334C13.3334 11.5001 13.9862 9.93061 15.2917 8.62505C16.5973 7.3195 18.1667 6.66672 20.0001 6.66672C21.8334 6.66672 23.4029 7.3195 24.7084 8.62505C26.014 9.93061 26.6667 11.5001 26.6667 13.3334C26.6667 15.1667 26.014 16.7362 24.7084 18.0417C23.4029 19.3473 21.8334 20.0001 20.0001 20.0001ZM6.66675 33.3334V28.6667C6.66675 27.7223 6.9098 26.8542 7.39591 26.0626C7.88203 25.2709 8.52786 24.6667 9.33341 24.2501C11.0556 23.3889 12.8056 22.7431 14.5834 22.3126C16.3612 21.882 18.1667 21.6667 20.0001 21.6667C21.8334 21.6667 23.639 21.882 25.4167 22.3126C27.1945 22.7431 28.9445 23.3889 30.6667 24.2501C31.4723 24.6667 32.1181 25.2709 32.6042 26.0626C33.0904 26.8542 33.3334 27.7223 33.3334 28.6667V33.3334H6.66675Z" fill="#303345"/>
</svg>
