<svg width="40" height="40" viewBox="0 0 40 40" fill="none" xmlns="http://www.w3.org/2000/svg">
<path d="M10.8335 24.9584V23.2917H6.66687V19.9584H15.0002V16.625H8.33354C7.86131 16.625 7.46548 16.4653 7.14604 16.1459C6.82659 15.8264 6.66687 15.4306 6.66687 14.9584V8.29171C6.66687 7.81949 6.82659 7.42365 7.14604 7.10421C7.46548 6.78476 7.86131 6.62504 8.33354 6.62504H10.8335V4.95837H14.1669V6.62504H18.3335V9.95837H10.0002V13.2917H16.6669C17.1391 13.2917 17.5349 13.4514 17.8544 13.7709C18.1738 14.0903 18.3335 14.4862 18.3335 14.9584V21.625C18.3335 22.0973 18.1738 22.4931 17.8544 22.8125C17.5349 23.132 17.1391 23.2917 16.6669 23.2917H14.1669V24.9584H10.8335ZM23.2502 34.9584L16.1669 27.875L18.5002 25.5417L23.2502 30.2917L32.6669 20.875L35.0002 23.2084L23.2502 34.9584Z" fill="#303345"/>
</svg>
