<svg width="40" height="40" viewBox="0 0 40 40" fill="none" xmlns="http://www.w3.org/2000/svg">
<g id="icon / 40 / filled / progress-activity">
<path id="Vector" d="M20.0002 36.6667C17.7224 36.6667 15.5696 36.2292 13.5418 35.3542C11.5141 34.4792 9.74322 33.2848 8.22933 31.7709C6.71544 30.257 5.521 28.4862 4.646 26.4584C3.771 24.4306 3.3335 22.2778 3.3335 20C3.3335 17.6945 3.771 15.5348 4.646 13.5209C5.521 11.507 6.71544 9.7431 8.22933 8.22921C9.74322 6.71532 11.5141 5.52087 13.5418 4.64587C15.5696 3.77087 17.7224 3.33337 20.0002 3.33337C20.4724 3.33337 20.8682 3.4931 21.1877 3.81254C21.5071 4.13199 21.6668 4.52782 21.6668 5.00004C21.6668 5.47226 21.5071 5.8681 21.1877 6.18754C20.8682 6.50698 20.4724 6.66671 20.0002 6.66671C16.3057 6.66671 13.1599 7.96532 10.5627 10.5625C7.96544 13.1598 6.66683 16.3056 6.66683 20C6.66683 23.6945 7.96544 26.8403 10.5627 29.4375C13.1599 32.0348 16.3057 33.3334 20.0002 33.3334C23.6946 33.3334 26.8404 32.0348 29.4377 29.4375C32.0349 26.8403 33.3335 23.6945 33.3335 20C33.3335 19.5278 33.4932 19.132 33.8127 18.8125C34.1321 18.4931 34.5279 18.3334 35.0002 18.3334C35.4724 18.3334 35.8682 18.4931 36.1877 18.8125C36.5071 19.132 36.6668 19.5278 36.6668 20C36.6668 22.2778 36.2293 24.4306 35.3543 26.4584C34.4793 28.4862 33.2849 30.257 31.771 31.7709C30.2571 33.2848 28.4932 34.4792 26.4793 35.3542C24.4654 36.2292 22.3057 36.6667 20.0002 36.6667Z" fill="#303345"/>
</g>
</svg>
