<svg width="40" height="40" viewBox="0 0 40 40" fill="none" xmlns="http://www.w3.org/2000/svg">
<path d="M9.99996 36.6666C9.08329 36.6666 8.29857 36.3402 7.64579 35.6875C6.99301 35.0347 6.66663 34.25 6.66663 33.3333V6.66662C6.66663 5.74995 6.99301 4.96523 7.64579 4.31245C8.29857 3.65967 9.08329 3.33328 9.99996 3.33328H23.3333L33.3333 13.3333V33.3333C33.3333 34.25 33.0069 35.0347 32.3541 35.6875C31.7013 36.3402 30.9166 36.6666 30 36.6666H9.99996ZM18.3333 31.6666H21.6666V30H23.3333C23.8055 30 24.2013 29.8402 24.5208 29.5208C24.8402 29.2013 25 28.8055 25 28.3333V23.3333C25 22.8611 24.8402 22.4652 24.5208 22.1458C24.2013 21.8263 23.8055 21.6666 23.3333 21.6666H18.3333V20H25V16.6666H21.6666V15H18.3333V16.6666H16.6666C16.1944 16.6666 15.7986 16.8263 15.4791 17.1458C15.1597 17.4652 15 17.8611 15 18.3333V23.3333C15 23.8055 15.1597 24.2013 15.4791 24.5208C15.7986 24.8402 16.1944 25 16.6666 25H21.6666V26.6666H15V30H18.3333V31.6666ZM21.9583 13.3333H28.625L21.9583 6.66662V13.3333Z" fill="#303345"/>
</svg>
