<svg width="40" height="40" viewBox="0 0 40 40" fill="none" xmlns="http://www.w3.org/2000/svg">
<path d="M15.4168 36.6666L14.7501 31.3333C14.389 31.1944 14.0487 31.0277 13.7293 30.8333C13.4098 30.6388 13.0973 30.4305 12.7918 30.2083L7.83346 32.2916L3.25012 24.3749L7.54179 21.1249C7.51401 20.9305 7.50012 20.743 7.50012 20.5624V19.4374C7.50012 19.2569 7.51401 19.0694 7.54179 18.8749L3.25012 15.6249L7.83346 7.70825L12.7918 9.79159C13.0973 9.56936 13.4168 9.36103 13.7501 9.16659C14.0835 8.97214 14.4168 8.80547 14.7501 8.66659L15.4168 3.33325H24.5835L25.2501 8.66659C25.6112 8.80547 25.9515 8.97214 26.271 9.16659C26.5904 9.36103 26.9029 9.56936 27.2085 9.79159L32.1668 7.70825L36.7501 15.6249L32.4585 18.8749C32.4862 19.0694 32.5001 19.2569 32.5001 19.4374V20.5624C32.5001 20.743 32.4723 20.9305 32.4168 21.1249L36.7085 24.3749L32.1251 32.2916L27.2085 30.2083C26.9029 30.4305 26.5835 30.6388 26.2501 30.8333C25.9168 31.0277 25.5835 31.1944 25.2501 31.3333L24.5835 36.6666H15.4168ZM20.0835 25.8333C21.6946 25.8333 23.0696 25.2638 24.2085 24.1249C25.3473 22.986 25.9168 21.611 25.9168 19.9999C25.9168 18.3888 25.3473 17.0138 24.2085 15.8749C23.0696 14.736 21.6946 14.1666 20.0835 14.1666C18.4446 14.1666 17.0626 14.736 15.9376 15.8749C14.8126 17.0138 14.2501 18.3888 14.2501 19.9999C14.2501 21.611 14.8126 22.986 15.9376 24.1249C17.0626 25.2638 18.4446 25.8333 20.0835 25.8333Z" fill="#303345"/>
</svg>
