<svg width="40" height="40" viewBox="0 0 40 40" fill="none" xmlns="http://www.w3.org/2000/svg">
<path d="M11.6666 38.3333C10.7499 38.3333 9.9652 38.0069 9.31242 37.3541C8.65964 36.7013 8.33325 35.9166 8.33325 35V4.99996C8.33325 4.08329 8.65964 3.29857 9.31242 2.64579C9.9652 1.99301 10.7499 1.66663 11.6666 1.66663H28.3333C29.2499 1.66663 30.0346 1.99301 30.6874 2.64579C31.3402 3.29857 31.6666 4.08329 31.6666 4.99996V35C31.6666 35.9166 31.3402 36.7013 30.6874 37.3541C30.0346 38.0069 29.2499 38.3333 28.3333 38.3333H11.6666ZM11.6666 30H28.3333V9.99996H11.6666V30Z" fill="#303345"/>
</svg>
