<svg width="40" height="40" viewBox="0 0 40 40" fill="none" xmlns="http://www.w3.org/2000/svg">
<path d="M20.2085 21.6666H27.0002C27.7224 21.6666 28.3335 21.4166 28.8335 20.9166C29.3335 20.4166 29.5835 19.8055 29.5835 19.0833C29.5835 18.361 29.3335 17.743 28.8335 17.2291C28.3335 16.7152 27.7224 16.4583 27.0002 16.4583H26.9169C26.778 15.5694 26.3752 14.8263 25.7085 14.2291C25.0419 13.6319 24.2502 13.3333 23.3335 13.3333C22.6113 13.3333 21.9585 13.5208 21.3752 13.8958C20.7919 14.2708 20.3474 14.7777 20.0419 15.4166C19.2085 15.4721 18.5071 15.7985 17.9377 16.3958C17.3683 16.993 17.0835 17.7083 17.0835 18.5416C17.0835 19.3749 17.3821 20.1041 17.9794 20.7291C18.5766 21.3541 19.3196 21.6666 20.2085 21.6666ZM5.0002 34.9999C4.08354 34.9999 3.29881 34.6735 2.64604 34.0208C1.99326 33.368 1.66687 32.5833 1.66687 31.6666V9.99992H5.0002V31.6666H33.3335V34.9999H5.0002ZM11.6669 28.3333C10.7502 28.3333 9.96548 28.0069 9.3127 27.3541C8.65993 26.7013 8.33354 25.9166 8.33354 24.9999V6.66659C8.33354 5.74992 8.65993 4.9652 9.3127 4.31242C9.96548 3.65964 10.7502 3.33325 11.6669 3.33325H20.0002L23.3335 6.66659H35.0002C35.9169 6.66659 36.7016 6.99297 37.3544 7.64575C38.0071 8.29853 38.3335 9.08325 38.3335 9.99992V24.9999C38.3335 25.9166 38.0071 26.7013 37.3544 27.3541C36.7016 28.0069 35.9169 28.3333 35.0002 28.3333H11.6669Z" fill="#303345"/>
</svg>
