<svg width="40" height="40" viewBox="0 0 40 40" fill="none" xmlns="http://www.w3.org/2000/svg">
<path d="M7.33358 17.3333C6.41691 17.3333 5.63219 17.0069 4.97941 16.3542C4.32663 15.7014 4.00024 14.9167 4.00024 14V7.33333C4.00024 6.41667 4.32663 5.63194 4.97941 4.97917C5.63219 4.32639 6.41691 4 7.33358 4H30.6669C31.5836 4 32.3683 4.32639 33.0211 4.97917C33.6739 5.63194 34.0002 6.41667 34.0002 7.33333V14C34.0002 14.9167 33.6739 15.7014 33.0211 16.3542C32.3683 17.0069 31.5836 17.3333 30.6669 17.3333H7.33358ZM7.33358 34C6.41691 34 5.63219 33.6736 4.97941 33.0208C4.32663 32.3681 4.00024 31.5833 4.00024 30.6667V24C4.00024 23.0833 4.32663 22.2986 4.97941 21.6458C5.63219 20.9931 6.41691 20.6667 7.33358 20.6667H30.6669C31.5836 20.6667 32.3683 20.9931 33.0211 21.6458C33.6739 22.2986 34.0002 23.0833 34.0002 24V24.1667C33.7502 24.1111 33.4725 24.0694 33.1669 24.0417C32.8614 24.0139 32.5836 24 32.3336 24C30.0002 24 28.028 24.8125 26.4169 26.4375C24.8058 28.0625 24.0002 30.0278 24.0002 32.3333C24.0002 32.6389 24.0141 32.9306 24.0419 33.2083C24.0697 33.4861 24.1114 33.75 24.1669 34H7.33358Z" fill="#303345"/>
<path d="M29.3573 31.714L27.0002 34.0711L29.3573 36.4281L31.7143 34.0711L34.0713 36.4281L36.4283 34.0711L34.0713 31.714L36.4283 29.357L34.0713 27L31.7143 29.357L29.3573 27L27.0002 29.357L29.3573 31.714Z" fill="#303345"/>
</svg>
