<svg width="40" height="40" viewBox="0 0 40 40" fill="none" xmlns="http://www.w3.org/2000/svg">
<path d="M7.3348 17.3333C6.41813 17.3333 5.63341 17.0069 4.98063 16.3542C4.32785 15.7014 4.00146 14.9167 4.00146 14V7.33333C4.00146 6.41667 4.32785 5.63194 4.98063 4.97917C5.63341 4.32639 6.41813 4 7.3348 4H30.6681C31.5848 4 32.3695 4.32639 33.0223 4.97917C33.6751 5.63194 34.0015 6.41667 34.0015 7.33333V14C34.0015 14.9167 33.6751 15.7014 33.0223 16.3542C32.3695 17.0069 31.5848 17.3333 30.6681 17.3333H7.3348ZM7.3348 34C6.41813 34 5.63341 33.6736 4.98063 33.0208C4.32785 32.3681 4.00146 31.5833 4.00146 30.6667V24C4.00146 23.0833 4.32785 22.2986 4.98063 21.6458C5.63341 20.9931 6.41813 20.6667 7.3348 20.6667H30.6681C31.5848 20.6667 32.3695 20.9931 33.0223 21.6458C33.6751 22.2986 34.0015 23.0833 34.0015 24V24.1667C33.7515 24.1111 33.4737 24.0694 33.1681 24.0417C32.8626 24.0139 32.5848 24 32.3348 24C30.0015 24 28.0292 24.8125 26.4181 26.4375C24.807 28.0625 24.0015 30.0278 24.0015 32.3333C24.0015 32.6389 24.0154 32.9306 24.0431 33.2083C24.0709 33.4861 24.1126 33.75 24.1681 34H7.3348Z" fill="#303345"/>
<path d="M30.7155 37.1413L37.5005 30.3563L35.1428 28L30.7155 32.4272L28.3585 30.0702L26.0015 32.4272L30.7155 37.1413Z" fill="#303345"/>
</svg>
