<svg width="40" height="40" viewBox="0 0 40 40" fill="none" xmlns="http://www.w3.org/2000/svg">
<path d="M5.0002 30C4.08354 30 3.29881 29.6736 2.64604 29.0208C1.99326 28.3681 1.66687 27.5833 1.66687 26.6667C1.66687 25.75 1.99326 24.9653 2.64604 24.3125C3.29881 23.6597 4.08354 23.3333 5.0002 23.3333H5.4377C5.5627 23.3333 5.69465 23.3611 5.83354 23.4167L13.4169 15.8333C13.3613 15.6944 13.3335 15.5625 13.3335 15.4375V15C13.3335 14.0833 13.6599 13.2986 14.3127 12.6458C14.9655 11.9931 15.7502 11.6667 16.6669 11.6667C17.5835 11.6667 18.3683 11.9931 19.021 12.6458C19.6738 13.2986 20.0002 14.0833 20.0002 15C20.0002 15.0556 19.9724 15.3333 19.9169 15.8333L24.1669 20.0833C24.3058 20.0278 24.4377 20 24.5627 20H25.4377C25.5627 20 25.6946 20.0278 25.8335 20.0833L31.7502 14.1667C31.6946 14.0278 31.6669 13.8958 31.6669 13.7708V13.3333C31.6669 12.4167 31.9933 11.6319 32.646 10.9792C33.2988 10.3264 34.0835 10 35.0002 10C35.9169 10 36.7016 10.3264 37.3544 10.9792C38.0071 11.6319 38.3335 12.4167 38.3335 13.3333C38.3335 14.25 38.0071 15.0347 37.3544 15.6875C36.7016 16.3403 35.9169 16.6667 35.0002 16.6667H34.5627C34.4377 16.6667 34.3058 16.6389 34.1669 16.5833L28.2502 22.5C28.3058 22.6389 28.3335 22.7708 28.3335 22.8958V23.3333C28.3335 24.25 28.0071 25.0347 27.3544 25.6875C26.7016 26.3403 25.9169 26.6667 25.0002 26.6667C24.0835 26.6667 23.2988 26.3403 22.646 25.6875C21.9933 25.0347 21.6669 24.25 21.6669 23.3333V22.8958C21.6669 22.7708 21.6946 22.6389 21.7502 22.5L17.5002 18.25C17.3613 18.3056 17.2294 18.3333 17.1044 18.3333H16.6669C16.6113 18.3333 16.3335 18.3056 15.8335 18.25L8.2502 25.8333C8.30576 25.9722 8.33354 26.1042 8.33354 26.2292V26.6667C8.33354 27.5833 8.00715 28.3681 7.35437 29.0208C6.70159 29.6736 5.91687 30 5.0002 30Z" fill="#303345"/>
</svg>
