<svg width="40" height="40" viewBox="0 0 40 40" fill="none" xmlns="http://www.w3.org/2000/svg">
<path d="M32.9998 37.6667L25.9998 30.7501C25.0276 31.0556 24.0484 31.2848 23.0623 31.4376C22.0762 31.5904 21.0554 31.6667 19.9998 31.6667C15.8054 31.6667 12.0693 30.507 8.7915 28.1876C5.51373 25.8681 3.13873 22.8612 1.6665 19.1667C2.24984 17.6945 2.98595 16.3265 3.87484 15.0626C4.76373 13.7987 5.77762 12.6667 6.9165 11.6667L2.33317 7.00008L4.6665 4.66675L35.3332 35.3334L32.9998 37.6667ZM19.9998 26.6667C20.3054 26.6667 20.5901 26.6529 20.854 26.6251C21.1179 26.5973 21.4026 26.5417 21.7082 26.4584L12.7082 17.4584C12.6248 17.764 12.5693 18.0487 12.5415 18.3126C12.5137 18.5765 12.4998 18.8612 12.4998 19.1667C12.4998 21.2501 13.229 23.0209 14.6873 24.4792C16.1457 25.9376 17.9165 26.6667 19.9998 26.6667ZM32.1665 27.4167L26.8748 22.1667C27.0693 21.6945 27.2221 21.2154 27.3332 20.7292C27.4443 20.2431 27.4998 19.7223 27.4998 19.1667C27.4998 17.0834 26.7707 15.3126 25.3123 13.8542C23.854 12.3959 22.0832 11.6667 19.9998 11.6667C19.4443 11.6667 18.9234 11.7223 18.4373 11.8334C17.9512 11.9445 17.4721 12.1112 16.9998 12.3334L12.7498 8.08341C13.8887 7.61119 15.0554 7.25703 16.2498 7.02091C17.4443 6.7848 18.6943 6.66675 19.9998 6.66675C24.1943 6.66675 27.9304 7.82647 31.2082 10.1459C34.486 12.4654 36.861 15.4723 38.3332 19.1667C37.6943 20.8056 36.854 22.3265 35.8123 23.7292C34.7707 25.132 33.5554 26.3612 32.1665 27.4167ZM24.4582 19.7501L19.4582 14.7501C20.2359 14.6112 20.9512 14.6737 21.604 14.9376C22.2568 15.2015 22.8193 15.5834 23.2915 16.0834C23.7637 16.5834 24.104 17.1598 24.3123 17.8126C24.5207 18.4654 24.5693 19.1112 24.4582 19.7501Z" fill="#303345"/>
</svg>
