<svg width="40" height="40" viewBox="0 0 40 40" fill="none" xmlns="http://www.w3.org/2000/svg">
<path d="M19.9998 26.6667C22.0832 26.6667 23.854 25.9376 25.3123 24.4792C26.7707 23.0209 27.4998 21.2501 27.4998 19.1667C27.4998 17.0834 26.7707 15.3126 25.3123 13.8542C23.854 12.3959 22.0832 11.6667 19.9998 11.6667C17.9165 11.6667 16.1457 12.3959 14.6873 13.8542C13.229 15.3126 12.4998 17.0834 12.4998 19.1667C12.4998 21.2501 13.229 23.0209 14.6873 24.4792C16.1457 25.9376 17.9165 26.6667 19.9998 26.6667ZM19.9998 23.6667C18.7498 23.6667 17.6873 23.2292 16.8123 22.3542C15.9373 21.4792 15.4998 20.4167 15.4998 19.1667C15.4998 17.9167 15.9373 16.8542 16.8123 15.9792C17.6873 15.1042 18.7498 14.6667 19.9998 14.6667C21.2498 14.6667 22.3123 15.1042 23.1873 15.9792C24.0623 16.8542 24.4998 17.9167 24.4998 19.1667C24.4998 20.4167 24.0623 21.4792 23.1873 22.3542C22.3123 23.2292 21.2498 23.6667 19.9998 23.6667ZM19.9998 31.6667C15.9443 31.6667 12.2498 30.5348 8.9165 28.2709C5.58317 26.007 3.1665 22.9723 1.6665 19.1667C3.1665 15.3612 5.58317 12.3264 8.9165 10.0626C12.2498 7.79866 15.9443 6.66672 19.9998 6.66672C24.0554 6.66672 27.7498 7.79866 31.0832 10.0626C34.4165 12.3264 36.8332 15.3612 38.3332 19.1667C36.8332 22.9723 34.4165 26.007 31.0832 28.2709C27.7498 30.5348 24.0554 31.6667 19.9998 31.6667Z" fill="#303345"/>
</svg>
