<svg width="40" height="40" viewBox="0 0 40 40" fill="none" xmlns="http://www.w3.org/2000/svg">
<path d="M20 35.0001L0 15.0001C2.63889 12.3056 5.6875 10.2431 9.14583 8.81258C12.6042 7.38203 16.2222 6.66675 20 6.66675C23.7778 6.66675 27.3958 7.38203 30.8542 8.81258C34.3125 10.2431 37.3611 12.3056 40 15.0001L35.875 19.1251C35.2361 18.8195 34.5625 18.5904 33.8542 18.4376C33.1458 18.2848 32.4306 18.2084 31.7083 18.2084C28.9028 18.2084 26.5139 19.1945 24.5417 21.1667C22.5694 23.139 21.5833 25.5279 21.5833 28.3334C21.5833 29.0556 21.6597 29.7709 21.8125 30.4792C21.9653 31.1876 22.1944 31.8612 22.5 32.5001L20 35.0001ZM26.6667 35.0001V23.3334H33.75V27.9167H38.3333V35.0001H26.6667ZM29.1667 27.9167H31.25V25.8334H29.1667V27.9167ZM29.1667 32.5001H31.25V30.4167H29.1667V32.5001ZM33.75 32.5001H35.8333V30.4167H33.75V32.5001Z" fill="#303345"/>
</svg>
