<svg width="40" height="40" viewBox="0 0 40 40" fill="none" xmlns="http://www.w3.org/2000/svg">
<path d="M8.33341 27.3334V31.6667V8.33341V27.3334ZM9.66675 32.8334C8.9723 32.8334 8.38203 32.5904 7.89591 32.1042C7.4098 31.6181 7.16675 31.0279 7.16675 30.3334V9.66675C7.16675 8.9723 7.4098 8.38203 7.89591 7.89591C8.38203 7.4098 8.9723 7.16675 9.66675 7.16675H30.3334C31.0279 7.16675 31.6181 7.4098 32.1042 7.89591C32.5904 8.38203 32.8334 8.9723 32.8334 9.66675V14.7917H31.6667V9.66675C31.6667 9.27786 31.5417 8.95841 31.2917 8.70841C31.0417 8.45841 30.7223 8.33341 30.3334 8.33341H9.66675C9.27786 8.33341 8.95841 8.45841 8.70841 8.70841C8.45841 8.95841 8.33341 9.27786 8.33341 9.66675V30.3334C8.33341 30.7223 8.45841 31.0417 8.70841 31.2917C8.95841 31.5417 9.27786 31.6667 9.66675 31.6667H30.3334C30.7223 31.6667 31.0417 31.5417 31.2917 31.2917C31.5417 31.0417 31.6667 30.7223 31.6667 30.3334V25.2084H32.8334V30.3334C32.8334 31.0279 32.5904 31.6181 32.1042 32.1042C31.6181 32.5904 31.0279 32.8334 30.3334 32.8334H9.66675ZM23.0001 26.1667C22.3056 26.1667 21.7154 25.9237 21.2292 25.4376C20.7431 24.9515 20.5001 24.3612 20.5001 23.6667V16.3334C20.5001 15.639 20.7431 15.0487 21.2292 14.5626C21.7154 14.0765 22.3056 13.8334 23.0001 13.8334H32.0001C32.6945 13.8334 33.2848 14.0765 33.7709 14.5626C34.257 15.0487 34.5001 15.639 34.5001 16.3334V23.6667C34.5001 24.3612 34.257 24.9515 33.7709 25.4376C33.2848 25.9237 32.6945 26.1667 32.0001 26.1667H23.0001ZM32.0001 25.0001C32.389 25.0001 32.7084 24.8751 32.9584 24.6251C33.2084 24.3751 33.3334 24.0556 33.3334 23.6667V16.3334C33.3334 15.9445 33.2084 15.6251 32.9584 15.3751C32.7084 15.1251 32.389 15.0001 32.0001 15.0001H23.0001C22.6112 15.0001 22.2917 15.1251 22.0417 15.3751C21.7917 15.6251 21.6667 15.9445 21.6667 16.3334V23.6667C21.6667 24.0556 21.7917 24.3751 22.0417 24.6251C22.2917 24.8751 22.6112 25.0001 23.0001 25.0001H32.0001ZM26.6667 22.5001C27.3612 22.5001 27.9515 22.257 28.4376 21.7709C28.9237 21.2848 29.1667 20.6945 29.1667 20.0001C29.1667 19.3056 28.9237 18.7154 28.4376 18.2292C27.9515 17.7431 27.3612 17.5001 26.6667 17.5001C25.9723 17.5001 25.382 17.7431 24.8959 18.2292C24.4098 18.7154 24.1667 19.3056 24.1667 20.0001C24.1667 20.6945 24.4098 21.2848 24.8959 21.7709C25.382 22.257 25.9723 22.5001 26.6667 22.5001Z" fill="#303345"/>
</svg>
