<svg width="40" height="40" viewBox="0 0 40 40" fill="none" xmlns="http://www.w3.org/2000/svg">
<path d="M20 33.3333C21.5833 33.3333 23.1181 33.0694 24.6042 32.5416C26.0903 32.0138 27.4167 31.2221 28.5833 30.1666C27.3611 29.1944 26.0206 28.4652 24.5619 27.9791C23.1031 27.493 21.5823 27.2499 19.9994 27.2499C18.4165 27.2499 16.8819 27.4791 15.3958 27.9374C13.9097 28.3958 12.5833 29.1388 11.4167 30.1666C12.5833 31.2221 13.9097 32.0138 15.3958 32.5416C16.8819 33.0694 18.4167 33.3333 20 33.3333ZM23.5833 18.9583L22.75 18.1249C23.0278 17.8194 23.2361 17.4629 23.375 17.0555C23.5139 16.6481 23.5833 16.2407 23.5833 15.8333C23.5833 14.861 23.2292 14.0208 22.5208 13.3124C21.8125 12.6041 20.9722 12.2499 20 12.2499C19.5926 12.2499 19.1852 12.3194 18.7778 12.4583C18.3704 12.5971 18.0139 12.8055 17.7083 13.0833L16.875 12.2499C17.3078 11.861 17.7918 11.5694 18.3271 11.3749C18.8624 11.1805 19.4261 11.0833 20.0183 11.0833C21.3394 11.0833 22.4583 11.5416 23.375 12.4583C24.2917 13.3749 24.75 14.4938 24.75 15.8149C24.75 16.4071 24.6528 16.9709 24.4583 17.5062C24.2639 18.0414 23.9722 18.5255 23.5833 18.9583ZM32.3333 27.7083L31.4583 26.8333C32.0694 25.7777 32.5347 24.6805 32.8542 23.5416C33.1736 22.4027 33.3333 21.2221 33.3333 19.9999C33.3333 16.2777 32.0417 13.1249 29.4583 10.5416C26.875 7.95825 23.7222 6.66659 20 6.66659C18.7778 6.66659 17.5972 6.82631 16.4583 7.14575C15.3194 7.4652 14.2222 7.93047 13.1667 8.54159L12.2917 7.66659C13.4583 6.94436 14.6921 6.4027 15.9929 6.04159C17.2938 5.68047 18.6295 5.49992 20 5.49992C22.0058 5.49992 23.8908 5.88055 25.655 6.6418C27.4192 7.40305 28.9538 8.43617 30.2588 9.74117C31.5638 11.0462 32.5969 12.5808 33.3581 14.3449C34.1194 16.1091 34.5 17.9941 34.5 19.9999C34.5 21.3704 34.3194 22.7061 33.9583 24.007C33.5972 25.3078 33.0556 26.5416 32.3333 27.7083ZM19.984 34.4999C17.9843 34.4999 16.1051 34.118 14.3464 33.3541C12.5877 32.5902 11.0548 31.5562 9.74779 30.252C8.44079 28.9479 7.40607 27.4143 6.64363 25.6513C5.88121 23.8882 5.5 22.0044 5.5 19.9999C5.5 18.2777 5.78472 16.611 6.35417 14.9999C6.92361 13.3888 7.77778 11.9305 8.91667 10.6249L3.75 5.41659L4.58333 4.58325L36.3333 36.3333L35.5 37.1666L9.75 11.4583C8.75 12.6805 7.98611 14.0138 7.45833 15.4583C6.93056 16.9027 6.66667 18.4166 6.66667 19.9999C6.66667 21.7603 6.99306 23.4434 7.64583 25.0493C8.29861 26.6553 9.25 28.0833 10.5 29.3333C11.9167 28.361 13.4252 27.5763 15.0257 26.9791C16.6262 26.3819 18.2843 26.0833 20 26.0833C21.6111 26.0833 23.1736 26.3471 24.6875 26.8749C26.2014 27.4027 27.625 28.111 28.9583 28.9999L30.25 30.2916C28.8889 31.6805 27.3194 32.7291 25.5417 33.4374C23.7639 34.1458 21.9113 34.4999 19.984 34.4999Z" fill="#303345"/>
</svg>
