<svg width="40" height="40" viewBox="0 0 40 40" fill="none" xmlns="http://www.w3.org/2000/svg">
<path d="M28.5 31.1665V26.3332H23.6667V25.1665H28.5V20.3332H29.6667V25.1665H34.5V26.3332H29.6667V31.1665H28.5ZM17.5 26.3332H11.8333C10.0811 26.3332 8.5875 25.7159 7.3525 24.4814C6.1175 23.2469 5.5 21.7538 5.5 20.0022C5.5 18.2507 6.1175 16.7568 7.3525 15.5207C8.5875 14.2846 10.0811 13.6665 11.8333 13.6665H17.5V14.8332H11.8333C10.4167 14.8332 9.20139 15.3401 8.1875 16.354C7.17361 17.3679 6.66667 18.5832 6.66667 19.9999C6.66667 21.4165 7.17361 22.6318 8.1875 23.6457C9.20139 24.6596 10.4167 25.1665 11.8333 25.1665H17.5V26.3332ZM14.4167 20.5832V19.4165H25.5833V20.5832H14.4167ZM34.5 19.9999H33.3333C33.3333 18.5832 32.8264 17.3679 31.8125 16.354C30.7986 15.3401 29.5833 14.8332 28.1667 14.8332H22.5V13.6665H28.1667C29.9189 13.6665 31.4125 14.284 32.6475 15.519C33.8825 16.754 34.5 18.2476 34.5 19.9999Z" fill="#303345"/>
</svg>
