<svg width="40" height="40" viewBox="0 0 40 40" fill="none" xmlns="http://www.w3.org/2000/svg">
<path d="M30.4161 32.0001V27.0001H25.4161V25.8334H30.4161V20.8334H31.5828V25.8334H36.5828V27.0001H31.5828V32.0001H30.4161ZM5.91614 32.8334C5.19392 32.8334 4.59669 32.5973 4.12447 32.1251C3.65225 31.6529 3.41614 31.0556 3.41614 30.3334V9.66675C3.41614 8.94453 3.65225 8.3473 4.12447 7.87508C4.59669 7.40286 5.19392 7.16675 5.91614 7.16675H26.5828C27.305 7.16675 27.9022 7.40286 28.3745 7.87508C28.8467 8.3473 29.0828 8.94453 29.0828 9.66675V16.6667H27.9161V12.0001H4.5828V30.3334C4.5828 30.7223 4.7078 31.0417 4.9578 31.2917C5.2078 31.5417 5.52725 31.6667 5.91614 31.6667H26.2495V32.8334H5.91614ZM4.5828 10.8334H27.9161V9.66675C27.9161 9.27786 27.7911 8.95841 27.5411 8.70841C27.2911 8.45841 26.9717 8.33341 26.5828 8.33341H5.91614C5.52725 8.33341 5.2078 8.45841 4.9578 8.70841C4.7078 8.95841 4.5828 9.27786 4.5828 9.66675V10.8334Z" fill="#303345"/>
</svg>
