<svg width="40" height="40" viewBox="0 0 40 40" fill="none" xmlns="http://www.w3.org/2000/svg">
<path d="M28.333 28.3333C29.0275 28.3333 29.6177 28.0903 30.1038 27.6042C30.59 27.118 30.833 26.5278 30.833 25.8333C30.833 25.1389 30.59 24.5486 30.1038 24.0625C29.6177 23.5764 29.0275 23.3333 28.333 23.3333C27.6386 23.3333 27.0483 23.5764 26.5622 24.0625C26.0761 24.5486 25.833 25.1389 25.833 25.8333C25.833 26.5278 26.0761 27.118 26.5622 27.6042C27.0483 28.0903 27.6386 28.3333 28.333 28.3333ZM28.333 33.3333C29.2219 33.3333 30.0205 33.1389 30.7288 32.75C31.4372 32.3611 32.0275 31.8333 32.4997 31.1667C31.8608 30.7778 31.1941 30.4861 30.4997 30.2917C29.8052 30.0972 29.083 30 28.333 30C27.583 30 26.8608 30.0972 26.1663 30.2917C25.4719 30.4861 24.8052 30.7778 24.1663 31.1667C24.6386 31.8333 25.2288 32.3611 25.9372 32.75C26.6455 33.1389 27.4441 33.3333 28.333 33.3333ZM19.9997 34.4167C16.8052 33.4167 14.1455 31.4444 12.0205 28.5C9.89551 25.5555 8.83301 22.2222 8.83301 18.5V9.83332L19.9997 5.66666L31.1663 9.83332V19.25C30.9997 19.1944 30.8052 19.1458 30.583 19.1042C30.3608 19.0625 30.1663 19.0139 29.9997 18.9583V10.625L19.9997 6.91666L9.99967 10.625V18.5C9.99967 20.25 10.2636 21.9097 10.7913 23.4792C11.3191 25.0486 12.0344 26.4792 12.9372 27.7708C13.84 29.0625 14.9025 30.1736 16.1247 31.1042C17.3469 32.0347 18.6386 32.7222 19.9997 33.1667L20.1247 33.125C20.208 33.2917 20.3052 33.4583 20.4163 33.625C20.5275 33.7917 20.6525 33.9583 20.7913 34.125C20.6525 34.1805 20.5205 34.2292 20.3955 34.2708C20.2705 34.3125 20.1386 34.3611 19.9997 34.4167ZM28.333 34.5C26.6108 34.5 25.1525 33.9028 23.958 32.7083C22.7636 31.5139 22.1663 30.0555 22.1663 28.3333C22.1663 26.6111 22.7636 25.1528 23.958 23.9583C25.1525 22.7639 26.6108 22.1667 28.333 22.1667C30.0552 22.1667 31.5136 22.7639 32.708 23.9583C33.9025 25.1528 34.4997 26.6111 34.4997 28.3333C34.4997 30.0555 33.9025 31.5139 32.708 32.7083C31.5136 33.9028 30.0552 34.5 28.333 34.5Z" fill="#303345"/>
</svg>
