<svg width="40" height="40" viewBox="0 0 40 40" fill="none" xmlns="http://www.w3.org/2000/svg">
<path d="M19.9999 34.5C17.9999 34.5 16.1171 34.1196 14.3516 33.3587C12.5861 32.5979 11.0503 31.5652 9.74434 30.2609C8.43836 28.9565 7.40446 27.4227 6.64263 25.6594C5.88079 23.8962 5.49988 22.0121 5.49988 20.0073C5.49988 18.0024 5.88031 16.1173 6.64117 14.3518C7.40206 12.5863 8.43467 11.0505 9.739 9.74453C11.0434 8.43853 12.5772 7.40461 14.3405 6.64278C16.1037 5.88095 17.9878 5.50003 19.9926 5.50003C21.9975 5.50003 23.8826 5.88066 25.6481 6.64191C27.4137 7.40316 28.9494 8.43628 30.2554 9.74128C31.5614 11.0463 32.5953 12.5809 33.3571 14.345C34.119 16.1092 34.4999 17.9942 34.4999 20V21.4167C34.4999 22.75 34.0418 23.875 33.1258 24.7917C32.2097 25.7084 31.0844 26.1667 29.7499 26.1667C28.7499 26.1667 27.8471 25.875 27.0415 25.2917C26.236 24.7084 25.6665 23.9445 25.3332 23C24.7499 23.9445 23.9929 24.7084 23.0624 25.2917C22.1318 25.875 21.111 26.1667 19.9999 26.1667C18.2777 26.1667 16.8193 25.5695 15.6249 24.375C14.4304 23.1806 13.8332 21.7223 13.8332 20C13.8332 18.2778 14.4304 16.8195 15.6249 15.625C16.8193 14.4306 18.2777 13.8334 19.9999 13.8334C21.7221 13.8334 23.1804 14.4306 24.3749 15.625C25.5693 16.8195 26.1665 18.2778 26.1665 20V21.4167C26.1665 22.3889 26.5207 23.2292 27.229 23.9375C27.9374 24.6459 28.7777 25 29.7499 25C30.7221 25 31.5624 24.6459 32.2707 23.9375C32.979 23.2292 33.3332 22.3889 33.3332 21.4167V20C33.3332 16.2778 32.0415 13.125 29.4582 10.5417C26.8749 7.95836 23.7221 6.6667 19.9999 6.6667C16.2777 6.6667 13.1249 7.95836 10.5415 10.5417C7.95821 13.125 6.66654 16.2778 6.66654 20C6.66654 23.7223 7.95821 26.875 10.5415 29.4584C13.1249 32.0417 16.2777 33.3334 19.9999 33.3334H28.3332V34.5H19.9999ZM19.9999 25C21.3888 25 22.5693 24.5139 23.5415 23.5417C24.5138 22.5695 24.9999 21.3889 24.9999 20C24.9999 18.6111 24.5138 17.4306 23.5415 16.4584C22.5693 15.4861 21.3888 15 19.9999 15C18.611 15 17.4304 15.4861 16.4582 16.4584C15.486 17.4306 14.9999 18.6111 14.9999 20C14.9999 21.3889 15.486 22.5695 16.4582 23.5417C17.4304 24.5139 18.611 25 19.9999 25Z" fill="#303345"/>
</svg>
