<svg width="40" height="40" viewBox="0 0 40 40" fill="none" xmlns="http://www.w3.org/2000/svg">
<path d="M10.0002 31.6666C9.54183 31.6666 9.14947 31.5034 8.82308 31.177C8.49669 30.8506 8.3335 30.4583 8.3335 29.9999C8.3335 29.5416 8.49669 29.1492 8.82308 28.8228C9.14947 28.4964 9.54183 28.3333 10.0002 28.3333C10.4585 28.3333 10.8509 28.4964 11.1772 28.8228C11.5036 29.1492 11.6668 29.5416 11.6668 29.9999C11.6668 30.4583 11.5036 30.8506 11.1772 31.177C10.8509 31.5034 10.4585 31.6666 10.0002 31.6666ZM20.0002 31.6666C19.5418 31.6666 19.1495 31.5034 18.8231 31.177C18.4967 30.8506 18.3335 30.4583 18.3335 29.9999C18.3335 29.5416 18.4967 29.1492 18.8231 28.8228C19.1495 28.4964 19.5418 28.3333 20.0002 28.3333C20.4585 28.3333 20.8509 28.4964 21.1772 28.8228C21.5036 29.1492 21.6668 29.5416 21.6668 29.9999C21.6668 30.4583 21.5036 30.8506 21.1772 31.177C20.8509 31.5034 20.4585 31.6666 20.0002 31.6666ZM30.0002 31.6666C29.5418 31.6666 29.1495 31.5034 28.8231 31.177C28.4967 30.8506 28.3335 30.4583 28.3335 29.9999C28.3335 29.5416 28.4967 29.1492 28.8231 28.8228C29.1495 28.4964 29.5418 28.3333 30.0002 28.3333C30.4585 28.3333 30.8509 28.4964 31.1772 28.8228C31.5036 29.1492 31.6668 29.5416 31.6668 29.9999C31.6668 30.4583 31.5036 30.8506 31.1772 31.177C30.8509 31.5034 30.4585 31.6666 30.0002 31.6666ZM10.0002 21.6666C9.54183 21.6666 9.14947 21.5034 8.82308 21.177C8.49669 20.8506 8.3335 20.4583 8.3335 19.9999C8.3335 19.5416 8.49669 19.1492 8.82308 18.8228C9.14947 18.4964 9.54183 18.3333 10.0002 18.3333C10.4585 18.3333 10.8509 18.4964 11.1772 18.8228C11.5036 19.1492 11.6668 19.5416 11.6668 19.9999C11.6668 20.4583 11.5036 20.8506 11.1772 21.177C10.8509 21.5034 10.4585 21.6666 10.0002 21.6666ZM20.0002 21.6666C19.5418 21.6666 19.1495 21.5034 18.8231 21.177C18.4967 20.8506 18.3335 20.4583 18.3335 19.9999C18.3335 19.5416 18.4967 19.1492 18.8231 18.8228C19.1495 18.4964 19.5418 18.3333 20.0002 18.3333C20.4585 18.3333 20.8509 18.4964 21.1772 18.8228C21.5036 19.1492 21.6668 19.5416 21.6668 19.9999C21.6668 20.4583 21.5036 20.8506 21.1772 21.177C20.8509 21.5034 20.4585 21.6666 20.0002 21.6666ZM30.0002 21.6666C29.5418 21.6666 29.1495 21.5034 28.8231 21.177C28.4967 20.8506 28.3335 20.4583 28.3335 19.9999C28.3335 19.5416 28.4967 19.1492 28.8231 18.8228C29.1495 18.4964 29.5418 18.3333 30.0002 18.3333C30.4585 18.3333 30.8509 18.4964 31.1772 18.8228C31.5036 19.1492 31.6668 19.5416 31.6668 19.9999C31.6668 20.4583 31.5036 20.8506 31.1772 21.177C30.8509 21.5034 30.4585 21.6666 30.0002 21.6666ZM10.0002 11.6666C9.54183 11.6666 9.14947 11.5034 8.82308 11.177C8.49669 10.8506 8.3335 10.4583 8.3335 9.99992C8.3335 9.54159 8.49669 9.14922 8.82308 8.82284C9.14947 8.49645 9.54183 8.33325 10.0002 8.33325C10.4585 8.33325 10.8509 8.49645 11.1772 8.82284C11.5036 9.14922 11.6668 9.54159 11.6668 9.99992C11.6668 10.4583 11.5036 10.8506 11.1772 11.177C10.8509 11.5034 10.4585 11.6666 10.0002 11.6666ZM20.0002 11.6666C19.5418 11.6666 19.1495 11.5034 18.8231 11.177C18.4967 10.8506 18.3335 10.4583 18.3335 9.99992C18.3335 9.54159 18.4967 9.14922 18.8231 8.82284C19.1495 8.49645 19.5418 8.33325 20.0002 8.33325C20.4585 8.33325 20.8509 8.49645 21.1772 8.82284C21.5036 9.14922 21.6668 9.54159 21.6668 9.99992C21.6668 10.4583 21.5036 10.8506 21.1772 11.177C20.8509 11.5034 20.4585 11.6666 20.0002 11.6666ZM30.0002 11.6666C29.5418 11.6666 29.1495 11.5034 28.8231 11.177C28.4967 10.8506 28.3335 10.4583 28.3335 9.99992C28.3335 9.54159 28.4967 9.14922 28.8231 8.82284C29.1495 8.49645 29.5418 8.33325 30.0002 8.33325C30.4585 8.33325 30.8509 8.49645 31.1772 8.82284C31.5036 9.14922 31.6668 9.54159 31.6668 9.99992C31.6668 10.4583 31.5036 10.8506 31.1772 11.177C30.8509 11.5034 30.4585 11.6666 30.0002 11.6666Z" fill="#303345"/>
</svg>
