<svg width="40" height="40" viewBox="0 0 40 40" fill="none" xmlns="http://www.w3.org/2000/svg">
<path d="M19.9995 28.2501L25.1661 23.0834L24.3328 22.2501L20.5828 26.0001V17.9167H19.4161V26.0001L15.6661 22.2501L14.8328 23.0834L19.9995 28.2501ZM8.3328 12.9167V30.3334C8.3328 30.7223 8.4578 31.0417 8.7078 31.2917C8.9578 31.5417 9.27725 31.6667 9.66614 31.6667H30.3328C30.7217 31.6667 31.0411 31.5417 31.2911 31.2917C31.5411 31.0417 31.6661 30.7223 31.6661 30.3334V12.9167H8.3328ZM9.99947 32.8334C9.30503 32.8334 8.65919 32.5348 8.06197 31.9376C7.46475 31.3404 7.16614 30.6945 7.16614 30.0001V12.9584C7.16614 12.6529 7.21475 12.3681 7.31197 12.1042C7.40919 11.8404 7.55503 11.5973 7.74947 11.3751L10.4995 8.08341C10.7217 7.77786 10.9995 7.54869 11.3328 7.39591C11.6661 7.24314 12.0272 7.16675 12.4161 7.16675H27.4995C27.8884 7.16675 28.2564 7.24314 28.6036 7.39591C28.9509 7.54869 29.2356 7.77786 29.4578 8.08341L32.2495 11.4584C32.4439 11.6806 32.5898 11.9306 32.687 12.2084C32.7842 12.4862 32.8328 12.7779 32.8328 13.0834V30.0001C32.8328 30.6945 32.5342 31.3404 31.937 31.9376C31.3398 32.5348 30.6939 32.8334 29.9995 32.8334H9.99947ZM8.9578 11.7501H30.9995L28.5411 8.79175C28.4023 8.65286 28.2425 8.54175 28.062 8.45841C27.8814 8.37508 27.6939 8.33341 27.4995 8.33341H12.4578C12.2634 8.33341 12.0759 8.37508 11.8953 8.45841C11.7147 8.54175 11.555 8.65286 11.4161 8.79175L8.9578 11.7501Z" fill="#303345"/>
</svg>
