<svg width="40" height="40" viewBox="0 0 40 40" fill="none" xmlns="http://www.w3.org/2000/svg">
<path d="M9.66614 32.8335C8.94392 32.8335 8.34669 32.5974 7.87447 32.1251C7.40225 31.6529 7.16614 31.0557 7.16614 30.3335V9.6668C7.16614 8.94458 7.40225 8.34735 7.87447 7.87513C8.34669 7.40291 8.94392 7.1668 9.66614 7.1668H17.7495C17.4717 6.33347 17.5689 5.56958 18.0411 4.87513C18.5134 4.18069 19.1661 3.83347 19.9995 3.83347C20.8328 3.83347 21.4856 4.18069 21.9578 4.87513C22.43 5.56958 22.5272 6.33347 22.2495 7.1668H30.3328C31.055 7.1668 31.6523 7.40291 32.1245 7.87513C32.5967 8.34735 32.8328 8.94458 32.8328 9.6668V30.3335C32.8328 31.0557 32.5967 31.6529 32.1245 32.1251C31.6523 32.5974 31.055 32.8335 30.3328 32.8335H9.66614ZM19.9995 7.50013C20.3606 7.50013 20.6592 7.38208 20.8953 7.14597C21.1314 6.90985 21.2495 6.61124 21.2495 6.25013C21.2495 5.88902 21.1314 5.59041 20.8953 5.3543C20.6592 5.11819 20.3606 5.00013 19.9995 5.00013C19.6384 5.00013 19.3397 5.11819 19.1036 5.3543C18.8675 5.59041 18.7495 5.88902 18.7495 6.25013C18.7495 6.61124 18.8675 6.90985 19.1036 7.14597C19.3397 7.38208 19.6384 7.50013 19.9995 7.50013ZM8.3328 30.5835C9.8328 29.1112 11.5759 27.9515 13.562 27.1043C15.5481 26.2571 17.6939 25.8335 19.9995 25.8335C22.305 25.8335 24.4509 26.2571 26.437 27.1043C28.4231 27.9515 30.1661 29.1112 31.6661 30.5835V9.6668C31.6661 9.33347 31.5273 9.02791 31.2495 8.75013C30.9717 8.47235 30.6661 8.33347 30.3328 8.33347H9.66614C9.3328 8.33347 9.02725 8.47235 8.74947 8.75013C8.47169 9.02791 8.3328 9.33347 8.3328 9.6668V30.5835ZM19.9995 21.8335C21.3328 21.8335 22.4578 21.3751 23.3745 20.4585C24.2911 19.5418 24.7495 18.4168 24.7495 17.0835C24.7495 15.7501 24.2911 14.6251 23.3745 13.7085C22.4578 12.7918 21.3328 12.3335 19.9995 12.3335C18.6661 12.3335 17.5411 12.7918 16.6245 13.7085C15.7078 14.6251 15.2495 15.7501 15.2495 17.0835C15.2495 18.4168 15.7078 19.5418 16.6245 20.4585C17.5411 21.3751 18.6661 21.8335 19.9995 21.8335ZM9.24947 31.6668H30.7495V31.4168C29.1939 29.9168 27.5064 28.8057 25.687 28.0835C23.8675 27.3612 21.9717 27.0001 19.9995 27.0001C18.0828 27.0001 16.2078 27.3543 14.3745 28.0626C12.5411 28.771 10.8328 29.8612 9.24947 31.3335V31.6668ZM19.9995 20.6668C19.0272 20.6668 18.187 20.3126 17.4786 19.6043C16.7703 18.896 16.4161 18.0557 16.4161 17.0835C16.4161 16.1112 16.7703 15.271 17.4786 14.5626C18.187 13.8543 19.0272 13.5001 19.9995 13.5001C20.9717 13.5001 21.812 13.8543 22.5203 14.5626C23.2286 15.271 23.5828 16.1112 23.5828 17.0835C23.5828 18.0557 23.2286 18.896 22.5203 19.6043C21.812 20.3126 20.9717 20.6668 19.9995 20.6668Z" fill="#303345"/>
</svg>
