<svg width="40" height="40" viewBox="0 0 40 40" fill="none" xmlns="http://www.w3.org/2000/svg">
<path d="M14.2085 28.2084C11.7933 28.2084 9.73818 27.382 8.04296 25.7292C6.34773 24.0764 5.50012 22.0487 5.50012 19.6459C5.50012 17.2431 6.34773 15.2084 8.04296 13.5417C9.73818 11.8751 11.7933 11.0417 14.2085 11.0417H28.5001C30.1668 11.0417 31.5835 11.6112 32.7501 12.7501C33.9168 13.8889 34.5001 15.2917 34.5001 16.9584C34.5001 18.6251 33.9168 20.0278 32.7501 21.1667C31.5835 22.3056 30.1668 22.8751 28.5001 22.8751H14.9585C14.0696 22.8751 13.2987 22.5645 12.646 21.9434C11.9932 21.3223 11.6668 20.5654 11.6668 19.6726C11.6668 18.7798 11.986 18.007 12.6244 17.3542C13.2628 16.7014 14.0408 16.3751 14.9585 16.3751H28.3335V17.5417H14.9585C14.3751 17.5417 13.8751 17.7431 13.4585 18.1459C13.0418 18.5487 12.8335 19.0417 12.8335 19.6251C12.8335 20.2084 13.0418 20.7014 13.4585 21.1042C13.8751 21.507 14.3751 21.7084 14.9585 21.7084H28.5418C29.8751 21.7084 31.0071 21.2526 31.9376 20.341C32.8682 19.4294 33.3335 18.3018 33.3335 16.9584C33.3335 15.6284 32.8612 14.5042 31.9168 13.5859C30.9723 12.6676 29.8335 12.2084 28.5001 12.2084H14.2085C12.1251 12.2084 10.3473 12.9306 8.87512 14.3751C7.4029 15.8195 6.66679 17.5815 6.66679 19.661C6.66679 21.7112 7.4029 23.4538 8.87512 24.889C10.3473 26.3241 12.1251 27.0417 14.2085 27.0417H28.3335V28.2084H14.2085Z" fill="#303345"/>
</svg>
