<svg width="40" height="40" viewBox="0 0 40 40" fill="none" xmlns="http://www.w3.org/2000/svg">
<path d="M27.4165 19.1667V11.6667H28.5832V19.1667H27.4165ZM17.9165 27.5417C17.5554 27.2361 17.2707 26.8681 17.0623 26.4375C16.854 26.007 16.7498 25.5417 16.7498 25.0417V11.6667H17.9165V27.5417ZM20.0389 34.5C17.624 34.5 15.5832 33.6524 13.9165 31.9572C12.2498 30.262 11.4165 28.2068 11.4165 25.7917V11.5C11.4165 9.83336 11.9859 8.4167 13.1248 7.25003C14.2637 6.08336 15.6665 5.50003 17.3332 5.50003C18.9998 5.50003 20.4026 6.08336 21.5415 7.25003C22.6804 8.4167 23.2498 9.83336 23.2498 11.5V23.3334H22.0832V11.4584C22.0832 10.125 21.6274 8.99309 20.7158 8.06253C19.8041 7.13197 18.6766 6.6667 17.3332 6.6667C16.0032 6.6667 14.879 7.13892 13.9607 8.08336C13.0423 9.02781 12.5832 10.1667 12.5832 11.5V25.7917C12.5832 27.875 13.3054 29.6528 14.7498 31.125C16.1943 32.5973 17.9582 33.3334 20.0415 33.3334C20.6356 33.3334 21.2001 33.2709 21.7348 33.1459C22.2695 33.0209 22.7745 32.8334 23.2498 32.5834V33.875C22.7498 34.0973 22.229 34.257 21.6873 34.3542C21.1457 34.4514 20.5962 34.5 20.0389 34.5ZM27.4165 32.8334V28.6667H23.2498V27.5H27.4165V23.3334H28.5832V27.5H32.7498V28.6667H28.5832V32.8334H27.4165Z" fill="#303345"/>
</svg>
