<svg width="40" height="40" viewBox="0 0 40 40" fill="none" xmlns="http://www.w3.org/2000/svg">
<path d="M19.375 33.9167V30.5834C17.9584 30.4445 16.7431 29.9931 15.7292 29.2292C14.7153 28.4653 13.9584 27.4167 13.4584 26.0834L14.5417 25.5834C15.0417 26.8056 15.7153 27.75 16.5625 28.4167C17.4098 29.0834 18.5695 29.4167 20.0417 29.4167C21.3473 29.4167 22.5625 29.0834 23.6875 28.4167C24.8125 27.75 25.375 26.6667 25.375 25.1667C25.375 23.9167 24.9653 22.9098 24.1459 22.1459C23.3264 21.382 21.875 20.6667 19.7917 20C17.7084 19.3334 16.2292 18.5834 15.3542 17.75C14.4792 16.9167 14.0417 15.8056 14.0417 14.4167C14.0417 12.9445 14.6389 11.757 15.8334 10.8542C17.0278 9.95143 18.2084 9.47226 19.375 9.41671V6.08337H20.5417V9.41671C21.625 9.50004 22.5695 9.76393 23.375 10.2084C24.1806 10.6528 24.875 11.3334 25.4584 12.25L24.4584 12.8334C24.0417 12.1667 23.4723 11.6112 22.75 11.1667C22.0278 10.7223 21.125 10.5 20.0417 10.5C18.7362 10.5 17.6042 10.8612 16.6459 11.5834C15.6875 12.3056 15.2084 13.25 15.2084 14.4167C15.2084 15.4723 15.5556 16.3334 16.25 17C16.9445 17.6667 18.4028 18.3612 20.625 19.0834C22.6806 19.75 24.1806 20.5556 25.125 21.5C26.0695 22.4445 26.5417 23.6667 26.5417 25.1667C26.5417 26.75 25.9514 28.0278 24.7709 29C23.5903 29.9723 22.1806 30.5 20.5417 30.5834V33.9167H19.375Z" fill="#303345"/>
</svg>
