<svg width="40" height="40" viewBox="0 0 40 40" fill="none" xmlns="http://www.w3.org/2000/svg">
<path d="M8.7913 24.9167C8.45797 24.1667 8.20102 23.3819 8.02047 22.5625C7.83991 21.743 7.74963 20.9167 7.74963 20.0833C7.74963 16.6667 8.94408 13.7569 11.333 11.3542C13.7219 8.95138 16.6107 7.74999 19.9996 7.74999H22.9163L19.1663 3.99999L19.9996 3.16666L25.1663 8.33332L19.9996 13.5L19.1663 12.6667L22.9163 8.91666H19.9996C16.9163 8.91666 14.2982 9.99999 12.1455 12.1667C9.99269 14.3333 8.9163 16.9722 8.9163 20.0833C8.9163 20.7222 8.9788 21.3819 9.1038 22.0625C9.2288 22.743 9.4163 23.4028 9.6663 24.0417L8.7913 24.9167ZM19.9996 36.8333L14.833 31.6667L19.9996 26.5L20.833 27.3333L17.083 31.0833H19.9996C23.083 31.0833 25.701 30 27.8538 27.8333C30.0066 25.6667 31.083 23.0278 31.083 19.9167C31.083 19.2778 31.0205 18.618 30.8955 17.9375C30.7705 17.2569 30.583 16.5972 30.333 15.9583L31.208 15.0833C31.5413 15.8333 31.7982 16.618 31.9788 17.4375C32.1594 18.2569 32.2496 19.0833 32.2496 19.9167C32.2496 23.3333 31.0552 26.243 28.6663 28.6458C26.2774 31.0486 23.3885 32.25 19.9996 32.25H17.083L20.833 36L19.9996 36.8333Z" fill="#303345"/>
</svg>
