<svg width="40" height="40" viewBox="0 0 40 40" fill="none" xmlns="http://www.w3.org/2000/svg">
<path d="M10.4999 31.7501V9.66675C10.4999 8.94453 10.736 8.3473 11.2082 7.87508C11.6804 7.40286 12.2777 7.16675 12.9999 7.16675H26.9999C27.7221 7.16675 28.3193 7.40286 28.7915 7.87508C29.2638 8.3473 29.4999 8.94453 29.4999 9.66675V31.7501L19.9999 27.6667L10.4999 31.7501ZM11.6665 29.9167L19.9999 26.3334L28.3332 29.9167V9.66675C28.3332 9.33342 28.1943 9.02786 27.9165 8.75008C27.6388 8.4723 27.3332 8.33341 26.9999 8.33341H12.9999C12.6665 8.33341 12.361 8.4723 12.0832 8.75008C11.8054 9.02786 11.6665 9.33342 11.6665 9.66675V29.9167Z" fill="#303345"/>
</svg>
