<svg width="40" height="40" viewBox="0 0 40 40" fill="none" xmlns="http://www.w3.org/2000/svg">
<path d="M3.3335 39.9999V37.6665H36.6668V39.9999H3.3335ZM10.0002 28.4582H11.6252L26.7918 13.2915L26.0002 12.4582L25.1668 11.6665L10.0002 26.8332V28.4582ZM8.8335 29.6249V26.3332L27.5418 7.62488C27.6807 7.48599 27.8266 7.38877 27.9793 7.33321C28.1321 7.27766 28.2838 7.24988 28.4343 7.24988C28.5848 7.24988 28.7307 7.27766 28.8718 7.33321C29.0129 7.38877 29.1529 7.48599 29.2918 7.62488L30.8335 9.16654C30.9724 9.30543 31.0696 9.4466 31.1252 9.59004C31.1807 9.73349 31.2085 9.88171 31.2085 10.0347C31.2085 10.1782 31.1786 10.3285 31.1188 10.4857C31.0591 10.6428 30.9639 10.7865 30.8335 10.9165L12.1252 29.6249H8.8335ZM26.7918 13.2915L26.0002 12.4582L25.1668 11.6665L26.7918 13.2915Z" fill="#303345"/>
</svg>
