<svg width="40" height="40" viewBox="0 0 40 40" fill="none" xmlns="http://www.w3.org/2000/svg">
<path d="M9.66675 34.5C8.94453 34.5 8.3473 34.2639 7.87508 33.7917C7.40286 33.3194 7.16675 32.7222 7.16675 32V11.3333C7.16675 10.6111 7.40286 10.0139 7.87508 9.54167C8.3473 9.06945 8.94453 8.83333 9.66675 8.83333H13.0001V5H14.3334V8.83333H25.8334V5H27.0001V8.83333H30.3334C31.0556 8.83333 31.6529 9.06945 32.1251 9.54167C32.5973 10.0139 32.8334 10.6111 32.8334 11.3333V32C32.8334 32.7222 32.5973 33.3194 32.1251 33.7917C31.6529 34.2639 31.0556 34.5 30.3334 34.5H9.66675ZM9.66675 33.3333H30.3334C30.6667 33.3333 30.9723 33.1944 31.2501 32.9167C31.5279 32.6389 31.6667 32.3333 31.6667 32V18H8.33341V32C8.33341 32.3333 8.4723 32.6389 8.75008 32.9167C9.02786 33.1944 9.33341 33.3333 9.66675 33.3333ZM8.33341 16.8333H31.6667V11.3333C31.6667 11 31.5279 10.6944 31.2501 10.4167C30.9723 10.1389 30.6667 10 30.3334 10H9.66675C9.33341 10 9.02786 10.1389 8.75008 10.4167C8.4723 10.6944 8.33341 11 8.33341 11.3333V16.8333ZM20.0001 23.6667C19.6945 23.6667 19.4237 23.5486 19.1876 23.3125C18.9515 23.0764 18.8334 22.8056 18.8334 22.5C18.8334 22.1944 18.9515 21.9236 19.1876 21.6875C19.4237 21.4514 19.6945 21.3333 20.0001 21.3333C20.3056 21.3333 20.5765 21.4514 20.8126 21.6875C21.0487 21.9236 21.1667 22.1944 21.1667 22.5C21.1667 22.8056 21.0487 23.0764 20.8126 23.3125C20.5765 23.5486 20.3056 23.6667 20.0001 23.6667ZM13.3334 23.6667C13.0279 23.6667 12.757 23.5486 12.5209 23.3125C12.2848 23.0764 12.1667 22.8056 12.1667 22.5C12.1667 22.1944 12.2848 21.9236 12.5209 21.6875C12.757 21.4514 13.0279 21.3333 13.3334 21.3333C13.639 21.3333 13.9098 21.4514 14.1459 21.6875C14.382 21.9236 14.5001 22.1944 14.5001 22.5C14.5001 22.8056 14.382 23.0764 14.1459 23.3125C13.9098 23.5486 13.639 23.6667 13.3334 23.6667ZM26.6667 23.6667C26.3612 23.6667 26.0904 23.5486 25.8542 23.3125C25.6181 23.0764 25.5001 22.8056 25.5001 22.5C25.5001 22.1944 25.6181 21.9236 25.8542 21.6875C26.0904 21.4514 26.3612 21.3333 26.6667 21.3333C26.9723 21.3333 27.2431 21.4514 27.4792 21.6875C27.7154 21.9236 27.8334 22.1944 27.8334 22.5C27.8334 22.8056 27.7154 23.0764 27.4792 23.3125C27.2431 23.5486 26.9723 23.6667 26.6667 23.6667ZM20.0001 30C19.6945 30 19.4237 29.8819 19.1876 29.6458C18.9515 29.4097 18.8334 29.1389 18.8334 28.8333C18.8334 28.5278 18.9515 28.2569 19.1876 28.0208C19.4237 27.7847 19.6945 27.6667 20.0001 27.6667C20.3056 27.6667 20.5765 27.7847 20.8126 28.0208C21.0487 28.2569 21.1667 28.5278 21.1667 28.8333C21.1667 29.1389 21.0487 29.4097 20.8126 29.6458C20.5765 29.8819 20.3056 30 20.0001 30ZM13.3334 30C13.0279 30 12.757 29.8819 12.5209 29.6458C12.2848 29.4097 12.1667 29.1389 12.1667 28.8333C12.1667 28.5278 12.2848 28.2569 12.5209 28.0208C12.757 27.7847 13.0279 27.6667 13.3334 27.6667C13.639 27.6667 13.9098 27.7847 14.1459 28.0208C14.382 28.2569 14.5001 28.5278 14.5001 28.8333C14.5001 29.1389 14.382 29.4097 14.1459 29.6458C13.9098 29.8819 13.639 30 13.3334 30ZM26.6667 30C26.3612 30 26.0904 29.8819 25.8542 29.6458C25.6181 29.4097 25.5001 29.1389 25.5001 28.8333C25.5001 28.5278 25.6181 28.2569 25.8542 28.0208C26.0904 27.7847 26.3612 27.6667 26.6667 27.6667C26.9723 27.6667 27.2431 27.7847 27.4792 28.0208C27.7154 28.2569 27.8334 28.5278 27.8334 28.8333C27.8334 29.1389 27.7154 29.4097 27.4792 29.6458C27.2431 29.8819 26.9723 30 26.6667 30Z" fill="#303345"/>
</svg>
