<svg width="40" height="40" viewBox="0 0 40 40" fill="none" xmlns="http://www.w3.org/2000/svg">
<path d="M31.0417 32.8334C28.4306 32.8334 25.7154 32.1459 22.8959 30.7709C20.0765 29.3959 17.4376 27.4723 14.9792 25.0001C12.5209 22.5279 10.6042 19.889 9.22925 17.0834C7.85425 14.2779 7.16675 11.5695 7.16675 8.95841C7.16675 8.4465 7.33341 8.01992 7.66675 7.67867C8.00008 7.33739 8.41675 7.16675 8.91675 7.16675H12.2501C12.7223 7.16675 13.132 7.31258 13.4792 7.60425C13.8265 7.89591 14.0695 8.27786 14.2084 8.75008L14.9584 12.1667C15.0417 12.639 15.0279 13.0556 14.9167 13.4167C14.8056 13.7779 14.6112 14.0695 14.3334 14.2917L10.7917 17.5001C11.514 18.8056 12.2987 20.007 13.1459 21.1042C13.9931 22.2015 14.889 23.2362 15.8334 24.2084C16.8334 25.2084 17.9167 26.139 19.0834 27.0001C20.2501 27.8612 21.5417 28.6806 22.9584 29.4584L26.4167 25.9167C26.6945 25.6112 26.9931 25.4167 27.3126 25.3334C27.632 25.2501 28.0001 25.2362 28.4167 25.2917L31.2501 25.8751C31.7223 25.9862 32.1042 26.2223 32.3959 26.5834C32.6876 26.9445 32.8334 27.3612 32.8334 27.8334V31.0834C32.8334 31.5834 32.6628 32.0001 32.3215 32.3334C31.9802 32.6667 31.5537 32.8334 31.0417 32.8334ZM10.2501 16.4167L13.5834 13.4167C13.7223 13.3056 13.8126 13.1529 13.8542 12.9584C13.8959 12.764 13.889 12.5834 13.8334 12.4167L13.0834 9.00008C13.0279 8.77786 12.9306 8.61119 12.7917 8.50008C12.6529 8.38897 12.4723 8.33341 12.2501 8.33341H8.91675C8.75008 8.33341 8.61119 8.38897 8.50008 8.50008C8.38897 8.61119 8.33341 8.75008 8.33341 8.91675C8.33341 10.0556 8.50703 11.264 8.85425 12.5417C9.20147 13.8195 9.66675 15.1112 10.2501 16.4167ZM24.0834 30.0001C25.2223 30.5834 26.4515 31.007 27.7709 31.2709C29.0904 31.5348 30.1945 31.6667 31.0834 31.6667C31.2501 31.6667 31.389 31.6112 31.5001 31.5001C31.6112 31.389 31.6667 31.2501 31.6667 31.0834V27.8334C31.6667 27.6112 31.6112 27.4306 31.5001 27.2917C31.389 27.1529 31.2223 27.0556 31.0001 27.0001L28.1667 26.4167C28.0001 26.3612 27.8542 26.3542 27.7292 26.3959C27.6042 26.4376 27.4723 26.5279 27.3334 26.6667L24.0834 30.0001Z" fill="#303345"/>
</svg>
