<svg width="40" height="40" viewBox="0 0 40 40" fill="none" xmlns="http://www.w3.org/2000/svg">
<path d="M29.8333 20.5833V19.4167H34.8333V20.5833H29.8333ZM31.5833 31.0833L27.5833 28.0833L28.3333 27.1667L32.3333 30.1667L31.5833 31.0833ZM28.1666 12.6667L27.4166 11.75L31.4166 8.75L32.1666 9.66667L28.1666 12.6667ZM9.41663 29.4167V23.1667H7.66663C6.97218 23.1667 6.3819 22.9236 5.89579 22.4375C5.40968 21.9514 5.16663 21.3611 5.16663 20.6667V19.3333C5.16663 18.6389 5.40968 18.0486 5.89579 17.5625C6.3819 17.0764 6.97218 16.8333 7.66663 16.8333H13.75L19.8333 13.25V26.75L13.75 23.1667H10.5833V29.4167H9.41663ZM18.6666 24.6667V15.3333L14.0833 18H7.66663C7.33329 18 7.02774 18.1389 6.74996 18.4167C6.47218 18.6944 6.33329 19 6.33329 19.3333V20.6667C6.33329 21 6.47218 21.3056 6.74996 21.5833C7.02774 21.8611 7.33329 22 7.66663 22H14.0833L18.6666 24.6667ZM23.1666 24.5833V15.4167C23.6666 15.8889 24.0694 16.5278 24.375 17.3333C24.6805 18.1389 24.8333 19.0278 24.8333 20C24.8333 20.9722 24.6805 21.8611 24.375 22.6667C24.0694 23.4722 23.6666 24.1111 23.1666 24.5833Z" fill="#303345"/>
</svg>
