<svg width="40" height="40" viewBox="0 0 40 40" fill="none" xmlns="http://www.w3.org/2000/svg">
<path d="M11.0832 22.25H22.2499V21.0834H11.0832V22.25ZM11.0832 17.25H28.9165V16.0834H11.0832V17.25ZM11.0832 12.25H28.9165V11.0834H11.0832V12.25ZM5.49988 32.5V8.00003C5.49988 7.27781 5.73599 6.68059 6.20821 6.20836C6.68043 5.73614 7.27766 5.50003 7.99988 5.50003H31.9999C32.7221 5.50003 33.3193 5.73614 33.7915 6.20836C34.2638 6.68059 34.4999 7.27781 34.4999 8.00003V25.3334C34.4999 26.0556 34.2638 26.6528 33.7915 27.125C33.3193 27.5973 32.7221 27.8334 31.9999 27.8334H10.1665L5.49988 32.5ZM9.66654 26.6667H31.9999C32.3332 26.6667 32.6388 26.5278 32.9165 26.25C33.1943 25.9723 33.3332 25.6667 33.3332 25.3334V8.00003C33.3332 7.6667 33.1943 7.36114 32.9165 7.08336C32.6388 6.80559 32.3332 6.6667 31.9999 6.6667H7.99988C7.66654 6.6667 7.36099 6.80559 7.08321 7.08336C6.80543 7.36114 6.66654 7.6667 6.66654 8.00003V29.6667L9.66654 26.6667Z" fill="#303345"/>
</svg>
