<svg width="40" height="40" viewBox="0 0 40 40" fill="none" xmlns="http://www.w3.org/2000/svg">
<path d="M17.5836 26.1667L27.9169 15.8334L27.0836 15L17.5836 24.5L12.8336 19.75L12.0002 20.5834L17.5836 26.1667ZM20.0075 34.5C18.0027 34.5 16.1175 34.1196 14.352 33.3587C12.5865 32.5979 11.0507 31.5652 9.7447 30.2609C8.43873 28.9565 7.40483 27.4227 6.64299 25.6594C5.88116 23.8962 5.50024 22.0121 5.50024 20.0073C5.50024 18.0024 5.88068 16.1173 6.64154 14.3518C7.40243 12.5863 8.43504 11.0505 9.73937 9.74453C11.0437 8.43853 12.5776 7.40461 14.3408 6.64278C16.1041 5.88095 17.9882 5.50003 19.993 5.50003C21.9978 5.50003 23.883 5.88046 25.6485 6.64132C27.414 7.40221 28.9498 8.43482 30.2557 9.73916C31.5617 11.0435 32.5957 12.5773 33.3575 14.3406C34.1193 16.1039 34.5002 17.9879 34.5002 19.9928C34.5002 21.9976 34.1198 23.8828 33.359 25.6483C32.5981 27.4138 31.5655 28.9496 30.2611 30.2556C28.9568 31.5615 27.4229 32.5954 25.6597 33.3573C23.8964 34.1191 22.0123 34.5 20.0075 34.5ZM20.0002 33.3334C23.7225 33.3334 26.8752 32.0417 29.4586 29.4584C32.0419 26.875 33.3336 23.7223 33.3336 20C33.3336 16.2778 32.0419 13.125 29.4586 10.5417C26.8752 7.95836 23.7225 6.6667 20.0002 6.6667C16.278 6.6667 13.1252 7.95836 10.5419 10.5417C7.95858 13.125 6.66691 16.2778 6.66691 20C6.66691 23.7223 7.95858 26.875 10.5419 29.4584C13.1252 32.0417 16.278 33.3334 20.0002 33.3334Z" fill="#303345"/>
</svg>
