<svg width="40" height="40" viewBox="0 0 40 40" fill="none" xmlns="http://www.w3.org/2000/svg">
<path d="M31.8751 31.0417L28.3334 34.5833L27.5001 33.75L31.0417 30.2083L27.5001 26.6667L28.3334 25.8333L31.8751 29.375L35.4168 25.8333L36.2501 26.6667L32.7084 30.2083L36.2501 33.75L35.4168 34.5833L31.8751 31.0417ZM10.0001 34.5C9.19453 34.5 8.52091 34.2292 7.97925 33.6875C7.43758 33.1458 7.16675 32.4722 7.16675 31.6667V27.1667H12.1667V5.5H32.8334V20.4583C32.639 20.4306 32.4445 20.4167 32.2501 20.4167H31.6668V6.66667H13.3334V27.1667H22.6251C22.5695 27.3611 22.514 27.5486 22.4584 27.7292C22.4029 27.9097 22.3473 28.1111 22.2917 28.3333H8.33341V31.6667C8.33341 32.1389 8.49314 32.5347 8.81258 32.8542C9.13203 33.1736 9.52786 33.3333 10.0001 33.3333H22.6251C22.6806 33.5556 22.757 33.7569 22.8542 33.9375C22.9515 34.1181 23.0417 34.3056 23.1251 34.5H10.0001ZM15.8334 13.6667V12.5H29.1667V13.6667H15.8334ZM15.8334 18.1667V17H29.1667V18.1667H15.8334ZM22.6251 33.3333H8.33341H22.2917H22.1251H22.6251Z" fill="#303345"/>
</svg>
