<svg width="40" height="40" viewBox="0 0 40 40" fill="none" xmlns="http://www.w3.org/2000/svg">
<path d="M15.2498 27.8333C14.5275 27.8333 13.9303 27.5972 13.4581 27.125C12.9859 26.6528 12.7498 26.0556 12.7498 25.3333V8C12.7498 7.27778 12.9859 6.68056 13.4581 6.20833C13.9303 5.73611 14.5275 5.5 15.2498 5.5H27.5831C28.3053 5.5 28.9025 5.73611 29.3748 6.20833C29.847 6.68056 30.0831 7.27778 30.0831 8V25.3333C30.0831 26.0556 29.847 26.6528 29.3748 27.125C28.9025 27.5972 28.3053 27.8333 27.5831 27.8333H15.2498ZM15.2498 26.6667H27.5831C27.9164 26.6667 28.222 26.5278 28.4998 26.25C28.7775 25.9722 28.9164 25.6667 28.9164 25.3333V8C28.9164 7.66667 28.7775 7.36111 28.4998 7.08333C28.222 6.80556 27.9164 6.66667 27.5831 6.66667H15.2498C14.9164 6.66667 14.6109 6.80556 14.3331 7.08333C14.0553 7.36111 13.9164 7.66667 13.9164 8V25.3333C13.9164 25.6667 14.0553 25.9722 14.3331 26.25C14.6109 26.5278 14.9164 26.6667 15.2498 26.6667ZM10.7498 32.3333C10.0275 32.3333 9.43031 32.0972 8.95809 31.625C8.48587 31.1528 8.24976 30.5556 8.24976 29.8333V11.3333H9.41642V29.8333C9.41642 30.1667 9.55531 30.4722 9.83309 30.75C10.1109 31.0278 10.4164 31.1667 10.7498 31.1667H24.2498V32.3333H10.7498Z" fill="#303345"/>
</svg>
