<svg width="40" height="40" viewBox="0 0 40 40" fill="none" xmlns="http://www.w3.org/2000/svg">
<path d="M10.0001 34.5C9.19453 34.5 8.52091 34.2292 7.97925 33.6875C7.43758 33.1458 7.16675 32.4722 7.16675 31.6667V27.1667H12.1667V5.5H32.8334V31.6667C32.8334 32.4722 32.5626 33.1458 32.0209 33.6875C31.4792 34.2292 30.8056 34.5 30.0001 34.5H10.0001ZM30.0001 33.3333C30.4723 33.3333 30.8681 33.1736 31.1876 32.8542C31.507 32.5347 31.6667 32.1389 31.6667 31.6667V6.66667H13.3334V27.1667H28.3334V31.6667C28.3334 32.1389 28.4931 32.5347 28.8126 32.8542C29.132 33.1736 29.5279 33.3333 30.0001 33.3333ZM15.8334 13.6667V12.5H29.1667V13.6667H15.8334ZM15.8334 18.1667V17H29.1667V18.1667H15.8334ZM10.0001 33.3333H27.1667V28.3333H8.33341V31.6667C8.33341 32.1389 8.49314 32.5347 8.81258 32.8542C9.13203 33.1736 9.52786 33.3333 10.0001 33.3333ZM10.0001 33.3333H8.33341H27.1667H10.0001Z" fill="#303345"/>
</svg>
