<svg width="40" height="40" viewBox="0 0 40 40" fill="none" xmlns="http://www.w3.org/2000/svg">
<path fill-rule="evenodd" clip-rule="evenodd" d="M22.0833 27.9167V22.9167H17.0833V17.0833H22.0833V12.0833H27.9167V17.0833H32.9167V22.9167H27.9167V27.9167H22.0833ZM26.6667 13.3333V18.3333H31.6667V21.6667H26.6667V26.6667H23.3333V21.6667H18.3333V18.3333H23.3333V13.3333H26.6667ZM10 34.1667V30.5C7.94444 29.5278 6.31944 28.0972 5.125 26.2083C3.93056 24.3194 3.33333 22.25 3.33333 20C3.33333 17.75 3.93056 15.6806 5.125 13.7917C6.31944 11.9028 7.94444 10.4722 10 9.5V5.83333C9.57122 5.98282 9.15455 6.14776 8.75 6.32816C6.29789 7.42164 4.29095 9.08309 2.72917 11.3125C0.909722 13.9097 0 16.8056 0 20C0 23.1944 0.909722 26.0903 2.72917 28.6875C4.29095 30.9169 6.29789 32.5784 8.75 33.6718C9.15455 33.8522 9.57122 34.0172 10 34.1667ZM8.75 32.2909C6.73363 31.2926 5.07355 29.8554 3.75295 27.9703C2.0819 25.5849 1.25 22.9398 1.25 20C1.25 17.0601 2.0819 14.4151 3.75295 12.0297C5.07355 10.1446 6.73363 8.70741 8.75 7.70913V8.73395C6.81622 9.78953 5.24955 11.2559 4.06851 13.1236C2.74675 15.2138 2.08333 17.5152 2.08333 20C2.08333 22.4848 2.74675 24.7862 4.06851 26.8764C5.24955 28.7441 6.81622 30.2105 8.75 31.2661V32.2909ZM19.6446 32.6663C21.2988 33.3861 23.0795 33.75 25 33.75C26.9205 33.75 28.7012 33.3861 30.3554 32.6663C32.0372 31.9345 33.4884 30.9521 34.7203 29.7203C35.9521 28.4884 36.9345 27.0372 37.6663 25.3554C38.3861 23.7012 38.75 21.9205 38.75 20C38.75 18.0795 38.3861 16.2988 37.6663 14.6446C36.9345 12.9628 35.9521 11.5116 34.7203 10.2797C33.4884 9.04788 32.0372 8.06548 30.3554 7.3337C28.7012 6.6139 26.9205 6.25 25 6.25C23.0795 6.25 21.2988 6.6139 19.6446 7.3337C17.9628 8.06548 16.5116 9.04788 15.2797 10.2797C14.0479 11.5116 13.0655 12.9628 12.3337 14.6446C11.6139 16.2988 11.25 18.0795 11.25 20C11.25 21.9205 11.6139 23.7012 12.3337 25.3554C13.0655 27.0372 14.0479 28.4884 15.2797 29.7203C16.5116 30.9521 17.9628 31.9345 19.6446 32.6663ZM19.1458 33.8125C20.9653 34.6042 22.9167 35 25 35C27.0833 35 29.0347 34.6042 30.8542 33.8125C32.6736 33.0208 34.2569 31.9514 35.6042 30.6042C36.9514 29.2569 38.0208 27.6736 38.8125 25.8542C39.6042 24.0347 40 22.0833 40 20C40 17.9167 39.6042 15.9653 38.8125 14.1458C38.0208 12.3264 36.9514 10.7431 35.6042 9.39583C34.2569 8.04861 32.6736 6.97917 30.8542 6.1875C29.0347 5.39583 27.0833 5 25 5C22.9167 5 20.9653 5.39583 19.1458 6.1875C17.3264 6.97917 15.7431 8.04861 14.3958 9.39583C13.0486 10.7431 11.9792 12.3264 11.1875 14.1458C10.3958 15.9653 10 17.9167 10 20C10 22.0833 10.3958 24.0347 11.1875 25.8542C11.9792 27.6736 13.0486 29.2569 14.3958 30.6042C15.7431 31.9514 17.3264 33.0208 19.1458 33.8125Z" fill="#303345"/>
</svg>
