<svg width="40" height="40" viewBox="0 0 40 40" fill="none" xmlns="http://www.w3.org/2000/svg">
<path d="M34.5 11.3335V28.6668C34.5 29.3891 34.2639 29.9863 33.7917 30.4585C33.3194 30.9307 32.7222 31.1668 32 31.1668H8C7.27778 31.1668 6.68056 30.9307 6.20833 30.4585C5.73611 29.9863 5.5 29.3891 5.5 28.6668V11.3335C5.5 10.6113 5.73611 10.0141 6.20833 9.54183C6.68056 9.06961 7.27778 8.8335 8 8.8335H32C32.7222 8.8335 33.3194 9.06961 33.7917 9.54183C34.2639 10.0141 34.5 10.6113 34.5 11.3335ZM6.66667 15.0835H33.3333V11.3335C33.3333 11.0002 33.1944 10.6946 32.9167 10.4168C32.6389 10.1391 32.3333 10.0002 32 10.0002H8C7.66667 10.0002 7.36111 10.1391 7.08333 10.4168C6.80556 10.6946 6.66667 11.0002 6.66667 11.3335V15.0835ZM6.66667 18.2502V28.6668C6.66667 29.0002 6.80556 29.3057 7.08333 29.5835C7.36111 29.8613 7.66667 30.0002 8 30.0002H32C32.3333 30.0002 32.6389 29.8613 32.9167 29.5835C33.1944 29.3057 33.3333 29.0002 33.3333 28.6668V18.2502H6.66667Z" fill="#303345"/>
</svg>
