<svg width="40" height="40" viewBox="0 0 40 40" fill="none" xmlns="http://www.w3.org/2000/svg">
<path d="M20 36.1668C16.5278 36.1668 13.4375 35.2085 10.7292 33.2918C8.02083 31.3752 6.04167 28.7918 4.79167 25.5418V31.3335H3.625V23.5002H11.4583V24.6668H5.75C6.75 27.7779 8.56944 30.2779 11.2083 32.1668C13.8472 34.0557 16.7778 35.0002 20 35.0002C21.9722 35.0002 23.8264 34.6529 25.5625 33.9585C27.2986 33.264 28.8333 32.2988 30.1667 31.0627C31.5 29.8265 32.5903 28.3543 33.4375 26.646C34.2847 24.9377 34.7917 23.0835 34.9583 21.0835H36.125C35.9861 23.1946 35.4653 25.1668 34.5625 27.0002C33.6597 28.8335 32.4931 30.4307 31.0625 31.7918C29.6319 33.1529 27.9653 34.2224 26.0625 35.0002C24.1597 35.7779 22.1389 36.1668 20 36.1668ZM19.3333 30.8335V28.8335C18.25 28.5835 17.3125 28.1668 16.5208 27.5835C15.7292 27.0002 15.0833 26.1668 14.5833 25.0835L15.6667 24.5835C16.1667 25.5835 16.8125 26.3613 17.6042 26.9168C18.3958 27.4724 19.2778 27.7502 20.25 27.7502C21.25 27.7502 22.2083 27.4793 23.125 26.9377C24.0417 26.396 24.5 25.5002 24.5 24.2502C24.5 23.2779 24.2014 22.521 23.6042 21.9793C23.0069 21.4377 21.8056 20.8335 20 20.1668C18.1667 19.5002 16.875 18.8196 16.125 18.1252C15.375 17.4307 15 16.5002 15 15.3335C15 14.3613 15.375 13.4585 16.125 12.6252C16.875 11.7918 17.9722 11.2779 19.4167 11.0835V9.16683H20.6667V11.0835C21.5 11.1391 22.2847 11.4099 23.0208 11.896C23.7569 12.3821 24.3333 13.0002 24.75 13.7502L23.6667 14.1668C23.2778 13.5835 22.7917 13.1043 22.2083 12.7293C21.625 12.3543 20.9167 12.1668 20.0833 12.1668C18.9444 12.1668 18.0208 12.4724 17.3125 13.0835C16.6042 13.6946 16.25 14.4446 16.25 15.3335C16.25 16.2224 16.4861 16.9029 16.9583 17.3752C17.4306 17.8474 18.6111 18.4168 20.5 19.0835C22.5 19.8057 23.8611 20.5557 24.5833 21.3335C25.3056 22.1113 25.6667 23.0835 25.6667 24.2502C25.6667 25.0279 25.5069 25.7085 25.1875 26.2918C24.8681 26.8752 24.4583 27.3543 23.9583 27.7293C23.4583 28.1043 22.9097 28.389 22.3125 28.5835C21.7153 28.7779 21.1389 28.889 20.5833 28.9168V30.8335H19.3333ZM3.875 18.9168C4.06944 16.6668 4.63194 14.6182 5.5625 12.771C6.49306 10.9238 7.6875 9.3335 9.14583 8.00016C10.6042 6.66683 12.2639 5.63905 14.125 4.91683C15.9861 4.19461 17.9444 3.8335 20 3.8335C23.3889 3.8335 26.4792 4.79877 29.2708 6.72933C32.0625 8.65988 34.0417 11.2918 35.2083 14.6252V8.66683H36.375V16.5002H28.5417V15.3335H34.25C33.3333 12.3335 31.5486 9.86127 28.8958 7.91683C26.2431 5.97238 23.2778 5.00016 20 5.00016C18.1389 5.00016 16.3472 5.3335 14.625 6.00016C12.9028 6.66683 11.3611 7.60433 10 8.81266C8.63889 10.021 7.51389 11.4793 6.625 13.1877C5.73611 14.896 5.20833 16.8057 5.04167 18.9168H3.875Z" fill="#303345"/>
</svg>
