<svg width="40" height="40" viewBox="0 0 40 40" fill="none" xmlns="http://www.w3.org/2000/svg">
<path fill-rule="evenodd" clip-rule="evenodd" d="M11.625 3C8.33907 3 5.5 6.36184 5.5 10.75C5.5 15.1382 8.33907 18.5 11.625 18.5C14.9109 18.5 17.75 15.1382 17.75 10.75C17.75 6.36184 14.9109 3 11.625 3ZM13.8812 19.0571C16.7551 17.8875 18.75 14.5442 18.75 10.75C18.75 6.02548 15.6568 2 11.625 2C7.59316 2 4.5 6.02548 4.5 10.75C4.5 14.5973 6.55114 17.981 9.49001 19.105L8.25159 34.5851C8.25053 34.5984 8.25 34.6117 8.25 34.625C8.25 35.5201 8.60556 36.3786 9.2385 37.0115C9.86888 37.6419 10.723 37.9971 11.6141 38C12.0659 38.0182 12.5167 37.9454 12.9399 37.786C13.3665 37.6253 13.7561 37.3798 14.0852 37.0644C14.4143 36.7491 14.6761 36.3703 14.8548 35.9509C15.0335 35.5316 15.1254 35.0804 15.125 34.6245C15.125 34.6114 15.1245 34.5983 15.1234 34.5851L13.8812 19.0571ZM12.9134 19.5H10.4616L9.25008 34.644C9.25506 35.2671 9.5047 35.8635 9.94561 36.3044C10.391 36.7498 10.9951 37 11.625 37C11.6323 37 11.6395 37.0002 11.6467 37.0005C11.9672 37.0144 12.2872 36.9633 12.5873 36.8502C12.8875 36.7371 13.1617 36.5644 13.3933 36.3425C13.6249 36.1205 13.8091 35.854 13.9349 35.5589C14.0582 35.2695 14.1228 34.9587 14.1249 34.6443L12.9134 19.5ZM23.2499 2.49995C23.526 2.49995 23.7499 2.72381 23.7499 2.99995V12.875H28.3749V2.99995C28.3749 2.72381 28.5987 2.49995 28.8749 2.49995C29.151 2.49995 29.3749 2.72381 29.3749 2.99995V12.875H34.1249V2.99995C34.1249 2.72381 34.3487 2.49995 34.6249 2.49995C34.901 2.49995 35.1249 2.72381 35.1249 2.99995V13.3858C35.0893 15.0198 34.4151 16.5748 33.2468 17.7177C32.6675 18.2844 31.9895 18.7274 31.2539 19.0301L32.4983 34.5851C32.4993 34.5982 32.4998 34.6114 32.4999 34.6245C32.5003 35.0803 32.4084 35.5315 32.2297 35.9509C32.051 36.3702 31.7891 36.749 31.46 37.0644C31.1309 37.3798 30.7414 37.6253 30.3148 37.786C29.8916 37.9454 29.4408 38.0181 28.989 37.9999C28.0978 37.9971 27.2438 37.6418 26.6134 37.0115C25.9804 36.3785 25.6249 35.5201 25.6249 34.625C25.6249 34.6117 25.6254 34.5984 25.6265 34.5851L26.8605 19.1593C25.9967 18.8584 25.2029 18.3651 24.5438 17.706C23.3952 16.5573 22.7499 14.9994 22.7499 13.375V2.99995C22.7499 2.72381 22.9737 2.49995 23.2499 2.49995ZM28.875 18.5C28.8758 18.5 28.8766 18.5 28.8775 18.5C30.2494 18.4997 31.5667 17.9623 32.5475 17.0029C33.4062 16.1628 33.9471 15.0577 34.0889 13.875H23.7743C23.8895 15.0506 24.4084 16.1563 25.2509 16.9989C26.2121 17.96 27.5157 18.5 28.875 18.5ZM27.8365 19.5L26.625 34.644C26.6299 35.267 26.8796 35.8634 27.3205 36.3044C27.7659 36.7497 28.37 37 28.9999 37C29.0071 37 29.0144 37.0001 29.0216 37.0004C29.3421 37.0144 29.6621 36.9633 29.9622 36.8502C30.2624 36.7371 30.5365 36.5644 30.7681 36.3424C30.9997 36.1205 31.184 35.8539 31.3097 35.5588C31.433 35.2695 31.4976 34.9586 31.4998 34.6442L30.2883 19.5H28.8777C28.8767 19.5 28.8758 19.5 28.8749 19.5C28.8748 19.5 28.8749 19.5 28.8749 19.5H27.8365Z" fill="#303345"/>
</svg>
