<svg width="40" height="40" viewBox="0 0 40 40" fill="none" xmlns="http://www.w3.org/2000/svg">
<path d="M12.7493 27.2501H17.2493V22.7501H12.7493V27.2501ZM22.7493 27.2501H27.2493V22.7501H22.7493V27.2501ZM12.7493 17.2501H17.2493V12.7501H12.7493V17.2501ZM22.7493 17.2501H27.2493V12.7501H22.7493V17.2501ZM9.66602 32.8334C8.94379 32.8334 8.34657 32.5973 7.87435 32.1251C7.40213 31.6529 7.16602 31.0556 7.16602 30.3334V9.66675C7.16602 8.94453 7.40213 8.3473 7.87435 7.87508C8.34657 7.40286 8.94379 7.16675 9.66602 7.16675H30.3327C31.0549 7.16675 31.6521 7.40286 32.1243 7.87508C32.5966 8.3473 32.8327 8.94453 32.8327 9.66675V30.3334C32.8327 31.0556 32.5966 31.6529 32.1243 32.1251C31.6521 32.5973 31.0549 32.8334 30.3327 32.8334H9.66602ZM9.66602 31.6667H30.3327C30.666 31.6667 30.9716 31.5279 31.2493 31.2501C31.5271 30.9723 31.666 30.6667 31.666 30.3334V9.66675C31.666 9.33341 31.5271 9.02786 31.2493 8.75008C30.9716 8.4723 30.666 8.33341 30.3327 8.33341H9.66602C9.33268 8.33341 9.02713 8.4723 8.74935 8.75008C8.47157 9.02786 8.33268 9.33341 8.33268 9.66675V30.3334C8.33268 30.6667 8.47157 30.9723 8.74935 31.2501C9.02713 31.5279 9.33268 31.6667 9.66602 31.6667Z" fill="#303345"/>
</svg>
