<svg width="40" height="40" viewBox="0 0 40 40" fill="none" xmlns="http://www.w3.org/2000/svg">
<path d="M13.3334 23.0833C13.0279 23.0833 12.757 22.9653 12.5209 22.7292C12.2848 22.4931 12.1667 22.2222 12.1667 21.9167C12.1667 21.6111 12.2848 21.3403 12.5209 21.1042C12.757 20.8681 13.0279 20.75 13.3334 20.75C13.639 20.75 13.9098 20.8681 14.1459 21.1042C14.382 21.3403 14.5001 21.6111 14.5001 21.9167C14.5001 22.2222 14.382 22.4931 14.1459 22.7292C13.9098 22.9653 13.639 23.0833 13.3334 23.0833ZM20.0001 23.0833C19.6945 23.0833 19.4237 22.9653 19.1876 22.7292C18.9515 22.4931 18.8334 22.2222 18.8334 21.9167C18.8334 21.6111 18.9515 21.3403 19.1876 21.1042C19.4237 20.8681 19.6945 20.75 20.0001 20.75C20.3056 20.75 20.5765 20.8681 20.8126 21.1042C21.0487 21.3403 21.1667 21.6111 21.1667 21.9167C21.1667 22.2222 21.0487 22.4931 20.8126 22.7292C20.5765 22.9653 20.3056 23.0833 20.0001 23.0833ZM26.6667 23.0833C26.3612 23.0833 26.0904 22.9653 25.8542 22.7292C25.6181 22.4931 25.5001 22.2222 25.5001 21.9167C25.5001 21.6111 25.6181 21.3403 25.8542 21.1042C26.0904 20.8681 26.3612 20.75 26.6667 20.75C26.9723 20.75 27.2431 20.8681 27.4792 21.1042C27.7154 21.3403 27.8334 21.6111 27.8334 21.9167C27.8334 22.2222 27.7154 22.4931 27.4792 22.7292C27.2431 22.9653 26.9723 23.0833 26.6667 23.0833ZM9.66675 34.5C8.94453 34.5 8.3473 34.2639 7.87508 33.7917C7.40286 33.3194 7.16675 32.7222 7.16675 32V11.3333C7.16675 10.6111 7.40286 10.0139 7.87508 9.54167C8.3473 9.06945 8.94453 8.83333 9.66675 8.83333H13.0001V5H14.3334V8.83333H25.8334V5H27.0001V8.83333H30.3334C31.0556 8.83333 31.6529 9.06945 32.1251 9.54167C32.5973 10.0139 32.8334 10.6111 32.8334 11.3333V32C32.8334 32.7222 32.5973 33.3194 32.1251 33.7917C31.6529 34.2639 31.0556 34.5 30.3334 34.5H9.66675ZM9.66675 33.3333H30.3334C30.6667 33.3333 30.9723 33.1944 31.2501 32.9167C31.5279 32.6389 31.6667 32.3333 31.6667 32V18H8.33341V32C8.33341 32.3333 8.4723 32.6389 8.75008 32.9167C9.02786 33.1944 9.33341 33.3333 9.66675 33.3333ZM8.33341 16.8333H31.6667V11.3333C31.6667 11 31.5279 10.6944 31.2501 10.4167C30.9723 10.1389 30.6667 10 30.3334 10H9.66675C9.33341 10 9.02786 10.1389 8.75008 10.4167C8.4723 10.6944 8.33341 11 8.33341 11.3333V16.8333Z" fill="#303345"/>
</svg>
