<svg width="40" height="40" viewBox="0 0 40 40" fill="none" xmlns="http://www.w3.org/2000/svg">
<path d="M12.9997 32.8333C12.3052 32.8333 11.715 32.5902 11.2288 32.1041C10.7427 31.618 10.4997 31.0277 10.4997 30.3333V9.99996H8.83301V8.83329H14.9997V7.66663H24.9997V8.83329H31.1663V9.99996H29.4997V30.3333C29.4997 31.0555 29.2636 31.6527 28.7913 32.125C28.3191 32.5972 27.7219 32.8333 26.9997 32.8333H12.9997ZM28.333 9.99996H11.6663V30.3333C11.6663 30.7222 11.7913 31.0416 12.0413 31.2916C12.2913 31.5416 12.6108 31.6666 12.9997 31.6666H26.9997C27.333 31.6666 27.6386 31.5277 27.9163 31.25C28.1941 30.9722 28.333 30.6666 28.333 30.3333V9.99996ZM16.7497 28.3333H17.9163V13.3333H16.7497V28.3333ZM22.083 28.3333H23.2497V13.3333H22.083V28.3333Z" fill="#303345"/>
</svg>
