<svg width="40" height="40" viewBox="0 0 40 40" fill="none" xmlns="http://www.w3.org/2000/svg">
<path d="M14.4166 28.9167H25.5833V27.75H14.4166V28.9167ZM14.4166 22.25H25.5833V21.0833H14.4166V22.25ZM11.3333 34.5C10.611 34.5 10.0138 34.2639 9.54159 33.7917C9.06936 33.3194 8.83325 32.7222 8.83325 32V8C8.83325 7.27778 9.06936 6.68056 9.54159 6.20833C10.0138 5.73611 10.611 5.5 11.3333 5.5H24.4166L31.1666 12.25V32C31.1666 32.7222 30.9305 33.3194 30.4583 33.7917C29.986 34.2639 29.3888 34.5 28.6666 34.5H11.3333ZM23.8333 12.8333V6.66667H11.3333C10.9999 6.66667 10.6944 6.80556 10.4166 7.08333C10.1388 7.36111 9.99992 7.66667 9.99992 8V32C9.99992 32.3333 10.1388 32.6389 10.4166 32.9167C10.6944 33.1944 10.9999 33.3333 11.3333 33.3333H28.6666C28.9999 33.3333 29.3055 33.1944 29.5833 32.9167C29.861 32.6389 29.9999 32.3333 29.9999 32V12.8333H23.8333Z" fill="#303345"/>
</svg>
