<svg width="40" height="40" viewBox="0 0 40 40" fill="none" xmlns="http://www.w3.org/2000/svg">
<path d="M12.5044 12.4166C12.1122 12.4166 11.7772 12.5538 11.4995 12.8283C11.2217 13.1029 11.0828 13.4362 11.0828 13.8283C11.0828 14.2205 11.2201 14.5555 11.4946 14.8332C11.7691 15.111 12.1024 15.2499 12.4946 15.2499C12.8867 15.2499 13.2217 15.1127 13.4995 14.8382C13.7772 14.5636 13.9161 14.2303 13.9161 13.8382C13.9161 13.446 13.7789 13.111 13.5044 12.8332C13.2299 12.5555 12.8965 12.4166 12.5044 12.4166ZM12.5044 26.4166C12.1122 26.4166 11.7772 26.5538 11.4995 26.8283C11.2217 27.1029 11.0828 27.4362 11.0828 27.8283C11.0828 28.2205 11.2201 28.5555 11.4946 28.8332C11.7691 29.111 12.1024 29.2499 12.4946 29.2499C12.8867 29.2499 13.2217 29.1127 13.4995 28.8382C13.7772 28.5636 13.9161 28.2303 13.9161 27.8382C13.9161 27.446 13.7789 27.111 13.5044 26.8332C13.2299 26.5555 12.8965 26.4166 12.5044 26.4166ZM8.3328 8.49991H31.6661C31.9967 8.49991 32.2738 8.61072 32.4974 8.83233C32.721 9.05394 32.8328 9.32855 32.8328 9.65616V17.7499C32.8328 18.1666 32.721 18.5069 32.4974 18.7707C32.2738 19.0346 31.9967 19.1666 31.6661 19.1666H8.3328C8.00225 19.1666 7.72517 19.0346 7.50155 18.7707C7.27794 18.5069 7.16614 18.1666 7.16614 17.7499V9.65616C7.16614 9.32855 7.27794 9.05394 7.50155 8.83233C7.72517 8.61072 8.00225 8.49991 8.3328 8.49991ZM8.3328 9.66658V17.9999H31.6661V9.66658H8.3328ZM8.3328 22.4999H31.5828C31.9717 22.4999 32.2773 22.6277 32.4995 22.8832C32.7217 23.1388 32.8328 23.4555 32.8328 23.8332V31.6666C32.8328 32.1388 32.7217 32.5069 32.4995 32.7707C32.2773 33.0346 31.9717 33.1666 31.5828 33.1666H8.41614C8.02725 33.1666 7.72169 33.0346 7.49947 32.7707C7.27725 32.5069 7.16614 32.1388 7.16614 31.6666V23.8332C7.16614 23.4555 7.26336 23.1388 7.4578 22.8832C7.65225 22.6277 7.94392 22.4999 8.3328 22.4999ZM8.3328 23.6666V31.9999H31.6661V23.6666H8.3328Z" fill="#303345"/>
</svg>
