<svg width="40" height="40" viewBox="0 0 40 40" fill="none" xmlns="http://www.w3.org/2000/svg">
<path d="M19.9997 25.7501L14.833 20.5835L15.6663 19.7501L19.4163 23.5001V8.83347H20.583V23.5001L24.333 19.7501L25.1663 20.5835L19.9997 25.7501ZM11.333 31.1668C10.6108 31.1668 10.0136 30.9307 9.54134 30.4585C9.06912 29.9862 8.83301 29.389 8.83301 28.6668V24.9168H9.99967V28.6668C9.99967 29.0001 10.1386 29.3057 10.4163 29.5835C10.6941 29.8612 10.9997 30.0001 11.333 30.0001H28.6663C28.9997 30.0001 29.3052 29.8612 29.583 29.5835C29.8608 29.3057 29.9997 29.0001 29.9997 28.6668V24.9168H31.1663V28.6668C31.1663 29.389 30.9302 29.9862 30.458 30.4585C29.9858 30.9307 29.3886 31.1668 28.6663 31.1668H11.333Z" fill="#303345"/>
</svg>
