<svg width="40" height="40" viewBox="0 0 40 40" fill="none" xmlns="http://www.w3.org/2000/svg">
<path d="M22.9165 22.2501L19.5832 25.5835L20.4165 26.4168L25.1665 21.6668L20.4165 16.9168L19.5832 17.7501L22.9165 21.0835H14.8332V22.2501H22.9165ZM7.99988 31.1668C7.27766 31.1668 6.68043 30.9307 6.20821 30.4585C5.73599 29.9862 5.49988 29.389 5.49988 28.6668V11.3335C5.49988 10.6112 5.73599 10.014 6.20821 9.5418C6.68043 9.06958 7.27766 8.83347 7.99988 8.83347H15.7915L19.1249 12.1668H31.9999C32.7221 12.1668 33.3193 12.4029 33.7915 12.8751C34.2638 13.3474 34.4999 13.9446 34.4999 14.6668V28.6668C34.4999 29.389 34.2638 29.9862 33.7915 30.4585C33.3193 30.9307 32.7221 31.1668 31.9999 31.1668H7.99988ZM7.99988 30.0001H31.9999C32.3888 30.0001 32.7082 29.8751 32.9582 29.6251C33.2082 29.3751 33.3332 29.0557 33.3332 28.6668V14.6668C33.3332 14.2779 33.2082 13.9585 32.9582 13.7085C32.7082 13.4585 32.3888 13.3335 31.9999 13.3335H18.6665L15.3332 10.0001H7.99988C7.61099 10.0001 7.29154 10.1251 7.04154 10.3751C6.79154 10.6251 6.66654 10.9446 6.66654 11.3335V28.6668C6.66654 29.0557 6.79154 29.3751 7.04154 29.6251C7.29154 29.8751 7.61099 30.0001 7.99988 30.0001Z" fill="#303345"/>
</svg>
