<svg width="40" height="40" viewBox="0 0 40 40" fill="none" xmlns="http://www.w3.org/2000/svg">
<path d="M8.33341 31.6667H10.0001L28.2917 13.3751L26.6251 11.7084L8.33341 30.0001V31.6667ZM7.16675 32.8334V29.5001L29.1251 7.50008C29.247 7.3938 29.3817 7.31168 29.529 7.25371C29.6764 7.19573 29.8289 7.16675 29.9866 7.16675C30.1443 7.16675 30.2971 7.18758 30.445 7.22925C30.5928 7.27091 30.7362 7.36119 30.8751 7.50008L32.5001 9.12508C32.639 9.26397 32.7292 9.40855 32.7709 9.55883C32.8126 9.70911 32.8334 9.85937 32.8334 10.0096C32.8334 10.1699 32.8068 10.3238 32.7537 10.4711C32.7006 10.6185 32.616 10.7531 32.5001 10.8751L10.5001 32.8334H7.16675ZM27.4438 12.5564L26.6251 11.7084L28.2917 13.3751L27.4438 12.5564Z" fill="#303345"/>
</svg>
