<svg width="40" height="40" viewBox="0 0 40 40" fill="none" xmlns="http://www.w3.org/2000/svg">
<path d="M9.66614 32.8334C8.94392 32.8334 8.34669 32.5973 7.87447 32.1251C7.40225 31.6528 7.16614 31.0556 7.16614 30.3334V9.66672C7.16614 8.9445 7.40225 8.34727 7.87447 7.87505C8.34669 7.40283 8.94392 7.16672 9.66614 7.16672H23.3745L22.2078 8.33338H9.66614C9.3328 8.33338 9.02725 8.47227 8.74947 8.75005C8.47169 9.02783 8.3328 9.33338 8.3328 9.66672V30.3334C8.3328 30.6667 8.47169 30.9723 8.74947 31.2501C9.02725 31.5278 9.3328 31.6667 9.66614 31.6667H30.3328C30.6661 31.6667 30.9717 31.5278 31.2495 31.2501C31.5273 30.9723 31.6661 30.6667 31.6661 30.3334V17.5834L32.8328 16.4167V30.3334C32.8328 31.0556 32.5967 31.6528 32.1245 32.1251C31.6523 32.5973 31.055 32.8334 30.3328 32.8334H9.66614ZM17.1661 22.8334V19.2917L31.9578 4.50005C32.0967 4.36116 32.2356 4.27088 32.3745 4.22922C32.5134 4.18755 32.6661 4.16672 32.8328 4.16672C32.9717 4.16672 33.1106 4.18755 33.2495 4.22922C33.3884 4.27088 33.5134 4.34727 33.6245 4.45838L35.3328 6.08338C35.4717 6.22227 35.5759 6.37505 35.6453 6.54172C35.7148 6.70838 35.7495 6.87505 35.7495 7.04172C35.7495 7.20838 35.7286 7.36116 35.687 7.50005C35.6453 7.63894 35.555 7.77783 35.4161 7.91672L20.4995 22.8334H17.1661ZM18.3328 21.6667H19.9995L31.5411 10.1251L30.7078 9.29172L29.7495 8.37505L18.3328 19.7917V21.6667Z" fill="#303345"/>
</svg>
