<svg width="40" height="40" viewBox="0 0 40 40" fill="none" xmlns="http://www.w3.org/2000/svg">
<path d="M25.125 34.5V33.3333H30.3333C30.6667 33.3333 30.9722 33.1944 31.25 32.9167C31.5278 32.6389 31.6667 32.3333 31.6667 32V18H8.33333V24.4167H7.16667V11.3333C7.16667 10.6111 7.40278 10.0139 7.875 9.54167C8.34722 9.06945 8.94445 8.83333 9.66667 8.83333H13V5H14.3333V8.83333H25.8333V5H27V8.83333H30.3333C31.0556 8.83333 31.6528 9.06945 32.125 9.54167C32.5972 10.0139 32.8333 10.6111 32.8333 11.3333V32C32.8333 32.7222 32.5972 33.3194 32.125 33.7917C31.6528 34.2639 31.0556 34.5 30.3333 34.5H25.125ZM13.3333 38.4583L12.5417 37.6667L17.875 32.25H2.75V31.0833H17.875L12.5417 25.6667L13.3333 24.875L20.125 31.6667L13.3333 38.4583ZM8.33333 16.8333H31.6667V11.3333C31.6667 11 31.5278 10.6944 31.25 10.4167C30.9722 10.1389 30.6667 10 30.3333 10H9.66667C9.33333 10 9.02778 10.1389 8.75 10.4167C8.47222 10.6944 8.33333 11 8.33333 11.3333V16.8333Z" fill="#303345"/>
</svg>
