<svg width="40" height="40" viewBox="0 0 40 40" fill="none" xmlns="http://www.w3.org/2000/svg">
<path d="M20.0065 31.1668C16.891 31.1668 14.2499 30.0857 12.0833 27.9235C9.91658 25.7612 8.83325 23.1223 8.83325 20.0068C8.83325 16.8913 9.91438 14.2502 12.0766 12.0835C14.2389 9.91683 16.8778 8.8335 19.9933 8.8335C23.1088 8.8335 25.7499 9.91462 27.9166 12.0769C30.0833 14.2391 31.1666 16.878 31.1666 19.9935C31.1666 23.1091 30.0855 25.7502 27.9232 27.9168C25.7609 30.0835 23.122 31.1668 20.0065 31.1668ZM19.9999 30.0002C22.7777 30.0002 25.1388 29.0279 27.0833 27.0835C29.0277 25.139 29.9999 22.7779 29.9999 20.0002C29.9999 19.5136 29.9652 19.0343 29.8958 18.562C29.8263 18.0898 29.7221 17.6247 29.5833 17.1668C29.1388 17.2779 28.6909 17.3613 28.2395 17.4168C27.7881 17.4724 27.3367 17.5002 26.8853 17.5002C24.9895 17.5002 23.2013 17.0904 21.5208 16.271C19.8402 15.4516 18.4027 14.3196 17.2083 12.8752C16.5416 14.4863 15.5902 15.896 14.3541 17.1043C13.118 18.3127 11.6666 19.2085 9.99992 19.7918C9.99992 22.5696 10.9721 24.9654 12.9166 26.9793C14.861 28.9932 17.2221 30.0002 19.9999 30.0002ZM10.1666 18.4585C11.4721 17.9029 12.7985 16.9585 14.1458 15.6252C15.493 14.2918 16.2777 12.6113 16.4999 10.5835C14.7777 11.2224 13.361 12.2363 12.2499 13.6252C11.1388 15.0141 10.4444 16.6252 10.1666 18.4585ZM16.258 22.7918C15.8189 22.7918 15.4508 22.6433 15.1538 22.3463C14.8568 22.0493 14.7083 21.6812 14.7083 21.2421C14.7083 20.803 14.8568 20.4238 15.1538 20.1043C15.4508 19.7849 15.8189 19.6252 16.258 19.6252C16.697 19.6252 17.0763 19.7849 17.3958 20.1043C17.7152 20.4238 17.8749 20.803 17.8749 21.2421C17.8749 21.6812 17.7152 22.0493 17.3958 22.3463C17.0763 22.6433 16.697 22.7918 16.258 22.7918ZM26.8749 16.3335C27.2916 16.3335 27.6874 16.3127 28.0624 16.271C28.4374 16.2293 28.8194 16.1529 29.2083 16.0418C28.4027 14.1529 27.1596 12.6738 25.4791 11.6043C23.7985 10.5349 21.9721 10.0002 19.9999 10.0002C19.4444 10.0002 18.9374 10.0279 18.4791 10.0835C18.0208 10.1391 17.5555 10.2363 17.0833 10.3752C18.111 12.4585 19.5624 13.9724 21.4374 14.9168C23.3124 15.8613 25.1249 16.3335 26.8749 16.3335ZM23.758 22.7918C23.3189 22.7918 22.9508 22.6433 22.6538 22.3463C22.3568 22.0493 22.2083 21.6812 22.2083 21.2421C22.2083 20.803 22.3568 20.4238 22.6538 20.1043C22.9508 19.7849 23.3189 19.6252 23.758 19.6252C24.197 19.6252 24.5763 19.7849 24.8958 20.1043C25.2152 20.4238 25.3749 20.803 25.3749 21.2421C25.3749 21.6812 25.2152 22.0493 24.8958 22.3463C24.5763 22.6433 24.197 22.7918 23.758 22.7918ZM3.83325 10.0002V6.3335C3.83325 5.61127 4.06936 5.01405 4.54159 4.54183C5.01381 4.06961 5.61103 3.8335 6.33325 3.8335H9.99992V5.00016H6.33325C5.99992 5.00016 5.69436 5.13905 5.41659 5.41683C5.13881 5.69461 4.99992 6.00016 4.99992 6.3335V10.0002H3.83325ZM9.99992 36.1668H6.33325C5.61103 36.1668 5.01381 35.9307 4.54159 35.4585C4.06936 34.9863 3.83325 34.389 3.83325 33.6668V30.0002H4.99992V33.6668C4.99992 34.0002 5.13881 34.3057 5.41659 34.5835C5.69436 34.8613 5.99992 35.0002 6.33325 35.0002H9.99992V36.1668ZM29.9999 36.1668V35.0002H33.6666C33.9999 35.0002 34.3055 34.8613 34.5833 34.5835C34.861 34.3057 34.9999 34.0002 34.9999 33.6668V30.0002H36.1666V33.6668C36.1666 34.389 35.9305 34.9863 35.4583 35.4585C34.986 35.9307 34.3888 36.1668 33.6666 36.1668H29.9999ZM34.9999 10.0002V6.3335C34.9999 6.00016 34.861 5.69461 34.5833 5.41683C34.3055 5.13905 33.9999 5.00016 33.6666 5.00016H29.9999V3.8335H33.6666C34.3888 3.8335 34.986 4.06961 35.4583 4.54183C35.9305 5.01405 36.1666 5.61127 36.1666 6.3335V10.0002H34.9999Z" fill="#303345"/>
</svg>
