<svg width="40" height="40" viewBox="0 0 40 40" fill="none" xmlns="http://www.w3.org/2000/svg">
<path d="M11.3336 34.5C10.6114 34.5 10.0142 34.2639 9.54195 33.7917C9.06973 33.3195 8.83362 32.7223 8.83362 32V8.00003C8.83362 7.27781 9.06973 6.68059 9.54195 6.20836C10.0142 5.73614 10.6114 5.50003 11.3336 5.50003H24.417L31.167 12.25V24.4167H30.0003V12.8334H23.8336V6.6667H11.3336C11.0003 6.6667 10.6947 6.80559 10.417 7.08336C10.1392 7.36114 10.0003 7.6667 10.0003 8.00003V32C10.0003 32.3334 10.1392 32.6389 10.417 32.9167C10.6947 33.1945 11.0003 33.3334 11.3336 33.3334H26.0836V34.5H11.3336ZM36.5836 35.75L30.5836 29.75V35.0417H29.417V27.75H36.7086V28.9167H31.3753L37.3753 34.9167L36.5836 35.75Z" fill="#303345"/>
</svg>
