<svg width="40" height="40" viewBox="0 0 40 40" fill="none" xmlns="http://www.w3.org/2000/svg">
<path d="M30.3332 29.5001H14.6665C13.9443 29.5001 13.3471 29.264 12.8749 28.7918C12.4027 28.3196 12.1665 27.7224 12.1665 27.0001V6.33347C12.1665 5.61124 12.4027 5.01402 12.8749 4.5418C13.3471 4.06958 13.9443 3.83347 14.6665 3.83347H26.0832L32.8332 10.5835V27.0001C32.8332 27.7224 32.5971 28.3196 32.1249 28.7918C31.6527 29.264 31.0554 29.5001 30.3332 29.5001ZM25.4999 11.1668V5.00013H14.6665C14.3332 5.00013 14.0277 5.13902 13.7499 5.4168C13.4721 5.69458 13.3332 6.00013 13.3332 6.33347V27.0001C13.3332 27.3335 13.4721 27.639 13.7499 27.9168C14.0277 28.1946 14.3332 28.3335 14.6665 28.3335H30.3332C30.6665 28.3335 30.9721 28.1946 31.2499 27.9168C31.5277 27.639 31.6665 27.3335 31.6665 27.0001V11.1668H25.4999ZM7.99988 36.1668C7.27766 36.1668 6.68043 35.9307 6.20821 35.4585C5.73599 34.9862 5.49988 34.389 5.49988 33.6668V13.8335H6.66654V33.6668C6.66654 34.0001 6.80543 34.3057 7.08321 34.5835C7.36099 34.8612 7.66654 35.0001 7.99988 35.0001H22.8332V36.1668H7.99988Z" fill="#303345"/>
</svg>
