<svg width="40" height="40" viewBox="0 0 40 40" fill="none" xmlns="http://www.w3.org/2000/svg">
<path d="M20.708 18.9165V5.49987C20.708 5.33459 20.764 5.19605 20.8761 5.08424C20.9882 4.97244 21.1271 4.91653 21.2928 4.91653C21.4585 4.91653 21.5969 4.97244 21.708 5.08424C21.8191 5.19605 21.8747 5.33459 21.8747 5.49987V18.9165H20.708ZM14.7497 18.9165V7.16653C14.7497 7.00126 14.8057 6.86272 14.9178 6.75091C15.0299 6.6391 15.1688 6.5832 15.3345 6.5832C15.5002 6.5832 15.6386 6.6391 15.7497 6.75091C15.8608 6.86272 15.9163 7.00126 15.9163 7.16653V18.9165H14.7497ZM20.8413 36.1665C17.5024 36.1665 14.6663 35.0018 12.333 32.6724C9.99967 30.343 8.83301 27.5077 8.83301 24.1665V9.41653C8.83301 9.25126 8.88905 9.11272 9.00113 9.00091C9.11322 8.88911 9.25211 8.8332 9.4178 8.8332C9.58349 8.8332 9.7219 8.88911 9.83301 9.00091C9.94412 9.11272 9.99967 9.25126 9.99967 9.41653V24.1665C9.99967 27.1943 11.0483 29.7568 13.1455 31.854C15.2427 33.9513 17.8052 34.9999 20.833 34.9999C23.8608 34.9999 26.4233 33.9513 28.5205 31.854C30.6177 29.7568 31.6663 27.1943 31.6663 24.1665V17.2499H30.583C29.833 17.2499 29.1872 17.5207 28.6455 18.0624C28.1038 18.604 27.833 19.2499 27.833 19.9999V24.3332H25.1663C23.9163 24.3332 22.8677 24.7568 22.0205 25.604C21.1733 26.4513 20.7497 27.4999 20.7497 28.7499V29.3332H19.583V28.7499C19.583 27.1943 20.1247 25.8749 21.208 24.7915C22.2913 23.7082 23.6108 23.1665 25.1663 23.1665H26.6663V8.8332C26.6663 8.66792 26.7224 8.52938 26.8345 8.41758C26.9465 8.30577 27.0854 8.24987 27.2511 8.24987C27.4168 8.24987 27.5552 8.30577 27.6663 8.41758C27.7775 8.52938 27.833 8.66792 27.833 8.8332V17.2082C28.1941 16.8471 28.6078 16.5693 29.074 16.3749C29.5402 16.1804 30.0432 16.0832 30.583 16.0832H32.833V24.1665C32.833 27.5077 31.6691 30.343 29.3413 32.6724C27.0135 35.0018 24.1802 36.1665 20.8413 36.1665Z" fill="#303345"/>
</svg>
