<svg width="40" height="40" viewBox="0 0 40 40" fill="none" xmlns="http://www.w3.org/2000/svg">
<path d="M7.74999 18.8335H32.2083L31.75 11.2501C31.7222 10.889 31.5833 10.5904 31.3333 10.3543C31.0833 10.1182 30.7778 10.0001 30.4167 10.0001H9.58333C9.22221 10.0001 8.91666 10.1182 8.66666 10.3543C8.41666 10.5904 8.27777 10.889 8.24999 11.2501L7.74999 18.8335ZM8.58333 28.6668H31.375C31.7639 28.6668 32.1042 28.5279 32.3958 28.2501C32.6875 27.9724 32.8194 27.639 32.7917 27.2501L32.2917 20.0001H7.66666L7.20833 27.2501C7.18055 27.639 7.30555 27.9724 7.58333 28.2501C7.8611 28.5279 8.19444 28.6668 8.58333 28.6668ZM9.83333 31.1668L9.41666 29.8335H8.54166C7.81944 29.8335 7.20833 29.5696 6.70833 29.0418C6.20833 28.514 5.9861 27.889 6.04166 27.1668L7.08333 11.1668C7.13888 10.5001 7.40277 9.94458 7.87499 9.50013C8.34721 9.05569 8.91666 8.83347 9.58333 8.83347H30.4167C31.0833 8.83347 31.6528 9.05569 32.125 9.50013C32.5972 9.94458 32.8611 10.5001 32.9167 11.1668L33.9583 27.1668C34.0139 27.889 33.7917 28.514 33.2917 29.0418C32.7917 29.5696 32.1805 29.8335 31.4583 29.8335H30.5833L30.1667 31.1668H9.83333Z" fill="#303345"/>
</svg>
