<svg width="40" height="40" viewBox="0 0 40 40" fill="none" xmlns="http://www.w3.org/2000/svg">
<path d="M21.2501 18.5834C21.8056 18.0001 22.1806 17.3195 22.3751 16.5417C22.5695 15.764 22.6667 14.9723 22.6667 14.1667C22.6667 13.3612 22.5695 12.5695 22.3751 11.7917C22.1806 11.014 21.8056 10.3334 21.2501 9.75008C22.389 9.83341 23.3265 10.2987 24.0626 11.1459C24.7987 11.9931 25.1667 13.0001 25.1667 14.1667C25.1667 15.3334 24.7987 16.3404 24.0626 17.1876C23.3265 18.0348 22.389 18.5001 21.2501 18.5834ZM29.3334 30.3334V28.1667C29.3334 27.4044 29.2084 26.679 28.9584 25.9908C28.7084 25.3025 28.2779 24.7501 27.6667 24.3334C28.7223 24.639 29.6806 25.0973 30.5417 25.7084C31.4029 26.3195 31.8334 27.139 31.8334 28.1667V30.3334H29.3334ZM31.8334 20.5834V17.2501H28.5001V16.0834H31.8334V12.7501H33.0001V16.0834H36.3334V17.2501H33.0001V20.5834H31.8334ZM14.8334 18.6667C13.5959 18.6667 12.5365 18.2261 11.6553 17.3449C10.774 16.4636 10.3334 15.4042 10.3334 14.1667C10.3334 12.9292 10.774 11.8699 11.6553 10.9886C12.5365 10.1074 13.5959 9.66675 14.8334 9.66675C16.0709 9.66675 17.1303 10.1074 18.0115 10.9886C18.8928 11.8699 19.3334 12.9292 19.3334 14.1667C19.3334 15.4042 18.8928 16.4636 18.0115 17.3449C17.1303 18.2261 16.0709 18.6667 14.8334 18.6667ZM3.66675 30.3334V28.1667C3.66675 27.5556 3.85425 26.9792 4.22925 26.4376C4.60425 25.8959 5.11119 25.4723 5.75008 25.1667C7.27786 24.4445 8.79869 23.9029 10.3126 23.5417C11.8265 23.1806 13.3334 23.0001 14.8334 23.0001C16.3334 23.0001 17.8404 23.1806 19.3542 23.5417C20.8681 23.9029 22.389 24.4445 23.9167 25.1667C24.5556 25.4723 25.0626 25.8959 25.4376 26.4376C25.8126 26.9792 26.0001 27.5556 26.0001 28.1667V30.3334H3.66675ZM14.8334 17.5001C15.7501 17.5001 16.5348 17.1737 17.1876 16.5209C17.8404 15.8681 18.1667 15.0834 18.1667 14.1667C18.1667 13.2501 17.8404 12.4654 17.1876 11.8126C16.5348 11.1598 15.7501 10.8334 14.8334 10.8334C13.9167 10.8334 13.132 11.1598 12.4792 11.8126C11.8265 12.4654 11.5001 13.2501 11.5001 14.1667C11.5001 15.0834 11.8265 15.8681 12.4792 16.5209C13.132 17.1737 13.9167 17.5001 14.8334 17.5001ZM4.83341 29.1667H24.8334V28.1667C24.8334 27.7779 24.7015 27.4098 24.4376 27.0626C24.1737 26.7154 23.8056 26.4167 23.3334 26.1667C22.0001 25.5279 20.6155 25.0348 19.1798 24.6876C17.744 24.3404 16.2952 24.1667 14.8334 24.1667C13.3716 24.1667 11.9228 24.3404 10.487 24.6876C9.05129 25.0348 7.66675 25.5279 6.33341 26.1667C5.86119 26.4167 5.49314 26.7154 5.22925 27.0626C4.96536 27.4098 4.83341 27.7779 4.83341 28.1667V29.1667Z" fill="#303345"/>
</svg>
