<svg width="40" height="40" viewBox="0 0 40 40" fill="none" xmlns="http://www.w3.org/2000/svg">
<path d="M21.25 18.5834C21.8055 18 22.1805 17.3195 22.375 16.5417C22.5694 15.7639 22.6666 14.9722 22.6666 14.1667C22.6666 13.3611 22.5694 12.5695 22.375 11.7917C22.1805 11.0139 21.8055 10.3334 21.25 9.75002C22.3888 9.83335 23.3263 10.2986 24.0625 11.1459C24.7986 11.9931 25.1666 13 25.1666 14.1667C25.1666 15.3334 24.7986 16.3403 24.0625 17.1875C23.3263 18.0347 22.3888 18.5 21.25 18.5834ZM29.3333 30.3334V28.1667C29.3333 27.4043 29.2083 26.679 28.9583 25.9907C28.7083 25.3025 28.2777 24.75 27.6666 24.3334C28.7222 24.6389 29.6805 25.0972 30.5416 25.7084C31.4027 26.3195 31.8333 27.1389 31.8333 28.1667V30.3334H29.3333ZM31.8333 17.25H28.5V16.0834H31.8333H33H36.3333V17.25H33H31.8333ZM14.8333 18.6667C13.5958 18.6667 12.5364 18.2261 11.6552 17.3448C10.7739 16.4636 10.3333 15.4042 10.3333 14.1667C10.3333 12.9292 10.7739 11.8698 11.6552 10.9886C12.5364 10.1073 13.5958 9.66669 14.8333 9.66669C16.0708 9.66669 17.1302 10.1073 18.0114 10.9886C18.8927 11.8698 19.3333 12.9292 19.3333 14.1667C19.3333 15.4042 18.8927 16.4636 18.0114 17.3448C17.1302 18.2261 16.0708 18.6667 14.8333 18.6667ZM3.66663 30.3334V28.1667C3.66663 27.5556 3.85413 26.9792 4.22913 26.4375C4.60413 25.8959 5.11107 25.4722 5.74996 25.1667C7.27774 24.4445 8.79857 23.9028 10.3125 23.5417C11.8263 23.1806 13.3333 23 14.8333 23C16.3333 23 17.8402 23.1806 19.3541 23.5417C20.868 23.9028 22.3888 24.4445 23.9166 25.1667C24.5555 25.4722 25.0625 25.8959 25.4375 26.4375C25.8125 26.9792 26 27.5556 26 28.1667V30.3334H3.66663ZM14.8333 17.5C15.75 17.5 16.5347 17.1736 17.1875 16.5209C17.8402 15.8681 18.1666 15.0834 18.1666 14.1667C18.1666 13.25 17.8402 12.4653 17.1875 11.8125C16.5347 11.1597 15.75 10.8334 14.8333 10.8334C13.9166 10.8334 13.1319 11.1597 12.4791 11.8125C11.8263 12.4653 11.5 13.25 11.5 14.1667C11.5 15.0834 11.8263 15.8681 12.4791 16.5209C13.1319 17.1736 13.9166 17.5 14.8333 17.5ZM4.83329 29.1667H24.8333V28.1667C24.8333 27.7778 24.7013 27.4097 24.4375 27.0625C24.1736 26.7153 23.8055 26.4167 23.3333 26.1667C22 25.5278 20.6154 25.0347 19.1797 24.6875C17.7439 24.3403 16.2951 24.1667 14.8333 24.1667C13.3715 24.1667 11.9227 24.3403 10.4869 24.6875C9.05117 25.0347 7.66663 25.5278 6.33329 26.1667C5.86107 26.4167 5.49301 26.7153 5.22913 27.0625C4.96524 27.4097 4.83329 27.7778 4.83329 28.1667V29.1667Z" fill="#303345"/>
</svg>
