<svg width="40" height="40" viewBox="0 0 40 40" fill="none" xmlns="http://www.w3.org/2000/svg">
<path d="M5.125 30.3334V28.1667C5.125 27.4445 5.3125 26.8404 5.6875 26.3542C6.0625 25.8681 6.56868 25.4711 7.20604 25.1631C8.56868 24.5267 9.90972 24.007 11.2292 23.6042C12.5486 23.2015 14.2361 23.0001 16.2917 23.0001C18.3472 23.0001 20.0347 23.2015 21.3542 23.6042C22.6736 24.007 24.0147 24.5267 25.3773 25.1631C26.0147 25.4711 26.5208 25.8681 26.8958 26.3542C27.2708 26.8404 27.4583 27.4445 27.4583 28.1667V30.3334H5.125ZM30.7917 30.3334V28.1667C30.7917 27.2779 30.6396 26.4448 30.3355 25.6675C30.0315 24.8902 29.6002 24.2233 29.0417 23.6667C29.6806 23.8334 30.3056 24.0487 30.9167 24.3126C31.5278 24.5765 32.1528 24.8612 32.7917 25.1667C33.4306 25.4723 33.9375 25.8912 34.3125 26.4234C34.6875 26.9557 34.875 27.5368 34.875 28.1667V30.3334H30.7917ZM16.2917 18.6667C15.0542 18.6667 13.9948 18.2261 13.1135 17.3449C12.2323 16.4636 11.7917 15.4042 11.7917 14.1667C11.7917 12.9292 12.2323 11.8699 13.1135 10.9886C13.9948 10.1074 15.0542 9.66675 16.2917 9.66675C17.5292 9.66675 18.5885 10.1074 19.4698 10.9886C20.351 11.8699 20.7917 12.9292 20.7917 14.1667C20.7917 15.4042 20.351 16.4636 19.4698 17.3449C18.5885 18.2261 17.5292 18.6667 16.2917 18.6667ZM27.0417 14.1667C27.0417 15.4042 26.601 16.4636 25.7198 17.3449C24.8385 18.2261 23.7792 18.6667 22.5417 18.6667C23.0506 18.0344 23.4417 17.333 23.715 16.5624C23.9883 15.7918 24.125 14.9915 24.125 14.1616C24.125 13.3317 23.9792 12.5417 23.6875 11.7917C23.3958 11.0417 23.0139 10.3334 22.5417 9.66675C23.7792 9.66675 24.8385 10.1074 25.7198 10.9886C26.601 11.8699 27.0417 12.9292 27.0417 14.1667ZM6.29167 29.1667H26.2917V28.1667C26.2917 27.7501 26.1875 27.389 25.9792 27.0834C25.7708 26.7779 25.375 26.4723 24.7917 26.1667C23.625 25.5279 22.375 25.0348 21.0417 24.6876C19.7083 24.3404 18.125 24.1667 16.2917 24.1667C14.4583 24.1667 12.875 24.3404 11.5417 24.6876C10.2083 25.0348 8.95833 25.5279 7.79167 26.1667C7.20833 26.4723 6.8125 26.7779 6.60417 27.0834C6.39583 27.389 6.29167 27.7501 6.29167 28.1667V29.1667ZM16.2917 17.5001C17.2083 17.5001 17.9931 17.1737 18.6458 16.5209C19.2986 15.8681 19.625 15.0834 19.625 14.1667C19.625 13.2501 19.2986 12.4654 18.6458 11.8126C17.9931 11.1598 17.2083 10.8334 16.2917 10.8334C15.375 10.8334 14.5903 11.1598 13.9375 11.8126C13.2847 12.4654 12.9583 13.2501 12.9583 14.1667C12.9583 15.0834 13.2847 15.8681 13.9375 16.5209C14.5903 17.1737 15.375 17.5001 16.2917 17.5001Z" fill="#303345"/>
</svg>
