<svg width="40" height="40" viewBox="0 0 40 40" fill="none" xmlns="http://www.w3.org/2000/svg">
<path d="M19.4163 33.2084C19.6663 33.2084 19.9233 33.1528 20.1872 33.0417C20.4511 32.9306 20.6663 32.7917 20.833 32.625L33.6247 19.8334C34.0691 19.3889 34.4163 18.9445 34.6663 18.5C34.9163 18.0556 35.0413 17.5556 35.0413 17C35.0413 16.4445 34.9163 15.9028 34.6663 15.375C34.4163 14.8473 34.0691 14.3612 33.6247 13.9167L27.6247 7.91671C27.1802 7.47226 26.7358 7.14587 26.2913 6.93754C25.8469 6.72921 25.3469 6.62504 24.7913 6.62504C24.2358 6.62504 23.7288 6.72921 23.2705 6.93754C22.8122 7.14587 22.3747 7.47226 21.958 7.91671L20.208 9.66671L23.2913 12.75C23.5969 13.0556 23.8261 13.4028 23.9788 13.7917C24.1316 14.1806 24.208 14.5695 24.208 14.9584C24.208 15.7362 23.958 16.375 23.458 16.875C22.958 17.375 22.3191 17.625 21.5413 17.625C21.1525 17.625 20.7705 17.5695 20.3955 17.4584C20.0205 17.3473 19.6802 17.1389 19.3747 16.8334L16.1663 13.625L8.99967 20.7917C8.80523 20.9862 8.6594 21.2084 8.56217 21.4584C8.46495 21.7084 8.41634 21.9584 8.41634 22.2084C8.41634 22.6528 8.55523 23.0139 8.83301 23.2917C9.11079 23.5695 9.4719 23.7084 9.91634 23.7084C10.1663 23.7084 10.4233 23.6528 10.6872 23.5417C10.9511 23.4306 11.1663 23.2917 11.333 23.125L16.4997 17.9584L17.333 18.7917L12.1663 23.9584C11.9719 24.1528 11.8261 24.375 11.7288 24.625C11.6316 24.875 11.583 25.125 11.583 25.375C11.583 25.7917 11.7288 26.1459 12.0205 26.4375C12.3122 26.7292 12.6663 26.875 13.083 26.875C13.333 26.875 13.59 26.8195 13.8538 26.7084C14.1177 26.5973 14.333 26.4584 14.4997 26.2917L20.1663 20.625L20.9997 21.4584L15.333 27.125C15.1663 27.2917 15.0275 27.507 14.9163 27.7709C14.8052 28.0348 14.7497 28.2917 14.7497 28.5417C14.7497 28.9584 14.8955 29.3125 15.1872 29.6042C15.4788 29.8959 15.833 30.0417 16.2497 30.0417C16.4997 30.0417 16.7497 29.9931 16.9997 29.8959C17.2497 29.7987 17.4719 29.6528 17.6663 29.4584L23.333 23.7917L24.1663 24.625L18.4997 30.2917C18.3052 30.4862 18.1594 30.7223 18.0622 31C17.965 31.2778 17.9163 31.5278 17.9163 31.75C17.9163 32.1945 18.0691 32.5487 18.3747 32.8125C18.6802 33.0764 19.0275 33.2084 19.4163 33.2084ZM19.4163 34.375C18.6108 34.375 17.9302 34.0695 17.3747 33.4584C16.8191 32.8473 16.6108 32.0973 16.7497 31.2084C15.8052 31.2639 15.0205 31.0139 14.3955 30.4584C13.7705 29.9028 13.4997 29.0973 13.583 28.0417C12.5275 28.0973 11.708 27.8334 11.1247 27.25C10.5413 26.6667 10.3052 25.875 10.4163 24.875C9.52745 24.9306 8.77745 24.7292 8.16634 24.2709C7.55523 23.8125 7.24967 23.125 7.24967 22.2084C7.24967 21.8195 7.32606 21.4237 7.47884 21.0209C7.63162 20.6181 7.86079 20.2639 8.16634 19.9584L16.1663 11.9584L20.1247 15.9167C20.2913 16.0834 20.4927 16.2223 20.7288 16.3334C20.965 16.4445 21.2358 16.5 21.5413 16.5C21.9302 16.5 22.2775 16.3612 22.583 16.0834C22.8886 15.8056 23.0413 15.4445 23.0413 15C23.0413 14.6945 22.9858 14.4237 22.8747 14.1875C22.7636 13.9514 22.6247 13.75 22.458 13.5834L16.7913 7.91671C16.3469 7.47226 15.8955 7.14587 15.4372 6.93754C14.9788 6.72921 14.4719 6.62504 13.9163 6.62504C13.3608 6.62504 12.8677 6.72921 12.4372 6.93754C12.0066 7.14587 11.5691 7.47226 11.1247 7.91671L6.29134 12.75C5.90245 13.1389 5.58995 13.6042 5.35384 14.1459C5.11773 14.6875 4.99967 15.25 4.99967 15.8334C4.99967 16.2223 5.04134 16.5903 5.12467 16.9375C5.20801 17.2848 5.33301 17.6112 5.49967 17.9167L4.58301 18.8334C4.36079 18.4445 4.18023 17.9862 4.04134 17.4584C3.90245 16.9306 3.83301 16.3889 3.83301 15.8334C3.83301 15.0834 3.9719 14.3681 4.24967 13.6875C4.52745 13.007 4.93023 12.4028 5.45801 11.875L10.2497 7.08337C10.8052 6.52782 11.3816 6.1181 11.9788 5.85421C12.5761 5.59032 13.2358 5.45837 13.958 5.45837C14.6802 5.45837 15.333 5.59032 15.9163 5.85421C16.4997 6.1181 17.0691 6.52782 17.6247 7.08337L19.3747 8.83337L21.1247 7.08337C21.6802 6.52782 22.2497 6.1181 22.833 5.85421C23.4163 5.59032 24.0691 5.45837 24.7913 5.45837C25.5136 5.45837 26.1733 5.59032 26.7705 5.85421C27.3677 6.1181 27.9441 6.52782 28.4997 7.08337L34.458 13.0417C35.0136 13.5973 35.4441 14.2153 35.7497 14.8959C36.0552 15.5764 36.208 16.2778 36.208 17C36.208 17.7223 36.0552 18.375 35.7497 18.9584C35.4441 19.5417 35.0136 20.1112 34.458 20.6667L21.6663 33.4584C21.333 33.7917 20.9788 34.0278 20.6038 34.1667C20.2288 34.3056 19.833 34.375 19.4163 34.375Z" fill="#303345"/>
</svg>
