<svg width="40" height="40" viewBox="0 0 40 40" fill="none" xmlns="http://www.w3.org/2000/svg">
<path d="M30.5835 34.4584C30.4168 34.4584 30.264 34.4306 30.1252 34.3751C29.9863 34.3195 29.8474 34.2223 29.7085 34.0834L21.4585 25.8751C21.3196 25.7362 21.2224 25.5973 21.1668 25.4584C21.1113 25.3195 21.0835 25.1667 21.0835 25.0001C21.0835 24.8334 21.1113 24.6806 21.1668 24.5417C21.2224 24.4029 21.3196 24.264 21.4585 24.1251L24.0002 21.5834C24.1391 21.4445 24.2779 21.3473 24.4168 21.2917C24.5557 21.2362 24.7085 21.2084 24.8752 21.2084C25.0418 21.2084 25.1946 21.2362 25.3335 21.2917C25.4724 21.3473 25.6113 21.4445 25.7502 21.5834L34.0002 29.8334C34.139 29.9723 34.2363 30.1112 34.2918 30.2501C34.3474 30.389 34.3752 30.5417 34.3752 30.7084C34.3752 30.8751 34.3474 31.0279 34.2918 31.1667C34.2363 31.3056 34.139 31.4445 34.0002 31.5834L31.4585 34.0834C31.3196 34.2223 31.1807 34.3195 31.0418 34.3751C30.9029 34.4306 30.7502 34.4584 30.5835 34.4584ZM30.5835 33.3751L33.2502 30.7084L24.8752 22.3334L22.2085 25.0001L30.5835 33.3751ZM9.37516 34.4584C9.2085 34.4584 9.05572 34.4306 8.91683 34.3751C8.77794 34.3195 8.63905 34.2223 8.50016 34.0834L5.9585 31.5834C5.81961 31.4445 5.72238 31.3056 5.66683 31.1667C5.61127 31.0279 5.5835 30.8751 5.5835 30.7084C5.5835 30.5417 5.61127 30.382 5.66683 30.2292C5.72238 30.0765 5.81961 29.9306 5.9585 29.7917L14.4585 21.2917H17.9168L19.1668 20.0417L12.0418 12.9167H9.66683L5.7085 8.95842L8.91683 5.75008L12.8752 9.70842V12.0834L20.0002 19.2084L25.0835 14.1251L21.6252 10.6667L23.3752 8.91675H19.8752L19.3335 8.41675L23.7085 4.04175L24.2085 4.54175V8.08342L25.9585 6.33341L32.7918 13.0834C33.1807 13.4445 33.4654 13.8612 33.646 14.3334C33.8265 14.8056 33.9168 15.3056 33.9168 15.8334C33.9168 16.1667 33.8752 16.4931 33.7918 16.8126C33.7085 17.132 33.5835 17.4445 33.4168 17.7501L30.0418 14.3751L27.6668 16.7501L25.8752 14.9584L18.7085 22.1251V25.6667L10.2502 34.0834C10.1113 34.2223 9.97238 34.3195 9.8335 34.3751C9.69461 34.4306 9.54183 34.4584 9.37516 34.4584ZM9.37516 33.3334L17.9168 24.7917V22.1251H15.2502L6.7085 30.6667L9.37516 33.3334ZM9.37516 33.3334L6.7085 30.6667L8.04183 32.0001L9.37516 33.3334Z" fill="#303345"/>
</svg>
