<svg width="40" height="40" viewBox="0 0 40 40" fill="none" xmlns="http://www.w3.org/2000/svg">
<path d="M20.0857 28.3333C20.3897 28.3333 20.6458 28.2284 20.8542 28.0185C21.0625 27.8086 21.1667 27.5516 21.1667 27.2477C21.1667 26.9437 21.0617 26.6875 20.8518 26.4792C20.6419 26.2708 20.385 26.1667 20.081 26.1667C19.777 26.1667 19.5208 26.2716 19.3125 26.4815C19.1042 26.6914 19 26.9484 19 27.2523C19 27.5563 19.1049 27.8125 19.3148 28.0208C19.5248 28.2292 19.7817 28.3333 20.0857 28.3333ZM19.4167 23.0833H20.5833C20.6389 22.4167 20.7847 21.8681 21.0208 21.4375C21.2569 21.0069 21.6944 20.4722 22.3333 19.8333C23.0833 19.0833 23.6319 18.4236 23.9792 17.8542C24.3264 17.2847 24.5 16.6344 24.5 15.9031C24.5 14.6621 24.0708 13.6597 23.2125 12.8958C22.3543 12.1319 21.339 11.75 20.1667 11.75C19.0833 11.75 18.1458 12.0486 17.3542 12.6458C16.5625 13.2431 15.9722 13.9167 15.5833 14.6667L16.75 15.1667C17.0556 14.5278 17.4583 13.9931 17.9583 13.5625C18.4583 13.1319 19.1667 12.9167 20.0833 12.9167C21.2222 12.9167 22.0486 13.2292 22.5625 13.8542C23.0764 14.4792 23.3333 15.1667 23.3333 15.9167C23.3333 16.5 23.1806 17.0139 22.875 17.4583C22.5694 17.9028 22.1667 18.3611 21.6667 18.8333C20.7778 19.6667 20.1806 20.4028 19.875 21.0417C19.5694 21.6806 19.4167 22.3611 19.4167 23.0833ZM20.0073 34.5C18.0024 34.5 16.1172 34.1196 14.3517 33.3587C12.5862 32.5978 11.0505 31.5652 9.74446 30.2609C8.43849 28.9565 7.40458 27.4227 6.64275 25.6594C5.88092 23.8961 5.5 22.0121 5.5 20.0073C5.5 18.0024 5.88043 16.1173 6.64129 14.3518C7.40218 12.5862 8.43479 11.0505 9.73913 9.7445C11.0435 8.4385 12.5773 7.40458 14.3406 6.64275C16.1039 5.88092 17.9879 5.5 19.9928 5.5C21.9976 5.5 23.8827 5.88043 25.6483 6.64129C27.4138 7.40218 28.9495 8.43479 30.2555 9.73913C31.5615 11.0435 32.5954 12.5773 33.3573 14.3406C34.1191 16.1039 34.5 17.9879 34.5 19.9928C34.5 21.9976 34.1196 23.8828 33.3587 25.6483C32.5978 27.4138 31.5652 28.9495 30.2609 30.2555C28.9565 31.5615 27.4227 32.5954 25.6594 33.3573C23.8961 34.1191 22.0121 34.5 20.0073 34.5ZM20 33.3333C23.7222 33.3333 26.875 32.0417 29.4583 29.4583C32.0417 26.875 33.3333 23.7222 33.3333 20C33.3333 16.2778 32.0417 13.125 29.4583 10.5417C26.875 7.95833 23.7222 6.66667 20 6.66667C16.2778 6.66667 13.125 7.95833 10.5417 10.5417C7.95833 13.125 6.66667 16.2778 6.66667 20C6.66667 23.7222 7.95833 26.875 10.5417 29.4583C13.125 32.0417 16.2778 33.3333 20 33.3333Z" fill="#303345"/>
</svg>
