<svg width="40" height="40" viewBox="0 0 40 40" fill="none" xmlns="http://www.w3.org/2000/svg">
<path d="M19.9167 32.8334C16.6667 32.8334 13.8334 31.7779 11.4167 29.6667C9.00004 27.5556 7.59726 24.889 7.20837 21.6667H8.37504C8.84726 24.5279 10.1598 26.9098 12.3125 28.8126C14.4653 30.7154 17 31.6667 19.9167 31.6667C23.1667 31.6667 25.9237 30.5348 28.1875 28.2709C30.4514 26.007 31.5834 23.2501 31.5834 20.0001C31.5834 16.7501 30.4514 13.9931 28.1875 11.7292C25.9237 9.46536 23.1667 8.33341 19.9167 8.33341C18.25 8.33341 16.6806 8.67369 15.2084 9.35425C13.7362 10.0348 12.4167 10.9723 11.25 12.1667H15.25V13.3334H9.25004V7.33341H10.4167V11.3334C11.6667 10.0279 13.1112 9.00703 14.75 8.27091C16.3889 7.5348 18.1112 7.16675 19.9167 7.16675C21.6945 7.16675 23.3612 7.50008 24.9167 8.16675C26.4723 8.83341 27.8334 9.75008 29 10.9167C30.1667 12.0834 31.0834 13.4445 31.75 15.0001C32.4167 16.5556 32.75 18.2223 32.75 20.0001C32.75 21.7779 32.4167 23.4445 31.75 25.0001C31.0834 26.5556 30.1667 27.9167 29 29.0834C27.8334 30.2501 26.4723 31.1667 24.9167 31.8334C23.3612 32.5001 21.6945 32.8334 19.9167 32.8334ZM25.4584 26.2501L19.4584 20.2501V11.6667H20.625V19.7501L26.2917 25.4167L25.4584 26.2501Z" fill="#303345"/>
</svg>
