<svg width="40" height="40" viewBox="0 0 40 40" fill="none" xmlns="http://www.w3.org/2000/svg">
<path d="M12.917 33.3334H27.0836V28.3334C27.0836 26.3334 26.4031 24.625 25.042 23.2084C23.6808 21.7917 22.0003 21.0834 20.0003 21.0834C18.0003 21.0834 16.3197 21.7917 14.9586 23.2084C13.5975 24.625 12.917 26.3334 12.917 28.3334V33.3334ZM20.0003 18.9167C22.0003 18.9167 23.6808 18.2084 25.042 16.7917C26.4031 15.375 27.0836 13.6667 27.0836 11.6667V6.6667H12.917V11.6667C12.917 13.6667 13.5975 15.375 14.9586 16.7917C16.3197 18.2084 18.0003 18.9167 20.0003 18.9167ZM8.83362 34.5V33.3334H11.7503V28.3334C11.7503 26.1667 12.4517 24.2709 13.8545 22.6459C15.2572 21.0209 17.0281 20.1389 19.167 20C17.0281 19.8334 15.2572 18.9445 13.8545 17.3334C12.4517 15.7223 11.7503 13.8334 11.7503 11.6667V6.6667H8.83362V5.50003H31.167V6.6667H28.2503V11.6667C28.2503 13.8334 27.5489 15.7223 26.1461 17.3334C24.7433 18.9445 22.9725 19.8334 20.8336 20C22.9725 20.1389 24.7433 21.0209 26.1461 22.6459C27.5489 24.2709 28.2503 26.1667 28.2503 28.3334V33.3334H31.167V34.5H8.83362Z" fill="#303345"/>
</svg>
