<svg width="40" height="40" viewBox="0 0 40 40" fill="none" xmlns="http://www.w3.org/2000/svg">
<path d="M18.4999 23.1668H28.1665V18.5001H18.4999V23.1668ZM17.3332 24.3335V17.3335H29.3332V24.3335H17.3332ZM7.99988 31.1668C7.27766 31.1668 6.68043 30.9307 6.20821 30.4585C5.73599 29.9862 5.49988 29.389 5.49988 28.6668V11.3335C5.49988 10.6112 5.73599 10.014 6.20821 9.5418C6.68043 9.06958 7.27766 8.83347 7.99988 8.83347H31.9999C32.7221 8.83347 33.3193 9.06958 33.7915 9.5418C34.2638 10.014 34.4999 10.6112 34.4999 11.3335V28.6668C34.4999 29.389 34.2638 29.9862 33.7915 30.4585C33.3193 30.9307 32.7221 31.1668 31.9999 31.1668H7.99988ZM7.99988 30.0001H31.9999C32.3332 30.0001 32.6388 29.8612 32.9165 29.5835C33.1943 29.3057 33.3332 29.0001 33.3332 28.6668V13.3335H6.66654V28.6668C6.66654 29.0001 6.80543 29.3057 7.08321 29.5835C7.36099 29.8612 7.66654 30.0001 7.99988 30.0001Z" fill="#303345"/>
</svg>
