<svg width="40" height="40" viewBox="0 0 40 40" fill="none" xmlns="http://www.w3.org/2000/svg">
<path d="M9.66614 32.8334C8.94392 32.8334 8.34669 32.5973 7.87447 32.1251C7.40225 31.6529 7.16614 31.0556 7.16614 30.3334V9.66675C7.16614 8.94453 7.40225 8.3473 7.87447 7.87508C8.34669 7.40286 8.94392 7.16675 9.66614 7.16675H30.3328C31.055 7.16675 31.6523 7.40286 32.1245 7.87508C32.5967 8.3473 32.8328 8.94453 32.8328 9.66675V30.3334C32.8328 31.0556 32.5967 31.6529 32.1245 32.1251C31.6523 32.5973 31.055 32.8334 30.3328 32.8334H9.66614ZM9.66614 31.6667H30.3328C30.6661 31.6667 30.9717 31.5279 31.2495 31.2501C31.5273 30.9723 31.6661 30.6667 31.6661 30.3334V9.66675C31.6661 9.33341 31.5273 9.02786 31.2495 8.75008C30.9717 8.4723 30.6661 8.33341 30.3328 8.33341H9.66614C9.3328 8.33341 9.02725 8.4723 8.74947 8.75008C8.47169 9.02786 8.3328 9.33341 8.3328 9.66675V30.3334C8.3328 30.6667 8.47169 30.9723 8.74947 31.2501C9.02725 31.5279 9.3328 31.6667 9.66614 31.6667ZM13.2495 27.2501H27.0828L22.8328 21.5834L18.6661 26.7501L15.9995 23.6667L13.2495 27.2501Z" fill="#303345"/>
</svg>
