<svg width="40" height="40" viewBox="0 0 40 40" fill="none" xmlns="http://www.w3.org/2000/svg">
<path d="M8 31.1668C7.27778 31.1668 6.68056 30.9307 6.20833 30.4585C5.73611 29.9862 5.5 29.389 5.5 28.6668V25.5835H6.66667V28.6668C6.66667 29.0001 6.80556 29.3057 7.08333 29.5835C7.36111 29.8612 7.66667 30.0001 8 30.0001H32C32.3333 30.0001 32.6389 29.8612 32.9167 29.5835C33.1944 29.3057 33.3333 29.0001 33.3333 28.6668V11.3335C33.3333 11.0001 33.1944 10.6946 32.9167 10.4168C32.6389 10.139 32.3333 10.0001 32 10.0001H8C7.66667 10.0001 7.36111 10.139 7.08333 10.4168C6.80556 10.6946 6.66667 11.0001 6.66667 11.3335V14.4168H5.5V11.3335C5.5 10.6112 5.73611 10.014 6.20833 9.5418C6.68056 9.06958 7.27778 8.83347 8 8.83347H32C32.7222 8.83347 33.3194 9.06958 33.7917 9.5418C34.2639 10.014 34.5 10.6112 34.5 11.3335V28.6668C34.5 29.389 34.2639 29.9862 33.7917 30.4585C33.3194 30.9307 32.7222 31.1668 32 31.1668H8ZM20 25.1668L19.1667 24.3335L22.9167 20.5835H5.5V19.4168H22.9167L19.1667 15.6668L20 14.8335L25.1667 20.0001L20 25.1668Z" fill="#303345"/>
</svg>
