<svg width="40" height="40" viewBox="0 0 40 40" fill="none" xmlns="http://www.w3.org/2000/svg">
<path d="M9.66667 34.5C8.97222 34.5 8.38194 34.257 7.89583 33.7709C7.40972 33.2848 7.16667 32.6945 7.16667 32V13.5417C6.69444 13.375 6.29861 13.0764 5.97917 12.6459C5.65972 12.2153 5.5 11.7223 5.5 11.1667V8.00003C5.5 7.30559 5.74306 6.71531 6.22917 6.2292C6.71528 5.74309 7.30556 5.50003 8 5.50003H32C32.6944 5.50003 33.2847 5.74309 33.7708 6.2292C34.2569 6.71531 34.5 7.30559 34.5 8.00003V11.1667C34.5 11.7223 34.3403 12.2153 34.0208 12.6459C33.7014 13.0764 33.3056 13.375 32.8333 13.5417V32C32.8333 32.6945 32.5903 33.2848 32.1042 33.7709C31.6181 34.257 31.0278 34.5 30.3333 34.5H9.66667ZM8.33333 13.6667V31.7917C8.33333 32.2361 8.49306 32.6042 8.8125 32.8959C9.13194 33.1875 9.52778 33.3334 10 33.3334H30.3333C30.7222 33.3334 31.0417 33.2084 31.2917 32.9584C31.5417 32.7084 31.6667 32.3889 31.6667 32V13.6667H8.33333ZM8 12.5H32C32.3889 12.5 32.7083 12.375 32.9583 12.125C33.2083 11.875 33.3333 11.5556 33.3333 11.1667V8.00003C33.3333 7.61114 33.2083 7.2917 32.9583 7.0417C32.7083 6.7917 32.3889 6.6667 32 6.6667H8C7.61111 6.6667 7.29167 6.7917 7.04167 7.0417C6.79167 7.2917 6.66667 7.61114 6.66667 8.00003V11.1667C6.66667 11.5556 6.79167 11.875 7.04167 12.125C7.29167 12.375 7.61111 12.5 8 12.5ZM15.8333 20.875H24.1667V20H15.8333V20.875Z" fill="#303345"/>
</svg>
