<svg width="40" height="40" viewBox="0 0 40 40" fill="none" xmlns="http://www.w3.org/2000/svg">
<path d="M12.1665 32.8334V31.6667H19.4165V26.6667H7.99988C7.27766 26.6667 6.68043 26.4306 6.20821 25.9584C5.73599 25.4862 5.49988 24.889 5.49988 24.1667V9.66675C5.49988 8.94453 5.73599 8.3473 6.20821 7.87508C6.68043 7.40286 7.27766 7.16675 7.99988 7.16675H31.9999C32.7221 7.16675 33.3193 7.40286 33.7915 7.87508C34.2638 8.3473 34.4999 8.94453 34.4999 9.66675V24.1667C34.4999 24.889 34.2638 25.4862 33.7915 25.9584C33.3193 26.4306 32.7221 26.6667 31.9999 26.6667H20.5832V31.6667H27.8332V32.8334H12.1665ZM6.66654 24.1667C6.66654 24.5001 6.80543 24.8056 7.08321 25.0834C7.36099 25.3612 7.66654 25.5001 7.99988 25.5001H31.9999C32.3332 25.5001 32.6388 25.3612 32.9165 25.0834C33.1943 24.8056 33.3332 24.5001 33.3332 24.1667V9.66675C33.3332 9.33341 33.1943 9.02786 32.9165 8.75008C32.6388 8.4723 32.3332 8.33341 31.9999 8.33341H7.99988C7.66654 8.33341 7.36099 8.4723 7.08321 8.75008C6.80543 9.02786 6.66654 9.33341 6.66654 9.66675V24.1667ZM6.66654 24.1667V8.33341V25.5001V24.1667Z" fill="#303345"/>
</svg>
