<svg width="40" height="40" viewBox="0 0 40 40" fill="none" xmlns="http://www.w3.org/2000/svg">
<path d="M11.6663 21.6667C11.1941 21.6667 10.7983 21.507 10.4788 21.1876C10.1594 20.8681 9.99967 20.4723 9.99967 20.0001C9.99967 19.5279 10.1594 19.132 10.4788 18.8126C10.7983 18.4931 11.1941 18.3334 11.6663 18.3334C12.1386 18.3334 12.5344 18.4931 12.8538 18.8126C13.1733 19.132 13.333 19.5279 13.333 20.0001C13.333 20.4723 13.1733 20.8681 12.8538 21.1876C12.5344 21.507 12.1386 21.6667 11.6663 21.6667ZM11.6663 27.8334C9.49967 27.8334 7.65245 27.0695 6.12467 25.5417C4.5969 24.014 3.83301 22.1667 3.83301 20.0001C3.83301 17.8334 4.5969 15.9862 6.12467 14.4584C7.65245 12.9306 9.49967 12.1667 11.6663 12.1667C13.333 12.1667 14.833 12.632 16.1663 13.5626C17.4997 14.4931 18.4441 15.6945 18.9997 17.1667H34.5413L37.3747 20.0001L32.708 24.5834L29.9997 22.5417L27.083 24.6667L24.2913 22.8334H18.9997C18.4441 24.2779 17.4997 25.4723 16.1663 26.4167C14.833 27.3612 13.333 27.8334 11.6663 27.8334ZM11.6663 26.6667C13.333 26.6667 14.7427 26.1667 15.8955 25.1667C17.0483 24.1667 17.7775 23.0001 18.083 21.6667H24.6663L27.0413 23.2501L30.0413 21.1251L32.6663 23.0834L35.7497 20.0001L34.083 18.3334H18.083C17.7775 17.0001 17.0483 15.8334 15.8955 14.8334C14.7427 13.8334 13.333 13.3334 11.6663 13.3334C9.83301 13.3334 8.26356 13.9862 6.95801 15.2917C5.65245 16.5973 4.99967 18.1667 4.99967 20.0001C4.99967 21.8334 5.65245 23.4029 6.95801 24.7084C8.26356 26.014 9.83301 26.6667 11.6663 26.6667Z" fill="#303345"/>
</svg>
