<svg width="40" height="40" viewBox="0 0 40 40" fill="none" xmlns="http://www.w3.org/2000/svg">
<path d="M19.9999 34.5C17.9999 34.5 16.1179 34.1181 14.354 33.3542C12.5902 32.5903 11.0554 31.5556 9.74988 30.25C8.44432 28.9445 7.4096 27.4098 6.64571 25.6459C5.88182 23.882 5.49988 22 5.49988 20C5.49988 18 5.88182 16.1181 6.64571 14.3542C7.4096 12.5903 8.44432 11.0556 9.74988 9.75003C11.0554 8.44447 12.5902 7.40975 14.354 6.64586C16.1179 5.88197 17.9999 5.50003 19.9999 5.50003C21.9999 5.50003 23.8818 5.88197 25.6457 6.64586C27.4096 7.40975 28.9443 8.44447 30.2499 9.75003C31.5554 11.0556 32.5902 12.5903 33.354 14.3542C34.1179 16.1181 34.4999 18 34.4999 20C34.4999 22 34.1179 23.882 33.354 25.6459C32.5902 27.4098 31.5554 28.9445 30.2499 30.25C28.9443 31.5556 27.4096 32.5903 25.6457 33.3542C23.8818 34.1181 21.9999 34.5 19.9999 34.5ZM19.9999 33.375C21.0554 32.0417 21.9165 30.75 22.5832 29.5C23.2499 28.25 23.7915 26.8334 24.2082 25.25H15.7915C16.2638 26.9445 16.8193 28.4167 17.4582 29.6667C18.0971 30.9167 18.9443 32.1528 19.9999 33.375ZM18.5415 33.25C17.6804 32.3334 16.8888 31.1459 16.1665 29.6875C15.4443 28.2292 14.9165 26.75 14.5832 25.25H7.74988C8.74988 27.5278 10.2082 29.375 12.1249 30.7917C14.0415 32.2084 16.1804 33.0278 18.5415 33.25ZM21.4582 33.25C23.8193 33.0278 25.9582 32.2084 27.8749 30.7917C29.7915 29.375 31.2499 27.5278 32.2499 25.25H25.4165C24.9443 26.7778 24.3471 28.2709 23.6249 29.7292C22.9027 31.1875 22.1804 32.3611 21.4582 33.25ZM7.29154 24.0834H14.3332C14.1943 23.3611 14.0971 22.6598 14.0415 21.9792C13.986 21.2986 13.9582 20.6389 13.9582 20C13.9582 19.3611 13.986 18.7014 14.0415 18.0209C14.0971 17.3403 14.1943 16.6389 14.3332 15.9167H7.29154C7.0971 16.5 6.94432 17.1528 6.83321 17.875C6.7221 18.5973 6.66654 19.3056 6.66654 20C6.66654 20.6945 6.7221 21.4028 6.83321 22.125C6.94432 22.8473 7.0971 23.5 7.29154 24.0834ZM15.4999 24.0834H24.4999C24.6388 23.3611 24.736 22.6736 24.7915 22.0209C24.8471 21.3681 24.8749 20.6945 24.8749 20C24.8749 19.3056 24.8471 18.632 24.7915 17.9792C24.736 17.3264 24.6388 16.6389 24.4999 15.9167H15.4999C15.361 16.6389 15.2638 17.3264 15.2082 17.9792C15.1527 18.632 15.1249 19.3056 15.1249 20C15.1249 20.6945 15.1527 21.3681 15.2082 22.0209C15.2638 22.6736 15.361 23.3611 15.4999 24.0834ZM25.6665 24.0834H32.7082C32.9027 23.5 33.0554 22.8473 33.1665 22.125C33.2777 21.4028 33.3332 20.6945 33.3332 20C33.3332 19.3056 33.2777 18.5973 33.1665 17.875C33.0554 17.1528 32.9027 16.5 32.7082 15.9167H25.6665C25.8054 16.6389 25.9027 17.3403 25.9582 18.0209C26.0138 18.7014 26.0415 19.3611 26.0415 20C26.0415 20.6389 26.0138 21.2986 25.9582 21.9792C25.9027 22.6598 25.8054 23.3611 25.6665 24.0834ZM25.4165 14.75H32.2499C31.2221 12.4167 29.7846 10.5695 27.9374 9.20836C26.0902 7.84725 23.9304 7.01392 21.4582 6.70836C22.3193 7.76392 23.0971 9.00003 23.7915 10.4167C24.486 11.8334 25.0277 13.2778 25.4165 14.75ZM15.7915 14.75H24.2082C23.736 13.0834 23.1596 11.5903 22.479 10.2709C21.7985 8.95142 20.9721 7.73614 19.9999 6.62503C19.0277 7.73614 18.2013 8.95142 17.5207 10.2709C16.8402 11.5903 16.2638 13.0834 15.7915 14.75ZM7.74988 14.75H14.5832C14.9721 13.2778 15.5138 11.8334 16.2082 10.4167C16.9027 9.00003 17.6804 7.76392 18.5415 6.70836C16.0415 7.01392 13.8749 7.8542 12.0415 9.2292C10.2082 10.6042 8.77766 12.4445 7.74988 14.75Z" fill="#303345"/>
</svg>
