<svg width="24" height="24" viewBox="0 0 24 24" fill="none" xmlns="http://www.w3.org/2000/svg">
    <path d="M10.3637 12.4749C10.3577 12.4808 10.3516 12.4868 10.3456 12.4926L10.3637 12.4749Z" fill="#303345"/>
    <path d="M10.4007 12.4382C10.3885 12.4504 10.3758 12.463 10.3637 12.4749L10.4007 12.4382Z" fill="#303345"/>
    <path d="M9.81332 12.5928L12.3302 15.1621L11.9232 16.2743L9.055 13.3355L4.00111 18.3644L3.23671 17.6L8.28671 12.55L7.96852 12.2318C7.41033 11.6736 6.90158 11.0333 6.44299 10.3092C6.0888 9.75 5.75442 9.13054 5.44036 8.45001H6.5774C6.87576 9.0132 7.17644 9.51551 7.47987 9.95549C7.82902 10.4618 8.24521 10.964 8.72659 11.4626L9.04469 11.792L9.36852 11.4682C9.95415 10.8826 10.5468 10.0778 11.1493 9.06808C11.7541 8.05432 12.215 7.0789 12.5272 6.14231L12.7247 5.55001H1.45032V4.45001H8.45032V2.45001H9.55032V4.45001H16.5503V5.55001H13.7628L13.6683 5.87401C13.3289 7.03762 12.8179 8.2403 12.1315 9.48235C11.443 10.7282 10.7761 11.6535 10.1361 12.2779L9.81332 12.5928Z" fill="#303345"/>
    <path fill-rule="evenodd" clip-rule="evenodd" d="M14.7568 18.5L13.6818 21.55H12.5522L16.761 10.45H18.2397L22.4484 21.55H21.3188L20.2438 18.5H14.7568ZM17.5003 10.7479L15.0643 17.65H19.9363L17.5003 10.7479Z" fill="#303345"/>
</svg>