<svg width="40" height="40" viewBox="0 0 40 40" fill="none" xmlns="http://www.w3.org/2000/svg">
<path d="M30.9163 14.3335C29.5688 14.3335 28.3986 13.889 27.4057 13.0001C26.4128 12.1112 25.8469 11.0001 25.708 9.6668H14.2497C14.1108 10.889 13.6177 11.9307 12.7705 12.7918C11.9233 13.6529 10.8886 14.1529 9.66634 14.2918V25.7085C10.9997 25.8474 12.1108 26.4133 12.9997 27.4062C13.8886 28.3991 14.333 29.5693 14.333 30.9168C14.333 32.389 13.8261 33.6321 12.8122 34.646C11.7983 35.6599 10.5552 36.1668 9.08301 36.1668C7.61079 36.1668 6.36773 35.6599 5.35384 34.646C4.33995 33.6321 3.83301 32.389 3.83301 30.9168C3.83301 29.5693 4.27745 28.3991 5.16634 27.4062C6.05523 26.4133 7.16634 25.8474 8.49967 25.7085V14.2918C7.16634 14.1529 6.05523 13.5904 5.16634 12.6043C4.27745 11.6182 3.83301 10.4446 3.83301 9.08347C3.83301 7.61124 4.34299 6.36819 5.36297 5.3543C6.38294 4.34041 7.60906 3.83347 9.04134 3.83347C10.4025 3.83347 11.5761 4.27791 12.5622 5.1668C13.5483 6.05569 14.1108 7.1668 14.2497 8.50013H25.708C25.8469 7.1668 26.4128 6.05569 27.4057 5.1668C28.3986 4.27791 29.5688 3.83347 30.9163 3.83347C32.3601 3.83347 33.596 4.34754 34.6241 5.37567C35.6523 6.40378 36.1663 7.63972 36.1663 9.08347C36.1663 10.5557 35.6523 11.7987 34.6241 12.8126C33.596 13.8265 32.3601 14.3335 30.9163 14.3335ZM9.05672 35.0418C10.2131 35.0418 11.1872 34.639 11.9788 33.8335C12.7705 33.0279 13.1663 32.0644 13.1663 30.9431C13.1663 29.7867 12.7705 28.8126 11.9788 28.021C11.1872 27.2293 10.2131 26.8335 9.05672 26.8335C7.93535 26.8335 6.9719 27.2293 6.16634 28.021C5.36079 28.8126 4.95801 29.7867 4.95801 30.9431C4.95801 32.0644 5.36079 33.0279 6.16634 33.8335C6.9719 34.639 7.93535 35.0418 9.05672 35.0418ZM9.05672 13.2085C10.2131 13.2085 11.1872 12.8041 11.9788 11.9953C12.7705 11.1866 13.1663 10.2144 13.1663 9.07867C13.1663 7.94298 12.7705 6.9793 11.9788 6.18763C11.1872 5.39597 10.2131 5.00013 9.05672 5.00013C7.93535 5.00013 6.9719 5.39597 6.16634 6.18763C5.36079 6.9793 4.95801 7.94298 4.95801 9.07867C4.95801 10.2144 5.36079 11.1866 6.16634 11.9953C6.9719 12.8041 7.93535 13.2085 9.05672 13.2085ZM30.9163 36.1668C29.4441 36.1668 28.2011 35.6599 27.1872 34.646C26.1733 33.6321 25.6663 32.3991 25.6663 30.947C25.6663 29.495 26.1733 28.2519 27.1872 27.2179C28.2011 26.1838 29.4441 25.6668 30.9163 25.6668C32.3886 25.6668 33.6316 26.1838 34.6455 27.2179C35.6594 28.2519 36.1663 29.495 36.1663 30.947C36.1663 32.3991 35.6594 33.6321 34.6455 34.646C33.6316 35.6599 32.3886 36.1668 30.9163 36.1668ZM30.9211 35.0418C32.0568 35.0418 33.0205 34.639 33.8122 33.8335C34.6038 33.0279 34.9997 32.0644 34.9997 30.9431C34.9997 29.7867 34.6038 28.8126 33.8122 28.021C33.0205 27.2293 32.0568 26.8335 30.9211 26.8335C29.7854 26.8335 28.8132 27.2293 28.0045 28.021C27.1957 28.8126 26.7913 29.7867 26.7913 30.9431C26.7913 32.0644 27.1957 33.0279 28.0045 33.8335C28.8132 34.639 29.7854 35.0418 30.9211 35.0418ZM30.9211 13.2085C32.0568 13.2085 33.0205 12.8041 33.8122 11.9953C34.6038 11.1866 34.9997 10.2144 34.9997 9.07867C34.9997 7.94298 34.6038 6.9793 33.8122 6.18763C33.0205 5.39597 32.0568 5.00013 30.9211 5.00013C29.7854 5.00013 28.8132 5.39597 28.0045 6.18763C27.1957 6.9793 26.7913 7.94298 26.7913 9.07867C26.7913 10.2144 27.1957 11.1866 28.0045 11.9953C28.8132 12.8041 29.7854 13.2085 30.9211 13.2085Z" fill="#303345"/>
</svg>
