<svg width="40" height="40" viewBox="0 0 40 40" fill="none" xmlns="http://www.w3.org/2000/svg">
<path d="M13.0833 15.2502V14.0835H32.8333V15.2502H13.0833ZM13.0833 20.5835V19.4168H32.8333V20.5835H13.0833ZM13.0833 25.9168V24.7502H32.8333V25.9168H13.0833ZM7.99996 15.5002C7.76385 15.5002 7.56593 15.4163 7.40621 15.2486C7.24649 15.0809 7.16663 14.8731 7.16663 14.6252C7.16663 14.4009 7.24649 14.2128 7.40621 14.0611C7.56593 13.9094 7.76385 13.8335 7.99996 13.8335C8.23607 13.8335 8.43399 13.9094 8.59371 14.0611C8.75343 14.2128 8.83329 14.4009 8.83329 14.6252C8.83329 14.8731 8.75343 15.0809 8.59371 15.2486C8.43399 15.4163 8.23607 15.5002 7.99996 15.5002ZM7.99996 20.7918C7.76385 20.7918 7.56593 20.716 7.40621 20.5642C7.24649 20.4125 7.16663 20.2245 7.16663 20.0002C7.16663 19.7224 7.24649 19.5071 7.40621 19.3543C7.56593 19.2016 7.76385 19.1252 7.99996 19.1252C8.23607 19.1252 8.43399 19.2016 8.59371 19.3543C8.75343 19.5071 8.83329 19.7224 8.83329 20.0002C8.83329 20.2245 8.75343 20.4125 8.59371 20.5642C8.43399 20.716 8.23607 20.7918 7.99996 20.7918ZM7.99996 26.1668C7.76385 26.1668 7.56593 26.083 7.40621 25.9152C7.24649 25.7476 7.16663 25.5397 7.16663 25.2918C7.16663 25.0675 7.24649 24.8795 7.40621 24.7277C7.56593 24.576 7.76385 24.5002 7.99996 24.5002C8.23607 24.5002 8.43399 24.576 8.59371 24.7277C8.75343 24.8795 8.83329 25.0675 8.83329 25.2918C8.83329 25.5397 8.75343 25.7476 8.59371 25.9152C8.43399 26.083 8.23607 26.1668 7.99996 26.1668Z" fill="#303345"/>
</svg>
