<svg width="40" height="40" viewBox="0 0 40 40" fill="none" xmlns="http://www.w3.org/2000/svg">
<path d="M5.5 32.8333V16.0833L16.6667 7.62497L22.625 12.125C22.4306 12.2361 22.25 12.3472 22.0833 12.4583C21.9167 12.5694 21.75 12.6944 21.5833 12.8333L16.6667 9.0833L6.66667 16.6666V31.6666H13.5833V32.8333H5.5ZM17.75 32.8333V30.9072C17.75 30.5524 17.8542 30.2291 18.0625 29.9375C18.2708 29.6458 18.5278 29.4028 18.8333 29.2083C20.0278 28.4861 21.2847 27.9514 22.6042 27.6041C23.9236 27.2569 25.2778 27.0833 26.6667 27.0833C28.0556 27.0833 29.4097 27.2569 30.7292 27.6041C32.0486 27.9514 33.3056 28.4861 34.5 29.2083C34.8056 29.4028 35.0625 29.6458 35.2708 29.9375C35.4792 30.2291 35.5833 30.5524 35.5833 30.9072V32.8333H17.75ZM18.9167 31.6666H34.4167V30.5C33.2222 29.8055 31.9792 29.2569 30.6875 28.8541C29.3958 28.4514 28.0556 28.25 26.6667 28.25C25.2778 28.25 23.9375 28.4514 22.6458 28.8541C21.3542 29.2569 20.1111 29.8055 18.9167 30.5V31.6666ZM26.6716 23.0416C25.585 23.0416 24.6597 22.6613 23.8958 21.9007C23.1319 21.1401 22.75 20.2165 22.75 19.1299C22.75 18.0433 23.1303 17.118 23.8909 16.3541C24.6516 15.5902 25.5752 15.2083 26.6618 15.2083C27.7484 15.2083 28.6736 15.5886 29.4375 16.3492C30.2014 17.1099 30.5833 18.0335 30.5833 19.1201C30.5833 20.2067 30.203 21.1319 29.4424 21.8958C28.6818 22.6597 27.7582 23.0416 26.6716 23.0416ZM26.6667 21.875C27.4167 21.875 28.0625 21.6041 28.6042 21.0625C29.1458 20.5208 29.4167 19.875 29.4167 19.125C29.4167 18.375 29.1458 17.7291 28.6042 17.1875C28.0625 16.6458 27.4167 16.375 26.6667 16.375C25.9167 16.375 25.2708 16.6458 24.7292 17.1875C24.1875 17.7291 23.9167 18.375 23.9167 19.125C23.9167 19.875 24.1875 20.5208 24.7292 21.0625C25.2708 21.6041 25.9167 21.875 26.6667 21.875Z" fill="#303345"/>
</svg>
