<svg width="40" height="40" viewBox="0 0 40 40" fill="none" xmlns="http://www.w3.org/2000/svg">
<path d="M11.3336 34.4999C10.6392 34.4999 10.0489 34.2569 9.56278 33.7707C9.07667 33.2846 8.83362 32.6944 8.83362 31.9999V17.9999C8.83362 17.3055 9.07667 16.7152 9.56278 16.2291C10.0489 15.743 10.6392 15.4999 11.3336 15.4999H13.8336V12.1666C13.8336 10.4444 14.4308 8.98602 15.6253 7.79158C16.8197 6.59713 18.2781 5.99991 20.0003 5.99991C21.7225 5.99991 23.1808 6.59713 24.3753 7.79158C25.5697 8.98602 26.167 10.4444 26.167 12.1666V15.4999H28.667C29.3614 15.4999 29.9517 15.743 30.4378 16.2291C30.9239 16.7152 31.167 17.3055 31.167 17.9999V31.9999C31.167 32.6944 30.9239 33.2846 30.4378 33.7707C29.9517 34.2569 29.3614 34.4999 28.667 34.4999H11.3336ZM11.3336 33.3332H28.667C29.0558 33.3332 29.3753 33.2082 29.6253 32.9582C29.8753 32.7082 30.0003 32.3888 30.0003 31.9999V17.9999C30.0003 17.611 29.8753 17.2916 29.6253 17.0416C29.3753 16.7916 29.0558 16.6666 28.667 16.6666H11.3336C10.9447 16.6666 10.6253 16.7916 10.3753 17.0416C10.1253 17.2916 10.0003 17.611 10.0003 17.9999V31.9999C10.0003 32.3888 10.1253 32.7082 10.3753 32.9582C10.6253 33.2082 10.9447 33.3332 11.3336 33.3332ZM20.0003 27.2499C20.6392 27.2499 21.1739 27.0346 21.6045 26.6041C22.035 26.1735 22.2503 25.6388 22.2503 24.9999C22.2503 24.361 22.035 23.8263 21.6045 23.3957C21.1739 22.9652 20.6392 22.7499 20.0003 22.7499C19.3614 22.7499 18.8267 22.9652 18.3961 23.3957C17.9656 23.8263 17.7503 24.361 17.7503 24.9999C17.7503 25.6388 17.9656 26.1735 18.3961 26.6041C18.8267 27.0346 19.3614 27.2499 20.0003 27.2499ZM15.0003 15.4999H25.0003V12.1666C25.0003 10.7777 24.5142 9.59713 23.542 8.62491C22.5697 7.65269 21.3892 7.16658 20.0003 7.16658C18.6114 7.16658 17.4308 7.65269 16.4586 8.62491C15.4864 9.59713 15.0003 10.7777 15.0003 12.1666V15.4999Z" fill="#303345"/>
</svg>
