<svg width="40" height="40" viewBox="0 0 40 40" fill="none" xmlns="http://www.w3.org/2000/svg">
<path d="M9.66614 32.8334C8.94392 32.8334 8.34669 32.5973 7.87447 32.1251C7.40225 31.6529 7.16614 31.0556 7.16614 30.3334V9.66675C7.16614 8.94453 7.40225 8.3473 7.87447 7.87508C8.34669 7.40286 8.94392 7.16675 9.66614 7.16675H20.0411V8.33341H9.66614C9.3328 8.33341 9.02725 8.4723 8.74947 8.75008C8.47169 9.02786 8.3328 9.33341 8.3328 9.66675V30.3334C8.3328 30.6667 8.47169 30.9723 8.74947 31.2501C9.02725 31.5279 9.3328 31.6667 9.66614 31.6667H20.0411V32.8334H9.66614ZM27.6661 25.1667L26.8328 24.3334L30.5828 20.5834H15.4161V19.4167H30.5828L26.8328 15.6667L27.6661 14.8334L32.8328 20.0001L27.6661 25.1667Z" fill="#303345"/>
</svg>
