<svg width="40" height="40" viewBox="0 0 40 40" fill="none" xmlns="http://www.w3.org/2000/svg">
<path d="M8 31.1668C7.27778 31.1668 6.68056 30.9307 6.20833 30.4585C5.73611 29.9862 5.5 29.389 5.5 28.6668V11.3335C5.5 10.6112 5.73611 10.014 6.20833 9.5418C6.68056 9.06958 7.27778 8.83347 8 8.83347H32C32.7222 8.83347 33.3194 9.06958 33.7917 9.5418C34.2639 10.014 34.5 10.6112 34.5 11.3335V28.6668C34.5 29.389 34.2639 29.9862 33.7917 30.4585C33.3194 30.9307 32.7222 31.1668 32 31.1668H8ZM20 19.7501L6.66667 10.9168V28.6668C6.66667 29.0557 6.79167 29.3751 7.04167 29.6251C7.29167 29.8751 7.61111 30.0001 8 30.0001H32C32.3889 30.0001 32.7083 29.8751 32.9583 29.6251C33.2083 29.3751 33.3333 29.0557 33.3333 28.6668V10.9168L20 19.7501ZM20 18.3335L32.6667 10.0001H7.33333L20 18.3335ZM6.66667 10.9168V10.0001V28.6668C6.66667 29.0557 6.79167 29.3751 7.04167 29.6251C7.29167 29.8751 7.61111 30.0001 8 30.0001H6.66667V10.9168Z" fill="#303345"/>
</svg>
