<svg width="40" height="40" viewBox="0 0 40 40" fill="none" xmlns="http://www.w3.org/2000/svg">
<path d="M22.5003 33.9167V32.75H31.667L22.5003 23.5834V21.9167L32.5003 31.9167V22.75H33.667V33.9167H22.5003ZM11.3336 27.25V25.5834H6.33362V24.4167H15.0003C15.3336 24.4167 15.6392 24.2778 15.917 24C16.1947 23.7223 16.3336 23.4167 16.3336 23.0834V18.5834C16.3336 18.25 16.1947 17.9445 15.917 17.6667C15.6392 17.3889 15.3336 17.25 15.0003 17.25H8.83362C8.1114 17.25 7.51417 17.0139 7.04195 16.5417C6.56973 16.0695 6.33362 15.4723 6.33362 14.75V10.25C6.33362 9.52782 6.56973 8.9306 7.04195 8.45837C7.51417 7.98615 8.1114 7.75004 8.83362 7.75004H11.3336V6.08337H12.5003V7.75004H17.5003V8.91671H8.83362C8.50028 8.91671 8.19473 9.0556 7.91695 9.33337C7.63917 9.61115 7.50028 9.91671 7.50028 10.25V14.75C7.50028 15.0834 7.63917 15.3889 7.91695 15.6667C8.19473 15.9445 8.50028 16.0834 8.83362 16.0834H15.0003C15.7225 16.0834 16.3197 16.3195 16.792 16.7917C17.2642 17.2639 17.5003 17.8612 17.5003 18.5834V23.0834C17.5003 23.8056 17.2642 24.4028 16.792 24.875C16.3197 25.3473 15.7225 25.5834 15.0003 25.5834H12.5003V27.25H11.3336Z" fill="#303345"/>
</svg>
