<svg width="40" height="40" viewBox="0 0 40 40" fill="none" xmlns="http://www.w3.org/2000/svg">
<path d="M19.9999 30.1667C19.6791 30.1667 19.4044 30.0525 19.176 29.824C18.9475 29.5955 18.8333 29.3209 18.8333 29C18.8333 28.6792 18.9475 28.4046 19.176 28.1761C19.4044 27.9476 19.6791 27.8334 19.9999 27.8334C20.3208 27.8334 20.5954 27.9476 20.8239 28.1761C21.0523 28.4046 21.1666 28.6792 21.1666 29C21.1666 29.3209 21.0523 29.5955 20.8239 29.824C20.5954 30.0525 20.3208 30.1667 19.9999 30.1667ZM19.9999 21.1667C19.6791 21.1667 19.4044 21.0525 19.176 20.824C18.9475 20.5955 18.8333 20.3209 18.8333 20C18.8333 19.6792 18.9475 19.4046 19.176 19.1761C19.4044 18.9476 19.6791 18.8334 19.9999 18.8334C20.3208 18.8334 20.5954 18.9476 20.8239 19.1761C21.0523 19.4046 21.1666 19.6792 21.1666 20C21.1666 20.3209 21.0523 20.5955 20.8239 20.824C20.5954 21.0525 20.3208 21.1667 19.9999 21.1667ZM19.9999 12.1667C19.6791 12.1667 19.4044 12.0525 19.176 11.824C18.9475 11.5955 18.8333 11.3209 18.8333 11C18.8333 10.6792 18.9475 10.4046 19.176 10.1761C19.4044 9.94761 19.6791 9.83337 19.9999 9.83337C20.3208 9.83337 20.5954 9.94761 20.8239 10.1761C21.0523 10.4046 21.1666 10.6792 21.1666 11C21.1666 11.3209 21.0523 11.5955 20.8239 11.824C20.5954 12.0525 20.3208 12.1667 19.9999 12.1667Z" fill="#303345"/>
</svg>
