<svg width="40" height="40" viewBox="0 0 40 40" fill="none" xmlns="http://www.w3.org/2000/svg">
<path d="M11 21.1668C10.6792 21.1668 10.4046 21.0526 10.1761 20.8241C9.94761 20.5956 9.83337 20.321 9.83337 20.0002C9.83337 19.6793 9.94761 19.4047 10.1761 19.1762C10.4046 18.9477 10.6792 18.8335 11 18.8335C11.3209 18.8335 11.5955 18.9477 11.824 19.1762C12.0525 19.4047 12.1667 19.6793 12.1667 20.0002C12.1667 20.321 12.0525 20.5956 11.824 20.8241C11.5955 21.0526 11.3209 21.1668 11 21.1668ZM20 21.1668C19.6792 21.1668 19.4046 21.0526 19.1761 20.8241C18.9476 20.5956 18.8334 20.321 18.8334 20.0002C18.8334 19.6793 18.9476 19.4047 19.1761 19.1762C19.4046 18.9477 19.6792 18.8335 20 18.8335C20.3209 18.8335 20.5955 18.9477 20.824 19.1762C21.0525 19.4047 21.1667 19.6793 21.1667 20.0002C21.1667 20.321 21.0525 20.5956 20.824 20.8241C20.5955 21.0526 20.3209 21.1668 20 21.1668ZM29 21.1668C28.6792 21.1668 28.4046 21.0526 28.1761 20.8241C27.9476 20.5956 27.8334 20.321 27.8334 20.0002C27.8334 19.6793 27.9476 19.4047 28.1761 19.1762C28.4046 18.9477 28.6792 18.8335 29 18.8335C29.3209 18.8335 29.5955 18.9477 29.824 19.1762C30.0525 19.4047 30.1667 19.6793 30.1667 20.0002C30.1667 20.321 30.0525 20.5956 29.824 20.8241C29.5955 21.0526 29.3209 21.1668 29 21.1668Z" fill="#303345"/>
</svg>
