<svg width="40" height="40" viewBox="0 0 40 40" fill="none" xmlns="http://www.w3.org/2000/svg">
<path d="M15.0833 25.0834H16.3333L17.5833 21.6667H22.4167L23.6667 25.0834H25L20.5833 13.3334H19.4167L15.0833 25.0834ZM17.9167 20.5L19.9167 15H20.0833L22.0833 20.5H17.9167ZM20 34.5C18 34.5 16.1181 34.125 14.3542 33.375C12.5903 32.625 11.0556 31.5973 9.75 30.2917C8.44444 28.9861 7.40972 27.4584 6.64583 25.7084C5.88194 23.9584 5.5 22.0834 5.5 20.0834C5.5 19.1389 5.58333 18.2084 5.75 17.2917C5.91667 16.375 6.16667 15.4723 6.5 14.5834L7.41667 15.5C7.16667 16.2223 6.97917 16.9584 6.85417 17.7084C6.72917 18.4584 6.66667 19.2223 6.66667 20C6.66667 23.7223 7.95833 26.875 10.5417 29.4584C13.125 32.0417 16.2778 33.3334 20 33.3334C23.7222 33.3334 26.875 32.0417 29.4583 29.4584C32.0417 26.875 33.3333 23.7223 33.3333 20C33.3333 16.2778 32.0417 13.125 29.4583 10.5417C26.875 7.95836 23.7222 6.6667 20 6.6667C19.25 6.6667 18.5069 6.7292 17.7708 6.8542C17.0347 6.9792 16.3056 7.1667 15.5833 7.4167L14.6667 6.50003C15.4722 6.19447 16.2986 5.95142 17.1458 5.77086C17.9931 5.59031 18.8611 5.50003 19.75 5.50003C21.7778 5.50003 23.6875 5.87503 25.4792 6.62503C27.2708 7.37503 28.8333 8.40975 30.1667 9.7292C31.5 11.0486 32.5556 12.5903 33.3333 14.3542C34.1111 16.1181 34.5 18 34.5 20C34.5 22 34.1181 23.882 33.3542 25.6459C32.5903 27.4098 31.5556 28.9445 30.25 30.25C28.9444 31.5556 27.4097 32.5903 25.6458 33.3542C23.8819 34.1181 22 34.5 20 34.5ZM10.0833 11.25C9.77778 11.25 9.50694 11.132 9.27083 10.8959C9.03472 10.6598 8.91667 10.3889 8.91667 10.0834C8.91667 9.77781 9.03472 9.50698 9.27083 9.27086C9.50694 9.03475 9.77778 8.9167 10.0833 8.9167C10.3889 8.9167 10.6597 9.03475 10.8958 9.27086C11.1319 9.50698 11.25 9.77781 11.25 10.0834C11.25 10.3889 11.1319 10.6598 10.8958 10.8959C10.6597 11.132 10.3889 11.25 10.0833 11.25Z" fill="#303345"/>
</svg>
