<svg width="40" height="40" viewBox="0 0 40 40" fill="none" xmlns="http://www.w3.org/2000/svg">
<path d="M20.5832 29.5V28.3333H24.1665C24.5832 28.3333 24.979 28.2361 25.354 28.0417C25.729 27.8472 26.0276 27.5833 26.2498 27.25L31.4165 20L26.2498 12.75C26.0276 12.4167 25.729 12.1528 25.354 11.9583C24.979 11.7639 24.5832 11.6667 24.1665 11.6667H9.6665C9.27762 11.6667 8.95817 11.7917 8.70817 12.0417C8.45817 12.2917 8.33317 12.6111 8.33317 13V16.0833H7.1665V13C7.1665 12.3125 7.4113 11.724 7.90088 11.2344C8.39046 10.7448 8.979 10.5 9.6665 10.5H24.1665C24.7827 10.5 25.3603 10.6528 25.8995 10.9583C26.4386 11.2639 26.8887 11.6667 27.2498 12.1667L32.8332 20L27.2498 27.9167C26.861 28.4167 26.4096 28.8056 25.8957 29.0833C25.3818 29.3611 24.8054 29.5 24.1665 29.5H20.5832ZM9.4165 32.25V27.25H4.4165V26.0833H9.4165V21.0833H10.5832V26.0833H15.5832V27.25H10.5832V32.25H9.4165Z" fill="#303345"/>
</svg>
