<svg width="40" height="40" viewBox="0 0 40 40" fill="none" xmlns="http://www.w3.org/2000/svg">
<path d="M9.66699 32.8337C8.94477 32.8337 8.34755 32.5975 7.87533 32.1253C7.4031 31.6531 7.16699 31.0559 7.16699 30.3337V9.66699C7.16699 8.94477 7.4031 8.34755 7.87533 7.87533C8.34755 7.4031 8.94477 7.16699 9.66699 7.16699H18.3337V8.33366H9.66699C9.33366 8.33366 9.0281 8.47255 8.75033 8.75033C8.47255 9.0281 8.33366 9.33366 8.33366 9.66699V30.3337C8.33366 30.667 8.47255 30.9725 8.75033 31.2503C9.0281 31.5281 9.33366 31.667 9.66699 31.667H30.3337C30.667 31.667 30.9725 31.5281 31.2503 31.2503C31.5281 30.9725 31.667 30.667 31.667 30.3337V21.667H32.8337V30.3337C32.8337 31.0559 32.5975 31.6531 32.1253 32.1253C31.6531 32.5975 31.0559 32.8337 30.3337 32.8337H9.66699ZM16.2503 24.5837L15.417 23.7503L30.8337 8.33366H23.3337V7.16699H32.8337V16.667H31.667V9.16699L16.2503 24.5837Z" fill="#303345"/>
</svg>
