<svg width="40" height="40" viewBox="0 0 40 40" fill="none" xmlns="http://www.w3.org/2000/svg">
<path d="M8.8335 31.1667V30H11.3335V16.3333C11.3335 14.1944 12.021 12.3194 13.396 10.7083C14.771 9.09722 16.5002 8.11111 18.5835 7.75V6.91667C18.5835 6.52314 18.7207 6.18865 18.9952 5.91321C19.2698 5.63774 19.6031 5.5 19.9952 5.5C20.3874 5.5 20.7224 5.63774 21.0002 5.91321C21.2779 6.18865 21.4168 6.52314 21.4168 6.91667V7.75C23.5002 8.11111 25.2293 9.09722 26.6043 10.7083C27.9793 12.3194 28.6668 14.1944 28.6668 16.3333V30H31.1668V31.1667H8.8335ZM19.9928 35.3333C19.3033 35.3333 18.7154 35.0885 18.2293 34.599C17.7432 34.1094 17.5002 33.5208 17.5002 32.8333H22.5002C22.5002 33.5278 22.2547 34.1181 21.7636 34.6042C21.2726 35.0903 20.6823 35.3333 19.9928 35.3333ZM12.5002 30H27.5002V16.3333C27.5002 14.25 26.771 12.4792 25.3127 11.0208C23.8543 9.5625 22.0835 8.83333 20.0002 8.83333C17.9168 8.83333 16.146 9.5625 14.6877 11.0208C13.2293 12.4792 12.5002 14.25 12.5002 16.3333V30Z" fill="#303345"/>
</svg>
