<svg width="40" height="40" viewBox="0 0 40 40" fill="none" xmlns="http://www.w3.org/2000/svg">
<path d="M5.99988 16.2917C5.99988 14.3472 6.36793 12.5278 7.10404 10.8333C7.84016 9.13889 8.8471 7.65278 10.1249 6.375L10.9999 7.16667C9.80543 8.33333 8.86793 9.69444 8.18738 11.25C7.50682 12.8056 7.16654 14.4861 7.16654 16.2917H5.99988ZM32.8332 16.2917C32.8332 14.4861 32.4929 12.7986 31.8124 11.2292C31.1318 9.65972 30.1943 8.29167 28.9999 7.125L29.8749 6.375C31.1527 7.65278 32.1596 9.13889 32.8957 10.8333C33.6318 12.5278 33.9999 14.3472 33.9999 16.2917H32.8332ZM8.83321 31.1667V30H11.3332V16.3333C11.3332 14.1944 12.0207 12.3194 13.3957 10.7083C14.7707 9.09722 16.4999 8.11111 18.5832 7.75V6.91667C18.5832 6.52778 18.7221 6.19444 18.9999 5.91667C19.2777 5.63889 19.611 5.5 19.9999 5.5C20.3888 5.5 20.7221 5.63889 20.9999 5.91667C21.2777 6.19444 21.4165 6.52778 21.4165 6.91667V7.75C23.4999 8.11111 25.229 9.09722 26.604 10.7083C27.979 12.3194 28.6665 14.1944 28.6665 16.3333V30H31.1665V31.1667H8.83321ZM19.9999 35.3333C19.3054 35.3333 18.7152 35.0903 18.229 34.6042C17.7429 34.1181 17.4999 33.5278 17.4999 32.8333H22.4999C22.4999 33.5278 22.2568 34.1181 21.7707 34.6042C21.2846 35.0903 20.6943 35.3333 19.9999 35.3333ZM12.4999 30H27.4999V16.3333C27.4999 14.25 26.7707 12.4792 25.3124 11.0208C23.854 9.5625 22.0832 8.83333 19.9999 8.83333C17.9165 8.83333 16.1457 9.5625 14.6874 11.0208C13.229 12.4792 12.4999 14.25 12.4999 16.3333V30Z" fill="#303345"/>
</svg>
