<svg width="40" height="40" viewBox="0 0 40 40" fill="none" xmlns="http://www.w3.org/2000/svg">
<path d="M8.83325 31.1667V30H11.3333V16.3333C11.3333 15.7778 11.3888 15.2133 11.4999 14.6398C11.611 14.0663 11.7777 13.5197 11.9999 13L12.9166 13.9167C12.7777 14.3073 12.6735 14.7039 12.6041 15.1067C12.5346 15.5095 12.4999 15.9184 12.4999 16.3333V30H27.4999L5.08325 7.75L5.91659 6.91667L34.1666 35.1667L33.3333 36L28.4999 31.1667H8.83325ZM28.6666 24.8333L27.4999 23.6667V16.3333C27.4999 14.25 26.7708 12.4792 25.3124 11.0208C23.8541 9.5625 22.0833 8.83333 19.9999 8.83333C19.0142 8.83333 18.0664 9.00694 17.1565 9.35417C16.2465 9.70139 15.4444 10.2222 14.7499 10.9167L13.9166 10.0833C14.5555 9.47222 15.2708 8.96528 16.0624 8.5625C16.8541 8.15972 17.6944 7.88889 18.5833 7.75V6.91667C18.5833 6.52314 18.7205 6.18865 18.995 5.91321C19.2695 5.63774 19.6029 5.5 19.995 5.5C20.3872 5.5 20.7221 5.63774 20.9999 5.91321C21.2777 6.18865 21.4166 6.52314 21.4166 6.91667V7.75C23.5277 8.05556 25.2638 9.02083 26.6249 10.6458C27.986 12.2708 28.6666 14.1667 28.6666 16.3333V24.8333ZM19.9925 35.3333C19.303 35.3333 18.7152 35.0885 18.2291 34.599C17.743 34.1094 17.4999 33.5208 17.4999 32.8333H22.4999C22.4999 33.5278 22.2544 34.1181 21.7634 34.6042C21.2724 35.0903 20.6821 35.3333 19.9925 35.3333Z" fill="#303345"/>
</svg>
