<svg width="40" height="40" viewBox="0 0 40 40" fill="none" xmlns="http://www.w3.org/2000/svg">
<path d="M19.3333 30.8333H20.5833V28.9167C21.7222 28.8611 22.8542 28.4653 23.9792 27.7292C25.1042 26.9931 25.6667 25.8333 25.6667 24.25C25.6667 23.0833 25.3056 22.1111 24.5833 21.3333C23.8611 20.5556 22.5 19.8056 20.5 19.0833C18.6111 18.4167 17.4306 17.8472 16.9583 17.375C16.4861 16.9028 16.25 16.2222 16.25 15.3333C16.25 14.4444 16.6042 13.6944 17.3125 13.0833C18.0208 12.4722 18.9444 12.1667 20.0833 12.1667C20.9167 12.1667 21.625 12.3542 22.2083 12.7292C22.7917 13.1042 23.2778 13.5833 23.6667 14.1667L24.75 13.75C24.3333 13 23.7569 12.3819 23.0208 11.8958C22.2847 11.4097 21.5 11.1389 20.6667 11.0833V9.16667H19.4167V11.0833C17.9444 11.3056 16.8403 11.8264 16.1042 12.6458C15.3681 13.4653 15 14.3611 15 15.3333C15 16.5 15.375 17.4306 16.125 18.125C16.875 18.8194 18.1667 19.5 20 20.1667C21.8056 20.8333 23.0069 21.4375 23.6042 21.9792C24.2014 22.5208 24.5 23.2778 24.5 24.25C24.5 25.5 24.0417 26.3958 23.125 26.9375C22.2083 27.4792 21.25 27.75 20.25 27.75C19.2778 27.75 18.3958 27.4722 17.6042 26.9167C16.8125 26.3611 16.1667 25.5833 15.6667 24.5833L14.5833 25.0833C15.0833 26.1667 15.7292 27 16.5208 27.5833C17.3125 28.1667 18.25 28.5833 19.3333 28.8333V30.8333ZM20 34.5C18 34.5 16.1181 34.1181 14.3542 33.3542C12.5903 32.5903 11.0556 31.5556 9.75 30.25C8.44444 28.9444 7.40972 27.4097 6.64583 25.6458C5.88194 23.8819 5.5 22 5.5 20C5.5 18 5.88194 16.1181 6.64583 14.3542C7.40972 12.5903 8.44444 11.0556 9.75 9.75C11.0556 8.44444 12.5903 7.40972 14.3542 6.64583C16.1181 5.88194 18 5.5 20 5.5C22 5.5 23.8819 5.88194 25.6458 6.64583C27.4097 7.40972 28.9444 8.44444 30.25 9.75C31.5556 11.0556 32.5903 12.5903 33.3542 14.3542C34.1181 16.1181 34.5 18 34.5 20C34.5 22 34.1181 23.8819 33.3542 25.6458C32.5903 27.4097 31.5556 28.9444 30.25 30.25C28.9444 31.5556 27.4097 32.5903 25.6458 33.3542C23.8819 34.1181 22 34.5 20 34.5ZM20 33.3333C23.7222 33.3333 26.875 32.0417 29.4583 29.4583C32.0417 26.875 33.3333 23.7222 33.3333 20C33.3333 16.2778 32.0417 13.125 29.4583 10.5417C26.875 7.95833 23.7222 6.66667 20 6.66667C16.2778 6.66667 13.125 7.95833 10.5417 10.5417C7.95833 13.125 6.66667 16.2778 6.66667 20C6.66667 23.7222 7.95833 26.875 10.5417 29.4583C13.125 32.0417 16.2778 33.3333 20 33.3333Z" fill="#303345"/>
</svg>
