<svg width="40" height="40" viewBox="0 0 40 40" fill="none" xmlns="http://www.w3.org/2000/svg">
<path d="M22.2499 20.4167C21.4444 20.4167 20.7708 20.1459 20.2291 19.6042C19.6874 19.0625 19.4166 18.3889 19.4166 17.5834C19.4166 16.7778 19.6874 16.1042 20.2291 15.5625C20.7708 15.0209 21.4444 14.75 22.2499 14.75C23.0555 14.75 23.7291 15.0209 24.2708 15.5625C24.8124 16.1042 25.0833 16.7778 25.0833 17.5834C25.0833 18.3889 24.8124 19.0625 24.2708 19.6042C23.7291 20.1459 23.0555 20.4167 22.2499 20.4167ZM12.3333 25.8334C11.6458 25.8334 11.0572 25.5886 10.5676 25.099C10.078 24.6094 9.83325 24.0209 9.83325 23.3334V11.8334C9.83325 11.1459 10.078 10.5573 10.5676 10.0677C11.0572 9.57817 11.6458 9.33337 12.3333 9.33337H32.1666C32.8541 9.33337 33.4426 9.57817 33.9322 10.0677C34.4218 10.5573 34.6666 11.1459 34.6666 11.8334V23.3334C34.6666 24.0209 34.4218 24.6094 33.9322 25.099C33.4426 25.5886 32.8541 25.8334 32.1666 25.8334H12.3333ZM13.4999 24.6667H30.9999C30.9999 23.9723 31.2447 23.382 31.7343 22.8959C32.2239 22.4098 32.8124 22.1667 33.4999 22.1667V13C32.8055 13 32.2152 12.7552 31.7291 12.2657C31.243 11.7761 30.9999 11.1875 30.9999 10.5H13.4999C13.4999 11.1945 13.2551 11.7848 12.7655 12.2709C12.276 12.757 11.6874 13 10.9999 13V22.1667C11.6944 22.1667 12.2846 22.4115 12.7708 22.9011C13.2569 23.3907 13.4999 23.9792 13.4999 24.6667ZM29.7499 30.3334H7.83325C7.14575 30.3334 6.55721 30.0886 6.06763 29.599C5.57804 29.1094 5.33325 28.5209 5.33325 27.8334V14.25H6.49992V27.8334C6.49992 28.1667 6.63881 28.4723 6.91659 28.75C7.19436 29.0278 7.49992 29.1667 7.83325 29.1667H29.7499V30.3334ZM12.3333 24.6667H10.9999V10.5H12.3333C11.9721 10.5 11.6596 10.632 11.3958 10.8959C11.1319 11.1598 10.9999 11.4723 10.9999 11.8334V23.3334C10.9999 23.6945 11.1319 24.007 11.3958 24.2709C11.6596 24.5348 11.9721 24.6667 12.3333 24.6667Z" fill="#303345"/>
</svg>
