<svg width="40" height="40" viewBox="0 0 40 40" fill="none" xmlns="http://www.w3.org/2000/svg">
<g id="icon / 40 / outline-100 / person-kyc">
<g id="Vector">
<path d="M9 31V28.6935C9 27.8065 9.22072 27.1337 9.66217 26.6754C10.1036 26.2171 10.644 25.8253 11.2833 25.5C12.836 24.7312 14.2974 24.1546 15.6674 23.7702C17.0374 23.3858 18.8945 23.1935 21.2387 23.1935C22.1521 23.1935 22.936 23.2157 23.5906 23.2601C24.2451 23.3044 24.8007 23.371 25.2574 23.4597L24.0701 24.6129C23.7352 24.5538 23.3166 24.5094 22.8142 24.4798C22.3119 24.4503 21.7867 24.4355 21.2387 24.4355C19.0772 24.4355 17.2581 24.6425 15.7815 25.0564C14.305 25.4704 13.0187 25.9731 11.9227 26.5645C11.2833 26.8898 10.8495 27.2151 10.6212 27.5403C10.3928 27.8656 10.2787 28.25 10.2787 28.6935V29.7581H20.782L22.0607 31H9ZM21.2387 18.5806C19.8824 18.5806 18.7213 18.1116 17.7555 17.1735C16.7896 16.2354 16.3067 15.1077 16.3067 13.7903C16.3067 12.473 16.7896 11.3453 17.7555 10.4072C18.7213 9.46905 19.8824 9 21.2387 9C22.595 9 23.7561 9.46905 24.722 10.4072C25.6878 11.3453 26.1707 12.473 26.1707 13.7903C26.1707 15.1077 25.6878 16.2354 24.722 17.1735C23.7561 18.1116 22.595 18.5806 21.2387 18.5806ZM21.2387 17.3387C22.2434 17.3387 23.1034 16.9913 23.8189 16.2964C24.5343 15.6015 24.8921 14.7661 24.8921 13.7903C24.8921 12.8145 24.5343 11.9792 23.8189 11.2843C23.1034 10.5894 22.2434 10.2419 21.2387 10.2419C20.234 10.2419 19.374 10.5894 18.6585 11.2843C17.9431 11.9792 17.5854 12.8145 17.5854 13.7903C17.5854 14.7661 17.9431 15.6015 18.6585 16.2964C19.374 16.9913 20.234 17.3387 21.2387 17.3387Z" fill="#303345"/>
<path fill-rule="evenodd" clip-rule="evenodd" d="M28.0817 28.1429V28.3603H29.091V28.1429C29.091 27.8009 29.1451 27.5292 29.2429 27.3191C29.3373 27.1161 29.5851 26.8223 30.0244 26.4333L30.0252 26.4325C30.335 26.1553 30.5767 25.8576 30.7445 25.5385C30.9157 25.2128 31 24.8549 31 24.4687C31 23.8626 30.7855 23.3304 30.3642 22.882C29.9285 22.4182 29.3172 22.2 28.5637 22.2C28.0215 22.2 27.5504 22.3281 27.1635 22.5974C26.7875 22.8591 26.4903 23.2129 26.2705 23.6526L26.1707 23.8523L27.0756 24.2791L27.1714 24.0943C27.3073 23.832 27.4855 23.615 27.7064 23.4409C27.9036 23.2854 28.1819 23.1962 28.5637 23.1962C29.0314 23.1962 29.3741 23.3262 29.6185 23.5637C29.8683 23.8064 29.9935 24.1065 29.9935 24.4799C29.9935 24.7406 29.9297 24.9688 29.805 25.1703C29.6716 25.3857 29.4679 25.6218 29.1867 25.8781C28.7594 26.2545 28.4563 26.6106 28.3032 26.9467C28.1519 27.2787 28.0817 27.6805 28.0817 28.1429Z" fill="#303345"/>
<path fill-rule="evenodd" clip-rule="evenodd" d="M27.8674 30.2993C27.8674 30.4897 27.9404 30.657 28.0743 30.7918C28.2082 30.9265 28.3745 31 28.5637 31C28.7529 31 28.9192 30.9266 29.0531 30.7918C29.187 30.657 29.26 30.4897 29.26 30.2993C29.26 30.1088 29.187 29.9415 29.0531 29.8068C28.9192 29.672 28.7529 29.5986 28.5637 29.5986C28.3745 29.5986 28.2082 29.672 28.0743 29.8068C27.9404 29.9415 27.8674 30.1088 27.8674 30.2993Z" fill="#303345"/>
</g>
</g>
</svg>
