<svg width="40" height="40" viewBox="0 0 40 40" fill="none" xmlns="http://www.w3.org/2000/svg">
<path d="M19.9999 18.6667C18.7624 18.6667 17.703 18.2261 16.8218 17.3449C15.9405 16.4636 15.4999 15.4042 15.4999 14.1667C15.4999 12.9292 15.9405 11.8699 16.8218 10.9886C17.703 10.1074 18.7624 9.66675 19.9999 9.66675C21.2374 9.66675 22.2968 10.1074 23.178 10.9886C24.0593 11.8699 24.4999 12.9292 24.4999 14.1667C24.4999 15.4042 24.0593 16.4636 23.178 17.3449C22.2968 18.2261 21.2374 18.6667 19.9999 18.6667ZM8.83325 30.3334V28.1667C8.83325 27.5556 9.02075 26.9792 9.39575 26.4376C9.77075 25.8959 10.2777 25.4723 10.9166 25.1667C12.4444 24.4445 13.9652 23.9029 15.4791 23.5417C16.993 23.1806 18.4999 23.0001 19.9999 23.0001C21.4999 23.0001 23.0069 23.1806 24.5208 23.5417C26.0346 23.9029 27.5555 24.4445 29.0833 25.1667C29.7221 25.4723 30.2291 25.8959 30.6041 26.4376C30.9791 26.9792 31.1666 27.5556 31.1666 28.1667V30.3334H8.83325ZM9.99992 29.1667H29.9999V28.1667C29.9999 27.7779 29.868 27.4098 29.6041 27.0626C29.3402 26.7154 28.9721 26.4167 28.4999 26.1667C27.1666 25.5279 25.782 25.0348 24.3463 24.6876C22.9106 24.3404 21.4618 24.1667 19.9999 24.1667C18.5381 24.1667 17.0893 24.3404 15.6535 24.6876C14.2178 25.0348 12.8333 25.5279 11.4999 26.1667C11.0277 26.4167 10.6596 26.7154 10.3958 27.0626C10.1319 27.4098 9.99992 27.7779 9.99992 28.1667V29.1667ZM19.9999 17.5001C20.9166 17.5001 21.7013 17.1737 22.3541 16.5209C23.0069 15.8681 23.3333 15.0834 23.3333 14.1667C23.3333 13.2501 23.0069 12.4654 22.3541 11.8126C21.7013 11.1598 20.9166 10.8334 19.9999 10.8334C19.0833 10.8334 18.2985 11.1598 17.6458 11.8126C16.993 12.4654 16.6666 13.2501 16.6666 14.1667C16.6666 15.0834 16.993 15.8681 17.6458 16.5209C18.2985 17.1737 19.0833 17.5001 19.9999 17.5001Z" fill="#303345"/>
</svg>
