<svg width="40" height="40" viewBox="0 0 40 40" fill="none" xmlns="http://www.w3.org/2000/svg">
<path d="M16.9167 25.5L25.5 20L16.9167 14.5V25.5ZM20.0073 34.5C18.0024 34.5 16.1172 34.1196 14.3517 33.3587C12.5862 32.5979 11.0505 31.5652 9.74446 30.2609C8.43849 28.9565 7.40458 27.4227 6.64275 25.6594C5.88092 23.8962 5.5 22.0121 5.5 20.0073C5.5 18.0024 5.88043 16.1173 6.64129 14.3518C7.40218 12.5863 8.43479 11.0505 9.73913 9.74453C11.0435 8.43853 12.5773 7.40461 14.3406 6.64278C16.1039 5.88095 17.9879 5.50003 19.9928 5.50003C21.9976 5.50003 23.8827 5.88046 25.6483 6.64132C27.4138 7.40221 28.9495 8.43482 30.2555 9.73916C31.5615 11.0435 32.5954 12.5773 33.3573 14.3406C34.1191 16.1039 34.5 17.9879 34.5 19.9928C34.5 21.9976 34.1196 23.8828 33.3587 25.6483C32.5978 27.4138 31.5652 28.9496 30.2609 30.2556C28.9565 31.5615 27.4227 32.5954 25.6594 33.3573C23.8961 34.1191 22.0121 34.5 20.0073 34.5ZM20 33.3334C23.7222 33.3334 26.875 32.0417 29.4583 29.4584C32.0417 26.875 33.3333 23.7223 33.3333 20C33.3333 16.2778 32.0417 13.125 29.4583 10.5417C26.875 7.95836 23.7222 6.6667 20 6.6667C16.2778 6.6667 13.125 7.95836 10.5417 10.5417C7.95833 13.125 6.66667 16.2778 6.66667 20C6.66667 23.7223 7.95833 26.875 10.5417 29.4584C13.125 32.0417 16.2778 33.3334 20 33.3334Z" fill="#303345"/>
</svg>
