<svg width="40" height="40" viewBox="0 0 40 40" fill="none" xmlns="http://www.w3.org/2000/svg">
<path d="M11.9163 23.9167V22.25H7.74963V21.0834H16.083V15.5834H8.9163C8.58574 15.5834 8.30866 15.4716 8.08505 15.248C7.86144 15.0243 7.74963 14.7473 7.74963 14.4167V8.91671C7.74963 8.58615 7.86144 8.30907 8.08505 8.08546C8.30866 7.86185 8.58574 7.75004 8.9163 7.75004H11.9163V6.08337H13.083V7.75004H17.2496V8.91671H8.9163V14.4167H16.083C16.4135 14.4167 16.6906 14.5285 16.9142 14.7521C17.1378 14.9757 17.2496 15.2528 17.2496 15.5834V21.0834C17.2496 21.4139 17.1378 21.691 16.9142 21.9146C16.6906 22.1382 16.4135 22.25 16.083 22.25H13.083V23.9167H11.9163ZM23.2496 33.5L17.6663 27.9167L18.4996 27.0834L23.2496 31.8334L32.7496 22.3334L33.583 23.1667L23.2496 33.5Z" fill="#303345"/>
</svg>
