<svg width="40" height="40" viewBox="0 0 40 40" fill="none" xmlns="http://www.w3.org/2000/svg">
<path d="M5.5 31.1668V8.8335H34.5V31.1668H5.5ZM6.66667 30.0002H33.3333V10.0002H6.66667V30.0002ZM14.4167 27.2502H15.5833V25.5835H17.75C18.0806 25.5835 18.3576 25.4717 18.5813 25.2481C18.8049 25.0245 18.9167 24.7474 18.9167 24.4168V20.5835C18.9167 20.2529 18.8049 19.9759 18.5813 19.7522C18.3576 19.5286 18.0806 19.4168 17.75 19.4168H12.25V15.5835H18.9167V14.4168H15.5833V12.7502H14.4167V14.4168H12.25C11.9194 14.4168 11.6424 14.5286 11.4187 14.7522C11.1951 14.9759 11.0833 15.2529 11.0833 15.5835V19.4168C11.0833 19.7474 11.1951 20.0245 11.4187 20.2481C11.6424 20.4717 11.9194 20.5835 12.25 20.5835H17.75V24.4168H11.0833V25.5835H14.4167V27.2502ZM26.6667 26.5002L29 24.1668H24.3333L26.6667 26.5002ZM24.3333 16.2502H29L26.6667 13.9168L24.3333 16.2502Z" fill="#303345"/>
</svg>
