<svg width="40" height="40" viewBox="0 0 40 40" fill="none" xmlns="http://www.w3.org/2000/svg">
<g id="icon / 40 / outline-100 / progress-activity">
<path id="Vector" d="M19.9865 34.5C17.9954 34.5 16.1199 34.1203 14.3599 33.3608C12.5999 32.6014 11.0629 31.5647 9.74904 30.2508C8.43516 28.9369 7.39849 27.4 6.63904 25.64C5.8796 23.88 5.49988 22.0044 5.49988 20.0133C5.49988 17.9978 5.88182 16.1097 6.64571 14.3492C7.4096 12.5886 8.44432 11.0556 9.74988 9.75C11.0554 8.44444 12.5931 7.40972 14.3628 6.64583C16.1328 5.88194 18.0118 5.5 19.9999 5.5C20.1652 5.5 20.3038 5.55611 20.4157 5.66833C20.5274 5.78028 20.5832 5.91917 20.5832 6.085C20.5832 6.25055 20.5274 6.38889 20.4157 6.5C20.3038 6.61111 20.1652 6.66667 19.9999 6.66667C16.3054 6.66667 13.1596 7.96528 10.5624 10.5625C7.96516 13.1597 6.66654 16.3056 6.66654 20C6.66654 23.6944 7.96516 26.8403 10.5624 29.4375C13.1596 32.0347 16.3054 33.3333 19.9999 33.3333C23.6943 33.3333 26.8402 32.0347 29.4374 29.4375C32.0346 26.8403 33.3332 23.6944 33.3332 20C33.3332 19.8333 33.3893 19.6944 33.5015 19.5833C33.6135 19.4722 33.7524 19.4167 33.9182 19.4167C34.0838 19.4167 34.2221 19.4725 34.3332 19.5842C34.4443 19.6961 34.4999 19.8347 34.4999 20C34.4999 21.9881 34.1179 23.8671 33.354 25.6371C32.5902 27.4068 31.5554 28.9444 30.2499 30.25C28.9443 31.5556 27.4113 32.5903 25.6507 33.3542C23.8902 34.1181 22.0021 34.5 19.9865 34.5Z" fill="#303345"/>
</g>
</svg>
