<svg width="40" height="40" viewBox="0 0 40 40" fill="none" xmlns="http://www.w3.org/2000/svg">
<path d="M5.50024 11.75V5.5H11.7502V6.66667H6.66691V11.75H5.50024ZM5.50024 34.5V28.25H6.66691V33.3333H11.7502V34.5H5.50024ZM28.2502 34.5V33.3333H33.3336V28.25H34.5002V34.5H28.2502ZM33.3336 11.75V6.66667H28.2502V5.5H34.5002V11.75H33.3336ZM27.9586 27.9583H29.8336V29.8333H27.9586V27.9583ZM27.9586 24.2083H29.8336V26.0833H27.9586V24.2083ZM26.0836 26.0833H27.9586V27.9583H26.0836V26.0833ZM24.2086 27.9583H26.0836V29.8333H24.2086V27.9583ZM22.3336 26.0833H24.2086V27.9583H22.3336V26.0833ZM26.0836 22.3333H27.9586V24.2083H26.0836V22.3333ZM24.2086 24.2083H26.0836V26.0833H24.2086V24.2083ZM22.3336 22.3333H24.2086V24.2083H22.3336V22.3333ZM29.8336 10.1667V17.6667H22.3336V10.1667H29.8336ZM17.6669 22.3333V29.8333H10.1669V22.3333H17.6669ZM17.6669 10.1667V17.6667H10.1669V10.1667H17.6669ZM16.5002 28.6667V23.5H11.3336V28.6667H16.5002ZM16.5002 16.5V11.3333H11.3336V16.5H16.5002ZM28.6669 16.5V11.3333H23.5002V16.5H28.6669Z" fill="#303345"/>
</svg>
