<svg width="40" height="40" viewBox="0 0 40 40" fill="none" xmlns="http://www.w3.org/2000/svg">
<path d="M20.1667 30.0417H21.3334V28.375H24.0834C24.25 28.375 24.3889 28.3194 24.5 28.2083C24.6112 28.0972 24.6667 27.9583 24.6667 27.7917V22.7917C24.6667 22.625 24.6112 22.4861 24.5 22.375C24.3889 22.2639 24.25 22.2083 24.0834 22.2083H18V18.375H24.6667V17.2083H21.3334V15.5417H20.1667V17.2083H17.4167C17.25 17.2083 17.1112 17.2639 17 17.375C16.8889 17.4861 16.8334 17.625 16.8334 17.7917V22.7917C16.8334 22.9583 16.8889 23.0972 17 23.2083C17.1112 23.3194 17.25 23.375 17.4167 23.375H23.5V27.2083H16.8334V28.375H20.1667V30.0417ZM11.3334 34.5C10.6112 34.5 10.0139 34.2639 9.54171 33.7917C9.06949 33.3194 8.83337 32.7222 8.83337 32V8C8.83337 7.27778 9.06949 6.68056 9.54171 6.20833C10.0139 5.73611 10.6112 5.5 11.3334 5.5H24.4167L31.1667 12.25V32C31.1667 32.7222 30.9306 33.3194 30.4584 33.7917C29.9862 34.2639 29.3889 34.5 28.6667 34.5H11.3334ZM23.8334 12.8333V6.66667H11.3334C11 6.66667 10.6945 6.80556 10.4167 7.08333C10.1389 7.36111 10 7.66667 10 8V32C10 32.3333 10.1389 32.6389 10.4167 32.9167C10.6945 33.1944 11 33.3333 11.3334 33.3333H28.6667C29 33.3333 29.3056 33.1944 29.5834 32.9167C29.8612 32.6389 30 32.3333 30 32V12.8333H23.8334Z" fill="#303345"/>
</svg>
