<svg width="40" height="40" viewBox="0 0 40 40" fill="none" xmlns="http://www.w3.org/2000/svg">
<path d="M26.2499 27.0834L27.0832 26.25L20.5832 19.749V11.6667H19.4165V20.25L26.2499 27.0834ZM20.0071 34.5C18.0023 34.5 16.1171 34.1196 14.3516 33.3587C12.5861 32.5979 11.0503 31.5652 9.74434 30.2609C8.43836 28.9565 7.40446 27.4227 6.64263 25.6594C5.88079 23.8962 5.49988 22.0121 5.49988 20.0073C5.49988 18.0024 5.88031 16.1173 6.64117 14.3518C7.40206 12.5863 8.43467 11.0505 9.739 9.74453C11.0434 8.43853 12.5772 7.40461 14.3405 6.64278C16.1037 5.88095 17.9878 5.50003 19.9926 5.50003C21.9975 5.50003 23.8826 5.88046 25.6481 6.64132C27.4137 7.40221 28.9494 8.43482 30.2554 9.73916C31.5614 11.0435 32.5953 12.5773 33.3571 14.3406C34.119 16.1039 34.4999 17.9879 34.4999 19.9928C34.4999 21.9976 34.1194 23.8828 33.3586 25.6483C32.5977 27.4138 31.5651 28.9496 30.2608 30.2556C28.9564 31.5615 27.4226 32.5954 25.6593 33.3573C23.896 34.1191 22.012 34.5 20.0071 34.5ZM19.9999 33.3334C23.6943 33.3334 26.8402 32.0348 29.4374 29.4375C32.0346 26.8403 33.3332 23.6945 33.3332 20C33.3332 16.3056 32.0346 13.1598 29.4374 10.5625C26.8402 7.96531 23.6943 6.6667 19.9999 6.6667C16.3054 6.6667 13.1596 7.96531 10.5624 10.5625C7.96516 13.1598 6.66654 16.3056 6.66654 20C6.66654 23.6945 7.96516 26.8403 10.5624 29.4375C13.1596 32.0348 16.3054 33.3334 19.9999 33.3334Z" fill="#303345"/>
</svg>
