<svg width="40" height="40" viewBox="0 0 40 40" fill="none" xmlns="http://www.w3.org/2000/svg">
<path d="M32.4167 33.1667L22 22.7501C21.1667 23.4723 20.2083 24.0279 19.125 24.4167C18.0417 24.8056 16.9722 25.0001 15.9167 25.0001C13.3547 25.0001 11.1864 24.1135 9.41187 22.3402C7.63729 20.5669 6.75 18.4003 6.75 15.8402C6.75 13.2801 7.63663 11.1112 9.40988 9.33341C11.1832 7.55564 13.3498 6.66675 15.9099 6.66675C18.47 6.66675 20.6389 7.55404 22.4167 9.32862C24.1944 11.1032 25.0833 13.2714 25.0833 15.8334C25.0833 16.9723 24.875 18.0834 24.4583 19.1667C24.0417 20.2501 23.5 21.1667 22.8333 21.9167L33.25 32.3334L32.4167 33.1667ZM15.9167 23.8334C18.1667 23.8334 20.0625 23.0626 21.6042 21.5209C23.1458 19.9792 23.9167 18.0834 23.9167 15.8334C23.9167 13.5834 23.1458 11.6876 21.6042 10.1459C20.0625 8.60425 18.1667 7.83341 15.9167 7.83341C13.6667 7.83341 11.7708 8.60425 10.2292 10.1459C8.6875 11.6876 7.91667 13.5834 7.91667 15.8334C7.91667 18.0834 8.6875 19.9792 10.2292 21.5209C11.7708 23.0626 13.6667 23.8334 15.9167 23.8334Z" fill="#303345"/>
</svg>
