<svg width="40" height="40" viewBox="0 0 40 40" fill="none" xmlns="http://www.w3.org/2000/svg">
<path d="M22.9632 19C23.1961 19 23.3924 18.9185 23.5521 18.7556C23.7118 18.5926 23.7917 18.3946 23.7917 18.1618C23.7917 17.929 23.7102 17.7327 23.5472 17.5729C23.3842 17.4132 23.1863 17.3334 22.9534 17.3334C22.7206 17.3334 22.5243 17.4149 22.3646 17.5778C22.2049 17.7408 22.125 17.9388 22.125 18.1716C22.125 18.4044 22.2065 18.6007 22.3695 18.7604C22.5325 18.9202 22.7304 19 22.9632 19ZM17.5466 19C17.7794 19 17.9757 18.9185 18.1354 18.7556C18.2951 18.5926 18.375 18.3946 18.375 18.1618C18.375 17.929 18.2935 17.7327 18.1305 17.5729C17.9675 17.4132 17.7696 17.3334 17.5368 17.3334C17.3039 17.3334 17.1076 17.4149 16.9479 17.5778C16.7882 17.7408 16.7083 17.9388 16.7083 18.1716C16.7083 18.4044 16.7898 18.6007 16.9528 18.7604C17.1158 18.9202 17.3137 19 17.5466 19ZM20.2536 27.5C19.2512 27.5 18.3086 27.3098 17.4259 26.9294C16.5431 26.5489 15.7752 26.0326 15.1222 25.3805C14.4692 24.7283 13.9523 23.9614 13.5714 23.0797C13.1905 22.1981 13 21.2561 13 20.2537C13 19.2512 13.1902 18.3087 13.5706 17.4259C13.9511 16.5431 14.4674 15.7753 15.1196 15.1223C15.7717 14.4693 16.5387 13.9523 17.4203 13.5714C18.3019 13.1905 19.244 13 20.2464 13C21.2488 13 22.1914 13.1902 23.0741 13.5707C23.9569 13.9511 24.7248 14.4674 25.3777 15.1196C26.0307 15.7718 26.5477 16.5387 26.9286 17.4203C27.3095 18.302 27.5 19.244 27.5 20.2464C27.5 21.2488 27.3098 22.1914 26.9294 23.0742C26.5489 23.9569 26.0326 24.7248 25.3804 25.3778C24.7283 26.0308 23.9613 26.5477 23.0797 26.9287C22.1981 27.3096 21.256 27.5 20.2536 27.5ZM20.25 26.9167C22.1111 26.9167 23.6875 26.2709 24.9792 24.9792C26.2708 23.6875 26.9167 22.1111 26.9167 20.25C26.9167 18.3889 26.2708 16.8125 24.9792 15.5209C23.6875 14.2292 22.1111 13.5834 20.25 13.5834C18.3889 13.5834 16.8125 14.2292 15.5208 15.5209C14.2292 16.8125 13.5833 18.3889 13.5833 20.25C13.5833 22.1111 14.2292 23.6875 15.5208 24.9792C16.8125 26.2709 18.3889 26.9167 20.25 26.9167Z" fill="#303345"/>
<path d="M18.1668 22.5322C18.8057 22.1225 19.5001 21.9176 20.2501 21.9176C21.0001 21.9176 21.6946 22.1225 22.3335 22.5322C22.9723 22.9419 23.4585 23.487 23.7918 24.1676H23.1251C22.8196 23.6537 22.4133 23.2475 21.9064 22.9488C21.3994 22.6502 20.8473 22.5009 20.2501 22.5009C19.6529 22.5009 19.1008 22.6502 18.5939 22.9488C18.0869 23.2475 17.6807 23.6537 17.3751 24.1676H16.7085C17.0418 23.487 17.5279 22.9419 18.1668 22.5322Z" fill="#303345"/>
</svg>
