<svg width="40" height="40" viewBox="0 0 40 40" fill="none" xmlns="http://www.w3.org/2000/svg">
<path d="M25.4267 17.5C25.8924 17.5 26.285 17.337 26.6044 17.011C26.9239 16.685 27.0836 16.2892 27.0836 15.8235C27.0836 15.3578 26.9206 14.9653 26.5946 14.6458C26.2686 14.3264 25.8728 14.1667 25.4071 14.1667C24.9414 14.1667 24.5489 14.3297 24.2294 14.6556C23.91 14.9816 23.7502 15.3775 23.7502 15.8431C23.7502 16.3088 23.9132 16.7014 24.2392 17.0208C24.5652 17.3403 24.961 17.5 25.4267 17.5ZM14.5934 17.5C15.0591 17.5 15.4516 17.337 15.7711 17.011C16.0905 16.685 16.2502 16.2892 16.2502 15.8235C16.2502 15.3578 16.0873 14.9653 15.7613 14.6458C15.4353 14.3264 15.0395 14.1667 14.5738 14.1667C14.1081 14.1667 13.7155 14.3297 13.3961 14.6556C13.0766 14.9816 12.9169 15.3775 12.9169 15.8431C12.9169 16.3088 13.0799 16.7014 13.4059 17.0208C13.7319 17.3403 14.1277 17.5 14.5934 17.5ZM20.0002 27.8333C21.5002 27.8333 22.8891 27.4236 24.1669 26.6042C25.4447 25.7847 26.4169 24.6944 27.0836 23.3333H25.7502C25.1391 24.3611 24.3266 25.1736 23.3127 25.7708C22.2989 26.3681 21.1947 26.6667 20.0002 26.6667C18.8058 26.6667 17.7016 26.3681 16.6877 25.7708C15.6739 25.1736 14.8614 24.3611 14.2502 23.3333H12.9169C13.5836 24.6944 14.5558 25.7847 15.8336 26.6042C17.1114 27.4236 18.5002 27.8333 20.0002 27.8333ZM20.0075 34.5C18.0027 34.5 16.1175 34.1196 14.352 33.3587C12.5865 32.5978 11.0507 31.5652 9.7447 30.2609C8.43873 28.9565 7.40483 27.4227 6.64299 25.6594C5.88116 23.8961 5.50024 22.0121 5.50024 20.0073C5.50024 18.0024 5.88068 16.1173 6.64154 14.3518C7.40243 12.5862 8.43504 11.0505 9.73937 9.7445C11.0437 8.4385 12.5776 7.40458 14.3408 6.64275C16.1041 5.88092 17.9882 5.5 19.993 5.5C21.9978 5.5 23.883 5.88043 25.6485 6.64129C27.414 7.40218 28.9498 8.43479 30.2557 9.73913C31.5617 11.0435 32.5957 12.5773 33.3575 14.3406C34.1193 16.1039 34.5002 17.9879 34.5002 19.9928C34.5002 21.9976 34.1198 23.8828 33.359 25.6483C32.5981 27.4138 31.5655 28.9495 30.2611 30.2555C28.9568 31.5615 27.4229 32.5954 25.6597 33.3573C23.8964 34.1191 22.0123 34.5 20.0075 34.5ZM20.0002 33.3333C23.7225 33.3333 26.8752 32.0417 29.4586 29.4583C32.0419 26.875 33.3336 23.7222 33.3336 20C33.3336 16.2778 32.0419 13.125 29.4586 10.5417C26.8752 7.95833 23.7225 6.66667 20.0002 6.66667C16.278 6.66667 13.1252 7.95833 10.5419 10.5417C7.95858 13.125 6.66691 16.2778 6.66691 20C6.66691 23.7222 7.95858 26.875 10.5419 29.4583C13.1252 32.0417 16.278 33.3333 20.0002 33.3333Z" fill="#303345"/>
</svg>
