<svg width="40" height="40" viewBox="0 0 40 40" fill="none" xmlns="http://www.w3.org/2000/svg">
<path d="M17.3334 34.5L16.75 29.8334C16.1667 29.6667 15.5209 29.3889 14.8125 29C14.1042 28.6111 13.5139 28.1945 13.0417 27.75L8.75004 29.5834L6.08337 24.9167L9.79171 22.125C9.73615 21.7917 9.68754 21.4445 9.64587 21.0834C9.60421 20.7223 9.58337 20.375 9.58337 20.0417C9.58337 19.7361 9.60421 19.4098 9.64587 19.0625C9.68754 18.7153 9.73615 18.3195 9.79171 17.875L6.08337 15.0834L8.75004 10.5L13 12.2917C13.5556 11.8195 14.1598 11.3959 14.8125 11.0209C15.4653 10.6459 16.0973 10.3611 16.7084 10.1667L17.3334 5.50003H22.6667L23.25 10.2084C23.9723 10.4584 24.6042 10.7431 25.1459 11.0625C25.6875 11.382 26.25 11.7917 26.8334 12.2917L31.25 10.5L33.9167 15.0834L30.0417 18C30.1528 18.3889 30.2153 18.7431 30.2292 19.0625C30.2431 19.382 30.25 19.6945 30.25 20C30.25 20.2778 30.2362 20.5764 30.2084 20.8959C30.1806 21.2153 30.125 21.6111 30.0417 22.0834L33.8334 24.9167L31.1667 29.5834L26.8334 27.7084C26.25 28.2084 25.6667 28.632 25.0834 28.9792C24.5 29.3264 23.8889 29.5973 23.25 29.7917L22.6667 34.5H17.3334ZM18.3334 33.3334H21.5834L22.2084 28.7917C23.0417 28.5695 23.7848 28.2709 24.4375 27.8959C25.0903 27.5209 25.7778 26.9861 26.5 26.2917L30.6667 28.0834L32.3334 25.25L28.6667 22.5C28.8056 22 28.8959 21.5556 28.9375 21.1667C28.9792 20.7778 29 20.3889 29 20C29 19.5834 28.9792 19.1945 28.9375 18.8334C28.8959 18.4723 28.8056 18.0556 28.6667 17.5834L32.4167 14.75L30.75 11.9167L26.4584 13.7084C25.9862 13.1806 25.3264 12.6667 24.4792 12.1667C23.632 11.6667 22.8612 11.3473 22.1667 11.2084L21.6667 6.6667H18.3334L17.8334 11.1667C17 11.3334 16.2362 11.6111 15.5417 12C14.8473 12.3889 14.1389 12.9445 13.4167 13.6667L9.25004 11.9167L7.58337 14.75L11.2084 17.4584C11.0695 17.8195 10.9723 18.2223 10.9167 18.6667C10.8612 19.1111 10.8334 19.5695 10.8334 20.0417C10.8334 20.4584 10.8612 20.875 10.9167 21.2917C10.9723 21.7084 11.0556 22.1111 11.1667 22.5L7.58337 25.25L9.25004 28.0834L13.375 26.3334C14.0417 27 14.7223 27.5278 15.4167 27.9167C16.1112 28.3056 16.9028 28.6111 17.7917 28.8334L18.3334 33.3334ZM19.9167 23.6667C20.9445 23.6667 21.8125 23.3125 22.5209 22.6042C23.2292 21.8959 23.5834 21.0278 23.5834 20C23.5834 18.9723 23.2292 18.1042 22.5209 17.3959C21.8125 16.6875 20.9445 16.3334 19.9167 16.3334C18.8889 16.3334 18.0209 16.6875 17.3125 17.3959C16.6042 18.1042 16.25 18.9723 16.25 20C16.25 21.0278 16.6042 21.8959 17.3125 22.6042C18.0209 23.3125 18.8889 23.6667 19.9167 23.6667Z" fill="#303345"/>
</svg>
