<svg width="40" height="40" viewBox="0 0 40 40" fill="none" xmlns="http://www.w3.org/2000/svg">
<path d="M22.7502 22.25V17.25H17.7502V16.0834H22.7502V11.0834H23.9169V16.0834H28.9169V17.25H23.9169V22.25H22.7502ZM8.00024 34.5C7.27802 34.5 6.6808 34.2639 6.20858 33.7917C5.73636 33.3195 5.50024 32.7223 5.50024 32V14.6667C5.50024 13.9445 5.73636 13.3473 6.20858 12.875C6.6808 12.4028 7.27802 12.1667 8.00024 12.1667H11.3336V8.00003C11.3336 7.27781 11.5697 6.68059 12.0419 6.20836C12.5141 5.73614 13.1114 5.50003 13.8336 5.50003H32.0002C32.7225 5.50003 33.3197 5.73614 33.7919 6.20836C34.2641 6.68059 34.5002 7.27781 34.5002 8.00003V26.1667C34.5002 26.8889 34.2641 27.4861 33.7919 27.9584C33.3197 28.4306 32.7225 28.6667 32.0002 28.6667H27.8336V32C27.8336 32.7223 27.5975 33.3195 27.1252 33.7917C26.653 34.2639 26.0558 34.5 25.3336 34.5H8.00024ZM13.8336 27.5H32.0002C32.3336 27.5 32.6391 27.3611 32.9169 27.0834C33.1947 26.8056 33.3336 26.5 33.3336 26.1667V8.00003C33.3336 7.6667 33.1947 7.36114 32.9169 7.08336C32.6391 6.80559 32.3336 6.6667 32.0002 6.6667H13.8336C13.5002 6.6667 13.1947 6.80559 12.9169 7.08336C12.6391 7.36114 12.5002 7.6667 12.5002 8.00003V26.1667C12.5002 26.5 12.6391 26.8056 12.9169 27.0834C13.1947 27.3611 13.5002 27.5 13.8336 27.5Z" fill="#303345"/>
</svg>
