<svg width="40" height="40" viewBox="0 0 40 40" fill="none" xmlns="http://www.w3.org/2000/svg">
<path d="M12.333 34.75C11.6941 34.75 11.1594 34.5347 10.7288 34.1042C10.2983 33.6736 10.083 33.1389 10.083 32.5C10.083 31.8611 10.2983 31.3264 10.7288 30.8958C11.1594 30.4653 11.6941 30.25 12.333 30.25C12.9719 30.25 13.5066 30.4653 13.9372 30.8958C14.3677 31.3264 14.583 31.8611 14.583 32.5C14.583 33.1389 14.3677 33.6736 13.9372 34.1042C13.5066 34.5347 12.9719 34.75 12.333 34.75ZM27.6663 34.75C27.0275 34.75 26.4927 34.5347 26.0622 34.1042C25.6316 33.6736 25.4163 33.1389 25.4163 32.5C25.4163 31.8611 25.6316 31.3264 26.0622 30.8958C26.4927 30.4653 27.0275 30.25 27.6663 30.25C28.3052 30.25 28.84 30.4653 29.2705 30.8958C29.7011 31.3264 29.9163 31.8611 29.9163 32.5C29.9163 33.1389 29.7011 33.6736 29.2705 34.1042C28.84 34.5347 28.3052 34.75 27.6663 34.75ZM9.66634 8.91666L14.2497 18.5833H25.1247C25.3747 18.5833 25.5969 18.5208 25.7913 18.3958C25.9858 18.2708 26.1525 18.0972 26.2913 17.875L30.583 10.0833C30.7497 9.77777 30.7636 9.50693 30.6247 9.27082C30.4858 9.03471 30.2497 8.91666 29.9163 8.91666H9.66634ZM9.08301 7.74999H29.9163C30.6663 7.74999 31.2288 8.0486 31.6038 8.64582C31.9788 9.24305 31.9997 9.8611 31.6663 10.5L27.2497 18.5833C27.0275 18.9444 26.7427 19.2292 26.3955 19.4375C26.0483 19.6458 25.6663 19.75 25.2497 19.75H13.4997L11.4163 23.5833C11.1941 23.9167 11.1872 24.2778 11.3955 24.6667C11.6038 25.0555 11.9163 25.25 12.333 25.25H29.9163V26.4167H12.333C11.4441 26.4167 10.7844 26.0486 10.3538 25.3125C9.92329 24.5764 9.91634 23.8333 10.333 23.0833L12.9163 18.5L6.74967 5.58332H3.83301V4.41666H7.49967L9.08301 7.74999Z" fill="#303345"/>
</svg>
