<svg width="40" height="40" viewBox="0 0 40 40" fill="none" xmlns="http://www.w3.org/2000/svg">
<path d="M20.0002 31.9168L3.0835 15.0001C5.44461 12.9724 8.07655 11.4376 10.9793 10.396C13.8821 9.3543 16.8891 8.83347 20.0002 8.83347C23.1113 8.83347 26.1182 9.3543 29.021 10.396C31.9238 11.4376 34.5557 12.9724 36.9168 15.0001L36.2502 15.6668C35.5279 15.1668 34.8057 14.7918 34.0835 14.5418C33.3613 14.2918 32.5557 14.1668 31.6668 14.1668C29.5835 14.1668 27.8127 14.9029 26.3543 16.3751C24.896 17.8474 24.1668 19.6112 24.1668 21.6668C24.1668 22.639 24.3196 23.5279 24.6252 24.3335C24.9307 25.139 25.2779 25.7779 25.6668 26.2501L20.0002 31.9168ZM31.5835 31.3335C31.3335 31.3335 31.1321 31.2571 30.9793 31.1043C30.8266 30.9515 30.7502 30.7501 30.7502 30.5001C30.7502 30.2501 30.8266 30.0487 30.9793 29.896C31.1321 29.7432 31.3335 29.6668 31.5835 29.6668C31.8335 29.6668 32.0349 29.7432 32.1877 29.896C32.3404 30.0487 32.4168 30.2501 32.4168 30.5001C32.4168 30.7501 32.3404 30.9515 32.1877 31.1043C32.0349 31.2571 31.8335 31.3335 31.5835 31.3335ZM31.0002 28.0001C31.0002 27.0279 31.1252 26.271 31.3752 25.7293C31.6252 25.1876 32.1668 24.4724 33.0002 23.5835C33.5279 23.0557 33.9099 22.5835 34.146 22.1668C34.3821 21.7501 34.5002 21.3474 34.5002 20.9585C34.5002 20.3474 34.2918 19.771 33.8752 19.2293C33.4585 18.6876 32.7641 18.4168 31.7918 18.4168C31.0418 18.4168 30.4238 18.6112 29.9377 19.0001C29.4516 19.389 29.0557 19.8335 28.7502 20.3335L27.6668 19.8335C28.0557 19.1668 28.5974 18.5696 29.2918 18.0418C29.9863 17.514 30.8196 17.2501 31.7918 17.2501C32.9307 17.2501 33.8613 17.5835 34.5835 18.2501C35.3057 18.9168 35.6668 19.8196 35.6668 20.9585C35.6668 21.5974 35.5279 22.1529 35.2502 22.6251C34.9724 23.0974 34.4168 23.7501 33.5835 24.5835C33.0002 25.1668 32.6182 25.6807 32.4377 26.1251C32.2571 26.5696 32.1668 27.1946 32.1668 28.0001H31.0002Z" fill="#303345"/>
</svg>
