<svg width="40" height="40" viewBox="0 0 40 40" fill="none" xmlns="http://www.w3.org/2000/svg">
<path d="M13 36.1668C12.2778 36.1668 11.6806 35.9307 11.2083 35.4585C10.7361 34.9862 10.5 34.389 10.5 33.6668V6.33347C10.5 5.61124 10.7361 5.01402 11.2083 4.5418C11.6806 4.06958 12.2778 3.83347 13 3.83347H27C27.7222 3.83347 28.3194 4.06958 28.7917 4.5418C29.2639 5.01402 29.5 5.61124 29.5 6.33347V33.6668C29.5 34.389 29.2639 34.9862 28.7917 35.4585C28.3194 35.9307 27.7222 36.1668 27 36.1668H13ZM11.6667 32.2501V33.6668C11.6667 34.0001 11.8056 34.3057 12.0833 34.5835C12.3611 34.8612 12.6667 35.0001 13 35.0001H27C27.3333 35.0001 27.6389 34.8612 27.9167 34.5835C28.1944 34.3057 28.3333 34.0001 28.3333 33.6668V32.2501H11.6667ZM11.6667 31.0835H28.3333V8.9168H11.6667V31.0835ZM11.6667 7.75013H28.3333V6.33347C28.3333 6.00013 28.1944 5.69458 27.9167 5.4168C27.6389 5.13902 27.3333 5.00013 27 5.00013H13C12.6667 5.00013 12.3611 5.13902 12.0833 5.4168C11.8056 5.69458 11.6667 6.00013 11.6667 6.33347V7.75013Z" fill="#303345"/>
</svg>
