<svg width="40" height="40" viewBox="0 0 40 40" fill="none" xmlns="http://www.w3.org/2000/svg">
<path d="M18.708 21H26.4163C26.8886 21 27.2913 20.8334 27.6247 20.5C27.958 20.1667 28.1247 19.7639 28.1247 19.2917C28.1247 18.8195 27.958 18.4098 27.6247 18.0625C27.2913 17.7153 26.8886 17.5417 26.4163 17.5417H25.2497L25.083 16.5C24.9997 15.8056 24.6872 15.2153 24.1455 14.7292C23.6038 14.2431 22.9719 14 22.2497 14C21.6663 14 21.1525 14.1528 20.708 14.4584C20.2636 14.7639 19.9163 15.1667 19.6663 15.6667L19.333 16.3334L18.5413 16.375C17.9302 16.4306 17.4163 16.6667 16.9997 17.0834C16.583 17.5 16.3747 18.0278 16.3747 18.6667C16.3747 19.3056 16.6038 19.8542 17.0622 20.3125C17.5205 20.7709 18.0691 21 18.708 21ZM6.33301 32.3334C5.61079 32.3334 5.01356 32.0973 4.54134 31.625C4.06912 31.1528 3.83301 30.5556 3.83301 29.8334V14.5H4.99967V29.8334C4.99967 30.1667 5.13856 30.4723 5.41634 30.75C5.69412 31.0278 5.99967 31.1667 6.33301 31.1667H31.2497V32.3334H6.33301ZM10.833 27.8334C10.1108 27.8334 9.51356 27.5973 9.04134 27.125C8.56912 26.6528 8.33301 26.0556 8.33301 25.3334V8.00003C8.33301 7.27781 8.56912 6.68059 9.04134 6.20836C9.51356 5.73614 10.1108 5.50003 10.833 5.50003H19.9997L21.6663 7.1667H33.6663C34.3886 7.1667 34.9858 7.40281 35.458 7.87503C35.9302 8.34725 36.1663 8.94447 36.1663 9.6667V25.3334C36.1663 26.0556 35.9302 26.6528 35.458 27.125C34.9858 27.5973 34.3886 27.8334 33.6663 27.8334H10.833ZM10.833 26.6667H33.6663C33.9997 26.6667 34.3052 26.5278 34.583 26.25C34.8608 25.9723 34.9997 25.6667 34.9997 25.3334V9.6667C34.9997 9.33336 34.8608 9.02781 34.583 8.75003C34.3052 8.47225 33.9997 8.33336 33.6663 8.33336H21.1663L19.4997 6.6667H10.833C10.4441 6.6667 10.1247 6.7917 9.87467 7.0417C9.62467 7.2917 9.49967 7.61114 9.49967 8.00003V25.3334C9.49967 25.6667 9.63856 25.9723 9.91634 26.25C10.1941 26.5278 10.4997 26.6667 10.833 26.6667Z" fill="#303345"/>
</svg>
