<svg width="40" height="40" viewBox="0 0 40 40" fill="none" xmlns="http://www.w3.org/2000/svg">
<path d="M9.66602 32.8334C8.94379 32.8334 8.34657 32.5973 7.87435 32.1251C7.40213 31.6529 7.16602 31.0556 7.16602 30.3334V25.0001C7.16602 24.2779 7.40213 23.6806 7.87435 23.2084C8.34657 22.7362 8.94379 22.5001 9.66602 22.5001H30.3327C30.8049 22.5001 31.2216 22.6042 31.5827 22.8126C31.9438 23.0209 32.2355 23.3056 32.4577 23.6667H9.66602C9.27713 23.6667 8.95768 23.7917 8.70768 24.0417C8.45768 24.2917 8.33268 24.6112 8.33268 25.0001V30.3334C8.33268 30.7223 8.45768 31.0417 8.70768 31.2918C8.95768 31.5418 9.27713 31.6668 9.66602 31.6668H23.666V32.8334H9.66602ZM9.66602 17.5417C8.94379 17.5417 8.34657 17.3056 7.87435 16.8334C7.40213 16.3612 7.16602 15.764 7.16602 15.0417V9.66675C7.16602 8.94453 7.40213 8.3473 7.87435 7.87508C8.34657 7.40286 8.94379 7.16675 9.66602 7.16675H30.3327C31.0549 7.16675 31.6521 7.40286 32.1244 7.87508C32.5966 8.3473 32.8327 8.94453 32.8327 9.66675V15.0417C32.8327 15.764 32.5966 16.3612 32.1244 16.8334C31.6521 17.3056 31.0549 17.5417 30.3327 17.5417H9.66602ZM9.66602 16.3751H30.3327C30.7216 16.3751 31.041 16.2501 31.291 16.0001C31.541 15.7501 31.666 15.4306 31.666 15.0417V9.66675C31.666 9.27786 31.541 8.95841 31.291 8.70841C31.041 8.45841 30.7216 8.33341 30.3327 8.33341H9.66602C9.27713 8.33341 8.95768 8.45841 8.70768 8.70841C8.45768 8.95841 8.33268 9.27786 8.33268 9.66675V15.0417C8.33268 15.4306 8.45768 15.7501 8.70768 16.0001C8.95768 16.2501 9.27713 16.3751 9.66602 16.3751ZM31.666 36.6668V32.8334H27.8327V31.6668H31.666V27.8334H32.8327V31.6668H36.666V32.8334H32.8327V36.6668H31.666Z" fill="#303345"/>
</svg>
