<svg width="40" height="40" viewBox="0 0 40 40" fill="none" xmlns="http://www.w3.org/2000/svg">
<path d="M9.66675 32.8333C8.94453 32.8333 8.3473 32.5972 7.87508 32.1249C7.40286 31.6527 7.16675 31.0555 7.16675 30.3333V24.9999C7.16675 24.2777 7.40286 23.6805 7.87508 23.2083C8.3473 22.736 8.94453 22.4999 9.66675 22.4999H30.3334C30.8056 22.4999 31.2223 22.6041 31.5834 22.8124C31.9445 23.0208 32.2362 23.3055 32.4584 23.6666H9.66675C9.27786 23.6666 8.95841 23.7916 8.70841 24.0416C8.45841 24.2916 8.33341 24.611 8.33341 24.9999V30.3333C8.33341 30.7222 8.45841 31.0416 8.70841 31.2916C8.95841 31.5416 9.27786 31.6666 9.66675 31.6666H23.6667V32.8333H9.66675ZM9.66675 17.5416C8.94453 17.5416 8.3473 17.3055 7.87508 16.8333C7.40286 16.361 7.16675 15.7638 7.16675 15.0416V9.6666C7.16675 8.94437 7.40286 8.34715 7.87508 7.87493C8.3473 7.40271 8.94453 7.1666 9.66675 7.1666H30.3334C31.0556 7.1666 31.6529 7.40271 32.1251 7.87493C32.5973 8.34715 32.8334 8.94437 32.8334 9.6666V15.0416C32.8334 15.7638 32.5973 16.361 32.1251 16.8333C31.6529 17.3055 31.0556 17.5416 30.3334 17.5416H9.66675ZM9.66675 16.3749H30.3334C30.7223 16.3749 31.0417 16.2499 31.2917 15.9999C31.5417 15.7499 31.6667 15.4305 31.6667 15.0416V9.6666C31.6667 9.27771 31.5417 8.95826 31.2917 8.70826C31.0417 8.45826 30.7223 8.33326 30.3334 8.33326H9.66675C9.27786 8.33326 8.95841 8.45826 8.70841 8.70826C8.45841 8.95826 8.33341 9.27771 8.33341 9.6666V15.0416C8.33341 15.4305 8.45841 15.7499 8.70841 15.9999C8.95841 16.2499 9.27786 16.3749 9.66675 16.3749ZM31.6667 36.6666V32.8333H27.8334V31.6666H31.6667V27.8333H32.8334V31.6666H36.6667V32.8333H32.8334V36.6666H31.6667Z" fill="#303345"/>
</svg>
