<svg width="40" height="40" viewBox="0 0 40 40" fill="none" xmlns="http://www.w3.org/2000/svg">
<path d="M8.49854 31.6666C7.77631 31.6666 7.17909 31.4305 6.70687 30.9582C6.23465 30.486 5.99854 29.8888 5.99854 29.1666V23.8332C5.99854 23.111 6.23465 22.5138 6.70687 22.0416C7.17909 21.5694 7.77631 21.3332 8.49854 21.3332H29.1652C29.6374 21.3332 30.0541 21.4374 30.4152 21.6457C30.7763 21.8541 31.068 22.1388 31.2902 22.4999H8.49854C8.10965 22.4999 7.7902 22.6249 7.5402 22.8749C7.2902 23.1249 7.1652 23.4444 7.1652 23.8332V29.1666C7.1652 29.5555 7.2902 29.8749 7.5402 30.1249C7.7902 30.3749 8.10965 30.4999 8.49854 30.4999H22.4985V31.6666H8.49854ZM8.49854 16.3749C7.77631 16.3749 7.17909 16.1388 6.70687 15.6666C6.23465 15.1944 5.99854 14.5971 5.99854 13.8749V8.49991C5.99854 7.77769 6.23465 7.18046 6.70687 6.70824C7.17909 6.23602 7.77631 5.99991 8.49854 5.99991H29.1652C29.8874 5.99991 30.4846 6.23602 30.9569 6.70824C31.4291 7.18046 31.6652 7.77769 31.6652 8.49991V13.8749C31.6652 14.5971 31.4291 15.1944 30.9569 15.6666C30.4846 16.1388 29.8874 16.3749 29.1652 16.3749H8.49854ZM8.49854 15.2082H29.1652C29.5541 15.2082 29.8735 15.0832 30.1235 14.8332C30.3735 14.5832 30.4985 14.2638 30.4985 13.8749V8.49991C30.4985 8.11102 30.3735 7.79158 30.1235 7.54158C29.8735 7.29158 29.5541 7.16658 29.1652 7.16658H8.49854C8.10965 7.16658 7.7902 7.29158 7.5402 7.54158C7.2902 7.79158 7.1652 8.11102 7.1652 8.49991V13.8749C7.1652 14.2638 7.2902 14.5832 7.5402 14.8332C7.7902 15.0832 8.10965 15.2082 8.49854 15.2082Z" fill="#303345"/>
<path d="M29.5337 34.4822L35.1911 28.8249L34.3661 27.9999L29.5337 32.8323L26.8232 30.1217L25.9982 30.9467L29.5337 34.4822Z" fill="#303345"/>
</svg>
