<svg width="40" height="40" viewBox="0 0 40 40" fill="none" xmlns="http://www.w3.org/2000/svg">
<path d="M3.5835 21.75C2.86127 21.75 2.26405 21.5139 1.79183 21.0417C1.31961 20.5695 1.0835 19.9723 1.0835 19.25V9.50004C1.0835 9.33337 1.11822 9.17365 1.18766 9.02087C1.25711 8.8681 1.36127 8.72226 1.50016 8.58337L9.00016 1.08337L9.50016 1.58337C9.5835 1.66671 9.65989 1.76393 9.72933 1.87504C9.79877 1.98615 9.8335 2.08337 9.8335 2.16671V2.41671L8.3335 8.91671H16.4168C17.1391 8.91671 17.7363 9.15282 18.2085 9.62504C18.6807 10.0973 18.9168 10.6945 18.9168 11.4167V11.5834C18.9168 11.75 18.9029 11.8959 18.8752 12.0209C18.8474 12.1459 18.8057 12.2778 18.7502 12.4167L15.0835 20.8334C14.9446 21.1112 14.7641 21.3334 14.5418 21.5C14.3196 21.6667 14.0557 21.75 13.7502 21.75H3.5835ZM13.9168 20.5834L17.7502 11.6667V11.4167C17.7502 11.0278 17.6252 10.7084 17.3752 10.4584C17.1252 10.2084 16.8057 10.0834 16.4168 10.0834H6.91683L8.41683 3.33337L2.25016 9.50004V19.25C2.25016 19.6389 2.37516 19.9584 2.62516 20.2084C2.87516 20.4584 3.19461 20.5834 3.5835 20.5834H13.9168ZM31.0002 38.9167L30.5002 38.4167C30.4168 38.3334 30.3404 38.2362 30.271 38.125C30.2016 38.0139 30.1668 37.9167 30.1668 37.8334V37.5834L31.6668 31.0834H23.5835C22.8613 31.0834 22.2641 30.8473 21.7918 30.375C21.3196 29.9028 21.0835 29.3056 21.0835 28.5834V28.4167C21.0835 28.25 21.0974 28.1042 21.1252 27.9792C21.1529 27.8542 21.1946 27.7223 21.2502 27.5834L24.9168 19.1667C25.0557 18.8889 25.2363 18.6667 25.4585 18.5C25.6807 18.3334 25.9446 18.25 26.2502 18.25H36.4168C37.1391 18.25 37.7363 18.4862 38.2085 18.9584C38.6807 19.4306 38.9168 20.0278 38.9168 20.75V30.5C38.9168 30.6667 38.8821 30.8264 38.8127 30.9792C38.7432 31.132 38.6391 31.2778 38.5002 31.4167L31.0002 38.9167ZM26.0835 19.4167L22.2502 28.3334V28.5834C22.2502 28.9723 22.3752 29.2917 22.6252 29.5417C22.8752 29.7917 23.1946 29.9167 23.5835 29.9167H33.0835L31.5835 36.6667L37.7502 30.5V20.75C37.7502 20.3612 37.6252 20.0417 37.3752 19.7917C37.1252 19.5417 36.8057 19.4167 36.4168 19.4167H26.0835ZM2.25016 19.25V9.50004V20.5834V19.25ZM37.7502 20.75V30.5V19.4167V20.75Z" fill="#303345"/>
</svg>
