<svg width="40" height="40" viewBox="0 0 40 40" fill="none" xmlns="http://www.w3.org/2000/svg">
<path d="M4.99963 28.9167C4.36075 28.9167 3.82602 28.7014 3.39547 28.2709C2.96491 27.8403 2.74963 27.3056 2.74963 26.6667C2.74963 26.0278 2.96491 25.4931 3.39547 25.0625C3.82602 24.632 4.36075 24.4167 4.99963 24.4167C5.22186 24.4167 5.43019 24.4375 5.62463 24.4792C5.81908 24.5209 5.99963 24.6112 6.1663 24.75L14.7496 16.1667C14.6107 16 14.5205 15.8195 14.4788 15.625C14.4371 15.4306 14.4163 15.2223 14.4163 15C14.4163 14.3612 14.6316 13.8264 15.0621 13.3959C15.4927 12.9653 16.0274 12.75 16.6663 12.75C17.3052 12.75 17.8399 12.9653 18.2705 13.3959C18.701 13.8264 18.9163 14.3612 18.9163 15C18.9163 15.1667 18.833 15.5278 18.6663 16.0834L23.9163 21.3334C24.083 21.25 24.2496 21.1875 24.4163 21.1459C24.583 21.1042 24.7774 21.0834 24.9996 21.0834C25.2219 21.0834 25.4232 21.1042 25.6038 21.1459C25.7844 21.1875 25.9441 21.2778 26.083 21.4167L33.083 14.4167C32.9441 14.2778 32.8538 14.1181 32.8121 13.9375C32.7705 13.757 32.7496 13.5556 32.7496 13.3334C32.7496 12.6945 32.9649 12.1598 33.3955 11.7292C33.826 11.2987 34.3607 11.0834 34.9996 11.0834C35.6385 11.0834 36.1732 11.2987 36.6038 11.7292C37.0344 12.1598 37.2496 12.6945 37.2496 13.3334C37.2496 13.9723 37.0344 14.507 36.6038 14.9375C36.1732 15.3681 35.6385 15.5834 34.9996 15.5834C34.7774 15.5834 34.576 15.5625 34.3955 15.5209C34.2149 15.4792 34.0552 15.3889 33.9163 15.25L26.9163 22.25C27.0552 22.3889 27.1455 22.5487 27.1871 22.7292C27.2288 22.9098 27.2496 23.1112 27.2496 23.3334C27.2496 23.9723 27.0344 24.507 26.6038 24.9375C26.1732 25.3681 25.6385 25.5834 24.9996 25.5834C24.3607 25.5834 23.826 25.3681 23.3955 24.9375C22.9649 24.507 22.7496 23.9723 22.7496 23.3334C22.7496 23.1112 22.7705 22.9028 22.8121 22.7084C22.8538 22.5139 22.9441 22.3334 23.083 22.1667L17.833 16.9167C17.6663 17.0556 17.4857 17.1459 17.2913 17.1875C17.0969 17.2292 16.8885 17.25 16.6663 17.25C16.4996 17.25 16.1385 17.1667 15.583 17L6.99963 25.5834C7.08297 25.75 7.14547 25.9167 7.18713 26.0834C7.2288 26.25 7.24963 26.4445 7.24963 26.6667C7.24963 27.3056 7.03436 27.8403 6.6038 28.2709C6.17325 28.7014 5.63852 28.9167 4.99963 28.9167Z" fill="#303345"/>
</svg>
