<svg width="40" height="40" viewBox="0 0 40 40" fill="none" xmlns="http://www.w3.org/2000/svg">
<path d="M20.0001 17.9167L14.8334 23.0834L15.6667 23.9167L19.4167 20.1667V28.2501H20.5834V20.1667L24.3334 23.9167L25.1667 23.0834L20.0001 17.9167ZM8.33341 12.9167V30.3334C8.33341 30.7223 8.45841 31.0417 8.70841 31.2917C8.95841 31.5417 9.27786 31.6667 9.66675 31.6667H30.3334C30.7223 31.6667 31.0417 31.5417 31.2917 31.2917C31.5417 31.0417 31.6667 30.7223 31.6667 30.3334V12.9167H8.33341ZM10.0001 32.8334C9.30564 32.8334 8.6598 32.5348 8.06258 31.9376C7.46536 31.3404 7.16675 30.6945 7.16675 30.0001V12.9584C7.16675 12.6529 7.21536 12.3681 7.31258 12.1042C7.4098 11.8404 7.55564 11.5973 7.75008 11.3751L10.5001 8.08341C10.7223 7.77786 11.0001 7.54869 11.3334 7.39591C11.6667 7.24314 12.0279 7.16675 12.4167 7.16675H27.5001C27.889 7.16675 28.257 7.24314 28.6042 7.39591C28.9515 7.54869 29.2362 7.77786 29.4584 8.08341L32.2501 11.4584C32.4445 11.6806 32.5904 11.9306 32.6876 12.2084C32.7848 12.4862 32.8334 12.7779 32.8334 13.0834V30.0001C32.8334 30.6945 32.5348 31.3404 31.9376 31.9376C31.3404 32.5348 30.6945 32.8334 30.0001 32.8334H10.0001ZM8.95841 11.7501H31.0001L28.5417 8.79175C28.4029 8.65286 28.2431 8.54175 28.0626 8.45841C27.882 8.37508 27.6945 8.33341 27.5001 8.33341H12.4584C12.264 8.33341 12.0765 8.37508 11.8959 8.45841C11.7154 8.54175 11.5556 8.65286 11.4167 8.79175L8.95841 11.7501Z" fill="#303345"/>
</svg>
