<svg width="40" height="40" viewBox="0 0 40 40" fill="none" xmlns="http://www.w3.org/2000/svg">
<path d="M15.2502 34.7501L12.5835 30.2501L7.50016 29.1668L8.00016 23.9168L4.5835 20.0001L8.00016 16.0834L7.50016 10.8334L12.5835 9.75009L15.2502 5.25009L20.0002 7.25009L24.7502 5.25009L27.4168 9.75009L32.5002 10.8334L32.0002 16.0834L35.4168 20.0001L32.0002 23.9168L32.5002 29.1668L27.4168 30.2501L24.7502 34.7501L20.0002 32.7501L15.2502 34.7501ZM15.7502 33.2501L20.0002 31.5001L24.2502 33.2501L26.6668 29.2501L31.2502 28.2501L30.8335 23.5001L33.9168 20.0001L30.8335 16.5001L31.2502 11.7501L26.6668 10.7501L24.2502 6.75009L20.0002 8.50009L15.7502 6.75009L13.3335 10.7501L8.75016 11.7501L9.16683 16.5001L6.0835 20.0001L9.16683 23.5001L8.75016 28.2501L13.3335 29.2501L15.7502 33.2501ZM18.2502 24.4168L26.1668 16.5001L25.3335 15.6668L18.2502 22.7501L14.6668 19.1668L13.8335 20.0001L18.2502 24.4168Z" fill="#303345"/>
</svg>
