<svg width="40" height="40" viewBox="0 0 40 40" fill="none" xmlns="http://www.w3.org/2000/svg">
<path d="M18.2499 24.4167L26.1666 16.5L25.3333 15.6667L18.2499 22.75L14.6666 19.1667L13.8333 20L18.2499 24.4167ZM19.9999 34.4167C16.8055 33.4167 14.1458 31.4444 12.0208 28.5C9.89575 25.5555 8.83325 22.2222 8.83325 18.5V9.83332L19.9999 5.66666L31.1666 9.83332V18.5C31.1666 22.2222 30.1041 25.5555 27.9791 28.5C25.8541 31.4444 23.1944 33.4167 19.9999 34.4167ZM19.9999 33.1667C22.8888 32.25 25.2777 30.4167 27.1666 27.6667C29.0555 24.9167 29.9999 21.8611 29.9999 18.5V10.625L19.9999 6.91666L9.99992 10.625V18.5C9.99992 21.8611 10.9444 24.9167 12.8333 27.6667C14.7221 30.4167 17.111 32.25 19.9999 33.1667Z" fill="#303345"/>
</svg>
