<svg width="40" height="40" viewBox="0 0 40 40" fill="none" xmlns="http://www.w3.org/2000/svg">
<path d="M25.4167 20.7502L24.4167 19.7502C24.6667 18.2502 24.2431 16.9793 23.1458 15.9377C22.0486 14.896 20.8056 14.5002 19.4167 14.7502L18.4167 13.7502C18.6389 13.6668 18.875 13.6043 19.125 13.5627C19.375 13.521 19.6667 13.5002 20 13.5002C21.5833 13.5002 22.9236 14.0488 24.0208 15.146C25.1181 16.2432 25.6667 17.5835 25.6667 19.1668C25.6667 19.5002 25.6458 19.8057 25.6042 20.0835C25.5625 20.3613 25.5 20.5835 25.4167 20.7502ZM30.6667 25.8335L29.75 25.0835C30.8056 24.2779 31.7431 23.396 32.5625 22.4377C33.3819 21.4793 34.0833 20.3891 34.6667 19.1668C33.2778 16.3613 31.2847 14.1321 28.6875 12.4793C26.0903 10.8266 23.1944 10.0002 20 10.0002C19.1944 10.0002 18.4028 10.0557 17.625 10.1668C16.8472 10.2779 16.0833 10.4446 15.3333 10.6668L14.4167 9.75016C15.3333 9.41683 16.2639 9.18072 17.2083 9.04183C18.1528 8.90294 19.0833 8.8335 20 8.8335C23.4444 8.8335 26.625 9.77794 29.5417 11.6668C32.4583 13.5557 34.6111 16.0557 36 19.1668C35.4167 20.4168 34.6875 21.5974 33.8125 22.7085C32.9375 23.8196 31.8889 24.8613 30.6667 25.8335ZM32.8333 34.5002L26.5 28.1668C25.8333 28.5002 24.9375 28.8057 23.8125 29.0835C22.6875 29.3613 21.4167 29.5002 20 29.5002C16.5278 29.5002 13.3472 28.5557 10.4583 26.6668C7.56944 24.7779 5.41667 22.2779 4 19.1668C4.66667 17.6946 5.55556 16.3127 6.66667 15.021C7.77778 13.7293 8.94445 12.6668 10.1667 11.8335L5.5 7.16683L6.33333 6.3335L33.6667 33.6668L32.8333 34.5002ZM11 12.6668C10 13.3335 8.95139 14.2571 7.85417 15.4377C6.75694 16.6182 5.91667 17.8613 5.33333 19.1668C6.72222 21.9724 8.71528 24.2016 11.3125 25.8543C13.9097 27.5071 16.8056 28.3335 20 28.3335C21.0833 28.3335 22.1806 28.2224 23.2917 28.0002C24.4028 27.7779 25.1944 27.5557 25.6667 27.3335L22.5833 24.2502C22.3333 24.4168 21.9444 24.5557 21.4167 24.6668C20.8889 24.7779 20.4167 24.8335 20 24.8335C18.4167 24.8335 17.0764 24.2849 15.9792 23.1877C14.8819 22.0904 14.3333 20.7502 14.3333 19.1668C14.3333 18.7779 14.3889 18.3266 14.5 17.8127C14.6111 17.2988 14.75 16.8891 14.9167 16.5835L11 12.6668Z" fill="#303345"/>
</svg>
