<svg width="40" height="40" viewBox="0 0 40 40" fill="none" xmlns="http://www.w3.org/2000/svg">
<path d="M20.0098 24.8335C21.5866 24.8335 22.9236 24.2816 24.0208 23.1779C25.1181 22.0741 25.6667 20.7338 25.6667 19.157C25.6667 17.5802 25.1148 16.2432 24.011 15.146C22.9073 14.0488 21.567 13.5002 19.9902 13.5002C18.4134 13.5002 17.0764 14.052 15.9792 15.1558C14.8819 16.2596 14.3333 17.5998 14.3333 19.1766C14.3333 20.7534 14.8852 22.0904 15.989 23.1877C17.0927 24.2849 18.433 24.8335 20.0098 24.8335ZM20 23.6668C18.75 23.6668 17.6875 23.2293 16.8125 22.3543C15.9375 21.4793 15.5 20.4168 15.5 19.1668C15.5 17.9168 15.9375 16.8543 16.8125 15.9793C17.6875 15.1043 18.75 14.6668 20 14.6668C21.25 14.6668 22.3125 15.1043 23.1875 15.9793C24.0625 16.8543 24.5 17.9168 24.5 19.1668C24.5 20.4168 24.0625 21.4793 23.1875 22.3543C22.3125 23.2293 21.25 23.6668 20 23.6668ZM20.006 29.5002C16.5298 29.5002 13.3611 28.5627 10.5 26.6877C7.63889 24.8127 5.47222 22.3057 4 19.1668C5.47222 16.0279 7.6369 13.521 10.494 11.646C13.3512 9.771 16.5178 8.8335 19.994 8.8335C23.4702 8.8335 26.6389 9.771 29.5 11.646C32.3611 13.521 34.5278 16.0279 36 19.1668C34.5278 22.3057 32.3631 24.8127 29.506 26.6877C26.6488 28.5627 23.4822 29.5002 20.006 29.5002ZM20 28.3335C23.1389 28.3335 26.0208 27.5071 28.6458 25.8543C31.2708 24.2016 33.2778 21.9724 34.6667 19.1668C33.2778 16.3613 31.2708 14.1321 28.6458 12.4793C26.0208 10.8266 23.1389 10.0002 20 10.0002C16.8611 10.0002 13.9792 10.8266 11.3542 12.4793C8.72917 14.1321 6.72222 16.3613 5.33333 19.1668C6.72222 21.9724 8.72917 24.2016 11.3542 25.8543C13.9792 27.5071 16.8611 28.3335 20 28.3335Z" fill="#303345"/>
</svg>
