<svg width="40" height="40" viewBox="0 0 40 40" fill="none" xmlns="http://www.w3.org/2000/svg">
<path d="M5.41675 32.8333L20.0001 7.66663L34.5834 32.8333H5.41675ZM7.41675 31.6666H32.5834L20.0001 9.99996L7.41675 31.6666ZM20.0001 29.1666C20.2362 29.1666 20.4341 29.0868 20.5938 28.927C20.7536 28.7673 20.8334 28.5694 20.8334 28.3333C20.8334 28.0972 20.7536 27.8993 20.5938 27.7395C20.4341 27.5798 20.2362 27.5 20.0001 27.5C19.764 27.5 19.5661 27.5798 19.4063 27.7395C19.2466 27.8993 19.1667 28.0972 19.1667 28.3333C19.1667 28.5694 19.2466 28.7673 19.4063 28.927C19.5661 29.0868 19.764 29.1666 20.0001 29.1666ZM19.4167 25.8333H20.5834V17.5H19.4167V25.8333Z" fill="#303345"/>
</svg>
