<svg width="40" height="40" viewBox="0 0 40 40" fill="none" xmlns="http://www.w3.org/2000/svg">
<path d="M27.6668 30.6251H30.8752V27.4168H27.6668V30.6251ZM27.6668 26.2501H30.8752V23.0418H27.6668V26.2501ZM32.0418 30.6251H35.2502V27.4168H32.0418V30.6251ZM26.5002 31.7918V21.8751H32.0418V26.2501H36.4168V31.7918H26.5002ZM20.0002 31.9168L3.0835 15.0001C5.44461 12.9724 8.07655 11.4376 10.9793 10.396C13.8821 9.3543 16.8891 8.83347 20.0002 8.83347C23.1113 8.83347 26.1182 9.3543 29.021 10.396C31.9238 11.4376 34.5557 12.9724 36.9168 15.0001L33.7085 18.2085C33.5696 18.072 33.4307 17.9331 33.2918 17.7918C33.1529 17.6505 33.0141 17.5116 32.8752 17.3751L35.1668 15.0835C32.9724 13.4168 30.5835 12.1529 28.0002 11.2918C25.4168 10.4307 22.7502 10.0001 20.0002 10.0001C17.2502 10.0001 14.5835 10.4307 12.0002 11.2918C9.41683 12.1529 7.02794 13.4168 4.8335 15.0835L20.0002 30.2501L22.7085 27.5418L23.1252 27.9585L23.5418 28.3751L20.0002 31.9168Z" fill="#303345"/>
</svg>
